<svg width="307" height="238" viewBox="0 0 307 238" fill="none" xmlns="http://www.w3.org/2000/svg">
<mask id="mask0_1815_12269" style="mask-type:alpha" maskUnits="userSpaceOnUse" x="0" y="0" width="307" height="238">
<rect width="307" height="238" fill="#D9D9D9"/>
</mask>
<g mask="url(#mask0_1815_12269)">
<path d="M51.9099 219.277C51.9099 219.277 54.8851 278.908 67.7216 289.168H53.9915C53.9915 289.168 41.7437 268.857 40.8291 219.277H51.9099Z" fill="#8E9395"/>
<path d="M38.4223 232.324H60.4262C66.8708 232.324 71.5281 226.532 70.8237 219.393L69.888 209.858C69.1836 202.709 63.3909 196.927 56.9464 196.927H34.9425C28.498 196.927 23.8407 202.719 24.5451 209.858L25.4807 219.393C26.1851 226.542 31.9778 232.324 38.4223 232.324Z" fill="#D3D3D3"/>
<path d="M90.8002 188.231C89.5281 191.469 88.6766 193.53 88.6766 193.53L82.8944 188.494L69.7109 177.024L85.5437 159.878L84.997 154.285C84.997 154.285 96.0567 147.262 100.577 150.51C104.078 153.023 95.079 177.298 90.8002 188.231Z" fill="#485EB0"/>
<path opacity="0.24" d="M90.8014 188.231C89.5293 191.469 88.6777 193.529 88.6777 193.529L82.8955 188.494C81.7811 187.306 80.8349 186.244 80.1306 185.434L79.3105 181.618C79.3105 181.618 85.6394 183.637 90.8014 188.241V188.231Z" fill="#28313B"/>
<path opacity="0.24" d="M94.2576 163.925C94.2576 163.925 82.3148 170.769 75.7861 170.422L82.7773 162.852C85.6264 162.642 88.6857 162.905 91.5137 163.914H94.2576V163.925Z" fill="#28313B"/>
<path d="M192.608 343.859C192.608 343.859 173.496 274.64 170.331 270.666C165.169 264.169 115.684 257.304 115.684 257.304L102.742 234.922L54.8027 245.467C54.8027 245.467 59.4495 274.346 65.1686 282.809C70.8878 291.272 146.225 289.853 151.239 291.503C156.254 293.154 175.178 347.17 175.178 347.17L192.619 343.859H192.608Z" fill="#767587"/>
<path opacity="0.4" d="M192.608 343.859C192.608 343.859 173.496 274.64 170.331 270.666C165.169 264.169 115.684 257.304 115.684 257.304L102.742 234.922L54.8027 245.467C54.8027 245.467 59.4495 274.346 65.1686 282.809C70.8878 291.272 146.225 289.853 151.239 291.503C156.254 293.154 175.178 347.17 175.178 347.17L192.619 343.859H192.608Z" fill="white"/>
<path d="M44.165 168.594V176.248C44.165 176.248 56.5705 177.541 57.6743 176.773C58.7887 176.006 61.7955 173.903 61.7955 173.903L88.6775 163.916L84.9979 154.275L56.3287 169.404L44.165 168.584V168.594Z" fill="#E3B891"/>
<path opacity="0.12" d="M44.165 168.594V176.248C44.165 176.248 56.5705 177.541 57.6743 176.773C58.7887 176.006 61.7955 173.903 61.7955 173.903L88.6775 163.916L84.9979 154.275L56.3287 169.404L44.165 168.584V168.594Z" fill="#28313B"/>
<path d="M72.8535 240.347L74.3989 244.815L104.508 240.042L102.742 234.922L72.8535 240.347Z" fill="#263238"/>
<path d="M88.7198 239.21L89.7396 242.165C89.9919 242.89 90.8014 243.363 91.5479 243.237L96.7203 242.343C97.4667 242.217 97.8767 241.523 97.6349 240.798L96.6152 237.844C96.3629 237.118 95.5533 236.645 94.8069 236.771L89.6345 237.665C88.888 237.791 88.478 238.485 88.7198 239.21Z" fill="white"/>
<path d="M52.7661 245.468L104.133 236.532C95.0183 190.653 73.4559 173.905 73.4559 173.905C73.4559 173.905 69.2191 176.66 64.7195 176.901C58.2435 177.522 51.862 178.489 45.6067 179.803C41.3174 180.665 37.1542 181.822 33.1382 183.272C31.1512 184.608 32.192 194.669 44.8708 224.337C49.0761 234.187 51.8831 242.451 52.7661 245.468Z" fill="#485EB0"/>
<path opacity="0.2" d="M73.5804 174C73.5069 173.937 73.4648 173.905 73.4648 173.905C73.5909 173.905 73.6329 173.937 73.5804 174Z" fill="white"/>
<path d="M77.1357 193.639L86.1139 192.083L90.3507 202.249L86.566 206.086L80.931 204.636L77.1357 193.639Z" fill="#1B348F"/>
<path opacity="0.24" d="M73.1726 211.595C68.1683 214.181 54.2805 216.547 37.4596 205.718C35.2203 199.515 33.8431 194.848 33.0967 191.41C40.8343 178.3 80.4581 206.79 80.4581 206.79L73.1726 211.595Z" fill="#28313B"/>
<path d="M44.165 180.348L59.9557 182.797L61.7955 177.593C61.7955 177.593 57.9687 175.754 58.568 173.798L45.7315 165.03C47.5187 170.781 47.2979 175.428 44.165 180.358V180.348Z" fill="#E3B891"/>
<path opacity="0.2" d="M50.966 168.594L58.567 173.787C58.567 173.787 58.567 173.808 58.567 173.819C58.2621 175.837 56.0228 176.91 54.3092 175.795C52.7743 174.796 51.5022 173.398 51.1868 171.937C50.903 170.844 50.8294 169.708 50.966 168.594Z" fill="#28313B"/>
<path d="M47.6342 147.778C45.889 151.553 49.2742 154.128 59.125 155.421C59.7137 150.281 56.0657 143.195 52.8907 142.774C49.7053 142.354 49.1691 144.498 47.6342 147.778Z" fill="#263238"/>
<path d="M38.267 160.899C42.9138 167.911 45.2898 172.242 51.1035 173.851C59.8714 176.269 66.9152 167.753 64.4551 159.49C62.2368 152.078 55.0038 141.849 46.2254 143.079C39.9491 143.92 35.5441 149.702 36.3852 155.978C36.627 157.745 37.2683 159.427 38.267 160.899Z" fill="#E3B891"/>
<path d="M37.4357 152.782C41.5043 151.983 43.2074 155.883 42.114 165.755C36.9731 165.114 30.9597 159.868 31.3276 156.682C31.6956 153.497 33.8823 153.486 37.4357 152.782Z" fill="#263238"/>
<path d="M38.1625 168.71C39.6869 170.182 41.737 170.981 43.8501 170.95C46.6466 170.876 47.2248 168.164 45.7635 165.956C44.4388 163.958 41.39 161.603 38.9089 162.749C36.4384 163.906 36.3017 166.902 38.1625 168.71Z" fill="#E3B891"/>
<path d="M40.59 155.799C40.59 155.799 37.9091 149.817 40.59 147.704C40.59 147.704 52.2175 146.737 52.9849 145.328C53.7524 143.919 54.7721 138.558 51.5761 136.897C48.3802 135.236 44.5429 134.72 40.0748 136.897C40.0748 136.897 42.3036 136.381 42.7872 137.275C42.7872 137.275 33.5672 137.675 30.6236 147.694C27.6799 157.712 33.9457 159.216 33.9457 159.216L40.59 155.799Z" fill="#263238"/>
<path d="M52.7845 149.081C53.8778 146.064 51.6175 144.613 51.6175 144.613C51.6175 144.613 51.7647 147.073 48.1377 148.072" stroke="#263238" stroke-width="0.5" stroke-linecap="round" stroke-linejoin="round"/>
<path d="M45.3723 176.827C45.3723 176.827 51.9115 179.917 60.1432 181.589C60.1432 181.589 60.4797 178.004 59.0604 175.187L66.2829 177.384C66.2829 177.384 67.7127 182.462 66.6298 185.405L61.142 182.651L56.4111 188.044C56.4111 188.044 45.3303 185.794 42.7861 180.622L45.3723 176.827Z" fill="#1B348F"/>
<path d="M34.7445 185.595C25.4089 191.629 57.4423 211.867 68.2497 212.067C79.0572 212.266 111.353 212.624 111.353 212.624L113.687 213.991C113.687 213.991 126.009 215.294 127.07 213.991C128.132 212.687 131.107 203.467 131.107 203.467C131.107 203.467 117.293 201.606 112.405 206.085C112.405 206.085 72.3078 203.646 71.1093 203.162C69.9108 202.679 34.734 185.595 34.734 185.595H34.7445Z" fill="#E3B891"/>
<path d="M83.7354 153.173L87.2678 165.652L91.515 163.917L88.6765 152.311L83.7354 153.173Z" fill="#0E2C9D"/>
<path opacity="0.4" d="M83.7354 153.173L87.2678 165.652L91.515 163.917L88.6765 152.311L83.7354 153.173Z" fill="white"/>
<path d="M33.1343 183.271C33.1343 183.271 28.908 188.485 31.4101 194.089C33.9123 199.692 60.0478 212.36 60.0478 212.36L68.4688 200.891C68.4688 200.891 39.6104 180.316 33.1343 183.271Z" fill="#485EB0"/>
<path d="M59.2832 212.371L68.2509 200.092L71.983 202.394L65.6331 215.241L59.2832 212.371Z" fill="#0E2C9D"/>
<path opacity="0.4" d="M59.2832 212.371L68.2509 200.092L71.983 202.394L65.6331 215.241L59.2832 212.371Z" fill="white"/>
<path d="M227.495 212.234L226.644 209.017H191.751L175.687 210.625L175.066 212.234H227.495Z" fill="#8E9395"/>
<path opacity="0.4" d="M191.749 209.017V212.234H227.494L226.642 209.017H191.749Z" fill="#AAADAE"/>
<path d="M179.376 193.658C179.218 195.351 180.459 196.728 182.151 196.728H235.6C237.292 196.728 238.796 195.351 238.943 193.658L242.118 159.438C242.15 159.081 242.118 158.755 242.044 158.439C241.739 157.23 240.688 156.368 239.342 156.368H185.894C184.201 156.368 182.698 157.745 182.551 159.438L179.376 193.658Z" fill="#8E9395"/>
<path opacity="0.4" d="M182.342 196.728H235.601C237.294 196.728 238.797 195.351 238.944 193.658L242.119 159.438C242.151 159.081 242.119 158.755 242.045 158.439H188.786C187.104 158.439 185.601 159.817 185.443 161.509L182.268 195.729C182.236 196.087 182.268 196.413 182.342 196.728Z" fill="#D3D3D3"/>
<path d="M219.052 175.743H208.002L210.946 207.398L193.463 210.026V212.234H230.29V210.026L222.742 207.398L219.052 175.743Z" fill="#8E9395"/>
<path opacity="0.1" d="M208.003 175.743L216.193 211.729L222.742 211.53L219.052 175.743H208.003Z" fill="#AAADAE"/>
<path d="M175.895 201.975V202.7L178.397 203.688H175.895V205.391H178.05L180.321 206.874H178.618L180.889 208.198H178.618V211.573L138.479 211.594V209.702L136.965 208.198H138.815V203.972H135.525V202.553H133.885V201.975H175.895Z" fill="#407BFF"/>
<path opacity="0.9" d="M175.895 201.975V202.7L178.397 203.688H175.895V205.391H178.05L180.321 206.874H178.618L180.889 208.198H178.618V211.573L138.479 211.594V209.702L136.965 208.198H138.815V203.972H135.525V202.553H133.885V201.975H175.895Z" fill="white"/>
<path opacity="0.1" d="M175.896 201.975V202.7L178.398 203.688H175.896V205.391H178.051L180.322 206.874H178.619L180.89 208.198H178.619V211.573L156.762 211.594V209.702L155.259 208.198H157.099V203.972H153.808V202.553H152.168V201.975H175.896Z" fill="#28313B"/>
<path opacity="0.1" d="M138.815 203.973H157.098L157.182 205.245L138.815 203.973Z" fill="#28313B"/>
<path opacity="0.1" d="M135.526 202.553H153.809L135.526 203.194V202.553Z" fill="#28313B"/>
<path opacity="0.1" d="M138.815 208.199H157.098L138.815 207.516V208.199Z" fill="#28313B"/>
<path opacity="0.1" d="M138.479 209.701H156.761V210.406L138.479 209.701Z" fill="#28313B"/>
<path opacity="0.1" d="M175.896 202.701L157.099 202.553L175.896 202.133V202.701Z" fill="#28313B"/>
<path opacity="0.1" d="M175.895 203.688H156.761L175.895 204.33V203.688Z" fill="#28313B"/>
<path opacity="0.1" d="M178.618 206.873H157.382V207.514L178.618 206.873Z" fill="#28313B"/>
<path opacity="0.1" d="M178.619 208.198H163.228L178.619 208.619V208.198Z" fill="#28313B"/>
<path d="M206.216 371.623H212.334L223.342 218.469H215.215L206.216 371.623Z" fill="#E1D7C7"/>
<path opacity="0.1" d="M206.207 371.624H212.336L222.807 226.07L223.343 218.711H215.217L214.775 226.07L206.207 371.624Z" fill="#E1D7C7"/>
<path opacity="0.2" d="M214.774 225.702H222.806L223.343 218.711H215.216L214.774 225.702Z" fill="#95651E"/>
<path d="M161.284 371.623H167.402L168.401 218.469H160.274L161.284 371.623Z" fill="#E1D7C7"/>
<path opacity="0.1" d="M160.274 218.711L160.432 243.427L161.273 371.624H167.402L168.243 243.427L168.401 218.711H160.274Z" fill="#A69173"/>
<path opacity="0.2" d="M160.274 218.711L160.432 243.701H168.243L168.401 218.711H160.274Z" fill="#95651E"/>
<path d="M96.2715 371.623H102.401L113.397 218.469H105.271L96.2715 371.623Z" fill="#E1D7C7"/>
<path opacity="0.1" d="M96.2715 371.624H102.401L112.861 226.07L113.397 218.711H105.271L104.84 226.07L96.2715 371.624Z" fill="#A69173"/>
<path opacity="0.2" d="M104.84 225.702H112.861L113.397 218.711H105.271L104.84 225.702Z" fill="#95651E"/>
<path d="M276.256 371.623H282.385L273.385 218.469H265.259L276.256 371.623Z" fill="#E1D7C7"/>
<path opacity="0.1" d="M265.259 218.711L265.795 226.07L276.266 371.624H282.385L273.827 226.07L273.385 218.711H265.259Z" fill="#A69173"/>
<path opacity="0.2" d="M273.385 218.711H265.259L265.795 225.702H273.827L273.385 218.711Z" fill="#95651E"/>
<path d="M277.58 222.297L101.065 222.297C99.835 222.297 98.8257 221.298 98.8257 220.058V214.622L279.809 214.622V220.058C279.809 221.288 278.81 222.297 277.569 222.297H277.58Z" fill="#CDBCA2"/>
<path opacity="0.4" d="M277.58 222.297L101.065 222.297C99.835 222.297 98.8257 221.298 98.8257 220.058V214.622L279.809 214.622V220.058C279.809 221.288 278.81 222.297 277.569 222.297H277.58Z" fill="white"/>
<path opacity="0.2" d="M98.8365 218.459L279.819 218.459V214.622L98.8365 214.622V218.459Z" fill="#95651E"/>
<path d="M95.0426 215.63H283.616C284.814 215.63 285.782 214.663 285.782 213.465C285.782 212.266 284.814 211.299 283.616 211.299H95.0426C93.8442 211.299 92.877 212.266 92.877 213.465C92.877 214.663 93.8442 215.63 95.0426 215.63Z" fill="#FEE8C6"/>
<path d="M170.637 192.511V193.236L173.139 194.224H170.637V195.927H172.792L175.063 197.41H173.36L175.631 198.734H173.36V202.109L133.221 202.13V200.238L131.707 198.734H133.547V194.508H130.256V193.089H128.627V192.511H170.637Z" fill="#407BFF"/>
<path opacity="0.9" d="M170.637 192.511V193.236L173.139 194.224H170.637V195.927H172.792L175.063 197.41H173.36L175.631 198.734H173.36V202.109L133.221 202.13V200.238L131.707 198.734H133.547V194.508H130.256V193.089H128.627V192.511H170.637Z" fill="white"/>
<path opacity="0.1" d="M170.638 192.511V193.236L173.14 194.224H170.638V195.927H172.793L175.064 197.41H173.361L175.632 198.734H173.361V202.109L151.504 202.13V200.238L150.001 198.734H151.841V194.508H148.55V193.089H146.91V192.511H170.638Z" fill="#28313B"/>
<path opacity="0.1" d="M133.546 194.509H151.839L151.923 195.781L133.546 194.509Z" fill="#28313B"/>
<path opacity="0.1" d="M130.257 193.089H148.55L130.257 193.73V193.089Z" fill="#28313B"/>
<path opacity="0.1" d="M133.546 198.735H151.839L133.546 198.052V198.735Z" fill="#28313B"/>
<path opacity="0.1" d="M133.22 200.238H151.502V200.932L133.22 200.238Z" fill="#28313B"/>
<path opacity="0.1" d="M170.638 193.238L151.841 193.09L170.638 192.67V193.238Z" fill="#28313B"/>
<path opacity="0.1" d="M170.637 194.225H151.503L170.637 194.866V194.225Z" fill="#28313B"/>
<path opacity="0.1" d="M173.36 197.409H152.124V198.05L173.36 197.409Z" fill="#28313B"/>
<path opacity="0.1" d="M173.361 198.735H157.97L173.361 199.156V198.735Z" fill="#28313B"/>
<g filter="url(#filter0_d_1815_12269)">
<rect x="219.054" y="16.6797" width="61.1868" height="72.7043" fill="white" shape-rendering="crispEdges"/>
<rect x="224.812" y="34.6758" width="49.6693" height="5.75875" fill="#EBEFF5"/>
<rect x="224.812" y="75.707" width="49.6693" height="2.87938" fill="#EBEFF5"/>
<rect x="262.964" y="80.7461" width="11.5175" height="2.87938" fill="#E3E3E3"/>
<rect x="224.812" y="43.3135" width="2.87938" height="2.87938" fill="#E3E3E3"/>
<rect x="224.812" y="49.0723" width="2.87938" height="2.87938" fill="#E3E3E3"/>
<rect x="224.812" y="54.8311" width="2.87938" height="2.87938" fill="#E3E3E3"/>
<rect x="224.812" y="60.5898" width="2.87938" height="2.87938" fill="#E3E3E3"/>
<rect x="229.132" y="43.3135" width="28.0739" height="2.87938" fill="#E3E3E3"/>
<rect x="229.132" y="49.0723" width="28.0739" height="2.87938" fill="#E3E3E3"/>
<rect x="229.132" y="54.8311" width="28.0739" height="2.87938" fill="#E3E3E3"/>
<rect x="229.132" y="60.5898" width="28.0739" height="2.87938" fill="#E3E3E3"/>
<rect x="262.244" y="43.3135" width="12.2374" height="2.87938" fill="#E3E3E3"/>
<rect x="262.244" y="49.0723" width="12.2374" height="2.87938" fill="#E3E3E3"/>
<rect x="262.244" y="54.8311" width="12.2374" height="2.87938" fill="#E3E3E3"/>
<rect x="262.244" y="60.5898" width="12.2374" height="2.87938" fill="#E3E3E3"/>
<path d="M226.42 32.1885V25.6685H227.89V32.1885H226.42ZM229.428 32.1885V25.6685H230.938L232.638 28.9085L233.278 30.3485H233.318C233.292 30.0018 233.255 29.6151 233.208 29.1885C233.162 28.7618 233.138 28.3551 233.138 27.9685V25.6685H234.538V32.1885H233.028L231.328 28.9385L230.688 27.5185H230.648C230.682 27.8785 230.718 28.2651 230.758 28.6785C230.805 29.0918 230.828 29.4918 230.828 29.8785V32.1885H229.428ZM237.209 32.1885L235.239 25.6685H236.799L237.579 28.7085C237.679 29.0618 237.765 29.4085 237.839 29.7485C237.919 30.0885 238.009 30.4385 238.109 30.7985H238.149C238.242 30.4385 238.329 30.0885 238.409 29.7485C238.489 29.4085 238.575 29.0618 238.669 28.7085L239.439 25.6685H240.939L238.979 32.1885H237.209ZM244.188 32.3085C243.601 32.3085 243.084 32.1718 242.638 31.8985C242.198 31.6251 241.851 31.2351 241.598 30.7285C241.351 30.2151 241.228 29.6051 241.228 28.8985C241.228 28.1851 241.351 27.5818 241.598 27.0885C241.851 26.5885 242.198 26.2085 242.638 25.9485C243.084 25.6818 243.601 25.5485 244.188 25.5485C244.774 25.5485 245.288 25.6818 245.728 25.9485C246.174 26.2085 246.521 26.5885 246.768 27.0885C247.021 27.5885 247.148 28.1918 247.148 28.8985C247.148 29.6051 247.021 30.2151 246.768 30.7285C246.521 31.2351 246.174 31.6251 245.728 31.8985C245.288 32.1718 244.774 32.3085 244.188 32.3085ZM244.188 31.0385C244.634 31.0385 244.988 30.8451 245.248 30.4585C245.508 30.0718 245.638 29.5518 245.638 28.8985C245.638 28.2451 245.508 27.7351 245.248 27.3685C244.988 27.0018 244.634 26.8185 244.188 26.8185C243.741 26.8185 243.388 27.0018 243.128 27.3685C242.868 27.7351 242.738 28.2451 242.738 28.8985C242.738 29.5518 242.868 30.0718 243.128 30.4585C243.388 30.8451 243.741 31.0385 244.188 31.0385ZM226.42 45.1885V38.6685H227.89V45.1885H226.42ZM232.148 45.3085C231.602 45.3085 231.098 45.1818 230.638 44.9285C230.178 44.6751 229.808 44.3018 229.528 43.8085C229.255 43.3085 229.118 42.6951 229.118 41.9685C229.118 41.2485 229.258 40.6351 229.538 40.1285C229.825 39.6151 230.202 39.2251 230.668 38.9585C231.142 38.6851 231.652 38.5485 232.198 38.5485C232.618 38.5485 232.995 38.6351 233.328 38.8085C233.662 38.9751 233.938 39.1718 234.158 39.3985L233.378 40.3385C233.212 40.1851 233.035 40.0618 232.848 39.9685C232.668 39.8685 232.462 39.8185 232.228 39.8185C231.935 39.8185 231.665 39.9018 231.418 40.0685C231.178 40.2351 230.985 40.4751 230.838 40.7885C230.698 41.1018 230.628 41.4785 230.628 41.9185C230.628 42.5851 230.772 43.1051 231.058 43.4785C231.345 43.8518 231.728 44.0385 232.208 44.0385C232.475 44.0385 232.712 43.9785 232.918 43.8585C233.132 43.7385 233.318 43.5951 233.478 43.4285L234.258 44.3485C233.712 44.9885 233.008 45.3085 232.148 45.3085ZM235.249 45.1885V38.6685H239.329V39.9085H236.719V41.2185H238.939V42.4485H236.719V43.9485H239.429V45.1885H235.249Z" fill="#353452"/>
<rect x="260.805" y="22.4385" width="19.4358" height="9.35798" fill="#EBEFF5"/>
<path d="M265.966 27.1314L265.801 27.7073H267.003L266.837 27.1314C266.76 26.8819 266.686 26.6251 266.614 26.3612C266.547 26.0973 266.48 25.8357 266.412 25.5766H266.384C266.321 25.8405 266.254 26.1045 266.182 26.3684C266.115 26.6275 266.043 26.8819 265.966 27.1314ZM264.39 29.6365L265.923 24.9287H266.902L268.435 29.6365H267.557L267.19 28.3624H265.606L265.239 29.6365H264.39Z" fill="#8F8F8F"/>
<path d="M268.584 31.033V26.1021H269.267L269.325 26.4764H269.354C269.503 26.3516 269.668 26.2436 269.851 26.1524C270.038 26.0613 270.227 26.0157 270.419 26.0157C270.861 26.0157 271.201 26.1788 271.441 26.5052C271.686 26.8315 271.808 27.2682 271.808 27.8153C271.808 28.2184 271.737 28.5639 271.593 28.8519C271.449 29.135 271.261 29.351 271.031 29.4997C270.806 29.6485 270.561 29.7229 270.297 29.7229C270.143 29.7229 269.99 29.6893 269.836 29.6221C269.683 29.5501 269.534 29.4541 269.39 29.3342L269.411 29.9244V31.033H268.584ZM270.124 29.039C270.359 29.039 270.556 28.9358 270.714 28.7295C270.873 28.5231 270.952 28.2208 270.952 27.8225C270.952 27.4674 270.892 27.1914 270.772 26.9947C270.652 26.7979 270.458 26.6995 270.189 26.6995C269.939 26.6995 269.68 26.8315 269.411 27.0954V28.7439C269.541 28.8495 269.666 28.9262 269.786 28.9742C269.906 29.0174 270.018 29.039 270.124 29.039Z" fill="#8F8F8F"/>
<path d="M272.287 29.6365V26.1021H272.971L273.028 26.7283H273.057C273.182 26.498 273.333 26.3228 273.511 26.2028C273.688 26.0781 273.871 26.0157 274.058 26.0157C274.226 26.0157 274.36 26.0397 274.461 26.0877L274.317 26.8075C274.254 26.7883 274.197 26.7739 274.144 26.7643C274.091 26.7547 274.026 26.7499 273.95 26.7499C273.811 26.7499 273.664 26.8051 273.511 26.9155C273.357 27.0211 273.225 27.2082 273.115 27.477V29.6365H272.287Z" fill="#8F8F8F"/>
<rect x="221.048" y="18.6738" width="57.1985" height="68.716" stroke="white" stroke-width="3.98824" shape-rendering="crispEdges"/>
</g>
<g filter="url(#filter1_d_1815_12269)">
<rect x="185.867" y="16.6797" width="61.1868" height="72.7043" fill="white" shape-rendering="crispEdges"/>
<rect x="191.626" y="34.6758" width="49.6693" height="5.75875" fill="#EBEFF5"/>
<rect x="191.626" y="75.707" width="49.6693" height="2.87938" fill="#EBEFF5"/>
<rect x="229.777" y="80.7461" width="11.5175" height="2.87938" fill="#E3E3E3"/>
<rect x="191.626" y="43.3135" width="2.87938" height="2.87938" fill="#E3E3E3"/>
<rect x="191.626" y="49.0723" width="2.87938" height="2.87938" fill="#E3E3E3"/>
<rect x="191.626" y="54.8311" width="2.87938" height="2.87938" fill="#E3E3E3"/>
<rect x="191.626" y="60.5898" width="2.87938" height="2.87938" fill="#E3E3E3"/>
<rect x="195.945" y="43.3135" width="28.0739" height="2.87938" fill="#E3E3E3"/>
<rect x="195.945" y="49.0723" width="28.0739" height="2.87938" fill="#E3E3E3"/>
<rect x="195.945" y="54.8311" width="28.0739" height="2.87938" fill="#E3E3E3"/>
<rect x="195.945" y="60.5898" width="28.0739" height="2.87938" fill="#E3E3E3"/>
<rect x="229.058" y="43.3135" width="12.2374" height="2.87938" fill="#E3E3E3"/>
<rect x="229.058" y="49.0723" width="12.2374" height="2.87938" fill="#E3E3E3"/>
<rect x="229.058" y="54.8311" width="12.2374" height="2.87938" fill="#E3E3E3"/>
<rect x="229.058" y="60.5898" width="12.2374" height="2.87938" fill="#E3E3E3"/>
<path d="M193.234 32.1885V25.6685H194.704V32.1885H193.234ZM196.242 32.1885V25.6685H197.752L199.452 28.9085L200.092 30.3485H200.132C200.105 30.0018 200.068 29.6151 200.022 29.1885C199.975 28.7618 199.952 28.3551 199.952 27.9685V25.6685H201.352V32.1885H199.842L198.142 28.9385L197.502 27.5185H197.462C197.495 27.8785 197.532 28.2651 197.572 28.6785C197.618 29.0918 197.642 29.4918 197.642 29.8785V32.1885H196.242ZM204.022 32.1885L202.052 25.6685H203.612L204.392 28.7085C204.492 29.0618 204.579 29.4085 204.652 29.7485C204.732 30.0885 204.822 30.4385 204.922 30.7985H204.962C205.055 30.4385 205.142 30.0885 205.222 29.7485C205.302 29.4085 205.389 29.0618 205.482 28.7085L206.252 25.6685H207.752L205.792 32.1885H204.022ZM211.001 32.3085C210.414 32.3085 209.898 32.1718 209.451 31.8985C209.011 31.6251 208.664 31.2351 208.411 30.7285C208.164 30.2151 208.041 29.6051 208.041 28.8985C208.041 28.1851 208.164 27.5818 208.411 27.0885C208.664 26.5885 209.011 26.2085 209.451 25.9485C209.898 25.6818 210.414 25.5485 211.001 25.5485C211.588 25.5485 212.101 25.6818 212.541 25.9485C212.988 26.2085 213.334 26.5885 213.581 27.0885C213.834 27.5885 213.961 28.1918 213.961 28.8985C213.961 29.6051 213.834 30.2151 213.581 30.7285C213.334 31.2351 212.988 31.6251 212.541 31.8985C212.101 32.1718 211.588 32.3085 211.001 32.3085ZM211.001 31.0385C211.448 31.0385 211.801 30.8451 212.061 30.4585C212.321 30.0718 212.451 29.5518 212.451 28.8985C212.451 28.2451 212.321 27.7351 212.061 27.3685C211.801 27.0018 211.448 26.8185 211.001 26.8185C210.554 26.8185 210.201 27.0018 209.941 27.3685C209.681 27.7351 209.551 28.2451 209.551 28.8985C209.551 29.5518 209.681 30.0718 209.941 30.4585C210.201 30.8451 210.554 31.0385 211.001 31.0385ZM193.234 45.1885V38.6685H194.704V45.1885H193.234ZM198.962 45.3085C198.415 45.3085 197.912 45.1818 197.452 44.9285C196.992 44.6751 196.622 44.3018 196.342 43.8085C196.068 43.3085 195.932 42.6951 195.932 41.9685C195.932 41.2485 196.072 40.6351 196.352 40.1285C196.638 39.6151 197.015 39.2251 197.482 38.9585C197.955 38.6851 198.465 38.5485 199.012 38.5485C199.432 38.5485 199.808 38.6351 200.142 38.8085C200.475 38.9751 200.752 39.1718 200.972 39.3985L200.192 40.3385C200.025 40.1851 199.848 40.0618 199.662 39.9685C199.482 39.8685 199.275 39.8185 199.042 39.8185C198.748 39.8185 198.478 39.9018 198.232 40.0685C197.992 40.2351 197.798 40.4751 197.652 40.7885C197.512 41.1018 197.442 41.4785 197.442 41.9185C197.442 42.5851 197.585 43.1051 197.872 43.4785C198.158 43.8518 198.542 44.0385 199.022 44.0385C199.288 44.0385 199.525 43.9785 199.732 43.8585C199.945 43.7385 200.132 43.5951 200.292 43.4285L201.072 44.3485C200.525 44.9885 199.822 45.3085 198.962 45.3085ZM202.062 45.1885V38.6685H206.142V39.9085H203.532V41.2185H205.752V42.4485H203.532V43.9485H206.242V45.1885H202.062Z" fill="#353452"/>
<rect x="227.618" y="22.4385" width="19.4358" height="9.35798" fill="#EBEFF5"/>
<path d="M230.375 29.6365V24.9287H231.318L232.153 27.2322C232.206 27.381 232.256 27.5345 232.304 27.6929C232.357 27.8465 232.407 28 232.455 28.1536H232.484C232.537 28 232.587 27.8465 232.635 27.6929C232.683 27.5345 232.731 27.381 232.779 27.2322L233.593 24.9287H234.543V29.6365H233.773V27.4842C233.773 27.3354 233.777 27.1746 233.787 27.0019C233.801 26.8243 233.816 26.6467 233.83 26.4692C233.849 26.2916 233.866 26.1309 233.881 25.9869H233.852L233.47 27.081L232.7 29.1974H232.203L231.426 27.081L231.052 25.9869H231.023C231.037 26.1309 231.052 26.2916 231.066 26.4692C231.085 26.6467 231.1 26.8243 231.109 27.0019C231.124 27.1746 231.131 27.3354 231.131 27.4842V29.6365H230.375Z" fill="#8F8F8F"/>
<path d="M236.163 29.7229C235.856 29.7229 235.604 29.6269 235.408 29.4349C235.216 29.243 235.12 28.9934 235.12 28.6863C235.12 28.3072 235.285 28.0144 235.616 27.8081C235.947 27.5969 236.475 27.453 237.2 27.3762C237.195 27.189 237.145 27.0283 237.049 26.8939C236.958 26.7547 236.792 26.6851 236.552 26.6851C236.379 26.6851 236.209 26.7187 236.041 26.7859C235.878 26.8531 235.717 26.9347 235.559 27.0307L235.256 26.4764C235.453 26.3516 235.674 26.2436 235.919 26.1524C236.168 26.0613 236.432 26.0157 236.71 26.0157C237.152 26.0157 237.481 26.1476 237.697 26.4116C237.917 26.6707 238.028 27.0475 238.028 27.5417V29.6365H237.344L237.286 29.2478H237.258C237.099 29.3821 236.929 29.4949 236.746 29.5861C236.569 29.6773 236.375 29.7229 236.163 29.7229ZM236.43 29.075C236.574 29.075 236.703 29.0414 236.818 28.9742C236.938 28.9023 237.066 28.8063 237.2 28.6863V27.8945C236.72 27.9569 236.387 28.0504 236.199 28.1752C236.012 28.2952 235.919 28.444 235.919 28.6215C235.919 28.7799 235.967 28.8951 236.063 28.967C236.159 29.039 236.281 29.075 236.43 29.075Z" fill="#8F8F8F"/>
<path d="M238.659 29.6365V26.1021H239.342L239.4 26.7283H239.429C239.554 26.498 239.705 26.3228 239.882 26.2028C240.06 26.0781 240.242 26.0157 240.429 26.0157C240.597 26.0157 240.732 26.0397 240.832 26.0877L240.689 26.8075C240.626 26.7883 240.569 26.7739 240.516 26.7643C240.463 26.7547 240.398 26.7499 240.321 26.7499C240.182 26.7499 240.036 26.8051 239.882 26.9155C239.729 27.0211 239.597 27.2082 239.486 27.477V29.6365H238.659Z" fill="#8F8F8F"/>
<rect x="187.861" y="18.6738" width="57.1985" height="68.716" stroke="white" stroke-width="3.98824" shape-rendering="crispEdges"/>
</g>
<g filter="url(#filter2_d_1815_12269)">
<rect x="152.681" y="16.6797" width="61.1868" height="72.7043" fill="white" shape-rendering="crispEdges"/>
<rect x="158.439" y="34.6758" width="49.6693" height="5.75875" fill="#EBEFF5"/>
<rect x="158.439" y="75.707" width="49.6693" height="2.87938" fill="#EBEFF5"/>
<rect x="196.591" y="80.7461" width="11.5175" height="2.87938" fill="#E3E3E3"/>
<rect x="158.439" y="43.3135" width="2.87938" height="2.87938" fill="#E3E3E3"/>
<rect x="158.439" y="49.0723" width="2.87938" height="2.87938" fill="#E3E3E3"/>
<rect x="158.439" y="54.8311" width="2.87938" height="2.87938" fill="#E3E3E3"/>
<rect x="158.439" y="60.5898" width="2.87938" height="2.87938" fill="#E3E3E3"/>
<rect x="162.759" y="43.3135" width="28.0739" height="2.87938" fill="#E3E3E3"/>
<rect x="162.759" y="49.0723" width="28.0739" height="2.87938" fill="#E3E3E3"/>
<rect x="162.759" y="54.8311" width="28.0739" height="2.87938" fill="#E3E3E3"/>
<rect x="162.759" y="60.5898" width="28.0739" height="2.87938" fill="#E3E3E3"/>
<rect x="195.871" y="43.3135" width="12.2374" height="2.87938" fill="#E3E3E3"/>
<rect x="195.871" y="49.0723" width="12.2374" height="2.87938" fill="#E3E3E3"/>
<rect x="195.871" y="54.8311" width="12.2374" height="2.87938" fill="#E3E3E3"/>
<rect x="195.871" y="60.5898" width="12.2374" height="2.87938" fill="#E3E3E3"/>
<path d="M160.047 32.1885V25.6685H161.517V32.1885H160.047ZM163.055 32.1885V25.6685H164.565L166.265 28.9085L166.905 30.3485H166.945C166.918 30.0018 166.882 29.6151 166.835 29.1885C166.788 28.7618 166.765 28.3551 166.765 27.9685V25.6685H168.165V32.1885H166.655L164.955 28.9385L164.315 27.5185H164.275C164.308 27.8785 164.345 28.2651 164.385 28.6785C164.432 29.0918 164.455 29.4918 164.455 29.8785V32.1885H163.055ZM170.836 32.1885L168.866 25.6685H170.426L171.206 28.7085C171.306 29.0618 171.392 29.4085 171.466 29.7485C171.546 30.0885 171.636 30.4385 171.736 30.7985H171.776C171.869 30.4385 171.956 30.0885 172.036 29.7485C172.116 29.4085 172.202 29.0618 172.296 28.7085L173.066 25.6685H174.566L172.606 32.1885H170.836ZM177.815 32.3085C177.228 32.3085 176.711 32.1718 176.265 31.8985C175.825 31.6251 175.478 31.2351 175.225 30.7285C174.978 30.2151 174.855 29.6051 174.855 28.8985C174.855 28.1851 174.978 27.5818 175.225 27.0885C175.478 26.5885 175.825 26.2085 176.265 25.9485C176.711 25.6818 177.228 25.5485 177.815 25.5485C178.401 25.5485 178.915 25.6818 179.355 25.9485C179.801 26.2085 180.148 26.5885 180.395 27.0885C180.648 27.5885 180.775 28.1918 180.775 28.8985C180.775 29.6051 180.648 30.2151 180.395 30.7285C180.148 31.2351 179.801 31.6251 179.355 31.8985C178.915 32.1718 178.401 32.3085 177.815 32.3085ZM177.815 31.0385C178.261 31.0385 178.615 30.8451 178.875 30.4585C179.135 30.0718 179.265 29.5518 179.265 28.8985C179.265 28.2451 179.135 27.7351 178.875 27.3685C178.615 27.0018 178.261 26.8185 177.815 26.8185C177.368 26.8185 177.015 27.0018 176.755 27.3685C176.495 27.7351 176.365 28.2451 176.365 28.8985C176.365 29.5518 176.495 30.0718 176.755 30.4585C177.015 30.8451 177.368 31.0385 177.815 31.0385ZM160.047 45.1885V38.6685H161.517V45.1885H160.047ZM165.775 45.3085C165.228 45.3085 164.725 45.1818 164.265 44.9285C163.805 44.6751 163.435 44.3018 163.155 43.8085C162.882 43.3085 162.745 42.6951 162.745 41.9685C162.745 41.2485 162.885 40.6351 163.165 40.1285C163.452 39.6151 163.828 39.2251 164.295 38.9585C164.768 38.6851 165.278 38.5485 165.825 38.5485C166.245 38.5485 166.622 38.6351 166.955 38.8085C167.288 38.9751 167.565 39.1718 167.785 39.3985L167.005 40.3385C166.838 40.1851 166.662 40.0618 166.475 39.9685C166.295 39.8685 166.088 39.8185 165.855 39.8185C165.562 39.8185 165.292 39.9018 165.045 40.0685C164.805 40.2351 164.612 40.4751 164.465 40.7885C164.325 41.1018 164.255 41.4785 164.255 41.9185C164.255 42.5851 164.398 43.1051 164.685 43.4785C164.972 43.8518 165.355 44.0385 165.835 44.0385C166.102 44.0385 166.338 43.9785 166.545 43.8585C166.758 43.7385 166.945 43.5951 167.105 43.4285L167.885 44.3485C167.338 44.9885 166.635 45.3085 165.775 45.3085ZM168.875 45.1885V38.6685H172.955V39.9085H170.345V41.2185H172.565V42.4485H170.345V43.9485H173.055V45.1885H168.875Z" fill="#353452"/>
<rect x="194.432" y="22.4385" width="19.4358" height="9.35798" fill="#EBEFF5"/>
<path d="M197.908 29.6368V24.929H200.752V25.6345H198.743V26.9662H200.456V27.6716H198.743V29.6368H197.908Z" fill="#8F8F8F"/>
<path d="M202.545 29.7232C202.219 29.7232 201.924 29.6512 201.66 29.5072C201.396 29.3584 201.187 29.1473 201.033 28.8738C200.88 28.5954 200.803 28.2619 200.803 27.8732C200.803 27.4893 200.88 27.1581 201.033 26.8798C201.192 26.6014 201.396 26.3879 201.645 26.2391C201.895 26.0904 202.156 26.016 202.43 26.016C202.751 26.016 203.02 26.088 203.236 26.2319C203.452 26.3711 203.615 26.5679 203.726 26.8222C203.836 27.0717 203.891 27.3621 203.891 27.6932C203.891 27.866 203.879 28.0003 203.855 28.0963H201.609C201.648 28.4083 201.76 28.6506 201.948 28.8234C202.135 28.9961 202.37 29.0825 202.653 29.0825C202.807 29.0825 202.948 29.0609 203.078 29.0177C203.212 28.9697 203.344 28.9049 203.474 28.8234L203.754 29.3417C203.586 29.452 203.399 29.5432 203.193 29.6152C202.987 29.6872 202.771 29.7232 202.545 29.7232ZM201.602 27.5348H203.171C203.171 27.2613 203.111 27.0477 202.991 26.8942C202.871 26.7358 202.691 26.6566 202.451 26.6566C202.245 26.6566 202.06 26.7334 201.897 26.887C201.739 27.0358 201.64 27.2517 201.602 27.5348Z" fill="#8F8F8F"/>
<path d="M206.035 29.7232C205.699 29.7232 205.378 29.5696 205.07 29.2625H205.049L204.977 29.6368H204.322V24.5547H205.15V25.8648L205.128 26.4551C205.277 26.3255 205.44 26.2199 205.618 26.1383C205.795 26.0568 205.973 26.016 206.15 26.016C206.592 26.016 206.935 26.1791 207.18 26.5055C207.424 26.8318 207.547 27.2661 207.547 27.8084C207.547 28.2115 207.475 28.557 207.331 28.845C207.187 29.1281 207 29.3465 206.769 29.5C206.544 29.6488 206.299 29.7232 206.035 29.7232ZM205.862 29.0393C206.097 29.0393 206.294 28.9361 206.453 28.7298C206.611 28.5234 206.69 28.2211 206.69 27.8228C206.69 27.4677 206.63 27.1917 206.51 26.995C206.39 26.7982 206.196 26.6998 205.927 26.6998C205.678 26.6998 205.418 26.8318 205.15 27.0957V28.7442C205.274 28.8498 205.397 28.9265 205.517 28.9745C205.642 29.0177 205.757 29.0393 205.862 29.0393Z" fill="#8F8F8F"/>
<rect x="154.675" y="18.6738" width="57.1985" height="68.716" stroke="white" stroke-width="3.98824" shape-rendering="crispEdges"/>
</g>
<g filter="url(#filter3_d_1815_12269)">
<rect x="119.494" y="16.6797" width="61.1868" height="72.7043" fill="white" shape-rendering="crispEdges"/>
<rect x="125.253" y="34.6758" width="49.6693" height="5.75875" fill="#EBEFF5"/>
<rect x="125.253" y="75.707" width="49.6693" height="2.87938" fill="#EBEFF5"/>
<rect x="162.685" y="80.7461" width="11.5175" height="2.87938" fill="#E3E3E3"/>
<rect x="125.253" y="43.3135" width="2.87938" height="2.87938" fill="#E3E3E3"/>
<rect x="125.253" y="49.0723" width="2.87938" height="2.87938" fill="#E3E3E3"/>
<rect x="125.253" y="54.8311" width="2.87938" height="2.87938" fill="#E3E3E3"/>
<rect x="125.253" y="60.5898" width="2.87938" height="2.87938" fill="#E3E3E3"/>
<rect x="129.572" y="43.3135" width="28.0739" height="2.87938" fill="#E3E3E3"/>
<rect x="129.572" y="49.0723" width="28.0739" height="2.87938" fill="#E3E3E3"/>
<rect x="129.572" y="54.8311" width="28.0739" height="2.87938" fill="#E3E3E3"/>
<rect x="129.572" y="60.5898" width="28.0739" height="2.87938" fill="#E3E3E3"/>
<rect x="162.685" y="43.3135" width="12.2374" height="2.87938" fill="#E3E3E3"/>
<rect x="162.685" y="49.0723" width="12.2374" height="2.87938" fill="#E3E3E3"/>
<rect x="162.685" y="54.8311" width="12.2374" height="2.87938" fill="#E3E3E3"/>
<rect x="162.685" y="60.5898" width="12.2374" height="2.87938" fill="#E3E3E3"/>
<path d="M126.646 29.3872V24.6938H127.704V29.3872H126.646Z" fill="#28313B"/>
<path d="M128.811 29.3872V24.6938H129.898L131.121 27.0261L131.582 28.0627H131.611C131.592 27.8131 131.565 27.5348 131.532 27.2277C131.498 26.9205 131.481 26.6278 131.481 26.3494V24.6938H132.489V29.3872H131.402L130.178 27.0477L129.718 26.0255H129.689C129.713 26.2847 129.739 26.563 129.768 26.8605C129.802 27.1581 129.818 27.446 129.818 27.7243V29.3872H128.811Z" fill="#28313B"/>
<path d="M134.411 29.3872L132.993 24.6938H134.116L134.678 26.8821C134.75 27.1365 134.812 27.386 134.865 27.6308C134.922 27.8755 134.987 28.1275 135.059 28.3866H135.088C135.155 28.1275 135.218 27.8755 135.275 27.6308C135.333 27.386 135.395 27.1365 135.462 26.8821L136.017 24.6938H137.096L135.685 29.3872H134.411Z" fill="#28313B"/>
<path d="M139.435 29.4736C139.013 29.4736 138.641 29.3752 138.319 29.1784C138.003 28.9817 137.753 28.7009 137.571 28.3362C137.393 27.9667 137.304 27.5276 137.304 27.0189C137.304 26.5054 137.393 26.0711 137.571 25.716C137.753 25.3561 138.003 25.0825 138.319 24.8954C138.641 24.7034 139.013 24.6074 139.435 24.6074C139.857 24.6074 140.227 24.7034 140.544 24.8954C140.865 25.0825 141.115 25.3561 141.292 25.716C141.475 26.0759 141.566 26.5102 141.566 27.0189C141.566 27.5276 141.475 27.9667 141.292 28.3362C141.115 28.7009 140.865 28.9817 140.544 29.1784C140.227 29.3752 139.857 29.4736 139.435 29.4736ZM139.435 28.5594C139.757 28.5594 140.011 28.4202 140.198 28.1419C140.385 27.8635 140.479 27.4892 140.479 27.0189C140.479 26.5486 140.385 26.1815 140.198 25.9175C140.011 25.6536 139.757 25.5216 139.435 25.5216C139.114 25.5216 138.859 25.6536 138.672 25.9175C138.485 26.1815 138.391 26.5486 138.391 27.0189C138.391 27.4892 138.485 27.8635 138.672 28.1419C138.859 28.4202 139.114 28.5594 139.435 28.5594Z" fill="#28313B"/>
<path d="M142.448 29.3872V24.6938H143.507V29.3872H142.448Z" fill="#28313B"/>
<path d="M146.571 29.4736C146.178 29.4736 145.816 29.3824 145.485 29.2C145.153 29.0177 144.887 28.7489 144.685 28.3938C144.489 28.0339 144.39 27.5924 144.39 27.0693C144.39 26.551 144.491 26.1095 144.693 25.7448C144.899 25.3753 145.17 25.0945 145.506 24.9026C145.847 24.7058 146.214 24.6074 146.607 24.6074C146.91 24.6074 147.181 24.6698 147.421 24.7946C147.661 24.9146 147.86 25.0561 148.018 25.2193L147.457 25.8959C147.337 25.7856 147.21 25.6968 147.075 25.6296C146.946 25.5576 146.797 25.5216 146.629 25.5216C146.418 25.5216 146.224 25.5816 146.046 25.7016C145.873 25.8216 145.734 25.9943 145.628 26.2199C145.528 26.4454 145.477 26.7166 145.477 27.0333C145.477 27.5132 145.58 27.8875 145.787 28.1563C145.993 28.425 146.269 28.5594 146.615 28.5594C146.807 28.5594 146.977 28.5162 147.126 28.4298C147.279 28.3434 147.414 28.2402 147.529 28.1203L148.09 28.7825C147.697 29.2432 147.191 29.4736 146.571 29.4736Z" fill="#28313B"/>
<path d="M148.803 29.3872V24.6938H151.74V25.5864H149.861V26.5294H151.459V27.4148H149.861V28.4946H151.812V29.3872H148.803Z" fill="#28313B"/>
<rect x="161.245" y="22.4385" width="19.4358" height="9.35798" fill="#EBEFF5"/>
<path d="M165.701 29.7229C165.374 29.7229 165.096 29.6557 164.866 29.5213C164.635 29.3869 164.446 29.1878 164.297 28.9238L164.873 28.4991C164.969 28.6719 165.079 28.7991 165.204 28.8807C165.329 28.9574 165.463 28.9958 165.607 28.9958C165.828 28.9958 165.993 28.9286 166.104 28.7943C166.214 28.6599 166.269 28.4248 166.269 28.0888V24.9287H167.104V28.1608C167.104 28.444 167.056 28.7055 166.96 28.9454C166.864 29.1806 166.713 29.3702 166.507 29.5141C166.3 29.6533 166.032 29.7229 165.701 29.7229Z" fill="#8F8F8F"/>
<path d="M168.703 29.7229C168.396 29.7229 168.144 29.6269 167.947 29.4349C167.756 29.243 167.66 28.9934 167.66 28.6863C167.66 28.3072 167.825 28.0144 168.156 27.8081C168.487 27.5969 169.015 27.453 169.74 27.3762C169.735 27.189 169.685 27.0283 169.589 26.8939C169.498 26.7547 169.332 26.6851 169.092 26.6851C168.919 26.6851 168.749 26.7187 168.581 26.7859C168.418 26.8531 168.257 26.9347 168.099 27.0307L167.796 26.4764C167.993 26.3516 168.214 26.2436 168.459 26.1524C168.708 26.0613 168.972 26.0157 169.25 26.0157C169.692 26.0157 170.021 26.1476 170.237 26.4116C170.457 26.6707 170.568 27.0475 170.568 27.5417V29.6365H169.884L169.826 29.2478H169.797C169.639 29.3821 169.469 29.4949 169.286 29.5861C169.109 29.6773 168.914 29.7229 168.703 29.7229ZM168.97 29.075C169.114 29.075 169.243 29.0414 169.358 28.9742C169.478 28.9023 169.606 28.8063 169.74 28.6863V27.8945C169.26 27.9569 168.926 28.0504 168.739 28.1752C168.552 28.2952 168.459 28.444 168.459 28.6215C168.459 28.7799 168.507 28.8951 168.603 28.967C168.699 29.039 168.821 29.075 168.97 29.075Z" fill="#8F8F8F"/>
<path d="M171.198 29.6365V26.1021H171.882L171.94 26.5772H171.969C172.127 26.4236 172.3 26.2916 172.487 26.1812C172.674 26.0709 172.888 26.0157 173.128 26.0157C173.507 26.0157 173.783 26.138 173.955 26.3828C174.128 26.6275 174.215 26.9731 174.215 27.4194V29.6365H173.387V27.5273C173.387 27.2346 173.344 27.0283 173.257 26.9083C173.171 26.7883 173.029 26.7283 172.833 26.7283C172.679 26.7283 172.542 26.7667 172.422 26.8435C172.307 26.9155 172.175 27.0235 172.026 27.1674V29.6365H171.198Z" fill="#8F8F8F"/>
<rect x="121.488" y="18.6738" width="57.1985" height="68.716" stroke="white" stroke-width="3.98824" shape-rendering="crispEdges"/>
</g>
<path d="M102.943 65.1729C79.0884 65.1729 56.1484 80.2513 56.1484 98.8627C56.1484 110.138 66.8599 120.106 77.7576 126.226C75.4738 130.128 70.8522 135.581 61.9865 138.573C61.9865 138.573 75.3299 138.591 86.3535 129.975C91.4607 131.633 97.0534 132.553 102.934 132.553C126.788 132.553 150.448 117.474 150.448 98.8627C150.448 80.2513 126.788 65.1729 102.934 65.1729H102.943Z" fill="#D5E4FF"/>
<path d="M69.8324 94.4204V88.8172H67.9277V87.8296H72.9062V88.8172H71.0015V94.4204H69.8324Z" fill="#485EB0"/>
<path d="M73.9029 94.4204V89.4722H75.0618V94.4204H73.9029ZM74.4874 88.6055C74.2791 88.6055 74.1111 88.5451 73.9835 88.4241C73.8558 88.3032 73.792 88.142 73.792 87.9404C73.792 87.7456 73.8558 87.5877 73.9835 87.4667C74.1111 87.3458 74.2791 87.2853 74.4874 87.2853C74.6956 87.2853 74.8636 87.3458 74.9913 87.4667C75.1189 87.5877 75.1827 87.7456 75.1827 87.9404C75.1827 88.142 75.1189 88.3032 74.9913 88.4241C74.8636 88.5451 74.6956 88.6055 74.4874 88.6055Z" fill="#485EB0"/>
<path d="M76.5404 94.4204V89.4722H77.4978L77.5784 90.349H77.6187C77.7934 90.0265 78.0051 89.7813 78.2536 89.6133C78.5022 89.4386 78.7575 89.3513 79.0196 89.3513C79.2547 89.3513 79.4428 89.3849 79.5839 89.4521L79.3824 90.4599C79.295 90.433 79.2144 90.4128 79.1405 90.3994C79.0666 90.386 78.9759 90.3792 78.8684 90.3792C78.6736 90.3792 78.4686 90.4565 78.2536 90.611C78.0386 90.7588 77.8539 91.0209 77.6994 91.3971V94.4204H76.5404Z" fill="#485EB0"/>
<path d="M82.3178 94.5414C81.861 94.5414 81.4478 94.4406 81.0783 94.239C80.7087 94.0308 80.4165 93.7352 80.2015 93.3522C79.9865 92.9625 79.879 92.4956 79.879 91.9514C79.879 91.4139 79.9865 90.9503 80.2015 90.5606C80.4232 90.171 80.7087 89.872 81.0581 89.6637C81.4075 89.4554 81.7736 89.3513 82.1566 89.3513C82.6067 89.3513 82.983 89.4521 83.2853 89.6536C83.5876 89.8485 83.8161 90.1239 83.9706 90.48C84.1251 90.8294 84.2024 91.2359 84.2024 91.6994C84.2024 91.9413 84.1856 92.1294 84.152 92.2638H81.0077C81.0615 92.7005 81.2194 93.0398 81.4814 93.2817C81.7434 93.5235 82.0726 93.6445 82.469 93.6445C82.684 93.6445 82.8822 93.6142 83.0636 93.5538C83.2517 93.4866 83.4365 93.3959 83.6179 93.2817L84.0109 94.0073C83.7758 94.1618 83.5137 94.2894 83.2248 94.3902C82.9359 94.491 82.6336 94.5414 82.3178 94.5414ZM80.9976 91.4777H83.1946C83.1946 91.0948 83.1106 90.7958 82.9427 90.5808C82.7747 90.3591 82.5228 90.2482 82.1868 90.2482C81.8979 90.2482 81.6393 90.3557 81.4108 90.5707C81.1891 90.779 81.0514 91.0813 80.9976 91.4777Z" fill="#485EB0"/>
<path d="M87.0427 94.5414C86.4246 94.5414 85.9308 94.3129 85.5612 93.8561C85.1917 93.3992 85.007 92.7643 85.007 91.9514C85.007 91.4139 85.1044 90.9503 85.2992 90.5606C85.5008 90.171 85.7628 89.872 86.0853 89.6637C86.4078 89.4554 86.7471 89.3513 87.1031 89.3513C87.3853 89.3513 87.6238 89.4017 87.8187 89.5025C88.0202 89.5965 88.2151 89.7275 88.4032 89.8955L88.3629 89.0994V87.3055H89.5218V94.4204H88.5644L88.4838 93.8863H88.4435C88.2621 94.0677 88.0505 94.2222 87.8086 94.3499C87.5667 94.4776 87.3114 94.5414 87.0427 94.5414ZM87.3249 93.584C87.6944 93.584 88.0404 93.3992 88.3629 93.0297V90.7219C88.1949 90.5674 88.0269 90.4599 87.859 90.3994C87.691 90.3389 87.5231 90.3087 87.3551 90.3087C87.0393 90.3087 86.7672 90.4531 86.5388 90.742C86.3171 91.0242 86.2062 91.424 86.2062 91.9413C86.2062 92.4721 86.3036 92.8785 86.4985 93.1607C86.6933 93.4429 86.9688 93.584 87.3249 93.584Z" fill="#485EB0"/>
<path d="M95.0409 94.5414C94.6311 94.5414 94.2481 94.4406 93.8921 94.239C93.536 94.0308 93.2471 93.7352 93.0254 93.3522C92.8037 92.9625 92.6928 92.4956 92.6928 91.9514C92.6928 91.4005 92.8037 90.9335 93.0254 90.5506C93.2471 90.1609 93.536 89.8653 93.8921 89.6637C94.2481 89.4554 94.6311 89.3513 95.0409 89.3513C95.4575 89.3513 95.8438 89.4554 96.1999 89.6637C96.556 89.8653 96.8449 90.1609 97.0666 90.5506C97.2883 90.9335 97.3991 91.4005 97.3991 91.9514C97.3991 92.4956 97.2883 92.9625 97.0666 93.3522C96.8449 93.7352 96.556 94.0308 96.1999 94.239C95.8438 94.4406 95.4575 94.5414 95.0409 94.5414ZM95.0409 93.5941C95.4037 93.5941 95.6893 93.4429 95.8975 93.1406C96.1058 92.8382 96.21 92.4418 96.21 91.9514C96.21 91.4542 96.1058 91.0545 95.8975 90.7521C95.6893 90.4498 95.4037 90.2986 95.0409 90.2986C94.6781 90.2986 94.3926 90.4498 94.1843 90.7521C93.9828 91.0545 93.882 91.4542 93.882 91.9514C93.882 92.4418 93.9828 92.8382 94.1843 93.1406C94.3926 93.4429 94.6781 93.5941 95.0409 93.5941Z" fill="#485EB0"/>
<path d="M98.7085 94.4204V90.3893H98.0433V89.5226L98.7085 89.4722V88.9583C98.7085 88.4409 98.8361 88.0177 99.0914 87.6885C99.3467 87.3525 99.7666 87.1846 100.351 87.1846C100.526 87.1846 100.694 87.2014 100.855 87.235C101.016 87.2686 101.151 87.3089 101.258 87.3559L101.036 88.2226C100.855 88.142 100.674 88.1017 100.492 88.1017C100.076 88.1017 99.8674 88.3805 99.8674 88.9381V89.4722H100.835V90.3893H99.8674V94.4204H98.7085Z" fill="#485EB0"/>
<path d="M105.789 94.5414C105.339 94.5414 104.932 94.4406 104.57 94.239C104.213 94.0308 103.928 93.7352 103.713 93.3522C103.505 92.9625 103.4 92.4956 103.4 91.9514C103.4 91.4005 103.515 90.9335 103.743 90.5506C103.972 90.1609 104.274 89.8653 104.65 89.6637C105.033 89.4554 105.443 89.3513 105.88 89.3513C106.195 89.3513 106.471 89.4051 106.706 89.5125C106.941 89.62 107.149 89.7511 107.331 89.9056L106.766 90.6614C106.639 90.5472 106.508 90.4599 106.373 90.3994C106.239 90.3322 106.095 90.2986 105.94 90.2986C105.544 90.2986 105.218 90.4498 104.963 90.7521C104.714 91.0545 104.59 91.4542 104.59 91.9514C104.59 92.4418 104.711 92.8382 104.952 93.1406C105.201 93.4429 105.52 93.5941 105.91 93.5941C106.105 93.5941 106.286 93.5538 106.454 93.4731C106.629 93.3858 106.787 93.285 106.928 93.1708L107.401 93.9367C107.173 94.1383 106.918 94.2894 106.635 94.3902C106.353 94.491 106.071 94.5414 105.789 94.5414Z" fill="#485EB0"/>
<path d="M108.378 94.4204V89.4722H109.335L109.416 90.349H109.456C109.631 90.0265 109.843 89.7813 110.091 89.6133C110.34 89.4386 110.595 89.3513 110.857 89.3513C111.092 89.3513 111.28 89.3849 111.422 89.4521L111.22 90.4599C111.133 90.433 111.052 90.4128 110.978 90.3994C110.904 90.386 110.814 90.3792 110.706 90.3792C110.511 90.3792 110.306 90.4565 110.091 90.611C109.876 90.7588 109.692 91.0209 109.537 91.3971V94.4204H108.378Z" fill="#485EB0"/>
<path d="M114.155 94.5414C113.699 94.5414 113.285 94.4406 112.916 94.239C112.546 94.0308 112.254 93.7352 112.039 93.3522C111.824 92.9625 111.717 92.4956 111.717 91.9514C111.717 91.4139 111.824 90.9503 112.039 90.5606C112.261 90.171 112.546 89.872 112.896 89.6637C113.245 89.4554 113.611 89.3513 113.994 89.3513C114.444 89.3513 114.821 89.4521 115.123 89.6536C115.425 89.8485 115.654 90.1239 115.808 90.48C115.963 90.8294 116.04 91.2359 116.04 91.6994C116.04 91.9413 116.023 92.1294 115.99 92.2638H112.845C112.899 92.7005 113.057 93.0398 113.319 93.2817C113.581 93.5235 113.91 93.6445 114.307 93.6445C114.522 93.6445 114.72 93.6142 114.901 93.5538C115.089 93.4866 115.274 93.3959 115.456 93.2817L115.849 94.0073C115.613 94.1618 115.351 94.2894 115.062 94.3902C114.774 94.491 114.471 94.5414 114.155 94.5414ZM112.835 91.4777H115.032C115.032 91.0948 114.948 90.7958 114.78 90.5808C114.612 90.3591 114.36 90.2482 114.024 90.2482C113.736 90.2482 113.477 90.3557 113.248 90.5707C113.027 90.779 112.889 91.0813 112.835 91.4777Z" fill="#485EB0"/>
<path d="M118.228 94.5414C117.798 94.5414 117.445 94.407 117.17 94.1383C116.901 93.8695 116.767 93.5202 116.767 93.0902C116.767 92.5594 116.999 92.1496 117.462 91.8607C117.926 91.5651 118.665 91.3635 119.679 91.256C119.673 90.994 119.602 90.7689 119.468 90.5808C119.34 90.386 119.108 90.2885 118.772 90.2885C118.53 90.2885 118.292 90.3356 118.057 90.4296C117.828 90.5237 117.603 90.6379 117.382 90.7723L116.958 89.9963C117.234 89.8216 117.543 89.6704 117.885 89.5428C118.235 89.4151 118.604 89.3513 118.994 89.3513C119.612 89.3513 120.072 89.5361 120.375 89.9056C120.684 90.2684 120.838 90.7958 120.838 91.4878V94.4204H119.881L119.8 93.8762H119.76C119.538 94.0644 119.3 94.2222 119.044 94.3499C118.796 94.4776 118.524 94.5414 118.228 94.5414ZM118.601 93.6344C118.803 93.6344 118.984 93.5873 119.145 93.4933C119.313 93.3925 119.491 93.2581 119.679 93.0902V91.9816C119.007 92.069 118.541 92.2 118.278 92.3746C118.016 92.5426 117.885 92.7509 117.885 92.9995C117.885 93.2212 117.953 93.3824 118.087 93.4832C118.221 93.584 118.393 93.6344 118.601 93.6344Z" fill="#485EB0"/>
<path d="M123.811 94.5414C123.24 94.5414 122.834 94.3768 122.592 94.0476C122.357 93.7116 122.239 93.2783 122.239 92.7475V90.3893H121.534V89.5226L122.3 89.4722L122.441 88.1218H123.408V89.4722H124.668V90.3893H123.408V92.7475C123.408 93.3253 123.64 93.6142 124.103 93.6142C124.191 93.6142 124.282 93.6041 124.376 93.584C124.47 93.5571 124.55 93.5302 124.617 93.5034L124.819 94.36C124.685 94.407 124.53 94.4473 124.355 94.4809C124.187 94.5212 124.006 94.5414 123.811 94.5414Z" fill="#485EB0"/>
<path d="M125.709 94.4204V89.4722H126.868V94.4204H125.709ZM126.294 88.6055C126.085 88.6055 125.917 88.5451 125.79 88.4241C125.662 88.3032 125.598 88.142 125.598 87.9404C125.598 87.7456 125.662 87.5877 125.79 87.4667C125.917 87.3458 126.085 87.2853 126.294 87.2853C126.502 87.2853 126.67 87.3458 126.798 87.4667C126.925 87.5877 126.989 87.7456 126.989 87.9404C126.989 88.142 126.925 88.3032 126.798 88.4241C126.67 88.5451 126.502 88.6055 126.294 88.6055Z" fill="#485EB0"/>
<path d="M128.347 94.4204V89.4722H129.304L129.385 90.1374H129.425C129.647 89.9224 129.889 89.7376 130.151 89.5831C130.413 89.4286 130.712 89.3513 131.048 89.3513C131.578 89.3513 131.965 89.5226 132.207 89.8653C132.448 90.2079 132.569 90.6917 132.569 91.3165V94.4204H131.41V91.4676C131.41 91.0578 131.35 90.7689 131.229 90.601C131.108 90.433 130.91 90.349 130.634 90.349C130.419 90.349 130.228 90.4028 130.06 90.5103C129.899 90.611 129.714 90.7622 129.506 90.9638V94.4204H128.347Z" fill="#485EB0"/>
<path d="M135.709 96.6073C135.32 96.6073 134.967 96.5603 134.651 96.4662C134.342 96.3722 134.097 96.2277 133.915 96.0329C133.741 95.8448 133.653 95.6063 133.653 95.3174C133.653 94.9075 133.889 94.5548 134.359 94.2592V94.2189C134.231 94.1383 134.124 94.0308 134.036 93.8964C133.956 93.762 133.915 93.5941 133.915 93.3925C133.915 93.1977 133.969 93.023 134.077 92.8685C134.191 92.7072 134.319 92.5762 134.46 92.4754V92.4351C134.292 92.3075 134.14 92.1294 134.006 91.901C133.878 91.6726 133.815 91.4139 133.815 91.125C133.815 90.742 133.905 90.4196 134.087 90.1575C134.268 89.8955 134.507 89.6973 134.802 89.5629C135.105 89.4218 135.427 89.3513 135.77 89.3513C135.904 89.3513 136.032 89.3647 136.153 89.3916C136.28 89.4118 136.395 89.4386 136.495 89.4722H138.269V90.3289H137.362C137.443 90.4229 137.51 90.5438 137.564 90.6917C137.617 90.8327 137.644 90.9906 137.644 91.1653C137.644 91.5281 137.56 91.8372 137.392 92.0925C137.224 92.3411 136.999 92.5292 136.717 92.6568C136.435 92.7845 136.119 92.8483 135.77 92.8483C135.662 92.8483 135.551 92.8382 135.437 92.8181C135.323 92.7979 135.209 92.7643 135.095 92.7173C135.021 92.7845 134.96 92.8517 134.913 92.9189C134.873 92.986 134.853 93.0767 134.853 93.191C134.853 93.332 134.91 93.4429 135.024 93.5235C135.145 93.6041 135.357 93.6445 135.659 93.6445H136.536C137.134 93.6445 137.584 93.7419 137.886 93.9367C138.195 94.1248 138.35 94.4339 138.35 94.8639C138.35 95.1864 138.242 95.4786 138.027 95.7406C137.812 96.0094 137.506 96.221 137.11 96.3755C136.714 96.5301 136.247 96.6073 135.709 96.6073ZM135.77 92.1227C136.005 92.1227 136.206 92.0354 136.374 91.8607C136.542 91.686 136.626 91.4408 136.626 91.125C136.626 90.8159 136.542 90.5774 136.374 90.4095C136.213 90.2348 136.012 90.1474 135.77 90.1474C135.528 90.1474 135.323 90.2314 135.155 90.3994C134.987 90.5674 134.903 90.8092 134.903 91.125C134.903 91.4408 134.987 91.686 135.155 91.8607C135.323 92.0354 135.528 92.1227 135.77 92.1227ZM135.891 95.8515C136.287 95.8515 136.61 95.7709 136.858 95.6096C137.107 95.4484 137.231 95.2636 137.231 95.0553C137.231 94.8605 137.154 94.7295 136.999 94.6623C136.851 94.5951 136.636 94.5615 136.354 94.5615H135.679C135.41 94.5615 135.185 94.538 135.004 94.491C134.749 94.6858 134.621 94.9042 134.621 95.146C134.621 95.3678 134.735 95.5391 134.964 95.66C135.192 95.7877 135.501 95.8515 135.891 95.8515Z" fill="#485EB0"/>
<path d="M68.4014 109.537V104.589H69.3588L69.4394 105.466H69.4797C69.6544 105.143 69.866 104.898 70.1146 104.73C70.3632 104.555 70.6185 104.468 70.8805 104.468C71.1157 104.468 71.3038 104.502 71.4449 104.569L71.2433 105.577C71.156 105.55 71.0754 105.53 71.0015 105.516C70.9276 105.503 70.8369 105.496 70.7294 105.496C70.5345 105.496 70.3296 105.573 70.1146 105.728C69.8996 105.876 69.7149 106.138 69.5603 106.514V109.537H68.4014Z" fill="#485EB0"/>
<path d="M74.1788 109.658C73.722 109.658 73.3088 109.557 72.9392 109.356C72.5697 109.148 72.2775 108.852 72.0625 108.469C71.8475 108.079 71.74 107.612 71.74 107.068C71.74 106.531 71.8475 106.067 72.0625 105.677C72.2842 105.288 72.5697 104.989 72.9191 104.78C73.2685 104.572 73.6346 104.468 74.0176 104.468C74.4677 104.468 74.844 104.569 75.1463 104.77C75.4486 104.965 75.6771 105.241 75.8316 105.597C75.9861 105.946 76.0634 106.353 76.0634 106.816C76.0634 107.058 76.0466 107.246 76.013 107.381H72.8687C72.9224 107.817 73.0803 108.157 73.3424 108.398C73.6044 108.64 73.9336 108.761 74.33 108.761C74.545 108.761 74.7432 108.731 74.9246 108.67C75.1127 108.603 75.2975 108.513 75.4789 108.398L75.8719 109.124C75.6367 109.279 75.3747 109.406 75.0858 109.507C74.7969 109.608 74.4946 109.658 74.1788 109.658ZM72.8586 106.594H75.0556C75.0556 106.211 74.9716 105.913 74.8036 105.698C74.6357 105.476 74.3837 105.365 74.0478 105.365C73.7589 105.365 73.5002 105.472 73.2718 105.687C73.0501 105.896 72.9124 106.198 72.8586 106.594Z" fill="#485EB0"/>
<path d="M77.1703 111.492V104.589H78.1277L78.2083 105.113H78.2486C78.4569 104.938 78.6887 104.787 78.944 104.66C79.206 104.532 79.4714 104.468 79.7401 104.468C80.3582 104.468 80.8352 104.696 81.1712 105.153C81.5138 105.61 81.6851 106.222 81.6851 106.987C81.6851 107.552 81.5844 108.036 81.3828 108.439C81.1812 108.835 80.9192 109.137 80.5967 109.346C80.281 109.554 79.9383 109.658 79.5688 109.658C79.3538 109.658 79.1388 109.611 78.9238 109.517C78.7088 109.416 78.5005 109.282 78.299 109.114L78.3292 109.94V111.492H77.1703ZM79.3269 108.701C79.6561 108.701 79.9316 108.556 80.1533 108.267C80.375 107.978 80.4859 107.555 80.4859 106.998C80.4859 106.5 80.4019 106.114 80.2339 105.839C80.066 105.563 79.7939 105.425 79.4176 105.425C79.0683 105.425 78.7055 105.61 78.3292 105.98V108.288C78.5106 108.435 78.6853 108.543 78.8533 108.61C79.0212 108.67 79.1791 108.701 79.3269 108.701Z" fill="#485EB0"/>
<path d="M84.9751 109.658C84.5182 109.658 84.105 109.557 83.7355 109.356C83.366 109.148 83.0737 108.852 82.8587 108.469C82.6437 108.079 82.5362 107.612 82.5362 107.068C82.5362 106.531 82.6437 106.067 82.8587 105.677C83.0804 105.288 83.366 104.989 83.7153 104.78C84.0647 104.572 84.4309 104.468 84.8138 104.468C85.264 104.468 85.6402 104.569 85.9425 104.77C86.2449 104.965 86.4733 105.241 86.6278 105.597C86.7824 105.946 86.8596 106.353 86.8596 106.816C86.8596 107.058 86.8428 107.246 86.8092 107.381H83.665C83.7187 107.817 83.8766 108.157 84.1386 108.398C84.4006 108.64 84.7299 108.761 85.1262 108.761C85.3412 108.761 85.5394 108.731 85.7208 108.67C85.909 108.603 86.0937 108.513 86.2751 108.398L86.6682 109.124C86.433 109.279 86.171 109.406 85.8821 109.507C85.5932 109.608 85.2908 109.658 84.9751 109.658ZM83.6549 106.594H85.8518C85.8518 106.211 85.7679 105.913 85.5999 105.698C85.4319 105.476 85.18 105.365 84.8441 105.365C84.5552 105.365 84.2965 105.472 84.0681 105.687C83.8464 105.896 83.7086 106.198 83.6549 106.594Z" fill="#485EB0"/>
<path d="M89.0477 109.658C88.6177 109.658 88.265 109.524 87.9895 109.255C87.7208 108.986 87.5864 108.637 87.5864 108.207C87.5864 107.676 87.8182 107.266 88.2818 106.977C88.7454 106.682 89.4844 106.48 90.4989 106.373C90.4922 106.111 90.4216 105.886 90.2873 105.698C90.1596 105.503 89.9278 105.405 89.5919 105.405C89.35 105.405 89.1115 105.452 88.8764 105.546C88.6479 105.64 88.4229 105.755 88.2012 105.889L87.7779 105.113C88.0534 104.938 88.3624 104.787 88.7051 104.66C89.0544 104.532 89.4239 104.468 89.8136 104.468C90.4317 104.468 90.8919 104.653 91.1943 105.022C91.5033 105.385 91.6579 105.913 91.6579 106.605V109.537H90.7005L90.6198 108.993H90.5795C90.3578 109.181 90.1193 109.339 89.864 109.467C89.6154 109.594 89.3433 109.658 89.0477 109.658ZM89.4206 108.751C89.6221 108.751 89.8035 108.704 89.9648 108.61C90.1327 108.509 90.3108 108.375 90.4989 108.207V107.098C89.827 107.186 89.3601 107.317 89.0981 107.491C88.8361 107.659 88.7051 107.868 88.7051 108.116C88.7051 108.338 88.7722 108.499 88.9066 108.6C89.041 108.701 89.2123 108.751 89.4206 108.751Z" fill="#485EB0"/>
<path d="M94.6308 109.658C94.0597 109.658 93.6533 109.494 93.4114 109.164C93.1762 108.828 93.0587 108.395 93.0587 107.864V105.506H92.3532V104.639L93.1191 104.589L93.2602 103.239H94.2277V104.589H95.4874V105.506H94.2277V107.864C94.2277 108.442 94.4595 108.731 94.9231 108.731C95.0104 108.731 95.1011 108.721 95.1952 108.701C95.2892 108.674 95.3699 108.647 95.437 108.62L95.6386 109.477C95.5042 109.524 95.3497 109.564 95.175 109.598C95.007 109.638 94.8256 109.658 94.6308 109.658Z" fill="#485EB0"/>
<path d="M98.4876 109.658C98.0308 109.658 97.6176 109.557 97.2481 109.356C96.8785 109.148 96.5863 108.852 96.3713 108.469C96.1563 108.079 96.0488 107.612 96.0488 107.068C96.0488 106.531 96.1563 106.067 96.3713 105.677C96.593 105.288 96.8785 104.989 97.2279 104.78C97.5773 104.572 97.9434 104.468 98.3264 104.468C98.7765 104.468 99.1528 104.569 99.4551 104.77C99.7574 104.965 99.9859 105.241 100.14 105.597C100.295 105.946 100.372 106.353 100.372 106.816C100.372 107.058 100.355 107.246 100.322 107.381H97.1775C97.2313 107.817 97.3891 108.157 97.6512 108.398C97.9132 108.64 98.2424 108.761 98.6388 108.761C98.8538 108.761 99.052 108.731 99.2334 108.67C99.4215 108.603 99.6063 108.513 99.7877 108.398L100.181 109.124C99.9455 109.279 99.6835 109.406 99.3946 109.507C99.1057 109.608 98.8034 109.658 98.4876 109.658ZM97.1674 106.594H99.3644C99.3644 106.211 99.2804 105.913 99.1125 105.698C98.9445 105.476 98.6925 105.365 98.3566 105.365C98.0677 105.365 97.8091 105.472 97.5806 105.687C97.3589 105.896 97.2212 106.198 97.1674 106.594Z" fill="#485EB0"/>
<path d="M103.212 109.658C102.594 109.658 102.101 109.43 101.731 108.973C101.362 108.516 101.177 107.881 101.177 107.068C101.177 106.531 101.274 106.067 101.469 105.677C101.671 105.288 101.933 104.989 102.255 104.78C102.578 104.572 102.917 104.468 103.273 104.468C103.555 104.468 103.794 104.518 103.988 104.619C104.19 104.713 104.385 104.844 104.573 105.012L104.533 104.216V102.422H105.692V109.537H104.734L104.654 109.003H104.613C104.432 109.184 104.22 109.339 103.978 109.467C103.737 109.594 103.481 109.658 103.212 109.658ZM103.495 108.701C103.864 108.701 104.21 108.516 104.533 108.146V105.839C104.365 105.684 104.197 105.577 104.029 105.516C103.861 105.456 103.693 105.425 103.525 105.425C103.209 105.425 102.937 105.57 102.709 105.859C102.487 106.141 102.376 106.541 102.376 107.058C102.376 107.589 102.473 107.995 102.668 108.277C102.863 108.56 103.139 108.701 103.495 108.701Z" fill="#485EB0"/>
<path d="M111.584 109.658C111.113 109.658 110.663 109.443 110.233 109.013H110.203L110.102 109.537H109.185V102.422H110.344V104.256L110.314 105.083C110.522 104.901 110.75 104.754 110.999 104.639C111.248 104.525 111.496 104.468 111.745 104.468C112.363 104.468 112.843 104.696 113.186 105.153C113.529 105.61 113.7 106.218 113.7 106.977C113.7 107.542 113.599 108.026 113.398 108.429C113.196 108.825 112.934 109.131 112.612 109.346C112.296 109.554 111.953 109.658 111.584 109.658ZM111.342 108.701C111.671 108.701 111.946 108.556 112.168 108.267C112.39 107.978 112.501 107.555 112.501 106.998C112.501 106.5 112.417 106.114 112.249 105.839C112.081 105.563 111.809 105.425 111.432 105.425C111.083 105.425 110.72 105.61 110.344 105.98V108.288C110.519 108.435 110.69 108.543 110.858 108.61C111.033 108.67 111.194 108.701 111.342 108.701Z" fill="#485EB0"/>
<path d="M114.864 109.537V104.589H116.023V109.537H114.864ZM115.448 103.722C115.24 103.722 115.072 103.662 114.944 103.541C114.817 103.42 114.753 103.259 114.753 103.057C114.753 102.862 114.817 102.704 114.944 102.583C115.072 102.463 115.24 102.402 115.448 102.402C115.656 102.402 115.824 102.463 115.952 102.583C116.08 102.704 116.144 102.862 116.144 103.057C116.144 103.259 116.08 103.42 115.952 103.541C115.824 103.662 115.656 103.722 115.448 103.722Z" fill="#485EB0"/>
<path d="M118.63 109.658C118.22 109.658 117.928 109.534 117.753 109.285C117.585 109.037 117.501 108.697 117.501 108.267V102.422H118.66V108.328C118.66 108.469 118.687 108.57 118.741 108.63C118.795 108.684 118.852 108.711 118.912 108.711C118.939 108.711 118.963 108.711 118.983 108.711C119.01 108.704 119.047 108.697 119.094 108.691L119.245 109.557C119.178 109.584 119.09 109.608 118.983 109.628C118.882 109.648 118.764 109.658 118.63 109.658Z" fill="#485EB0"/>
<path d="M121.366 109.658C120.956 109.658 120.664 109.534 120.489 109.285C120.321 109.037 120.237 108.697 120.237 108.267V102.422H121.396V108.328C121.396 108.469 121.423 108.57 121.477 108.63C121.531 108.684 121.588 108.711 121.648 108.711C121.675 108.711 121.699 108.711 121.719 108.711C121.746 108.704 121.782 108.697 121.83 108.691L121.981 109.557C121.913 109.584 121.826 109.608 121.719 109.628C121.618 109.648 121.5 109.658 121.366 109.658Z" fill="#485EB0"/>
<path d="M124.354 109.658C124.018 109.658 123.682 109.594 123.346 109.467C123.01 109.332 122.721 109.168 122.479 108.973L123.024 108.227C123.245 108.395 123.467 108.529 123.689 108.63C123.91 108.731 124.146 108.781 124.394 108.781C124.663 108.781 124.861 108.724 124.989 108.61C125.116 108.496 125.18 108.355 125.18 108.187C125.18 108.046 125.126 107.931 125.019 107.844C124.918 107.75 124.787 107.669 124.626 107.602C124.465 107.528 124.297 107.458 124.122 107.391C123.907 107.31 123.692 107.213 123.477 107.098C123.269 106.977 123.097 106.826 122.963 106.645C122.829 106.457 122.762 106.225 122.762 105.949C122.762 105.513 122.923 105.157 123.245 104.881C123.568 104.606 124.004 104.468 124.555 104.468C124.905 104.468 125.217 104.529 125.493 104.649C125.768 104.77 126.007 104.908 126.208 105.063L125.674 105.768C125.499 105.64 125.321 105.54 125.14 105.466C124.965 105.385 124.78 105.345 124.586 105.345C124.337 105.345 124.152 105.399 124.031 105.506C123.91 105.607 123.85 105.734 123.85 105.889C123.85 106.084 123.951 106.232 124.152 106.332C124.354 106.433 124.589 106.531 124.858 106.625C125.086 106.705 125.308 106.806 125.523 106.927C125.738 107.041 125.916 107.192 126.057 107.381C126.205 107.569 126.279 107.817 126.279 108.126C126.279 108.55 126.114 108.912 125.785 109.215C125.456 109.51 124.979 109.658 124.354 109.658Z" fill="#485EB0"/>
<path d="M129.794 107.37L129.633 103.934L129.603 102.785H130.772L130.732 103.934L130.57 107.37H129.794ZM130.187 109.658C129.979 109.658 129.801 109.584 129.653 109.436C129.506 109.289 129.432 109.1 129.432 108.872C129.432 108.644 129.506 108.455 129.653 108.308C129.801 108.16 129.979 108.086 130.187 108.086C130.402 108.086 130.581 108.16 130.722 108.308C130.863 108.455 130.933 108.644 130.933 108.872C130.933 109.1 130.863 109.289 130.722 109.436C130.581 109.584 130.402 109.658 130.187 109.658Z" fill="#485EB0"/>
<path d="M132.973 107.37L132.812 103.934L132.782 102.785H133.951L133.911 103.934L133.749 107.37H132.973ZM133.366 109.658C133.158 109.658 132.98 109.584 132.832 109.436C132.684 109.289 132.61 109.1 132.61 108.872C132.61 108.644 132.684 108.455 132.832 108.308C132.98 108.16 133.158 108.086 133.366 108.086C133.581 108.086 133.759 108.16 133.9 108.308C134.042 108.455 134.112 108.644 134.112 108.872C134.112 109.1 134.042 109.289 133.9 109.436C133.759 109.584 133.581 109.658 133.366 109.658Z" fill="#485EB0"/>
<path d="M136.152 107.37L135.991 103.934L135.961 102.785H137.13L137.089 103.934L136.928 107.37H136.152ZM136.545 109.658C136.337 109.658 136.159 109.584 136.011 109.436C135.863 109.289 135.789 109.1 135.789 108.872C135.789 108.644 135.863 108.455 136.011 108.308C136.159 108.16 136.337 108.086 136.545 108.086C136.76 108.086 136.938 108.16 137.079 108.308C137.22 108.455 137.291 108.644 137.291 108.872C137.291 109.1 137.22 109.289 137.079 109.436C136.938 109.584 136.76 109.658 136.545 109.658Z" fill="#485EB0"/>
</g>
<defs>
<filter id="filter0_d_1815_12269" x="219.054" y="12.6797" width="69.1865" height="80.7041" filterUnits="userSpaceOnUse" color-interpolation-filters="sRGB">
<feFlood flood-opacity="0" result="BackgroundImageFix"/>
<feColorMatrix in="SourceAlpha" type="matrix" values="0 0 0 0 0 0 0 0 0 0 0 0 0 0 0 0 0 0 127 0" result="hardAlpha"/>
<feOffset dx="4"/>
<feGaussianBlur stdDeviation="2"/>
<feComposite in2="hardAlpha" operator="out"/>
<feColorMatrix type="matrix" values="0 0 0 0 0 0 0 0 0 0 0 0 0 0 0 0 0 0 0.1 0"/>
<feBlend mode="normal" in2="BackgroundImageFix" result="effect1_dropShadow_1815_12269"/>
<feBlend mode="normal" in="SourceGraphic" in2="effect1_dropShadow_1815_12269" result="shape"/>
</filter>
<filter id="filter1_d_1815_12269" x="185.867" y="12.6797" width="69.1865" height="80.7041" filterUnits="userSpaceOnUse" color-interpolation-filters="sRGB">
<feFlood flood-opacity="0" result="BackgroundImageFix"/>
<feColorMatrix in="SourceAlpha" type="matrix" values="0 0 0 0 0 0 0 0 0 0 0 0 0 0 0 0 0 0 127 0" result="hardAlpha"/>
<feOffset dx="4"/>
<feGaussianBlur stdDeviation="2"/>
<feComposite in2="hardAlpha" operator="out"/>
<feColorMatrix type="matrix" values="0 0 0 0 0 0 0 0 0 0 0 0 0 0 0 0 0 0 0.1 0"/>
<feBlend mode="normal" in2="BackgroundImageFix" result="effect1_dropShadow_1815_12269"/>
<feBlend mode="normal" in="SourceGraphic" in2="effect1_dropShadow_1815_12269" result="shape"/>
</filter>
<filter id="filter2_d_1815_12269" x="152.681" y="12.6797" width="69.1865" height="80.7041" filterUnits="userSpaceOnUse" color-interpolation-filters="sRGB">
<feFlood flood-opacity="0" result="BackgroundImageFix"/>
<feColorMatrix in="SourceAlpha" type="matrix" values="0 0 0 0 0 0 0 0 0 0 0 0 0 0 0 0 0 0 127 0" result="hardAlpha"/>
<feOffset dx="4"/>
<feGaussianBlur stdDeviation="2"/>
<feComposite in2="hardAlpha" operator="out"/>
<feColorMatrix type="matrix" values="0 0 0 0 0 0 0 0 0 0 0 0 0 0 0 0 0 0 0.1 0"/>
<feBlend mode="normal" in2="BackgroundImageFix" result="effect1_dropShadow_1815_12269"/>
<feBlend mode="normal" in="SourceGraphic" in2="effect1_dropShadow_1815_12269" result="shape"/>
</filter>
<filter id="filter3_d_1815_12269" x="119.494" y="12.6797" width="69.1865" height="80.7041" filterUnits="userSpaceOnUse" color-interpolation-filters="sRGB">
<feFlood flood-opacity="0" result="BackgroundImageFix"/>
<feColorMatrix in="SourceAlpha" type="matrix" values="0 0 0 0 0 0 0 0 0 0 0 0 0 0 0 0 0 0 127 0" result="hardAlpha"/>
<feOffset dx="4"/>
<feGaussianBlur stdDeviation="2"/>
<feComposite in2="hardAlpha" operator="out"/>
<feColorMatrix type="matrix" values="0 0 0 0 0 0 0 0 0 0 0 0 0 0 0 0 0 0 0.1 0"/>
<feBlend mode="normal" in2="BackgroundImageFix" result="effect1_dropShadow_1815_12269"/>
<feBlend mode="normal" in="SourceGraphic" in2="effect1_dropShadow_1815_12269" result="shape"/>
</filter>
</defs>
</svg>
