<svg width="120" height="127" viewBox="0 0 120 127" fill="none" xmlns="http://www.w3.org/2000/svg">
<path d="M23.4479 31.0063V12.3588C23.4479 6.2345 18.483 1.26953 12.3586 1.26953V1.26953C6.23401 1.26953 1.26904 6.2345 1.26904 12.3588V31.006" fill="#AAB1BA"/>
<path d="M103.442 1.26953C109.566 1.26953 114.531 6.2345 114.531 12.3588V125.66H23.4484V12.3588C23.4484 6.2345 18.4835 1.26953 12.3591 1.26953H103.442Z" fill="white"/>
<rect x="23.4484" y="105.254" width="91.0825" height="10.9631" fill="#BBEFF7"/>
<rect x="66.2465" y="20.043" width="38.7559" height="10.9631" fill="#BBEFF7"/>
<path fill-rule="evenodd" clip-rule="evenodd" d="M114.531 98.0484C113.83 98.0484 113.261 98.6166 113.261 99.3177V103.987H24.7175V31.0061V12.3589C24.7175 12.1256 24.7096 11.894 24.6967 11.6641C24.694 11.6153 24.69 11.5668 24.6859 11.5184V11.5184V11.5183C24.6838 11.4924 24.6816 11.4666 24.6796 11.4407C24.6682 11.2856 24.6553 11.131 24.6383 10.9774C24.6288 10.8923 24.6174 10.808 24.6059 10.7234L24.6059 10.7234L24.6058 10.7231L24.6053 10.7189C24.5865 10.5775 24.5657 10.4369 24.5421 10.297C24.5273 10.2097 24.5118 10.1226 24.4953 10.0358C24.4687 9.89618 24.439 9.75757 24.4075 9.61947L24.398 9.57723C24.3827 9.50908 24.3675 9.44102 24.3506 9.37348C24.3131 9.22269 24.2714 9.07342 24.2283 8.92492C24.2205 8.89806 24.213 8.87107 24.2056 8.84412L24.2055 8.84394L24.2055 8.84391C24.1948 8.8052 24.1841 8.76655 24.1724 8.72843C24.1075 8.51773 24.0379 8.30906 23.962 8.10343C23.9545 8.08322 23.9465 8.06329 23.9384 8.04335L23.9383 8.04322L23.9383 8.04312C23.931 8.02506 23.9237 8.00698 23.9168 7.98868C23.8533 7.82088 23.7871 7.65461 23.7165 7.49061C23.696 7.44286 23.6742 7.39566 23.6525 7.3485C23.6412 7.32396 23.6299 7.29943 23.6188 7.27483C23.5606 7.14638 23.5015 7.01869 23.439 6.89278C23.4002 6.81459 23.3601 6.73741 23.3197 6.66024C23.2578 6.54169 23.1943 6.42415 23.1286 6.30789C23.0854 6.23147 23.042 6.15532 22.9973 6.07992C22.9278 5.96264 22.8557 5.84713 22.7826 5.73239L22.7473 5.67696C22.7148 5.62577 22.6824 5.57458 22.6488 5.52422C22.5625 5.3945 22.4723 5.26757 22.3812 5.1414C22.3666 5.12107 22.3522 5.10057 22.3378 5.08007L22.3378 5.08001L22.3377 5.07989L22.3376 5.07978L22.3376 5.07973L22.3376 5.07968L22.3375 5.07963L22.3375 5.07958L22.3375 5.07953L22.3374 5.07948L22.3374 5.07945C22.3166 5.04974 22.2958 5.02004 22.2741 4.99087C22.1459 4.81875 22.0134 4.65019 21.8765 4.48492C21.8553 4.45925 21.8332 4.43422 21.8112 4.4092L21.8112 4.40918C21.794 4.38968 21.7768 4.37017 21.76 4.35038C21.6577 4.23056 21.5544 4.11175 21.4478 3.99599C21.4099 3.95479 21.3711 3.91453 21.3324 3.87425L21.2782 3.81778C21.1843 3.71979 21.0896 3.62282 20.9926 3.52813C20.9302 3.46695 20.8667 3.40679 20.8027 3.34713C20.7063 3.25676 20.6085 3.16816 20.5095 3.08083C20.4443 3.02346 20.379 2.96609 20.3125 2.91024C20.2072 2.82139 20.0995 2.73508 19.9911 2.64978C19.9699 2.63307 19.9491 2.61587 19.9283 2.59869C19.904 2.57854 19.8796 2.55841 19.8546 2.5391H103.442C108.856 2.5391 113.262 6.94456 113.262 12.3594V38.1575C113.262 38.8587 113.83 39.4268 114.531 39.4268C115.232 39.4268 115.8 38.8587 115.8 38.1575V12.3589C115.8 5.54428 110.256 0 103.441 0H12.3589H12.3586C5.54402 0 0 5.54428 0 12.3589V31.0061C0 31.7072 0.568136 32.2754 1.26929 32.2754C1.97045 32.2754 2.53859 31.7072 2.53859 31.0061V12.3589C2.53859 6.94406 6.94405 2.53859 12.3589 2.53859C17.7737 2.53859 22.1789 6.94406 22.1789 12.3589V31.0061V105.256V116.22V125.66C22.1789 126.361 22.747 126.929 23.4482 126.929C24.1493 126.929 24.7175 126.361 24.7175 125.66V117.489H113.261V125.66C113.261 126.361 113.83 126.929 114.531 126.929C115.232 126.929 115.8 126.361 115.8 125.66V116.22V105.256V99.3177C115.8 98.6168 115.232 98.0484 114.531 98.0484ZM24.7175 114.949V106.524H113.261V114.949H24.7175ZM115.8 46.9881V44.7067C115.8 44.0058 115.232 43.4374 114.531 43.4374C113.83 43.4374 113.262 44.0055 113.262 44.7067V46.9881C113.262 47.6893 113.83 48.2574 114.531 48.2574C115.232 48.2574 115.8 47.6893 115.8 46.9881ZM77.2766 61.1984C77.2766 61.8996 76.9292 62.4677 76.5005 62.4677H53.3103C52.8816 62.4677 52.5343 61.8996 52.5343 61.1984C52.5343 60.4972 52.8816 59.9291 53.3103 59.9291H76.5005C76.9292 59.9291 77.2766 60.4972 77.2766 61.1984ZM41.2692 62.4677C41.9704 62.4677 42.5385 61.8996 42.5385 61.1984C42.5385 60.4972 41.9704 59.9291 41.2692 59.9291H37.8825C37.1813 59.9291 36.6132 60.4972 36.6132 61.1984C36.6132 61.8996 37.1813 62.4677 37.8825 62.4677H41.2692ZM36.6132 36.6369C36.6132 35.9357 37.1813 35.3676 37.8825 35.3676H47.5548C48.2559 35.3676 48.8241 35.9357 48.8241 36.6369C48.8241 37.338 48.2559 37.9062 47.5548 37.9062H37.8825C37.1813 37.9062 36.6132 37.3378 36.6132 36.6369ZM37.8825 45.8207H52.6304C53.3313 45.8207 53.8997 45.2526 53.8997 44.5514C53.8997 43.8503 53.3316 43.2821 52.6304 43.2821H37.8825C37.1813 43.2821 36.6132 43.8503 36.6132 44.5514C36.6132 45.2526 37.1813 45.8207 37.8825 45.8207ZM77.2766 73.6402C77.2766 74.3414 76.9292 74.9095 76.5005 74.9095H53.3103C52.8816 74.9095 52.5343 74.3414 52.5343 73.6402C52.5343 72.939 52.8816 72.3709 53.3103 72.3709H76.5005C76.9292 72.3709 77.2766 72.939 77.2766 73.6402ZM41.2692 74.9095C41.9704 74.9095 42.5385 74.3414 42.5385 73.6402C42.5385 72.939 41.9704 72.3709 41.2692 72.3709H37.8825C37.1813 72.3709 36.6132 72.939 36.6132 73.6402C36.6132 74.3414 37.1813 74.9095 37.8825 74.9095H41.2692ZM77.2766 86.0774C77.2766 86.7785 76.9292 87.3467 76.5005 87.3467H53.3103C52.8816 87.3467 52.5343 86.7785 52.5343 86.0774C52.5343 85.3762 52.8816 84.8081 53.3103 84.8081H76.5005C76.9292 84.8081 77.2766 85.3762 77.2766 86.0774ZM41.2692 87.3467C41.9704 87.3467 42.5385 86.7785 42.5385 86.0774C42.5385 85.3762 41.9704 84.8081 41.2692 84.8081H37.8825C37.1813 84.8081 36.6132 85.3762 36.6132 86.0774C36.6132 86.7785 37.1813 87.3467 37.8825 87.3467H41.2692ZM106.271 20.0432C106.271 20.7444 105.703 21.3125 105.002 21.3125H66.2461C65.5449 21.3125 64.9768 20.7444 64.9768 20.0432C64.9768 19.342 65.5449 18.7739 66.2461 18.7739H105.002C105.703 18.7739 106.271 19.342 106.271 20.0432ZM66.2461 32.2738H105.002C105.703 32.2738 106.271 31.7056 106.271 31.0045C106.271 30.3033 105.703 29.7352 105.002 29.7352H66.2461C65.5449 29.7352 64.9768 30.3033 64.9768 31.0045C64.9768 31.7056 65.5449 32.2738 66.2461 32.2738Z" fill="#28313B"/>
<path d="M106.364 81.9818V80.4388H101.73V75.8096H106.364V78.8957H109.454V81.9818H107.909V85.068H104.82V88.1541H101.73V83.5249H104.82V81.9818H106.364ZM114.088 88.1541H107.909V85.068H110.998V81.9818H114.088V88.1541ZM86.2836 60.3789H98.641V72.7234H86.2836V60.3789ZM89.3729 63.465V69.6373H95.5516V63.465H89.3729ZM101.73 60.3789H114.088V72.7234H101.73V60.3789ZM104.82 63.465V69.6373H110.998V63.465H104.82ZM86.2836 75.8096H98.641V88.1541H86.2836V75.8096ZM89.3729 78.8957V85.068H95.5516V78.8957H89.3729ZM109.454 75.8096H114.088V78.8957H109.454V75.8096ZM90.9176 65.0081H94.0069V68.0942H90.9176V65.0081ZM90.9176 80.4388H94.0069V83.5249H90.9176V80.4388ZM106.364 65.0081H109.454V68.0942H106.364V65.0081Z" fill="#28313B"/>
</svg>
