<svg width="120" height="119" viewBox="0 0 120 119" fill="none" xmlns="http://www.w3.org/2000/svg">
<path d="M21.9754 29.0605V11.5842C21.9754 5.84454 17.3222 1.19141 11.5825 1.19141V1.19141C5.84259 1.19141 1.18945 5.84454 1.18945 11.5842V29.0603" fill="#AAB1BA"/>
<path d="M96.9448 1.19141C102.685 1.19141 107.338 5.84454 107.338 11.5842V117.77H21.9757V11.5842C21.9757 5.84454 17.3226 1.19141 11.5829 1.19141H96.9448Z" fill="white"/>
<rect x="21.9756" y="98.6465" width="85.3619" height="10.2746" fill="#F7EABB"/>
<rect x="62.0857" y="18.7832" width="36.3217" height="10.2746" fill="#F7EABB"/>
<path fill-rule="evenodd" clip-rule="evenodd" d="M107.337 91.8903C106.68 91.8903 106.148 92.4228 106.148 93.0799V97.4559H23.1651V29.0587V11.5826C23.1651 11.364 23.1577 11.147 23.1455 10.9315C23.1431 10.8858 23.1393 10.8405 23.1355 10.7952L23.1355 10.7951L23.1355 10.7951L23.1355 10.795L23.1355 10.795L23.1355 10.7949L23.1354 10.7946C23.1334 10.7704 23.1314 10.7463 23.1296 10.7221C23.1189 10.5767 23.1068 10.4319 23.0908 10.2879C23.0819 10.2081 23.0712 10.1289 23.0604 10.0496L23.0599 10.0457C23.0423 9.9132 23.0228 9.78139 23.0007 9.6503C22.9869 9.56846 22.9723 9.48685 22.9569 9.40549C22.9319 9.27463 22.9041 9.14473 22.8746 9.01531L22.8656 8.97563L22.8655 8.97514L22.8655 8.97506C22.8512 8.91141 22.837 8.84784 22.8213 8.78477C22.7861 8.64345 22.747 8.50355 22.7066 8.36437C22.6993 8.33923 22.6923 8.31396 22.6853 8.28872L22.6853 8.28866L22.6853 8.2886L22.6853 8.28854L22.6852 8.28848C22.6752 8.25219 22.6652 8.21596 22.6542 8.18023C22.5933 7.98276 22.5282 7.78719 22.457 7.59448C22.45 7.57551 22.4424 7.5568 22.4349 7.53808C22.428 7.52111 22.4211 7.50414 22.4147 7.48694C22.3552 7.32968 22.2931 7.17385 22.227 7.02015C22.2077 6.9754 22.1873 6.93116 22.167 6.88696C22.1564 6.86396 22.1458 6.84097 22.1354 6.81793C22.0809 6.69754 22.0254 6.57787 21.9669 6.45986C21.9305 6.38659 21.8929 6.31426 21.8551 6.24193C21.797 6.13083 21.7376 6.02067 21.6759 5.91171C21.6355 5.8401 21.5948 5.76872 21.5529 5.69806C21.4877 5.58814 21.4202 5.47989 21.3517 5.37235L21.3186 5.3203C21.2881 5.27235 21.2577 5.22442 21.2263 5.17726C21.1454 5.05569 21.0609 4.93673 20.9755 4.81849C20.9618 4.79945 20.9483 4.78024 20.9349 4.76104L20.9347 4.76075L20.9346 4.76067L20.9346 4.76062L20.9346 4.76057C20.915 4.73268 20.8955 4.70479 20.8751 4.67741C20.755 4.5161 20.6308 4.35812 20.5025 4.20324C20.4826 4.17918 20.462 4.15571 20.4413 4.13226L20.4413 4.13225C20.4252 4.11397 20.4091 4.09569 20.3933 4.07715C20.2975 3.96485 20.2006 3.85351 20.1007 3.74502C20.0652 3.70643 20.0289 3.66872 19.9926 3.631L19.9926 3.63098L19.9926 3.63095L19.9925 3.63091L19.9418 3.578C19.8538 3.48617 19.765 3.39528 19.6741 3.30654C19.6156 3.2492 19.5561 3.19282 19.4962 3.13691C19.4058 3.05221 19.3142 2.96918 19.2214 2.88733C19.1602 2.83357 19.0991 2.7798 19.0368 2.72746C18.938 2.64419 18.8371 2.56329 18.7356 2.48336C18.7157 2.46773 18.6962 2.45165 18.6768 2.43558L18.6768 2.43556L18.6767 2.43553L18.6767 2.43547C18.6538 2.41659 18.631 2.39773 18.6076 2.37962H96.9448C102.02 2.37962 106.148 6.5084 106.148 11.5831V35.761C106.148 36.4181 106.681 36.9506 107.338 36.9506C107.995 36.9506 108.527 36.4181 108.527 35.761V11.5826C108.527 5.19606 103.331 0 96.9443 0H11.5826H11.5824C5.19582 0 0 5.19606 0 11.5826V29.0587C0 29.7158 0.532453 30.2483 1.18957 30.2483C1.84669 30.2483 2.37915 29.7158 2.37915 29.0587V11.5826C2.37915 6.50792 6.50792 2.37915 11.5826 2.37915C16.6574 2.37915 20.7859 6.50792 20.7859 11.5826V29.0587V98.6454V108.92V117.768C20.7859 118.425 21.3184 118.957 21.9755 118.957C22.6326 118.957 23.1651 118.425 23.1651 117.768V110.11H106.148V117.768C106.148 118.425 106.68 118.957 107.337 118.957C107.995 118.957 108.527 118.425 108.527 117.768V108.92V98.6454V93.0799C108.527 92.423 107.994 91.8903 107.337 91.8903ZM23.1651 107.729V99.8337H106.148V107.729H23.1651ZM108.527 44.0367V41.8986C108.527 41.2417 107.995 40.709 107.338 40.709C106.68 40.709 106.148 41.2414 106.148 41.8986V44.0367C106.148 44.6938 106.68 45.2263 107.338 45.2263C107.995 45.2263 108.527 44.6938 108.527 44.0367ZM34.3137 34.3342C34.3137 33.677 34.8461 33.1446 35.5032 33.1446H44.568C45.2251 33.1446 45.7576 33.677 45.7576 34.3342C45.7576 34.9913 45.2251 35.5237 44.568 35.5237H35.5032C34.8461 35.5237 34.3137 34.991 34.3137 34.3342ZM35.5032 42.9423H49.3249C49.9818 42.9423 50.5145 42.4098 50.5145 41.7527C50.5145 41.0956 49.982 40.5631 49.3249 40.5631H35.5032C34.8461 40.5631 34.3137 41.0956 34.3137 41.7527C34.3137 42.4098 34.8461 42.9423 35.5032 42.9423ZM99.5966 18.7842C99.5966 19.4413 99.0641 19.9738 98.407 19.9738H62.0853C61.4282 19.9738 60.8957 19.4413 60.8957 18.7842C60.8957 18.1271 61.4282 17.5946 62.0853 17.5946H98.407C99.0641 17.5946 99.5966 18.1271 99.5966 18.7842ZM62.0853 30.2486H98.407C99.0641 30.2486 99.5966 29.7162 99.5966 29.0591C99.5966 28.4019 99.0641 27.8695 98.407 27.8695H62.0853C61.4282 27.8695 60.8957 28.4019 60.8957 29.0591C60.8957 29.7162 61.4282 30.2486 62.0853 30.2486Z" fill="#28313B"/>
<path d="M58.8566 54.8964C58.8566 55.6084 58.5038 56.1854 58.0685 56.1854H34.5185C34.0832 56.1854 33.7305 55.6084 33.7305 54.8964C33.7305 54.1844 34.0832 53.6074 34.5185 53.6074H58.0685C58.5038 53.6074 58.8566 54.1844 58.8566 54.8964Z" fill="#28313B"/>
<path d="M58.8566 67.5312C58.8566 68.2432 58.5038 68.8202 58.0685 68.8202H34.5185C34.0832 68.8202 33.7305 68.2432 33.7305 67.5312C33.7305 66.8191 34.0832 66.2422 34.5185 66.2422H58.0685C58.5038 66.2422 58.8566 66.8191 58.8566 67.5312Z" fill="#28313B"/>
<path d="M58.8566 80.162C58.8566 80.8741 58.5038 81.451 58.0685 81.451H34.5185C34.0832 81.451 33.7305 80.8741 33.7305 80.162C33.7305 79.45 34.0832 78.873 34.5185 78.873H58.0685C58.5038 78.873 58.8566 79.45 58.8566 80.162Z" fill="#28313B"/>
<path d="M85.3449 83.3046C87.5966 83.3046 89.422 81.4792 89.422 79.2275C89.422 76.9758 87.5966 75.1504 85.3449 75.1504C83.0932 75.1504 81.2678 76.9758 81.2678 79.2275C81.2678 81.4792 83.0932 83.3046 85.3449 83.3046Z" stroke="#28313B" stroke-width="2.5" stroke-linecap="round" stroke-linejoin="round"/>
<path d="M105.73 83.3046C107.982 83.3046 109.807 81.4792 109.807 79.2275C109.807 76.9758 107.982 75.1504 105.73 75.1504C103.478 75.1504 101.653 76.9758 101.653 79.2275C101.653 81.4792 103.478 83.3046 105.73 83.3046Z" stroke="#28313B" stroke-width="2.5" stroke-linecap="round" stroke-linejoin="round"/>
<path d="M81.2677 79.2301H77.1906V71.076M75.1521 54.7676H97.5761V79.2301M89.4219 79.2301H101.653M109.807 79.2301H113.885V66.9989M113.885 66.9989H97.5761M113.885 66.9989L107.769 56.8061H97.5761" stroke="#28313B" stroke-width="2.5" stroke-linecap="round" stroke-linejoin="round"/>
<path d="M77.1904 62.9199H85.3446" stroke="#28313B" stroke-width="2.5" stroke-linecap="round" stroke-linejoin="round"/>
</svg>
