<svg width="98" height="121" viewBox="0 0 98 121" fill="none" xmlns="http://www.w3.org/2000/svg">
<path d="M76.5531 11.377H10.3449V44.481H76.5531V11.377Z" fill="#FFD740"/>
<path d="M76.5532 45.5169H10.345C9.76567 45.5169 9.31049 45.0617 9.31049 44.4823V11.3783C9.31049 10.7989 9.76567 10.3438 10.345 10.3438H76.5532C77.1325 10.3438 77.5877 10.7989 77.5877 11.3783V44.4823C77.5877 45.0617 77.1325 45.5169 76.5532 45.5169ZM11.3795 43.4478H75.5187V12.4128H11.3795V43.4478Z" fill="#263238"/>
<path d="M80.6912 109.657H6.20702C2.79316 109.657 0 106.864 0 103.45V6.20702C0 2.79316 2.79316 0 6.20702 0H80.6912C84.1051 0 86.8983 2.79316 86.8983 6.20702V103.45C86.8983 106.864 84.1051 109.657 80.6912 109.657ZM6.20702 2.06901C3.93111 2.06901 2.06901 3.93111 2.06901 6.20702V103.45C2.06901 105.726 3.93111 107.588 6.20702 107.588H80.6912C82.9671 107.588 84.8292 105.726 84.8292 103.45V6.20702C84.8292 3.93111 82.9671 2.06901 80.6912 2.06901H6.20702Z" fill="#263238"/>
<path d="M91.0361 120.001H14.4829C11.069 120.001 8.27588 117.208 8.27588 113.794V112.76C8.27588 112.18 8.73106 111.725 9.31038 111.725C9.8897 111.725 10.3449 112.18 10.3449 112.76V113.794C10.3449 116.07 12.207 117.932 14.4829 117.932H91.0361C93.312 117.932 95.1741 116.07 95.1741 113.794V16.5508C95.1741 14.2749 93.312 12.4128 91.0361 12.4128H90.0016C89.4223 12.4128 88.9671 11.9576 88.9671 11.3783C88.9671 10.7989 89.4223 10.3438 90.0016 10.3438H91.0361C94.45 10.3438 97.2431 13.1369 97.2431 16.5508V113.794C97.2431 117.208 94.45 120.001 91.0361 120.001Z" fill="#263238"/>
<path d="M20.69 38.2772C20.4624 38.2772 20.2348 38.2151 20.0486 38.0496C19.5934 37.6979 19.5107 37.0565 19.8624 36.6013L34.3454 17.9802C34.5316 17.732 34.8213 17.5871 35.1317 17.5871C35.4834 17.5871 35.7317 17.7113 35.9386 17.9389L51.663 35.6289L65.3805 17.9802C65.7323 17.5251 66.3736 17.4423 66.8288 17.794C67.284 18.1458 67.3668 18.7872 67.015 19.2423L52.532 37.8634C52.3458 38.1117 52.0561 38.2565 51.7458 38.2565C51.4147 38.2565 51.1458 38.1324 50.9389 37.9048L35.2144 20.2148L21.4969 37.8634C21.3107 38.1324 21.0003 38.2772 20.69 38.2772Z" fill="#263238"/>
<path d="M20.6899 40.3437C22.4039 40.3437 23.7934 38.9542 23.7934 37.2402C23.7934 35.5262 22.4039 34.1367 20.6899 34.1367C18.9759 34.1367 17.5864 35.5262 17.5864 37.2402C17.5864 38.9542 18.9759 40.3437 20.6899 40.3437Z" fill="white"/>
<path d="M20.69 41.3795C18.414 41.3795 16.5519 39.5174 16.5519 37.2415C16.5519 34.9656 18.414 33.1035 20.69 33.1035C22.9659 33.1035 24.828 34.9656 24.828 37.2415C24.828 39.5174 22.9659 41.3795 20.69 41.3795ZM20.69 35.1725C19.552 35.1725 18.6209 36.1036 18.6209 37.2415C18.6209 38.3795 19.552 39.3105 20.69 39.3105C21.8279 39.3105 22.759 38.3795 22.759 37.2415C22.759 36.1036 21.8279 35.1725 20.69 35.1725Z" fill="#263238"/>
<path d="M51.725 40.3437C53.439 40.3437 54.8285 38.9542 54.8285 37.2402C54.8285 35.5262 53.439 34.1367 51.725 34.1367C50.0109 34.1367 48.6215 35.5262 48.6215 37.2402C48.6215 38.9542 50.0109 40.3437 51.725 40.3437Z" fill="white"/>
<path d="M51.725 41.3795C49.4491 41.3795 47.587 39.5174 47.587 37.2415C47.587 34.9656 49.4491 33.1035 51.725 33.1035C54.001 33.1035 55.8631 34.9656 55.8631 37.2415C55.8631 39.5174 54.001 41.3795 51.725 41.3795ZM51.725 35.1725C50.5871 35.1725 49.656 36.1036 49.656 37.2415C49.656 38.3795 50.5871 39.3105 51.725 39.3105C52.863 39.3105 53.7941 38.3795 53.7941 37.2415C53.7941 36.1036 52.863 35.1725 51.725 35.1725Z" fill="#263238"/>
<path d="M35.173 21.7207C36.887 21.7207 38.2765 20.3312 38.2765 18.6172C38.2765 16.9032 36.887 15.5137 35.173 15.5137C33.459 15.5137 32.0695 16.9032 32.0695 18.6172C32.0695 20.3312 33.459 21.7207 35.173 21.7207Z" fill="white"/>
<path d="M35.1731 22.7565C32.8972 22.7565 31.0351 20.8944 31.0351 18.6185C31.0351 16.3426 32.8972 14.4805 35.1731 14.4805C37.449 14.4805 39.3111 16.3426 39.3111 18.6185C39.3111 20.8944 37.449 22.7565 35.1731 22.7565ZM35.1731 16.5495C34.0352 16.5495 33.1041 17.4805 33.1041 18.6185C33.1041 19.7564 34.0352 20.6875 35.1731 20.6875C36.3111 20.6875 37.2421 19.7564 37.2421 18.6185C37.2421 17.4805 36.3111 16.5495 35.1731 16.5495Z" fill="#263238"/>
<path d="M66.2081 21.7207C67.9221 21.7207 69.3116 20.3312 69.3116 18.6172C69.3116 16.9032 67.9221 15.5137 66.2081 15.5137C64.494 15.5137 63.1046 16.9032 63.1046 18.6172C63.1046 20.3312 64.494 21.7207 66.2081 21.7207Z" fill="white"/>
<path d="M66.2081 22.7565C63.9322 22.7565 62.0701 20.8944 62.0701 18.6185C62.0701 16.3426 63.9322 14.4805 66.2081 14.4805C68.484 14.4805 70.3462 16.3426 70.3462 18.6185C70.3462 20.8944 68.484 22.7565 66.2081 22.7565ZM66.2081 16.5495C65.0702 16.5495 64.1391 17.4805 64.1391 18.6185C64.1391 19.7564 65.0702 20.6875 66.2081 20.6875C67.3461 20.6875 68.2771 19.7564 68.2771 18.6185C68.2771 17.4805 67.3461 16.5495 66.2081 16.5495Z" fill="#263238"/>
<path d="M64.1391 99.3092C56.732 99.3092 50.6906 93.2677 50.6906 85.8606C50.6906 78.4536 56.732 72.4121 64.1391 72.4121C71.5461 72.4121 77.5876 78.4536 77.5876 85.8606C77.5876 93.2677 71.5461 99.3092 64.1391 99.3092ZM64.1391 74.4811C57.87 74.4811 52.7596 79.5916 52.7596 85.8606C52.7596 92.1297 57.87 97.2402 64.1391 97.2402C70.4082 97.2402 75.5186 92.1297 75.5186 85.8606C75.5186 79.5916 70.4082 74.4811 64.1391 74.4811Z" fill="#263238"/>
<path d="M68.2773 55.8639H18.6211C18.0418 55.8639 17.5866 55.4087 17.5866 54.8294C17.5866 54.2501 18.0418 53.7949 18.6211 53.7949H68.2773C68.8566 53.7949 69.3118 54.2501 69.3118 54.8294C69.3118 55.4087 68.8566 55.8639 68.2773 55.8639Z" fill="#263238"/>
<path d="M68.2772 66.2096H18.6211C18.0417 66.2096 17.5865 65.7544 17.5865 65.1751C17.5865 64.5958 18.0417 64.1406 18.6211 64.1406H68.2772C68.8565 64.1406 69.3117 64.5958 69.3117 65.1751C69.3117 65.7544 68.8565 66.2096 68.2772 66.2096Z" fill="#263238"/>
<path d="M72.9116 94.6319C75.1668 92.3974 76.5531 89.2939 76.5531 85.8594C76.5531 79.0109 70.9874 73.4453 64.139 73.4453V85.8594L72.9116 94.6319Z" fill="#40C4FF"/>
<path d="M72.9117 95.6677C72.6427 95.6677 72.3738 95.5643 72.1876 95.3574L63.415 86.5848C63.2288 86.3986 63.1046 86.1296 63.1046 85.8607V73.4466C63.1046 72.8673 63.5598 72.4121 64.1391 72.4121C71.5462 72.4121 77.5877 78.4536 77.5877 85.8607C77.5877 89.4607 76.1807 92.8332 73.6565 95.3574C73.5738 95.4401 73.491 95.5022 73.3876 95.5436C73.2427 95.6264 73.0772 95.6677 72.9117 95.6677ZM65.1736 85.4262L72.891 93.1436C74.5876 91.0952 75.5187 88.5504 75.5187 85.8607C75.5187 79.9433 70.9668 75.0604 65.1736 74.5225V85.4262Z" fill="#263238"/>
<path d="M64.139 98.2754C67.5736 98.2754 70.6771 96.8891 72.9116 94.6339L64.139 85.8613H51.725C51.725 92.7097 57.2906 98.2754 64.139 98.2754Z" fill="#FF5252"/>
<path d="M64.1391 99.3112C56.732 99.3112 50.6906 93.2697 50.6906 85.8626C50.6906 85.2833 51.1457 84.8281 51.7251 84.8281H64.1391C64.4081 84.8281 64.677 84.9316 64.8632 85.1385L73.6358 93.9111C73.822 94.0973 73.9462 94.3662 73.9462 94.6352C73.9462 94.9042 73.8427 95.1732 73.6565 95.3594C71.1116 97.9042 67.7392 99.3112 64.1391 99.3112ZM52.8009 86.8971C53.3182 92.6903 58.201 97.2422 64.1391 97.2422C66.8288 97.2422 69.3737 96.3111 71.422 94.6145L63.7046 86.8971H52.8009Z" fill="#263238"/>
<path d="M37.2421 76.5514H20.6901C20.1108 76.5514 19.6556 76.0962 19.6556 75.5169C19.6556 74.9376 20.1108 74.4824 20.6901 74.4824H37.2421C37.8215 74.4824 38.2766 74.9376 38.2766 75.5169C38.2766 76.0962 37.8215 76.5514 37.2421 76.5514Z" fill="#263238"/>
<path d="M37.2421 86.8971H20.6901C20.1108 86.8971 19.6556 86.4419 19.6556 85.8626C19.6556 85.2833 20.1108 84.8281 20.6901 84.8281H37.2421C37.8215 84.8281 38.2766 85.2833 38.2766 85.8626C38.2766 86.4419 37.8215 86.8971 37.2421 86.8971Z" fill="#263238"/>
<path d="M37.2421 97.2409H20.6901C20.1108 97.2409 19.6556 96.7857 19.6556 96.2064C19.6556 95.6271 20.1108 95.1719 20.6901 95.1719H37.2421C37.8215 95.1719 38.2766 95.6271 38.2766 96.2064C38.2766 96.7857 37.8215 97.2409 37.2421 97.2409Z" fill="#263238"/>
</svg>
