<svg width="306" height="238" viewBox="0 0 306 238" fill="none" xmlns="http://www.w3.org/2000/svg">
<mask id="mask0_1815_12491" style="mask-type:alpha" maskUnits="userSpaceOnUse" x="0" y="0" width="306" height="238">
<rect width="306" height="238" fill="#D9D9D9"/>
</mask>
<g mask="url(#mask0_1815_12491)">
<g filter="url(#filter0_d_1815_12491)">
<rect x="39.3467" y="90.1807" width="61.1868" height="72.7043" fill="white" shape-rendering="crispEdges"/>
<rect x="45.1055" y="108.177" width="49.6693" height="5.75875" fill="#EBEFF5"/>
<rect x="45.1055" y="149.208" width="49.6693" height="2.87938" fill="#EBEFF5"/>
<rect x="82.5371" y="154.247" width="11.5175" height="2.87938" fill="#E3E3E3"/>
<rect x="45.1055" y="116.814" width="2.87938" height="2.87938" fill="#E3E3E3"/>
<rect x="45.1055" y="122.573" width="2.87938" height="2.87938" fill="#E3E3E3"/>
<rect x="45.1055" y="128.332" width="2.87938" height="2.87938" fill="#E3E3E3"/>
<rect x="45.1055" y="134.091" width="2.87938" height="2.87938" fill="#E3E3E3"/>
<rect x="49.4248" y="116.814" width="28.0739" height="2.87938" fill="#E3E3E3"/>
<rect x="49.4248" y="122.573" width="28.0739" height="2.87938" fill="#E3E3E3"/>
<rect x="49.4248" y="128.332" width="28.0739" height="2.87938" fill="#E3E3E3"/>
<rect x="49.4248" y="134.091" width="28.0739" height="2.87938" fill="#E3E3E3"/>
<rect x="82.5371" y="116.814" width="12.2374" height="2.87938" fill="#E3E3E3"/>
<rect x="82.5371" y="122.573" width="12.2374" height="2.87938" fill="#E3E3E3"/>
<rect x="82.5371" y="128.332" width="12.2374" height="2.87938" fill="#E3E3E3"/>
<rect x="82.5371" y="134.091" width="12.2374" height="2.87938" fill="#E3E3E3"/>
<path d="M46.498 102.888V98.1948H47.5562V102.888H46.498Z" fill="#28313B"/>
<path d="M48.6632 102.888V98.1948H49.7502L50.9739 100.527L51.4346 101.564H51.4634C51.4442 101.314 51.4178 101.036 51.3842 100.729C51.3506 100.421 51.3338 100.129 51.3338 99.8504V98.1948H52.3416V102.888H51.2546L50.0309 100.549L49.5702 99.5265H49.5414C49.5654 99.7856 49.5918 100.064 49.6206 100.362C49.6542 100.659 49.671 100.947 49.671 101.225V102.888H48.6632Z" fill="#28313B"/>
<path d="M54.2639 102.888L52.8458 98.1948H53.9687L54.5302 100.383C54.6022 100.637 54.6646 100.887 54.7174 101.132C54.775 101.376 54.8398 101.628 54.9117 101.888H54.9405C55.0077 101.628 55.0701 101.376 55.1277 101.132C55.1853 100.887 55.2477 100.637 55.3148 100.383L55.8691 98.1948H56.9489L55.538 102.888H54.2639Z" fill="#28313B"/>
<path d="M59.2877 102.975C58.8653 102.975 58.4934 102.876 58.1719 102.679C57.8552 102.483 57.6056 102.202 57.4233 101.837C57.2457 101.468 57.1569 101.029 57.1569 100.52C57.1569 100.006 57.2457 99.5721 57.4233 99.217C57.6056 98.857 57.8552 98.5835 58.1719 98.3963C58.4934 98.2044 58.8653 98.1084 59.2877 98.1084C59.71 98.1084 60.0795 98.2044 60.3962 98.3963C60.7177 98.5835 60.9673 98.857 61.1449 99.217C61.3272 99.5769 61.4184 100.011 61.4184 100.52C61.4184 101.029 61.3272 101.468 61.1449 101.837C60.9673 102.202 60.7177 102.483 60.3962 102.679C60.0795 102.876 59.71 102.975 59.2877 102.975ZM59.2877 102.06C59.6092 102.06 59.8635 101.921 60.0507 101.643C60.2379 101.364 60.3314 100.99 60.3314 100.52C60.3314 100.05 60.2379 99.6825 60.0507 99.4185C59.8635 99.1546 59.6092 99.0226 59.2877 99.0226C58.9661 99.0226 58.7118 99.1546 58.5246 99.4185C58.3375 99.6825 58.2439 100.05 58.2439 100.52C58.2439 100.99 58.3375 101.364 58.5246 101.643C58.7118 101.921 58.9661 102.06 59.2877 102.06Z" fill="#28313B"/>
<path d="M62.3009 102.888V98.1948H63.3591V102.888H62.3009Z" fill="#28313B"/>
<path d="M66.424 102.975C66.0305 102.975 65.6682 102.883 65.337 102.701C65.0059 102.519 64.7396 102.25 64.538 101.895C64.3413 101.535 64.2429 101.093 64.2429 100.57C64.2429 100.052 64.3437 99.6105 64.5452 99.2458C64.7516 98.8762 65.0227 98.5955 65.3586 98.4035C65.6994 98.2068 66.0665 98.1084 66.46 98.1084C66.7623 98.1084 67.0335 98.1708 67.2734 98.2956C67.5134 98.4155 67.7125 98.5571 67.8709 98.7203L67.3094 99.3969C67.1894 99.2865 67.0623 99.1978 66.9279 99.1306C66.7983 99.0586 66.6496 99.0226 66.4816 99.0226C66.2704 99.0226 66.0761 99.0826 65.8985 99.2026C65.7258 99.3225 65.5866 99.4953 65.481 99.7208C65.3802 99.9464 65.3299 100.218 65.3299 100.534C65.3299 101.014 65.433 101.388 65.6394 101.657C65.8457 101.926 66.1217 102.06 66.4672 102.06C66.6592 102.06 66.8295 102.017 66.9783 101.931C67.1319 101.844 67.2662 101.741 67.3814 101.621L67.9429 102.283C67.5494 102.744 67.0431 102.975 66.424 102.975Z" fill="#28313B"/>
<path d="M68.6558 102.888V98.1948H71.5927V99.0874H69.7139V100.03H71.312V100.916H69.7139V101.996H71.6647V102.888H68.6558Z" fill="#28313B"/>
<path d="M73.9901 102.888V102.032H74.9835V99.3897H74.1269V98.7347C74.3765 98.6867 74.5876 98.6291 74.7604 98.5619C74.9331 98.4947 75.1011 98.4131 75.2643 98.3172H76.0417V102.032H76.8983V102.888H73.9901Z" fill="#28313B"/>
<rect x="81.0977" y="95.9395" width="19.4358" height="9.35798" fill="#EBEFF5"/>
<path d="M85.3803 102.893C85.0539 102.893 84.7756 102.826 84.5452 102.691C84.3149 102.557 84.1253 102.358 83.9766 102.094L84.5524 101.669C84.6484 101.842 84.7588 101.969 84.8836 102.051C85.0083 102.127 85.1427 102.166 85.2867 102.166C85.5074 102.166 85.673 102.099 85.7834 101.964C85.8937 101.83 85.9489 101.595 85.9489 101.259V98.0986H86.784V101.331C86.784 101.614 86.736 101.875 86.64 102.115C86.544 102.351 86.3928 102.54 86.1865 102.684C85.9801 102.823 85.7114 102.893 85.3803 102.893Z" fill="#8F8F8F"/>
<path d="M88.383 102.893C88.0759 102.893 87.8239 102.797 87.6272 102.605C87.4352 102.413 87.3392 102.163 87.3392 101.856C87.3392 101.477 87.5048 101.184 87.8359 100.978C88.1671 100.767 88.695 100.623 89.4196 100.546C89.4148 100.359 89.3644 100.198 89.2684 100.064C89.1773 99.9246 89.0117 99.8551 88.7717 99.8551C88.599 99.8551 88.4286 99.8886 88.2606 99.9558C88.0975 100.023 87.9367 100.105 87.7784 100.201L87.476 99.6463C87.6728 99.5215 87.8935 99.4135 88.1383 99.3224C88.3878 99.2312 88.6518 99.1856 88.9301 99.1856C89.3716 99.1856 89.7003 99.3176 89.9163 99.5815C90.137 99.8407 90.2474 100.217 90.2474 100.712V102.806H89.5636L89.506 102.418H89.4772C89.3188 102.552 89.1485 102.665 88.9661 102.756C88.7885 102.847 88.5942 102.893 88.383 102.893ZM88.6494 102.245C88.7933 102.245 88.9229 102.211 89.0381 102.144C89.1581 102.072 89.2852 101.976 89.4196 101.856V101.064C88.9397 101.127 88.6062 101.22 88.419 101.345C88.2319 101.465 88.1383 101.614 88.1383 101.791C88.1383 101.95 88.1863 102.065 88.2822 102.137C88.3782 102.209 88.5006 102.245 88.6494 102.245Z" fill="#8F8F8F"/>
<path d="M90.8782 102.806V99.272H91.562L91.6196 99.7471H91.6484C91.8068 99.5935 91.9795 99.4615 92.1667 99.3512C92.3539 99.2408 92.5674 99.1856 92.8074 99.1856C93.1865 99.1856 93.4624 99.308 93.6352 99.5527C93.8079 99.7975 93.8943 100.143 93.8943 100.589V102.806H93.0665V100.697C93.0665 100.405 93.0233 100.198 92.9369 100.078C92.8506 99.9582 92.709 99.8982 92.5122 99.8982C92.3587 99.8982 92.2219 99.9366 92.1019 100.013C91.9867 100.085 91.8548 100.193 91.706 100.337V102.806H90.8782Z" fill="#8F8F8F"/>
<rect x="41.3408" y="92.1748" width="57.1985" height="68.716" stroke="white" stroke-width="3.98824" shape-rendering="crispEdges"/>
</g>
<rect x="40.7861" y="157.845" width="56.9253" height="13.821" rx="4" fill="#6E80C4"/>
<path d="M51.1227 167.347C50.8059 167.347 50.4988 167.287 50.2013 167.167C49.9085 167.047 49.6494 166.877 49.4238 166.656L49.9133 166.087C50.0813 166.246 50.2732 166.375 50.4892 166.476C50.7052 166.572 50.9211 166.62 51.1371 166.62C51.4058 166.62 51.6098 166.565 51.7489 166.454C51.8881 166.344 51.9577 166.198 51.9577 166.015C51.9577 165.818 51.8881 165.677 51.7489 165.591C51.6146 165.504 51.4418 165.415 51.2306 165.324L50.5828 165.043C50.4292 164.976 50.278 164.89 50.1293 164.784C49.9853 164.679 49.8653 164.544 49.7694 164.381C49.6782 164.218 49.6326 164.021 49.6326 163.791C49.6326 163.541 49.6998 163.318 49.8341 163.121C49.9733 162.92 50.1605 162.762 50.3956 162.646C50.6356 162.526 50.9091 162.466 51.2162 162.466C51.4898 162.466 51.7537 162.522 52.0081 162.632C52.2624 162.738 52.4808 162.882 52.6631 163.064L52.2384 163.597C52.0897 163.472 51.9313 163.373 51.7633 163.301C51.6002 163.229 51.4178 163.193 51.2162 163.193C50.9955 163.193 50.8155 163.244 50.6764 163.345C50.542 163.441 50.4748 163.575 50.4748 163.748C50.4748 163.868 50.5084 163.968 50.5756 164.05C50.6476 164.127 50.7411 164.194 50.8563 164.252C50.9715 164.304 51.0939 164.357 51.2234 164.41L51.8641 164.676C52.1424 164.796 52.3704 164.955 52.548 165.151C52.7255 165.343 52.8143 165.61 52.8143 165.95C52.8143 166.205 52.7471 166.438 52.6127 166.649C52.4784 166.86 52.284 167.03 52.0297 167.16C51.7801 167.285 51.4778 167.347 51.1227 167.347Z" fill="white"/>
<path d="M55.074 167.347C54.7525 167.347 54.4622 167.275 54.203 167.131C53.9487 166.982 53.7447 166.771 53.5912 166.498C53.4424 166.219 53.368 165.886 53.368 165.497C53.368 165.103 53.4496 164.77 53.6128 164.496C53.7759 164.218 53.9919 164.007 54.2606 163.863C54.5342 163.714 54.8269 163.64 55.1388 163.64C55.3644 163.64 55.5611 163.678 55.7291 163.755C55.8971 163.832 56.0458 163.925 56.1754 164.036L55.7723 164.576C55.6811 164.494 55.5875 164.432 55.4916 164.388C55.3956 164.34 55.2924 164.316 55.182 164.316C54.8989 164.316 54.6661 164.424 54.4838 164.64C54.3062 164.856 54.2174 165.142 54.2174 165.497C54.2174 165.847 54.3038 166.13 54.4766 166.346C54.6541 166.562 54.8821 166.67 55.1604 166.67C55.2996 166.67 55.4292 166.641 55.5491 166.584C55.6739 166.522 55.7867 166.45 55.8875 166.368L56.2258 166.915C56.0626 167.059 55.8803 167.167 55.6787 167.239C55.4772 167.311 55.2756 167.347 55.074 167.347Z" fill="white"/>
<path d="M56.9234 167.261V162.178H57.7512V163.489L57.7225 164.172C57.8712 164.033 58.0368 163.911 58.2191 163.805C58.4015 163.695 58.6127 163.64 58.8526 163.64C59.2317 163.64 59.5077 163.762 59.6804 164.007C59.8532 164.252 59.9396 164.597 59.9396 165.043V167.261H59.1118V165.151C59.1118 164.859 59.0686 164.652 58.9822 164.532C58.8958 164.412 58.7542 164.352 58.5575 164.352C58.4039 164.352 58.2671 164.391 58.1472 164.468C58.032 164.54 57.9 164.648 57.7512 164.791V167.261H56.9234Z" fill="white"/>
<path d="M62.4491 167.347C62.1227 167.347 61.8276 167.275 61.5637 167.131C61.2997 166.982 61.091 166.771 60.9374 166.498C60.7838 166.219 60.7071 165.886 60.7071 165.497C60.7071 165.113 60.7838 164.782 60.9374 164.504C61.0958 164.225 61.2997 164.012 61.5493 163.863C61.7988 163.714 62.0604 163.64 62.3339 163.64C62.6554 163.64 62.9242 163.712 63.1401 163.856C63.3561 163.995 63.5192 164.192 63.6296 164.446C63.74 164.696 63.7952 164.986 63.7952 165.317C63.7952 165.49 63.7832 165.624 63.7592 165.72H61.5133C61.5517 166.032 61.6644 166.274 61.8516 166.447C62.0388 166.62 62.2739 166.706 62.5571 166.706C62.7106 166.706 62.8522 166.685 62.9818 166.641C63.1161 166.594 63.2481 166.529 63.3777 166.447L63.6584 166.965C63.4905 167.076 63.3033 167.167 63.0969 167.239C62.8906 167.311 62.6746 167.347 62.4491 167.347ZM61.5061 165.159H63.0753C63.0753 164.885 63.0154 164.672 62.8954 164.518C62.7754 164.36 62.5954 164.28 62.3555 164.28C62.1491 164.28 61.9644 164.357 61.8012 164.511C61.6428 164.66 61.5445 164.875 61.5061 165.159Z" fill="white"/>
<path d="M65.824 167.347C65.3825 167.347 65.0297 167.184 64.7658 166.857C64.5019 166.531 64.3699 166.078 64.3699 165.497C64.3699 165.113 64.4395 164.782 64.5786 164.504C64.7226 164.225 64.9098 164.012 65.1401 163.863C65.3705 163.714 65.6128 163.64 65.8672 163.64C66.0687 163.64 66.2391 163.676 66.3782 163.748C66.5222 163.815 66.6614 163.908 66.7958 164.028L66.767 163.46V162.178H67.5948V167.261H66.9109L66.8533 166.879H66.8245C66.695 167.009 66.5438 167.119 66.371 167.21C66.1983 167.301 66.0159 167.347 65.824 167.347ZM66.0255 166.663C66.2895 166.663 66.5366 166.531 66.767 166.267V164.619C66.647 164.508 66.527 164.432 66.407 164.388C66.2871 164.345 66.1671 164.324 66.0471 164.324C65.8216 164.324 65.6272 164.427 65.464 164.633C65.3057 164.835 65.2265 165.12 65.2265 165.49C65.2265 165.869 65.2961 166.159 65.4352 166.361C65.5744 166.562 65.7712 166.663 66.0255 166.663Z" fill="white"/>
<path d="M69.7 167.347C69.3209 167.347 69.0449 167.225 68.8722 166.98C68.6994 166.735 68.613 166.39 68.613 165.943V163.726H69.4408V165.835C69.4408 166.128 69.484 166.334 69.5704 166.454C69.6568 166.574 69.796 166.634 69.9879 166.634C70.1415 166.634 70.2759 166.596 70.391 166.519C70.511 166.442 70.6382 166.318 70.7726 166.145V163.726H71.6004V167.261H70.9237L70.8589 166.742H70.8373C70.6838 166.925 70.5158 167.071 70.3335 167.181C70.1511 167.292 69.9399 167.347 69.7 167.347Z" fill="white"/>
<path d="M73.4552 167.347C73.1624 167.347 72.9537 167.258 72.8289 167.081C72.7089 166.903 72.6489 166.661 72.6489 166.354V162.178H73.4768V166.397C73.4768 166.498 73.4959 166.57 73.5343 166.613C73.5727 166.651 73.6135 166.67 73.6567 166.67C73.6759 166.67 73.6927 166.67 73.7071 166.67C73.7263 166.665 73.7527 166.661 73.7863 166.656L73.8943 167.275C73.8463 167.294 73.7839 167.311 73.7071 167.325C73.6351 167.34 73.5511 167.347 73.4552 167.347Z" fill="white"/>
<path d="M76.1149 167.347C75.7885 167.347 75.4934 167.275 75.2295 167.131C74.9655 166.982 74.7568 166.771 74.6032 166.498C74.4496 166.219 74.3728 165.886 74.3728 165.497C74.3728 165.113 74.4496 164.782 74.6032 164.504C74.7616 164.225 74.9655 164.012 75.2151 163.863C75.4646 163.714 75.7262 163.64 75.9997 163.64C76.3212 163.64 76.59 163.712 76.8059 163.856C77.0219 163.995 77.185 164.192 77.2954 164.446C77.4058 164.696 77.461 164.986 77.461 165.317C77.461 165.49 77.449 165.624 77.425 165.72H75.1791C75.2175 166.032 75.3302 166.274 75.5174 166.447C75.7046 166.62 75.9397 166.706 76.2228 166.706C76.3764 166.706 76.518 166.685 76.6476 166.641C76.7819 166.594 76.9139 166.529 77.0435 166.447L77.3242 166.965C77.1562 167.076 76.9691 167.167 76.7627 167.239C76.5564 167.311 76.3404 167.347 76.1149 167.347ZM75.1719 165.159H76.7411C76.7411 164.885 76.6811 164.672 76.5612 164.518C76.4412 164.36 76.2612 164.28 76.0213 164.28C75.8149 164.28 75.6302 164.357 75.467 164.511C75.3086 164.66 75.2103 164.875 75.1719 165.159Z" fill="white"/>
<path d="M79.7647 167.261V162.553H81.2692C81.5955 162.553 81.8834 162.589 82.133 162.661C82.3873 162.733 82.5865 162.855 82.7305 163.028C82.8792 163.196 82.9536 163.424 82.9536 163.712C82.9536 163.932 82.896 164.141 82.7809 164.338C82.6657 164.53 82.5049 164.662 82.2986 164.734V164.763C82.5577 164.82 82.7713 164.943 82.9392 165.13C83.112 165.312 83.1984 165.562 83.1984 165.878C83.1984 166.19 83.1192 166.45 82.9608 166.656C82.8073 166.862 82.5937 167.016 82.3202 167.117C82.0466 167.213 81.7371 167.261 81.3916 167.261H79.7647ZM80.5997 164.496H81.1972C81.5235 164.496 81.7611 164.436 81.9098 164.316C82.0586 164.196 82.133 164.036 82.133 163.834C82.133 163.604 82.0562 163.441 81.9026 163.345C81.7491 163.249 81.5187 163.201 81.2116 163.201H80.5997V164.496ZM80.5997 166.613H81.3052C81.6507 166.613 81.917 166.55 82.1042 166.426C82.2914 166.296 82.3849 166.099 82.3849 165.835C82.3849 165.586 82.2938 165.406 82.1114 165.295C81.929 165.18 81.6603 165.123 81.3052 165.123H80.5997V166.613Z" fill="white"/>
<path d="M83.9879 167.261V163.726H84.8157V167.261H83.9879ZM84.4054 163.107C84.2566 163.107 84.1367 163.064 84.0455 162.977C83.9543 162.891 83.9087 162.776 83.9087 162.632C83.9087 162.493 83.9543 162.38 84.0455 162.294C84.1367 162.207 84.2566 162.164 84.4054 162.164C84.5542 162.164 84.6741 162.207 84.7653 162.294C84.8565 162.38 84.9021 162.493 84.9021 162.632C84.9021 162.776 84.8565 162.891 84.7653 162.977C84.6741 163.064 84.5542 163.107 84.4054 163.107Z" fill="white"/>
<path d="M86.6781 167.347C86.3853 167.347 86.1766 167.258 86.0518 167.081C85.9318 166.903 85.8719 166.661 85.8719 166.354V162.178H86.6997V166.397C86.6997 166.498 86.7189 166.57 86.7573 166.613C86.7957 166.651 86.8364 166.67 86.8796 166.67C86.8988 166.67 86.9156 166.67 86.93 166.67C86.9492 166.665 86.9756 166.661 87.0092 166.656L87.1172 167.275C87.0692 167.294 87.0068 167.311 86.93 167.325C86.858 167.34 86.7741 167.347 86.6781 167.347Z" fill="white"/>
<path d="M88.6323 167.347C88.3396 167.347 88.1309 167.258 88.0061 167.081C87.8861 166.903 87.8261 166.661 87.8261 166.354V162.178H88.6539V166.397C88.6539 166.498 88.6731 166.57 88.7115 166.613C88.7499 166.651 88.7907 166.67 88.8339 166.67C88.8531 166.67 88.8699 166.67 88.8843 166.67C88.9035 166.665 88.9299 166.661 88.9635 166.656L89.0714 167.275C89.0235 167.294 88.9611 167.311 88.8843 167.325C88.8123 167.34 88.7283 167.347 88.6323 167.347Z" fill="white"/>
<path fill-rule="evenodd" clip-rule="evenodd" d="M204.824 38.6855L207.114 40.976C207.255 41.1166 207.255 41.3445 207.114 41.485L204.824 43.7756C204.683 43.9161 204.455 43.9161 204.315 43.7756C204.174 43.635 204.174 43.4071 204.315 43.2666L205.991 41.5905H157.55V127.612H205.991L204.315 125.936C204.174 125.795 204.174 125.567 204.315 125.427C204.455 125.286 204.683 125.286 204.824 125.427L207.114 127.717C207.255 127.858 207.255 128.086 207.114 128.226L204.824 130.517C204.683 130.657 204.455 130.657 204.315 130.517C204.174 130.376 204.174 130.148 204.315 130.008L205.991 128.332H157.55V214.353H205.991L204.315 212.677C204.174 212.536 204.174 212.309 204.315 212.168C204.455 212.027 204.683 212.027 204.824 212.168L207.114 214.459C207.255 214.599 207.255 214.827 207.114 214.968L204.824 217.258C204.683 217.399 204.455 217.399 204.315 217.258C204.174 217.117 204.174 216.89 204.315 216.749L205.991 215.073H157.191C156.992 215.073 156.831 214.912 156.831 214.713V128.332H99.9629V127.612H156.831V41.2305C156.831 41.0318 156.992 40.8706 157.191 40.8706H205.991L204.315 39.1945C204.174 39.0539 204.174 38.8261 204.315 38.6855C204.455 38.5449 204.683 38.5449 204.824 38.6855Z" fill="#DCDCE2"/>
<g filter="url(#filter1_d_1815_12491)">
<g filter="url(#filter2_f_1815_12491)">
<ellipse cx="70.3002" cy="176.201" rx="2.15953" ry="3.95914" fill="black" fill-opacity="0.56"/>
</g>
<path d="M89.2895 207.071C89.1432 206.717 89.0226 206.045 89.0226 205.575C89.0226 205.105 88.9021 204.261 88.7558 203.699C88.6096 203.138 88.2242 202.456 87.9 202.185C87.5759 201.915 87.0462 201.648 86.7241 201.592C86.3999 201.539 85.9434 201.515 85.7082 201.543C85.473 201.571 85.2813 201.326 85.2813 201V199.618C85.2813 199.183 85.1607 198.428 85.0144 197.94C84.8682 197.452 84.4828 196.762 84.1587 196.41C83.8345 196.056 83.2574 195.703 82.876 195.62C82.4945 195.539 81.8917 195.628 81.5399 195.817C81.1861 196.007 80.6821 196.363 80.4173 196.608C80.1524 196.853 80.0319 196.63 80.1505 196.114C80.269 195.598 80.3639 194.843 80.3639 194.436C80.3639 194.029 80.2196 193.274 80.0437 192.758C79.8678 192.242 79.2176 191.619 78.599 191.376C77.9803 191.133 77.0672 190.999 76.5672 191.08C76.0672 191.161 75.2489 191.738 74.7489 192.363C74.2488 192.987 73.6717 194.187 73.4662 195.029C73.2606 195.871 72.9839 195.96 72.8515 195.226C72.7191 194.493 72.6104 192.916 72.6104 191.722V175.875C72.6104 175.251 72.2862 174.339 71.889 173.851C71.4917 173.363 70.6616 172.962 70.045 172.962C69.4283 172.962 68.5844 173.474 68.1733 174.096C67.7622 174.719 67.3096 176.887 67.1693 178.913L67.1456 179.253C67.0052 181.277 66.772 184.589 66.6297 186.613L66.4024 189.817C66.2581 191.841 65.8293 194.608 65.4458 195.966C65.0644 197.323 64.5347 199.1 64.2699 199.914C64.005 200.729 63.7896 201.063 63.7896 200.656C63.7896 200.249 63.6216 199.337 63.416 198.632C63.2105 197.926 62.7401 196.993 62.3725 196.559C62.0049 196.124 61.2835 195.258 60.7676 194.633C60.2537 194.009 59.4474 193.499 58.977 193.499C58.5066 193.499 57.7852 193.61 57.3721 193.746C56.961 193.882 56.623 194.214 56.623 194.487C56.623 194.76 56.8997 195.647 57.2377 196.462C57.5757 197.276 57.8524 199.602 57.8524 201.632V206.496C57.8524 208.526 58.222 211.805 58.6726 213.783L60.8822 223.472C61.3329 225.45 61.8112 227.201 61.9436 227.365C62.076 227.527 62.2322 228.573 62.2914 229.685C62.2994 229.832 62.3369 229.972 62.3982 230.108L62.9654 237.498H83.7515L82.534 228.09C82.5538 227.583 82.5815 227.116 82.6111 226.824C82.6704 226.254 82.9827 225.231 83.3068 224.553C83.631 223.875 84.2318 222.829 84.6429 222.232C85.054 221.635 85.5837 220.503 85.8189 219.714C86.054 218.928 86.5363 217.505 86.8881 216.554C87.2419 215.603 87.7696 214.25 88.0641 213.542C88.3586 212.836 88.8151 211.747 89.08 211.123C89.3448 210.498 89.5622 209.476 89.5622 208.852C89.5622 208.227 89.4417 207.427 89.2954 207.075L89.2895 207.071Z" fill="#E3B891"/>
<path d="M57.5637 197.509C57.5637 197.509 56.8482 195.135 56.6367 194.754C56.6367 194.754 57.5044 194.04 58.0736 194.754C58.6981 195.536 59.1409 196.993 59.1409 196.993L57.5637 197.509Z" fill="#FBE2CA"/>
<path d="M68.3891 177.263H71.666C71.666 177.263 71.9881 175.282 71.666 174.452C71.243 173.357 69.6026 173.701 68.7923 174.1C68.3199 174.333 68.3871 177.263 68.3871 177.263H68.3891Z" fill="#FBE2CA"/>
<path d="M59.7119 283.818L61.1448 233.33H84.8363L87.8424 283.818H59.7119Z" fill="#485EB0"/>
<path d="M83.7419 230.284H61.9043V233.33H83.7419V230.284Z" fill="#BBBDBF"/>
</g>
<path fill-rule="evenodd" clip-rule="evenodd" d="M178.125 183.259C177.73 183.296 177.379 183.004 177.343 182.609C176.401 172.399 167.823 164.393 157.363 164.37C147.497 164.348 139.274 171.435 137.543 180.804L141.099 177.848C141.405 177.594 141.859 177.636 142.113 177.942C142.367 178.247 142.325 178.701 142.02 178.955L137.037 183.096C136.731 183.35 136.277 183.308 136.023 183.003L131.883 178.02C131.628 177.714 131.67 177.26 131.976 177.006C132.282 176.752 132.736 176.794 132.99 177.1L136.078 180.816C137.822 170.64 146.697 162.906 157.367 162.93C168.576 162.955 177.767 171.535 178.776 182.476C178.813 182.872 178.521 183.223 178.125 183.259Z" fill="#8F8F8F"/>
<path fill-rule="evenodd" clip-rule="evenodd" d="M136.51 185.702C136.906 185.665 137.257 185.956 137.293 186.352C138.235 196.562 146.812 204.567 157.272 204.591C167.139 204.613 175.362 197.526 177.093 188.157L173.536 191.113C173.231 191.367 172.777 191.325 172.523 191.019C172.269 190.714 172.31 190.26 172.616 190.006L177.599 185.865C177.904 185.611 178.358 185.653 178.612 185.958L182.753 190.941C183.007 191.247 182.965 191.701 182.66 191.955C182.354 192.209 181.9 192.167 181.646 191.861L178.557 188.145C176.814 198.321 167.939 206.055 157.269 206.031C146.059 206.005 136.869 197.426 135.86 186.485C135.823 186.089 136.114 185.738 136.51 185.702Z" fill="#8F8F8F"/>
<rect x="147.18" y="174.758" width="20.5607" height="20.5607" rx="7.5" transform="rotate(0.128916 147.18 174.758)" fill="white" stroke="#E8E8EF"/>
<path d="M146.601 179.067C146.607 176.491 148.699 174.408 151.275 174.414L163.543 174.441C166.118 174.447 168.202 176.54 168.196 179.116L146.601 179.067Z" fill="url(#paint0_linear_1815_12491)"/>
<path d="M153.858 186.359L154.601 186.36C154.964 186.361 155.265 186.302 155.501 186.182C155.741 186.059 155.92 185.893 156.036 185.683C156.157 185.47 156.217 185.23 156.218 184.964C156.219 184.649 156.167 184.384 156.062 184.17C155.958 183.956 155.801 183.795 155.591 183.686C155.381 183.576 155.115 183.522 154.793 183.521C154.5 183.52 154.242 183.578 154.016 183.693C153.795 183.805 153.62 183.966 153.492 184.176C153.368 184.386 153.306 184.633 153.305 184.918L152.265 184.915C152.265 184.499 152.371 184.121 152.582 183.78C152.793 183.439 153.088 183.168 153.467 182.967C153.85 182.765 154.292 182.665 154.795 182.666C155.29 182.667 155.722 182.756 156.093 182.933C156.464 183.107 156.752 183.366 156.958 183.711C157.163 184.053 157.265 184.479 157.264 184.989C157.263 185.195 157.214 185.416 157.116 185.652C157.022 185.884 156.873 186.101 156.67 186.303C156.471 186.505 156.212 186.671 155.893 186.802C155.574 186.929 155.192 186.992 154.746 186.991L153.857 186.989L153.858 186.359ZM153.857 187.214L153.858 186.589L154.747 186.591C155.268 186.592 155.699 186.655 156.04 186.78C156.38 186.904 156.648 187.07 156.843 187.276C157.041 187.483 157.179 187.71 157.257 187.958C157.339 188.202 157.38 188.446 157.379 188.689C157.378 189.072 157.312 189.411 157.18 189.707C157.052 190.003 156.87 190.253 156.633 190.459C156.4 190.665 156.126 190.82 155.811 190.924C155.496 191.028 155.153 191.08 154.781 191.079C154.425 191.078 154.09 191.027 153.775 190.925C153.464 190.823 153.189 190.676 152.949 190.485C152.71 190.289 152.523 190.051 152.389 189.769C152.254 189.484 152.188 189.159 152.188 188.796L153.229 188.798C153.228 189.083 153.289 189.332 153.413 189.546C153.54 189.76 153.719 189.928 153.951 190.048C154.187 190.165 154.465 190.224 154.783 190.224C155.102 190.225 155.376 190.171 155.605 190.063C155.837 189.951 156.016 189.783 156.14 189.558C156.268 189.334 156.333 189.051 156.333 188.709C156.334 188.368 156.263 188.089 156.121 187.871C155.979 187.649 155.777 187.486 155.515 187.38C155.257 187.271 154.951 187.216 154.599 187.215L153.857 187.214Z" fill="#353452"/>
<path d="M161.67 182.749L161.652 190.982L160.611 190.98L160.627 184.046L158.527 184.806L158.53 183.867L161.507 182.749L161.67 182.749Z" fill="#353452"/>
<path d="M153.764 176.688C153.651 177.545 152.864 178.149 152.007 178.036C151.149 177.923 150.546 177.136 150.659 176.278C150.772 175.421 151.559 174.817 152.416 174.931C153.274 175.043 153.877 175.83 153.764 176.688Z" fill="#AD5824"/>
<rect x="151.614" y="172.256" width="1.28721" height="4.65992" rx="0.643603" transform="rotate(0.128916 151.614 172.256)" fill="#D3D3D3"/>
<path d="M164.345 176.71C164.232 177.568 163.445 178.171 162.588 178.058C161.73 177.945 161.127 177.158 161.24 176.301C161.353 175.443 162.14 174.84 162.997 174.953C163.855 175.066 164.458 175.853 164.345 176.71Z" fill="#AD5824"/>
<rect x="162.195" y="172.277" width="1.28721" height="4.65992" rx="0.643603" transform="rotate(0.128916 162.195 172.277)" fill="#D3D3D3"/>
<path d="M158.84 74.7029C158.84 75.6968 158.035 76.5025 157.041 76.5025C156.047 76.5025 155.241 75.6968 155.241 74.7029C155.241 73.709 156.047 72.9033 157.041 72.9033C158.035 72.9033 158.84 73.709 158.84 74.7029Z" fill="#B6BFDF"/>
<path d="M158.84 80.4617C158.84 81.4556 158.035 82.2613 157.041 82.2613C156.047 82.2613 155.241 81.4556 155.241 80.4617C155.241 79.4678 156.047 78.6621 157.041 78.6621C158.035 78.6621 158.84 79.4678 158.84 80.4617Z" fill="#919ED0"/>
<path d="M158.84 86.2205C158.84 87.2144 158.035 88.0201 157.041 88.0201C156.047 88.0201 155.241 87.2144 155.241 86.2205C155.241 85.2266 156.047 84.4209 157.041 84.4209C158.035 84.4209 158.84 85.2266 158.84 86.2205Z" fill="#6D7EC0"/>
<path d="M141.356 129.992L132.576 129.076L128.872 120.646L125.986 121.399C125.986 121.399 128.118 130.308 130.502 131.687C132.886 133.067 141.042 133.317 141.042 133.317L141.356 129.992Z" fill="#D3D3D3"/>
<path d="M146.022 134.269C147.449 132.664 147.304 130.205 145.699 128.778C144.093 127.351 141.635 127.496 140.208 129.102C138.781 130.707 138.926 133.166 140.531 134.593C142.137 136.02 144.595 135.875 146.022 134.269Z" fill="#8E9395"/>
<path d="M143.116 135.58C142.075 135.58 141.099 135.174 140.362 134.439C139.627 133.704 139.221 132.726 139.221 131.685C139.221 130.644 139.627 129.667 140.362 128.93C141.097 128.195 142.075 127.789 143.116 127.789C144.157 127.789 145.134 128.195 145.871 128.93C146.606 129.665 147.012 130.644 147.012 131.685C147.012 132.726 146.606 133.702 145.871 134.439C145.136 135.174 144.157 135.58 143.116 135.58ZM143.116 127.802C142.079 127.802 141.103 128.205 140.37 128.938C139.637 129.671 139.233 130.648 139.233 131.685C139.233 132.722 139.637 133.698 140.37 134.431C141.103 135.164 142.079 135.568 143.116 135.568C144.153 135.568 145.13 135.164 145.863 134.431C146.595 133.698 146.999 132.722 146.999 131.685C146.999 130.648 146.595 129.671 145.863 128.938C145.13 128.205 144.153 127.802 143.116 127.802Z" fill="#A1A1AB"/>
<path d="M131.802 132.355C133.368 131.979 134.333 130.404 133.957 128.838C133.581 127.271 132.006 126.306 130.44 126.682C128.873 127.058 127.908 128.633 128.284 130.2C128.661 131.766 130.235 132.731 131.802 132.355Z" fill="#8E9395"/>
<path d="M128.904 121.329C129.835 120.398 129.835 118.889 128.904 117.958C127.973 117.027 126.463 117.027 125.532 117.958C124.601 118.889 124.601 120.398 125.532 121.329C126.463 122.26 127.973 122.26 128.904 121.329Z" fill="#8E9395"/>
<path d="M130.934 118.353L128.975 120.008L128.267 119.169L130.227 117.514C130.441 117.333 130.764 117.36 130.945 117.575L130.994 117.632C131.175 117.847 131.148 118.17 130.933 118.351L130.934 118.353Z" fill="#8E9395"/>
<path d="M128.441 115.317V117.807C128.441 117.849 128.408 117.88 128.369 117.88H127.419C127.377 117.88 127.346 117.846 127.346 117.807V115.317C127.346 115.036 127.575 114.807 127.856 114.807H127.931C128.212 114.807 128.441 115.036 128.441 115.317Z" fill="#8E9395"/>
<path d="M126.674 115.326L127.218 117.756C127.227 117.797 127.201 117.834 127.162 117.843L126.236 118.05C126.195 118.059 126.157 118.034 126.149 117.995L125.605 115.565C125.544 115.291 125.717 115.017 125.992 114.956L126.065 114.939C126.339 114.878 126.613 115.052 126.674 115.326Z" fill="#8E9395"/>
<path d="M124.773 115.933L126.018 118.09C126.039 118.126 126.025 118.169 125.991 118.189L125.169 118.664C125.133 118.685 125.089 118.671 125.069 118.637L123.824 116.481C123.684 116.237 123.767 115.924 124.011 115.784L124.076 115.746C124.319 115.606 124.632 115.69 124.773 115.933Z" fill="#8E9395"/>
<path d="M179.47 151.822L182.095 150.706L174.52 132.897L171.896 134.013L179.47 151.822Z" fill="#D3D3D3"/>
<path d="M174.899 134.601C176.288 132.962 176.085 130.507 174.446 129.119C172.807 127.73 170.353 127.933 168.964 129.572C167.576 131.211 167.779 133.666 169.418 135.054C171.057 136.443 173.511 136.239 174.899 134.601Z" fill="#8E9395"/>
<path d="M171.936 135.987C171.551 135.987 171.162 135.928 170.783 135.812C169.79 135.506 168.973 134.829 168.488 133.911C168.003 132.991 167.903 131.937 168.209 130.944C168.515 129.951 169.192 129.135 170.11 128.649C171.031 128.164 172.084 128.064 173.077 128.37C174.07 128.677 174.887 129.353 175.372 130.271C175.857 131.192 175.957 132.245 175.651 133.238C175.345 134.232 174.668 135.048 173.75 135.533C173.181 135.833 172.561 135.987 171.934 135.987H171.936ZM171.926 128.204C171.301 128.204 170.683 128.356 170.117 128.656C169.198 129.141 168.526 129.953 168.22 130.946C167.914 131.937 168.012 132.989 168.497 133.907C168.982 134.825 169.794 135.497 170.787 135.804C171.778 136.11 172.829 136.012 173.748 135.527C174.666 135.041 175.338 134.229 175.644 133.236C175.951 132.245 175.851 131.194 175.368 130.276C174.882 129.357 174.07 128.685 173.077 128.379C172.698 128.262 172.313 128.204 171.928 128.204H171.926Z" fill="#A1A1AB"/>
<path d="M179.806 143.712C180.238 142.16 179.329 140.552 177.777 140.121C176.225 139.69 174.617 140.598 174.185 142.15C173.754 143.703 174.663 145.311 176.215 145.742C177.767 146.173 179.375 145.265 179.806 143.712Z" fill="#8E9395"/>
<path d="M183.654 151.254C183.238 150.005 181.886 149.331 180.639 149.749C179.39 150.165 178.715 151.517 179.134 152.764C179.55 154.013 180.902 154.688 182.149 154.269C183.398 153.853 184.073 152.502 183.654 151.254Z" fill="#8E9395"/>
<path d="M178.275 154.412L179.61 152.222L180.547 152.793L179.212 154.983C179.066 155.223 178.751 155.299 178.511 155.153L178.447 155.114C178.207 154.968 178.131 154.653 178.277 154.413L178.275 154.412Z" fill="#8E9395"/>
<path d="M181.603 156.5L180.815 154.137C180.801 154.098 180.823 154.058 180.861 154.045L181.761 153.745C181.801 153.731 181.841 153.753 181.853 153.791L182.642 156.153C182.731 156.419 182.586 156.709 182.32 156.798L182.249 156.822C181.982 156.911 181.692 156.766 181.603 156.5Z" fill="#8E9395"/>
<path d="M183.275 155.932L181.99 153.799C181.968 153.764 181.981 153.72 182.014 153.699L182.828 153.209C182.863 153.188 182.907 153.2 182.928 153.234L184.213 155.367C184.358 155.608 184.28 155.922 184.039 156.067L183.975 156.106C183.734 156.251 183.42 156.173 183.275 155.932Z" fill="#8E9395"/>
<path d="M184.887 154.754L183.023 153.102C182.992 153.075 182.99 153.029 183.017 152.999L183.646 152.289C183.674 152.257 183.72 152.256 183.749 152.282L185.613 153.934C185.823 154.12 185.843 154.443 185.657 154.654L185.607 154.71C185.42 154.92 185.097 154.94 184.887 154.754Z" fill="#8E9395"/>
<path d="M141.949 127.64C141.949 127.64 142.23 154.943 157.552 155.478C172.874 156.013 173.518 127.836 173.518 127.64C173.518 127.64 171.708 123.568 157.734 123.728C143.759 123.889 141.949 127.64 141.949 127.64Z" fill="#D3D3D3"/>
<path d="M150.557 122.832H163.508C164.353 122.832 165.038 122.147 165.038 121.302V121.079C165.038 120.234 164.353 119.549 163.508 119.549H150.557C149.712 119.549 149.027 120.234 149.027 121.079V121.302C149.027 122.147 149.712 122.832 150.557 122.832Z" fill="#8E9395"/>
<path d="M156.475 98.5537H157.593V92.9008H156.475V98.5537Z" fill="#767587"/>
<path d="M174.134 115.381C175.899 114.962 176.99 113.19 176.571 111.425C176.151 109.66 174.38 108.569 172.614 108.988C170.849 109.408 169.758 111.179 170.178 112.945C170.597 114.71 172.369 115.801 174.134 115.381Z" fill="#D3D3D3"/>
<path d="M140.933 115.168C142.703 114.766 143.812 113.006 143.41 111.237C143.009 109.467 141.249 108.358 139.48 108.76C137.71 109.161 136.601 110.921 137.002 112.69C137.404 114.46 139.164 115.569 140.933 115.168Z" fill="#D3D3D3"/>
<path d="M156.383 97.3276C156.383 97.3276 143.025 97.1673 140.909 108.737C138.794 120.308 150.091 120.524 153.341 120.743C154.816 120.843 157.968 120.853 160.75 120.803C166.908 120.697 171.258 119.504 172.74 113.791C172.913 113.124 173.03 112.439 173.073 111.744C173.465 105.483 169.226 97.0174 156.385 97.3256L156.383 97.3276Z" fill="#D3D3D3"/>
<path d="M166.075 114.95L146.668 115.254C144.634 115.285 142.96 113.663 142.926 111.629C142.895 109.595 144.517 107.921 146.551 107.887L165.958 107.583C167.992 107.552 169.666 109.174 169.7 111.208C169.731 113.243 168.109 114.917 166.075 114.95Z" fill="#263238"/>
<path d="M150.693 111.224C150.568 111.866 149.946 112.282 149.306 112.157C148.665 112.032 148.249 111.41 148.374 110.77C148.499 110.129 149.121 109.713 149.76 109.838C150.402 109.962 150.818 110.585 150.693 111.224Z" fill="white"/>
<path d="M164.253 111.008C164.128 111.65 163.505 112.066 162.866 111.941C162.225 111.816 161.808 111.194 161.933 110.555C162.058 109.913 162.681 109.497 163.32 109.622C163.961 109.747 164.378 110.369 164.253 111.008Z" fill="white"/>
<path d="M164.228 140.622C163.954 144.381 160.684 147.205 156.927 146.931C153.167 146.656 150.344 143.386 150.618 139.627C150.892 135.868 154.162 133.044 157.922 133.318C161.681 133.593 164.505 136.863 164.23 140.622H164.228Z" fill="#8E9395"/>
<path d="M162.384 140.487C162.185 143.224 159.803 145.284 157.063 145.083C154.325 144.884 152.265 142.501 152.467 139.761C152.666 137.023 155.048 134.963 157.789 135.165C160.526 135.364 162.586 137.747 162.384 140.487Z" fill="white"/>
<path d="M157.401 145.43C160.385 145.436 162.81 143.056 162.817 140.112C162.824 137.169 160.409 134.778 157.425 134.771C154.44 134.764 152.015 137.145 152.009 140.088C152.002 143.031 154.416 145.423 157.401 145.43Z" fill="#8E9395"/>
<path d="M157.402 144.631C159.94 144.637 162.002 142.613 162.007 140.11C162.013 137.607 159.96 135.574 157.422 135.568C154.885 135.562 152.823 137.586 152.817 140.089C152.811 142.592 154.864 144.625 157.402 144.631Z" fill="white"/>
<path d="M157.637 136.991L157.63 140.159L159.764 138.977" stroke="#8E9395" stroke-width="1.5" stroke-linecap="round" stroke-linejoin="round"/>
<path d="M158.338 94.0881C159.057 93.3685 159.057 92.2018 158.338 91.4822C157.618 90.7626 156.451 90.7626 155.732 91.4822C155.012 92.2018 155.012 93.3685 155.732 94.0881C156.451 94.8077 157.618 94.8077 158.338 94.0881Z" fill="#485EB0"/>
<path d="M171.879 116.074C171.86 116.063 172.1 115.699 172.329 115.043C172.566 114.391 172.772 113.446 172.87 112.391C172.976 111.333 172.96 110.369 172.932 109.673C172.916 109.326 172.899 109.045 172.885 108.849C172.87 108.655 172.866 108.547 172.874 108.545C172.883 108.545 172.899 108.651 172.926 108.845C172.955 109.038 172.982 109.319 173.01 109.669C173.055 110.367 173.084 111.337 172.978 112.401C172.878 113.465 172.658 114.416 172.402 115.07C172.277 115.397 172.148 115.653 172.048 115.822C171.946 115.988 171.885 116.08 171.879 116.076V116.074Z" fill="#767587"/>
<path d="M140.942 108.357C140.942 108.357 140.925 108.466 140.875 108.655C140.85 108.749 140.819 108.865 140.792 109.001C140.763 109.136 140.723 109.288 140.698 109.461C140.634 109.802 140.582 110.215 140.553 110.675C140.53 111.135 140.53 111.641 140.573 112.17C140.623 112.699 140.711 113.196 140.815 113.646C140.925 114.092 141.048 114.489 141.173 114.814C141.229 114.978 141.294 115.122 141.346 115.251C141.396 115.38 141.446 115.489 141.489 115.576C141.571 115.753 141.612 115.853 141.606 115.857C141.6 115.861 141.546 115.768 141.452 115.595C141.404 115.509 141.348 115.403 141.292 115.276C141.233 115.149 141.163 115.008 141.102 114.843C140.967 114.518 140.836 114.121 140.719 113.671C140.609 113.219 140.515 112.715 140.465 112.18C140.419 111.645 140.423 111.133 140.453 110.669C140.488 110.204 140.548 109.79 140.623 109.446C140.655 109.274 140.698 109.122 140.734 108.986C140.767 108.851 140.802 108.736 140.836 108.643C140.898 108.457 140.936 108.355 140.942 108.357Z" fill="#767587"/>
<path d="M141.885 127.615C141.885 127.615 141.912 127.622 141.966 127.638C142.022 127.657 142.099 127.684 142.197 127.718C142.405 127.79 142.703 127.897 143.084 128.03C143.278 128.099 143.49 128.176 143.725 128.259C143.961 128.338 144.221 128.411 144.498 128.498C145.054 128.663 145.68 128.877 146.392 129.044C146.746 129.135 147.117 129.229 147.502 129.329C147.889 129.427 148.298 129.5 148.718 129.589C149.555 129.781 150.465 129.912 151.419 130.066C153.332 130.326 155.452 130.503 157.679 130.514C159.909 130.505 162.029 130.326 163.942 130.066C164.896 129.912 165.804 129.781 166.643 129.589C167.063 129.498 167.472 129.427 167.859 129.329C168.244 129.229 168.615 129.135 168.969 129.044C169.681 128.877 170.305 128.663 170.863 128.498C171.14 128.413 171.4 128.338 171.636 128.259C171.869 128.176 172.083 128.099 172.277 128.03C172.658 127.894 172.956 127.79 173.164 127.718C173.262 127.684 173.339 127.657 173.395 127.638C173.447 127.622 173.474 127.613 173.476 127.615C173.478 127.618 173.451 127.628 173.399 127.649C173.343 127.672 173.268 127.701 173.17 127.738C172.964 127.815 172.666 127.928 172.289 128.071C172.098 128.142 171.883 128.223 171.652 128.309C171.417 128.39 171.159 128.467 170.882 128.557C170.326 128.727 169.701 128.946 168.989 129.119C168.635 129.212 168.265 129.31 167.878 129.41C167.49 129.51 167.082 129.585 166.662 129.677C165.822 129.872 164.913 130.008 163.957 130.164C162.039 130.43 159.916 130.612 157.679 130.62C155.445 130.61 153.32 130.428 151.404 130.162C150.448 130.004 149.539 129.87 148.699 129.673C148.279 129.579 147.871 129.504 147.483 129.406C147.098 129.304 146.726 129.206 146.372 129.115C145.66 128.942 145.035 128.723 144.479 128.552C144.202 128.463 143.944 128.386 143.709 128.305C143.475 128.217 143.263 128.138 143.072 128.067C142.693 127.924 142.397 127.813 142.191 127.734C142.095 127.697 142.018 127.668 141.962 127.645C141.91 127.624 141.885 127.613 141.885 127.611V127.615Z" fill="#767587"/>
<g opacity="0.3">
<path d="M141.95 127.64C141.95 127.64 143.76 123.886 157.734 123.728C171.709 123.568 173.519 127.64 173.519 127.64C173.519 127.64 159.423 134.593 141.952 127.64H141.95Z" fill="#767587"/>
</g>
<path d="M154.693 98.1935C154.693 98.1935 154.676 98.1977 154.645 98.2018C154.608 98.206 154.56 98.2101 154.504 98.2143C154.379 98.2268 154.195 98.231 153.96 98.2601C153.49 98.3018 152.811 98.3955 151.988 98.587C151.166 98.7765 150.204 99.0846 149.192 99.5531C148.18 100.019 147.125 100.661 146.129 101.477C145.14 102.299 144.31 103.215 143.66 104.119C143.008 105.025 142.523 105.91 142.18 106.68C141.836 107.45 141.615 108.1 141.484 108.554C141.411 108.779 141.374 108.958 141.336 109.079C141.32 109.133 141.307 109.179 141.297 109.214C141.287 109.245 141.282 109.26 141.28 109.26C141.28 109.26 141.28 109.243 141.287 109.212C141.295 109.174 141.303 109.129 141.316 109.072C141.345 108.952 141.378 108.77 141.443 108.541C141.561 108.083 141.772 107.428 142.109 106.649C142.444 105.87 142.925 104.975 143.579 104.061C144.231 103.147 145.063 102.222 146.061 101.392C147.064 100.569 148.13 99.9279 149.151 99.4615C150.173 98.9951 151.143 98.6911 151.972 98.51C152.8 98.3267 153.483 98.2455 153.956 98.2164C154.191 98.1956 154.377 98.1977 154.502 98.1914C154.558 98.1914 154.606 98.1914 154.643 98.1914C154.674 98.1914 154.691 98.1914 154.691 98.1935H154.693Z" fill="white"/>
<path d="M141.621 114.221C141.608 114.225 141.527 114.071 141.431 113.804C141.334 113.54 141.227 113.161 141.161 112.736C141.094 112.309 141.082 111.918 141.092 111.635C141.103 111.351 141.132 111.181 141.146 111.181C141.18 111.181 141.134 111.878 141.267 112.719C141.396 113.56 141.654 114.208 141.621 114.221Z" fill="white"/>
<path d="M138.117 113.145C138.117 113.145 138.069 113.111 138.005 113.032C137.938 112.953 137.853 112.832 137.77 112.668C137.599 112.345 137.453 111.833 137.526 111.269C137.601 110.704 137.878 110.248 138.126 109.98C138.251 109.844 138.363 109.749 138.448 109.69C138.532 109.632 138.582 109.605 138.586 109.611C138.598 109.626 138.411 109.755 138.184 110.03C137.957 110.302 137.705 110.744 137.634 111.281C137.564 111.818 137.693 112.312 137.838 112.632C137.984 112.957 138.134 113.13 138.117 113.142V113.145Z" fill="white"/>
<path d="M157.159 91.5005C157.154 91.5213 156.969 91.4526 156.669 91.488C156.378 91.5192 155.957 91.6878 155.707 92.0709C155.464 92.4582 155.485 92.91 155.578 93.189C155.67 93.4764 155.809 93.6179 155.793 93.6304C155.789 93.6346 155.749 93.6054 155.693 93.5388C155.634 93.4722 155.564 93.3639 155.505 93.2161C155.387 92.9288 155.347 92.4395 155.616 92.0147C155.891 91.5942 156.351 91.4276 156.663 91.4151C156.821 91.4068 156.95 91.4255 157.034 91.4505C157.119 91.4755 157.161 91.4984 157.159 91.5025V91.5005Z" fill="white"/>
<path d="M175.304 110.618C175.282 110.643 174.957 110.333 174.467 110.1C173.98 109.86 173.537 109.798 173.543 109.764C173.543 109.737 174.007 109.754 174.515 110.002C175.023 110.245 175.325 110.601 175.304 110.618Z" fill="white"/>
<path d="M146.754 147.071C146.754 147.071 146.743 147.058 146.727 147.031C146.708 146.998 146.685 146.958 146.658 146.909C146.596 146.792 146.512 146.632 146.406 146.432C146.352 146.328 146.292 146.211 146.227 146.084C146.167 145.955 146.102 145.813 146.031 145.663C145.89 145.362 145.729 145.018 145.575 144.627C145.496 144.433 145.413 144.229 145.326 144.016C145.246 143.802 145.163 143.577 145.078 143.346C144.899 142.886 144.747 142.38 144.57 141.855C144.243 140.796 143.922 139.617 143.641 138.368C143.366 137.116 143.156 135.915 142.989 134.818C142.835 133.719 142.715 132.727 142.648 131.89C142.608 131.472 142.583 131.095 142.563 130.762C142.54 130.429 142.523 130.144 142.517 129.908C142.508 129.681 142.504 129.502 142.498 129.369C142.498 129.313 142.498 129.267 142.498 129.23C142.498 129.198 142.498 129.182 142.5 129.182C142.5 129.182 142.504 129.198 142.508 129.23C142.513 129.267 142.517 129.313 142.521 129.369C142.531 129.502 142.544 129.681 142.558 129.908C142.571 130.141 142.594 130.429 142.623 130.76C142.65 131.091 142.679 131.47 142.725 131.886C142.802 132.721 142.931 133.71 143.089 134.805C143.26 135.901 143.475 137.098 143.747 138.347C144.028 139.594 144.345 140.768 144.663 141.828C144.838 142.353 144.986 142.859 145.161 143.319C145.244 143.55 145.326 143.775 145.403 143.989C145.488 144.202 145.567 144.406 145.646 144.599C145.796 144.991 145.95 145.337 146.085 145.641C146.152 145.793 146.215 145.934 146.273 146.065C146.335 146.192 146.392 146.309 146.444 146.415C146.541 146.619 146.621 146.782 146.679 146.9C146.702 146.952 146.721 146.994 146.737 147.027C146.75 147.056 146.756 147.071 146.754 147.073V147.071Z" fill="white"/>
<path d="M138.597 130.096C138.595 130.125 137.914 130.103 137.075 130.042C136.236 129.982 135.559 129.909 135.562 129.88C135.564 129.851 136.244 129.874 137.084 129.934C137.921 129.994 138.599 130.067 138.597 130.096Z" fill="white"/>
<path d="M130.764 125.65C130.737 125.665 130.383 125.061 129.97 124.301C129.558 123.541 129.248 122.914 129.273 122.9C129.3 122.885 129.654 123.489 130.066 124.249C130.478 125.009 130.789 125.636 130.764 125.65Z" fill="white"/>
<path d="M154.136 153.635C154.136 153.635 154.048 153.631 153.892 153.606C153.736 153.583 153.513 153.529 153.24 153.448C152.968 153.369 152.651 153.248 152.312 153.092C151.974 152.929 151.614 152.727 151.258 152.48C150.904 152.228 150.592 151.957 150.325 151.695C150.063 151.428 149.842 151.17 149.676 150.941C149.507 150.714 149.382 150.52 149.307 150.381C149.23 150.244 149.191 150.164 149.197 150.162C149.214 150.152 149.388 150.454 149.736 150.895C149.909 151.116 150.132 151.364 150.396 151.624C150.663 151.88 150.973 152.145 151.321 152.39C151.67 152.634 152.024 152.836 152.355 153.002C152.689 153.163 152.999 153.288 153.263 153.377C153.794 153.556 154.14 153.617 154.136 153.637V153.635Z" fill="white"/>
<path d="M132.124 127.606C132.116 127.623 131.964 127.546 131.699 127.486C131.437 127.425 131.06 127.402 130.66 127.496C130.26 127.594 129.936 127.786 129.73 127.958C129.523 128.131 129.421 128.269 129.407 128.258C129.399 128.254 129.478 128.096 129.68 127.902C129.879 127.709 130.217 127.494 130.635 127.392C131.054 127.292 131.451 127.33 131.718 127.413C131.987 127.494 132.128 127.598 132.122 127.606H132.124Z" fill="white"/>
<path d="M162.867 106.905C162.867 106.934 160.311 106.959 157.158 106.959C154.006 106.959 151.449 106.934 151.449 106.905C151.449 106.876 154.006 106.851 157.158 106.851C160.311 106.851 162.867 106.876 162.867 106.905Z" fill="white"/>
<path d="M153.126 119.924C153.126 119.924 153.092 119.932 153.03 119.941C152.953 119.947 152.861 119.955 152.751 119.966C152.63 119.976 152.482 119.987 152.31 119.989C152.137 119.993 151.941 120.003 151.724 119.995C151.289 119.995 150.773 119.964 150.2 119.903C149.63 119.837 149.005 119.735 148.358 119.585C147.712 119.431 147.108 119.241 146.567 119.048C146.028 118.848 145.553 118.642 145.164 118.45C144.966 118.358 144.795 118.263 144.643 118.181C144.489 118.102 144.362 118.027 144.258 117.965C144.164 117.907 144.085 117.859 144.019 117.819C143.965 117.786 143.937 117.765 143.94 117.763C143.942 117.761 143.973 117.773 144.029 117.8C144.098 117.836 144.179 117.877 144.277 117.927C144.383 117.986 144.514 118.054 144.67 118.127C144.824 118.202 144.997 118.294 145.197 118.379C145.589 118.562 146.065 118.758 146.603 118.952C147.142 119.141 147.744 119.324 148.385 119.479C149.026 119.628 149.647 119.73 150.213 119.803C150.779 119.87 151.293 119.907 151.727 119.918C151.943 119.93 152.139 119.924 152.31 119.926C152.482 119.928 152.63 119.926 152.751 119.922C152.861 119.922 152.953 119.92 153.03 119.918C153.094 119.918 153.128 119.92 153.128 119.924H153.126Z" fill="white"/>
<path d="M169.744 129.307C169.744 129.307 169.727 129.318 169.694 129.33C169.654 129.345 169.604 129.363 169.544 129.386C169.404 129.436 169.211 129.505 168.965 129.592C168.713 129.684 168.405 129.788 168.041 129.896C167.676 130.005 167.266 130.14 166.804 130.257C166.573 130.317 166.331 130.382 166.079 130.448C165.827 130.515 165.561 130.567 165.288 130.631C164.743 130.765 164.151 130.869 163.531 130.985C162.286 131.196 160.905 131.371 159.45 131.466C157.995 131.552 156.604 131.545 155.342 131.489C154.711 131.45 154.112 131.418 153.554 131.354C153.275 131.325 153.004 131.304 152.746 131.268C152.487 131.233 152.24 131.2 152.002 131.166C151.528 131.108 151.105 131.025 150.73 130.96C150.355 130.898 150.037 130.831 149.777 130.773C149.523 130.717 149.323 130.671 149.177 130.64C149.114 130.625 149.062 130.613 149.021 130.602C148.985 130.594 148.969 130.588 148.969 130.586C148.969 130.583 148.987 130.586 149.023 130.592C149.065 130.598 149.117 130.608 149.181 130.619C149.327 130.646 149.529 130.683 149.785 130.733C150.047 130.785 150.366 130.848 150.741 130.902C151.115 130.96 151.538 131.039 152.013 131.092C152.25 131.121 152.498 131.154 152.754 131.185C153.012 131.216 153.283 131.235 153.562 131.264C154.12 131.325 154.717 131.352 155.346 131.389C156.606 131.439 157.993 131.443 159.444 131.358C160.895 131.264 162.271 131.092 163.514 130.887C164.135 130.773 164.724 130.673 165.269 130.544C165.542 130.481 165.809 130.431 166.061 130.367C166.313 130.302 166.554 130.242 166.785 130.182C167.249 130.071 167.66 129.94 168.024 129.838C168.388 129.736 168.701 129.636 168.953 129.553C169.2 129.474 169.396 129.411 169.538 129.365C169.6 129.347 169.65 129.332 169.692 129.32C169.727 129.309 169.744 129.305 169.746 129.307H169.744Z" fill="white"/>
<g filter="url(#filter3_d_1815_12491)">
<rect x="207.07" y="6.67773" width="61.1868" height="69.716" fill="white" shape-rendering="crispEdges"/>
<rect x="248.821" y="12.2002" width="19.4358" height="8.97334" fill="#EBEFF5"/>
<rect x="212.829" y="25.3145" width="49.6693" height="5.52206" fill="#EBEFF5"/>
<rect x="212.829" y="60.5176" width="49.6693" height="2.76103" fill="#EBEFF5"/>
<rect x="250.98" y="66.04" width="11.5175" height="2.76103" fill="#E3E3E3"/>
<rect x="212.829" y="33.5977" width="2.87938" height="2.76103" fill="#E3E3E3"/>
<rect x="212.829" y="39.1201" width="2.87938" height="2.76103" fill="#E3E3E3"/>
<rect x="212.829" y="44.6416" width="2.87938" height="2.76103" fill="#E3E3E3"/>
<rect x="212.829" y="50.1641" width="2.87938" height="2.76103" fill="#E3E3E3"/>
<rect x="217.148" y="33.5977" width="28.0739" height="2.76103" fill="#E3E3E3"/>
<rect x="217.148" y="39.1201" width="28.0739" height="2.76103" fill="#E3E3E3"/>
<rect x="217.148" y="44.6416" width="28.0739" height="2.76103" fill="#E3E3E3"/>
<rect x="217.148" y="50.1641" width="28.0739" height="2.76103" fill="#E3E3E3"/>
<rect x="250.261" y="33.5977" width="12.2374" height="2.76103" fill="#E3E3E3"/>
<rect x="250.261" y="39.1201" width="12.2374" height="2.76103" fill="#E3E3E3"/>
<rect x="250.261" y="44.6416" width="12.2374" height="2.76103" fill="#E3E3E3"/>
<rect x="250.261" y="50.1641" width="12.2374" height="2.76103" fill="#E3E3E3"/>
<path d="M214.222 18.8626V14.3621H215.28V18.8626H214.222Z" fill="#28313B"/>
<path d="M216.387 18.8626V14.3621H217.474L218.698 16.5986L219.158 17.5925H219.187C219.168 17.3532 219.141 17.0863 219.108 16.7918C219.074 16.4973 219.057 16.2166 219.057 15.9497V14.3621H220.065V18.8626H218.978L217.755 16.6193L217.294 15.6391H217.265C217.289 15.8876 217.315 16.1545 217.344 16.4398C217.378 16.7251 217.395 17.0012 217.395 17.2681V18.8626H216.387Z" fill="#28313B"/>
<path d="M221.988 18.8626L220.569 14.3621H221.692L222.254 16.4605C222.326 16.7044 222.388 16.9437 222.441 17.1784C222.499 17.4131 222.563 17.6547 222.635 17.9031H222.664C222.731 17.6547 222.794 17.4131 222.851 17.1784C222.909 16.9437 222.971 16.7044 223.038 16.4605L223.593 14.3621H224.673L223.262 18.8626H221.988Z" fill="#28313B"/>
<path d="M227.011 18.9454C226.589 18.9454 226.217 18.8511 225.896 18.6624C225.579 18.4738 225.329 18.2046 225.147 17.8548C224.969 17.5005 224.881 17.0794 224.881 16.5917C224.881 16.0993 224.969 15.6828 225.147 15.3423C225.329 14.9972 225.579 14.7349 225.896 14.5554C226.217 14.3713 226.589 14.2793 227.011 14.2793C227.434 14.2793 227.803 14.3713 228.12 14.5554C228.441 14.7349 228.691 14.9972 228.868 15.3423C229.051 15.6874 229.142 16.1039 229.142 16.5917C229.142 17.0794 229.051 17.5005 228.868 17.8548C228.691 18.2046 228.441 18.4738 228.12 18.6624C227.803 18.8511 227.434 18.9454 227.011 18.9454ZM227.011 18.0688C227.333 18.0688 227.587 17.9354 227.774 17.6685C227.961 17.4016 228.055 17.0426 228.055 16.5917C228.055 16.1407 227.961 15.7887 227.774 15.5356C227.587 15.2825 227.333 15.1559 227.011 15.1559C226.69 15.1559 226.435 15.2825 226.248 15.5356C226.061 15.7887 225.968 16.1407 225.968 16.5917C225.968 17.0426 226.061 17.4016 226.248 17.6685C226.435 17.9354 226.69 18.0688 227.011 18.0688Z" fill="#28313B"/>
<path d="M230.025 18.8626V14.3621H231.083V18.8626H230.025Z" fill="#28313B"/>
<path d="M234.148 18.9454C233.754 18.9454 233.392 18.858 233.061 18.6831C232.73 18.5083 232.463 18.2506 232.262 17.91C232.065 17.5649 231.967 17.1416 231.967 16.64C231.967 16.143 232.067 15.7196 232.269 15.3699C232.475 15.0156 232.746 14.7464 233.082 14.5623C233.423 14.3736 233.79 14.2793 234.184 14.2793C234.486 14.2793 234.757 14.3391 234.997 14.4588C235.237 14.5738 235.436 14.7096 235.595 14.866L235.033 15.5149C234.913 15.409 234.786 15.3239 234.652 15.2595C234.522 15.1904 234.373 15.1559 234.205 15.1559C233.994 15.1559 233.8 15.2134 233.622 15.3285C233.449 15.4435 233.31 15.6092 233.205 15.8255C233.104 16.0418 233.053 16.3017 233.053 16.6055C233.053 17.0656 233.157 17.4246 233.363 17.6823C233.569 17.94 233.845 18.0688 234.191 18.0688C234.383 18.0688 234.553 18.0274 234.702 17.9446C234.855 17.8617 234.99 17.7628 235.105 17.6478L235.667 18.2828C235.273 18.7246 234.767 18.9454 234.148 18.9454Z" fill="#28313B"/>
<path d="M236.379 18.8626V14.3621H239.316V15.218H237.438V16.1223H239.036V16.9713H237.438V18.0067H239.388V18.8626H236.379Z" fill="#28313B"/>
<path d="M241.476 18.8626V18.2828C241.865 17.9285 242.208 17.6086 242.506 17.3233C242.808 17.0334 243.043 16.7688 243.211 16.5295C243.379 16.2856 243.463 16.0602 243.463 15.8531C243.463 15.6368 243.403 15.4734 243.283 15.363C243.168 15.248 243.012 15.1904 242.815 15.1904C242.652 15.1904 242.503 15.2365 242.369 15.3285C242.239 15.4159 242.117 15.5195 242.002 15.6391L241.426 15.0938C241.651 14.8637 241.882 14.6912 242.117 14.5761C242.352 14.4565 242.633 14.3966 242.959 14.3966C243.261 14.3966 243.525 14.4542 243.751 14.5692C243.976 14.6842 244.152 14.8476 244.276 15.0593C244.406 15.2664 244.471 15.5103 244.471 15.791C244.471 16.0349 244.399 16.2856 244.255 16.5433C244.116 16.7964 243.936 17.0518 243.715 17.3095C243.494 17.5626 243.259 17.8134 243.009 18.0619C243.125 18.0481 243.254 18.0366 243.398 18.0274C243.542 18.0136 243.667 18.0067 243.773 18.0067H244.694V18.8626H241.476Z" fill="#28313B"/>
<path d="M252.298 19.1027V14.5884H255.141V15.2649H253.133V16.5419H254.846V17.2183H253.133V19.1027H252.298Z" fill="#8F8F8F"/>
<path d="M256.935 19.1855C256.608 19.1855 256.313 19.1165 256.049 18.9785C255.785 18.8358 255.577 18.6333 255.423 18.371C255.269 18.1041 255.193 17.7843 255.193 17.4116C255.193 17.0434 255.269 16.7259 255.423 16.459C255.581 16.1921 255.785 15.9873 256.035 15.8447C256.284 15.702 256.546 15.6307 256.819 15.6307C257.141 15.6307 257.41 15.6997 257.626 15.8378C257.842 15.9712 258.005 16.1599 258.115 16.4038C258.226 16.6431 258.281 16.9215 258.281 17.239C258.281 17.4047 258.269 17.5335 258.245 17.6256H255.999C256.037 17.9247 256.15 18.1571 256.337 18.3227C256.524 18.4884 256.759 18.5712 257.043 18.5712C257.196 18.5712 257.338 18.5505 257.467 18.5091C257.602 18.4631 257.734 18.4009 257.863 18.3227L258.144 18.8197C257.976 18.9255 257.789 19.013 257.583 19.082C257.376 19.151 257.16 19.1855 256.935 19.1855ZM255.992 17.0872H257.561C257.561 16.8249 257.501 16.6201 257.381 16.4728C257.261 16.321 257.081 16.245 256.841 16.245C256.635 16.245 256.45 16.3187 256.287 16.4659C256.128 16.6086 256.03 16.8157 255.992 17.0872Z" fill="#8F8F8F"/>
<path d="M260.425 19.1855C260.089 19.1855 259.767 19.0383 259.46 18.7438H259.439L259.367 19.1027H258.711V14.2295H259.539V15.4858L259.518 16.0518C259.666 15.9275 259.83 15.8263 260.007 15.7481C260.185 15.6698 260.362 15.6307 260.54 15.6307C260.981 15.6307 261.325 15.7872 261.569 16.1001C261.814 16.413 261.936 16.8295 261.936 17.3495C261.936 17.736 261.864 18.0673 261.72 18.3434C261.576 18.6149 261.389 18.8243 261.159 18.9716C260.933 19.1142 260.689 19.1855 260.425 19.1855ZM260.252 18.5298C260.487 18.5298 260.684 18.4309 260.842 18.233C261.001 18.0351 261.08 17.7452 261.08 17.3633C261.08 17.0227 261.02 16.7581 260.9 16.5695C260.78 16.3808 260.585 16.2865 260.317 16.2865C260.067 16.2865 259.808 16.413 259.539 16.6661V18.2468C259.664 18.348 259.786 18.4217 259.906 18.4677C260.031 18.5091 260.146 18.5298 260.252 18.5298Z" fill="#8F8F8F"/>
<rect x="209.064" y="8.67185" width="57.1985" height="65.7277" stroke="white" stroke-width="3.98824" shape-rendering="crispEdges"/>
</g>
<g filter="url(#filter4_d_1815_12491)">
<rect x="207.07" y="92.3936" width="61.1868" height="69.716" fill="white" shape-rendering="crispEdges"/>
<rect x="248.821" y="97.916" width="19.4358" height="8.97334" fill="#EBEFF5"/>
<rect x="212.829" y="111.03" width="49.6693" height="5.52206" fill="#EBEFF5"/>
<rect x="212.829" y="146.233" width="49.6693" height="2.76103" fill="#EBEFF5"/>
<rect x="250.98" y="151.065" width="11.5175" height="2.76103" fill="#E3E3E3"/>
<rect x="212.829" y="119.313" width="2.87938" height="2.76103" fill="#E3E3E3"/>
<rect x="212.829" y="124.836" width="2.87938" height="2.76103" fill="#E3E3E3"/>
<rect x="212.829" y="130.357" width="2.87938" height="2.76103" fill="#E3E3E3"/>
<rect x="212.829" y="135.88" width="2.87938" height="2.76103" fill="#E3E3E3"/>
<rect x="217.148" y="119.313" width="28.0739" height="2.76103" fill="#E3E3E3"/>
<rect x="217.148" y="124.836" width="28.0739" height="2.76103" fill="#E3E3E3"/>
<rect x="217.148" y="130.357" width="28.0739" height="2.76103" fill="#E3E3E3"/>
<rect x="217.148" y="135.88" width="28.0739" height="2.76103" fill="#E3E3E3"/>
<rect x="250.261" y="119.313" width="12.2374" height="2.76103" fill="#E3E3E3"/>
<rect x="250.261" y="124.836" width="12.2374" height="2.76103" fill="#E3E3E3"/>
<rect x="250.261" y="130.357" width="12.2374" height="2.76103" fill="#E3E3E3"/>
<rect x="250.261" y="135.88" width="12.2374" height="2.76103" fill="#E3E3E3"/>
<path d="M214.222 104.578V100.078H215.28V104.578H214.222Z" fill="#28313B"/>
<path d="M216.387 104.578V100.078H217.474L218.698 102.314L219.158 103.308H219.187C219.168 103.069 219.141 102.802 219.108 102.508C219.074 102.213 219.057 101.932 219.057 101.666V100.078H220.065V104.578H218.978L217.755 102.335L217.294 101.355H217.265C217.289 101.603 217.315 101.87 217.344 102.156C217.378 102.441 217.395 102.717 217.395 102.984V104.578H216.387Z" fill="#28313B"/>
<path d="M221.988 104.578L220.569 100.078H221.692L222.254 102.176C222.326 102.42 222.388 102.66 222.441 102.894C222.499 103.129 222.563 103.37 222.635 103.619H222.664C222.731 103.37 222.794 103.129 222.851 102.894C222.909 102.66 222.971 102.42 223.038 102.176L223.593 100.078H224.673L223.262 104.578H221.988Z" fill="#28313B"/>
<path d="M227.011 104.661C226.589 104.661 226.217 104.567 225.896 104.378C225.579 104.19 225.329 103.92 225.147 103.571C224.969 103.216 224.881 102.795 224.881 102.307C224.881 101.815 224.969 101.399 225.147 101.058C225.329 100.713 225.579 100.451 225.896 100.271C226.217 100.087 226.589 99.9951 227.011 99.9951C227.434 99.9951 227.803 100.087 228.12 100.271C228.441 100.451 228.691 100.713 228.868 101.058C229.051 101.403 229.142 101.82 229.142 102.307C229.142 102.795 229.051 103.216 228.868 103.571C228.691 103.92 228.441 104.19 228.12 104.378C227.803 104.567 227.434 104.661 227.011 104.661ZM227.011 103.785C227.333 103.785 227.587 103.651 227.774 103.384C227.961 103.117 228.055 102.758 228.055 102.307C228.055 101.857 227.961 101.504 227.774 101.251C227.587 100.998 227.333 100.872 227.011 100.872C226.69 100.872 226.435 100.998 226.248 101.251C226.061 101.504 225.968 101.857 225.968 102.307C225.968 102.758 226.061 103.117 226.248 103.384C226.435 103.651 226.69 103.785 227.011 103.785Z" fill="#28313B"/>
<path d="M230.025 104.578V100.078H231.083V104.578H230.025Z" fill="#28313B"/>
<path d="M234.148 104.661C233.754 104.661 233.392 104.574 233.061 104.399C232.73 104.224 232.463 103.966 232.262 103.626C232.065 103.281 231.967 102.857 231.967 102.356C231.967 101.859 232.067 101.435 232.269 101.086C232.475 100.731 232.746 100.462 233.082 100.278C233.423 100.089 233.79 99.9951 234.184 99.9951C234.486 99.9951 234.757 100.055 234.997 100.175C235.237 100.29 235.436 100.425 235.595 100.582L235.033 101.231C234.913 101.125 234.786 101.04 234.652 100.975C234.522 100.906 234.373 100.872 234.205 100.872C233.994 100.872 233.8 100.929 233.622 101.044C233.449 101.159 233.31 101.325 233.205 101.541C233.104 101.758 233.053 102.018 233.053 102.321C233.053 102.781 233.157 103.14 233.363 103.398C233.569 103.656 233.845 103.785 234.191 103.785C234.383 103.785 234.553 103.743 234.702 103.66C234.855 103.578 234.99 103.479 235.105 103.364L235.667 103.999C235.273 104.44 234.767 104.661 234.148 104.661Z" fill="#28313B"/>
<path d="M236.379 104.578V100.078H239.316V100.934H237.438V101.838H239.036V102.687H237.438V103.723H239.388V104.578H236.379Z" fill="#28313B"/>
<path d="M242.959 104.661C242.59 104.661 242.273 104.604 242.009 104.489C241.75 104.374 241.536 104.224 241.368 104.04L241.858 103.398C241.997 103.527 242.15 103.633 242.318 103.716C242.486 103.798 242.666 103.84 242.858 103.84C243.084 103.84 243.264 103.796 243.398 103.709C243.533 103.617 243.6 103.488 243.6 103.322C243.6 103.193 243.566 103.083 243.499 102.991C243.432 102.894 243.309 102.821 243.132 102.77C242.954 102.719 242.7 102.694 242.369 102.694V101.976C242.782 101.976 243.065 101.923 243.218 101.817C243.372 101.707 243.449 101.564 243.449 101.389C243.449 101.238 243.401 101.12 243.305 101.037C243.209 100.95 243.069 100.906 242.887 100.906C242.724 100.906 242.575 100.941 242.441 101.01C242.311 101.079 242.174 101.173 242.031 101.293L241.498 100.672C241.709 100.497 241.932 100.361 242.167 100.264C242.402 100.163 242.659 100.112 242.938 100.112C243.408 100.112 243.787 100.218 244.075 100.43C244.368 100.637 244.514 100.932 244.514 101.314C244.514 101.539 244.447 101.732 244.312 101.893C244.183 102.054 243.996 102.186 243.751 102.287V102.314C244.015 102.388 244.231 102.515 244.399 102.694C244.572 102.869 244.658 103.099 244.658 103.384C244.658 103.656 244.579 103.888 244.42 104.081C244.267 104.27 244.06 104.415 243.801 104.516C243.547 104.613 243.266 104.661 242.959 104.661Z" fill="#28313B"/>
<path d="M251.578 104.818V100.304H252.521L253.356 102.513C253.409 102.655 253.459 102.802 253.507 102.954C253.56 103.102 253.61 103.249 253.658 103.396H253.687C253.74 103.249 253.79 103.102 253.838 102.954C253.886 102.802 253.934 102.655 253.982 102.513L254.796 100.304H255.746V104.818H254.976V102.754C254.976 102.611 254.981 102.457 254.99 102.292C255.005 102.121 255.019 101.951 255.033 101.781C255.053 101.611 255.069 101.456 255.084 101.318H255.055L254.673 102.368L253.903 104.397H253.407L252.629 102.368L252.255 101.318H252.226C252.24 101.456 252.255 101.611 252.269 101.781C252.288 101.951 252.303 102.121 252.312 102.292C252.327 102.457 252.334 102.611 252.334 102.754V104.818H251.578Z" fill="#8F8F8F"/>
<path d="M257.367 104.901C257.059 104.901 256.807 104.809 256.611 104.625C256.419 104.441 256.323 104.201 256.323 103.907C256.323 103.543 256.488 103.263 256.819 103.065C257.151 102.862 257.678 102.724 258.403 102.651C258.398 102.471 258.348 102.317 258.252 102.188C258.161 102.055 257.995 101.988 257.755 101.988C257.582 101.988 257.412 102.02 257.244 102.085C257.081 102.149 256.92 102.227 256.762 102.319L256.46 101.788C256.656 101.668 256.877 101.565 257.122 101.477C257.371 101.39 257.635 101.346 257.914 101.346C258.355 101.346 258.684 101.473 258.9 101.726C259.121 101.974 259.231 102.335 259.231 102.809V104.818H258.547L258.489 104.445H258.461C258.302 104.574 258.132 104.682 257.95 104.77C257.772 104.857 257.578 104.901 257.367 104.901ZM257.633 104.28C257.777 104.28 257.906 104.247 258.022 104.183C258.142 104.114 258.269 104.022 258.403 103.907V103.148C257.923 103.207 257.59 103.297 257.403 103.417C257.215 103.532 257.122 103.674 257.122 103.845C257.122 103.997 257.17 104.107 257.266 104.176C257.362 104.245 257.484 104.28 257.633 104.28Z" fill="#8F8F8F"/>
<path d="M259.862 104.818V101.429H260.546L260.603 102.029H260.632C260.757 101.808 260.908 101.641 261.085 101.525C261.263 101.406 261.445 101.346 261.632 101.346C261.8 101.346 261.935 101.369 262.036 101.415L261.892 102.105C261.829 102.087 261.772 102.073 261.719 102.064C261.666 102.055 261.601 102.05 261.525 102.05C261.385 102.05 261.239 102.103 261.085 102.209C260.932 102.31 260.8 102.49 260.689 102.747V104.818H259.862Z" fill="#8F8F8F"/>
<rect x="209.064" y="94.3877" width="57.1985" height="65.7277" stroke="white" stroke-width="3.98824" shape-rendering="crispEdges"/>
</g>
<g filter="url(#filter5_d_1815_12491)">
<rect x="207.07" y="178.109" width="61.1868" height="69.716" fill="white" shape-rendering="crispEdges"/>
<rect x="248.821" y="183.632" width="19.4358" height="8.97334" fill="#EBEFF5"/>
<rect x="212.829" y="196.746" width="49.6693" height="5.52206" fill="#EBEFF5"/>
<rect x="212.829" y="231.949" width="49.6693" height="2.76103" fill="#EBEFF5"/>
<rect x="250.98" y="236.781" width="11.5175" height="2.76103" fill="#E3E3E3"/>
<rect x="212.829" y="205.029" width="2.87938" height="2.76103" fill="#E3E3E3"/>
<rect x="212.829" y="210.552" width="2.87938" height="2.76103" fill="#E3E3E3"/>
<rect x="212.829" y="216.073" width="2.87938" height="2.76103" fill="#E3E3E3"/>
<rect x="212.829" y="221.596" width="2.87938" height="2.76103" fill="#E3E3E3"/>
<rect x="217.148" y="205.029" width="28.0739" height="2.76103" fill="#E3E3E3"/>
<rect x="217.148" y="210.552" width="28.0739" height="2.76103" fill="#E3E3E3"/>
<rect x="217.148" y="216.073" width="28.0739" height="2.76103" fill="#E3E3E3"/>
<rect x="217.148" y="221.596" width="28.0739" height="2.76103" fill="#E3E3E3"/>
<rect x="250.261" y="205.029" width="12.2374" height="2.76103" fill="#E3E3E3"/>
<rect x="250.261" y="210.552" width="12.2374" height="2.76103" fill="#E3E3E3"/>
<rect x="250.261" y="216.073" width="12.2374" height="2.76103" fill="#E3E3E3"/>
<rect x="250.261" y="221.596" width="12.2374" height="2.76103" fill="#E3E3E3"/>
<path d="M214.222 190.294V185.794H215.28V190.294H214.222Z" fill="#28313B"/>
<path d="M216.387 190.294V185.794H217.474L218.698 188.03L219.158 189.024H219.187C219.168 188.785 219.141 188.518 219.108 188.223C219.074 187.929 219.057 187.648 219.057 187.381V185.794H220.065V190.294H218.978L217.755 188.051L217.294 187.071H217.265C217.289 187.319 217.315 187.586 217.344 187.871C217.378 188.157 217.395 188.433 217.395 188.7V190.294H216.387Z" fill="#28313B"/>
<path d="M221.988 190.294L220.569 185.794H221.692L222.254 187.892C222.326 188.136 222.388 188.375 222.441 188.61C222.499 188.845 222.563 189.086 222.635 189.335H222.664C222.731 189.086 222.794 188.845 222.851 188.61C222.909 188.375 222.971 188.136 223.038 187.892L223.593 185.794H224.673L223.262 190.294H221.988Z" fill="#28313B"/>
<path d="M227.011 190.377C226.589 190.377 226.217 190.283 225.896 190.094C225.579 189.905 225.329 189.636 225.147 189.286C224.969 188.932 224.881 188.511 224.881 188.023C224.881 187.531 224.969 187.114 225.147 186.774C225.329 186.429 225.579 186.167 225.896 185.987C226.217 185.803 226.589 185.711 227.011 185.711C227.434 185.711 227.803 185.803 228.12 185.987C228.441 186.167 228.691 186.429 228.868 186.774C229.051 187.119 229.142 187.536 229.142 188.023C229.142 188.511 229.051 188.932 228.868 189.286C228.691 189.636 228.441 189.905 228.12 190.094C227.803 190.283 227.434 190.377 227.011 190.377ZM227.011 189.5C227.333 189.5 227.587 189.367 227.774 189.1C227.961 188.833 228.055 188.474 228.055 188.023C228.055 187.572 227.961 187.22 227.774 186.967C227.587 186.714 227.333 186.588 227.011 186.588C226.69 186.588 226.435 186.714 226.248 186.967C226.061 187.22 225.968 187.572 225.968 188.023C225.968 188.474 226.061 188.833 226.248 189.1C226.435 189.367 226.69 189.5 227.011 189.5Z" fill="#28313B"/>
<path d="M230.025 190.294V185.794H231.083V190.294H230.025Z" fill="#28313B"/>
<path d="M234.148 190.377C233.754 190.377 233.392 190.29 233.061 190.115C232.73 189.94 232.463 189.682 232.262 189.342C232.065 188.997 231.967 188.573 231.967 188.072C231.967 187.575 232.067 187.151 232.269 186.802C232.475 186.447 232.746 186.178 233.082 185.994C233.423 185.805 233.79 185.711 234.184 185.711C234.486 185.711 234.757 185.771 234.997 185.89C235.237 186.005 235.436 186.141 235.595 186.298L235.033 186.946C234.913 186.841 234.786 186.756 234.652 186.691C234.522 186.622 234.373 186.588 234.205 186.588C233.994 186.588 233.8 186.645 233.622 186.76C233.449 186.875 233.31 187.041 233.205 187.257C233.104 187.473 233.053 187.733 233.053 188.037C233.053 188.497 233.157 188.856 233.363 189.114C233.569 189.372 233.845 189.5 234.191 189.5C234.383 189.5 234.553 189.459 234.702 189.376C234.855 189.293 234.99 189.194 235.105 189.079L235.667 189.714C235.273 190.156 234.767 190.377 234.148 190.377Z" fill="#28313B"/>
<path d="M236.379 190.294V185.794H239.316V186.65H237.438V187.554H239.036V188.403H237.438V189.438H239.388V190.294H236.379Z" fill="#28313B"/>
<path d="M242.362 188.472H243.326V187.761C243.326 187.618 243.331 187.455 243.341 187.271C243.355 187.082 243.365 186.919 243.369 186.781H243.341C243.283 186.9 243.223 187.022 243.161 187.147C243.098 187.271 243.033 187.395 242.966 187.519L242.362 188.472ZM243.326 190.294V189.245H241.347V188.548L243.017 185.911H244.312V188.472H244.838V189.245H244.312V190.294H243.326Z" fill="#28313B"/>
<path d="M253.983 188.132L253.817 188.684H255.019L254.854 188.132C254.777 187.892 254.703 187.646 254.631 187.393C254.563 187.14 254.496 186.889 254.429 186.641H254.4C254.338 186.894 254.271 187.147 254.199 187.4C254.131 187.649 254.059 187.892 253.983 188.132ZM252.406 190.534L253.94 186.02H254.919L256.452 190.534H255.574L255.206 189.312H253.623L253.256 190.534H252.406Z" fill="#8F8F8F"/>
<path d="M256.6 191.873V187.145H257.284L257.342 187.504H257.37C257.519 187.384 257.685 187.28 257.867 187.193C258.054 187.106 258.244 187.062 258.436 187.062C258.877 187.062 259.218 187.218 259.458 187.531C259.703 187.844 259.825 188.263 259.825 188.787C259.825 189.174 259.753 189.505 259.609 189.781C259.465 190.053 259.278 190.26 259.048 190.403C258.822 190.545 258.577 190.617 258.313 190.617C258.16 190.617 258.006 190.584 257.853 190.52C257.699 190.451 257.55 190.359 257.406 190.244L257.428 190.81V191.873H256.6ZM258.141 189.961C258.376 189.961 258.573 189.862 258.731 189.664C258.889 189.466 258.968 189.176 258.968 188.794C258.968 188.454 258.908 188.189 258.789 188.001C258.669 187.812 258.474 187.718 258.205 187.718C257.956 187.718 257.697 187.844 257.428 188.097V189.678C257.558 189.779 257.682 189.853 257.802 189.899C257.922 189.94 258.035 189.961 258.141 189.961Z" fill="#8F8F8F"/>
<path d="M260.303 190.534V187.145H260.987L261.045 187.745H261.074C261.198 187.524 261.35 187.356 261.527 187.241C261.705 187.122 261.887 187.062 262.074 187.062C262.242 187.062 262.377 187.085 262.477 187.131L262.333 187.821C262.271 187.803 262.213 187.789 262.161 187.78C262.108 187.77 262.043 187.766 261.966 187.766C261.827 187.766 261.681 187.819 261.527 187.925C261.374 188.026 261.242 188.205 261.131 188.463V190.534H260.303Z" fill="#8F8F8F"/>
<rect x="209.064" y="180.103" width="57.1985" height="65.7277" stroke="white" stroke-width="3.98824" shape-rendering="crispEdges"/>
</g>
<rect x="127.167" y="46.2695" width="53.1029" height="16.2829" rx="8.14144" fill="#D4E4FF"/>
<path d="M136.977 54.401L136.778 55.0921H138.221L138.022 54.401C137.93 54.1016 137.841 53.7935 137.754 53.4768C137.674 53.16 137.593 52.8462 137.512 52.5352H137.478C137.403 52.8519 137.322 53.1687 137.236 53.4854C137.155 53.7964 137.069 54.1016 136.977 54.401ZM135.085 57.4071L136.925 51.7578H138.1L139.94 57.4071H138.886L138.445 55.8782H136.545L136.104 57.4071H135.085Z" fill="#485EB0"/>
<path d="M141.777 57.5108C141.322 57.5108 140.991 57.3639 140.784 57.0702C140.576 56.7765 140.473 56.3619 140.473 55.8263V53.1658H141.466V55.6968C141.466 56.048 141.518 56.2957 141.622 56.4396C141.725 56.5836 141.892 56.6556 142.123 56.6556C142.307 56.6556 142.468 56.6095 142.606 56.5174C142.75 56.4252 142.903 56.2755 143.064 56.0682V53.1658H144.057V57.4071H143.245L143.168 56.7852H143.142C142.958 57.004 142.756 57.1796 142.537 57.3121C142.318 57.4445 142.065 57.5108 141.777 57.5108Z" fill="#485EB0"/>
<path d="M146.81 57.5108C146.321 57.5108 145.972 57.3697 145.765 57.0875C145.563 56.7996 145.463 56.4281 145.463 55.9732V53.9519H144.858V53.209L145.514 53.1658L145.635 52.0083H146.465V53.1658H147.544V53.9519H146.465V55.9732C146.465 56.4684 146.663 56.7161 147.061 56.7161C147.136 56.7161 147.213 56.7074 147.294 56.6901C147.375 56.6671 147.444 56.6441 147.501 56.621L147.674 57.3553C147.559 57.3956 147.426 57.4301 147.277 57.4589C147.133 57.4935 146.977 57.5108 146.81 57.5108Z" fill="#485EB0"/>
<path d="M150.038 57.5108C149.687 57.5108 149.359 57.4244 149.053 57.2516C148.748 57.0731 148.501 56.8197 148.311 56.4915C148.121 56.1575 148.026 55.7572 148.026 55.2908C148.026 54.8186 148.121 54.4183 148.311 54.0901C148.501 53.7561 148.748 53.5027 149.053 53.3299C149.359 53.1514 149.687 53.0621 150.038 53.0621C150.395 53.0621 150.726 53.1514 151.032 53.3299C151.337 53.5027 151.584 53.7561 151.775 54.0901C151.965 54.4183 152.06 54.8186 152.06 55.2908C152.06 55.7572 151.965 56.1575 151.775 56.4915C151.584 56.8197 151.337 57.0731 151.032 57.2516C150.726 57.4244 150.395 57.5108 150.038 57.5108ZM150.038 56.6988C150.349 56.6988 150.594 56.5692 150.772 56.3101C150.951 56.0509 151.04 55.7112 151.04 55.2908C151.04 54.8646 150.951 54.522 150.772 54.2628C150.594 54.0037 150.349 53.8741 150.038 53.8741C149.727 53.8741 149.483 54.0037 149.304 54.2628C149.131 54.522 149.045 54.8646 149.045 55.2908C149.045 55.7112 149.131 56.0509 149.304 56.3101C149.483 56.5692 149.727 56.6988 150.038 56.6988Z" fill="#485EB0"/>
<path d="M156.508 57.5108C156.128 57.5108 155.76 57.4388 155.403 57.2948C155.051 57.1509 154.74 56.9464 154.47 56.6815L155.057 55.9991C155.259 56.1891 155.489 56.3446 155.748 56.4656C156.007 56.5807 156.267 56.6383 156.526 56.6383C156.848 56.6383 157.093 56.5721 157.26 56.4396C157.427 56.3072 157.51 56.1316 157.51 55.9127C157.51 55.6766 157.427 55.5067 157.26 55.4031C157.099 55.2994 156.891 55.1929 156.638 55.0835L155.861 54.7466C155.676 54.6659 155.495 54.5623 155.316 54.4356C155.144 54.3089 155 54.1477 154.884 53.9519C154.775 53.7561 154.72 53.52 154.72 53.2435C154.72 52.9441 154.801 52.6763 154.962 52.4402C155.129 52.1983 155.354 52.0083 155.636 51.8701C155.924 51.7261 156.252 51.6541 156.621 51.6541C156.949 51.6541 157.266 51.7203 157.571 51.8528C157.876 51.9795 158.138 52.1523 158.357 52.3711L157.847 53.0103C157.669 52.8606 157.479 52.7425 157.277 52.6561C157.081 52.5698 156.863 52.5266 156.621 52.5266C156.356 52.5266 156.14 52.587 155.973 52.708C155.812 52.8231 155.731 52.9844 155.731 53.1917C155.731 53.3357 155.771 53.4566 155.852 53.5545C155.938 53.6466 156.051 53.7273 156.189 53.7964C156.327 53.8597 156.474 53.9231 156.629 53.9864L157.398 54.306C157.732 54.45 158.006 54.64 158.219 54.8761C158.432 55.1065 158.538 55.4261 158.538 55.835C158.538 56.1402 158.458 56.4195 158.296 56.6729C158.135 56.9263 157.902 57.1307 157.597 57.2862C157.297 57.4359 156.935 57.5108 156.508 57.5108Z" fill="#485EB0"/>
<path d="M161.293 57.5108C160.902 57.5108 160.547 57.4244 160.231 57.2516C159.914 57.0731 159.664 56.8197 159.479 56.4915C159.295 56.1575 159.203 55.7572 159.203 55.2908C159.203 54.8301 159.295 54.4327 159.479 54.0987C159.669 53.7647 159.914 53.5084 160.213 53.3299C160.513 53.1514 160.827 53.0621 161.155 53.0621C161.541 53.0621 161.863 53.1485 162.123 53.3213C162.382 53.4883 162.577 53.7244 162.71 54.0296C162.842 54.3291 162.909 54.6775 162.909 55.0748C162.909 55.2821 162.894 55.4434 162.865 55.5586H160.17C160.216 55.9329 160.352 56.2237 160.576 56.431C160.801 56.6383 161.083 56.742 161.423 56.742C161.607 56.742 161.777 56.7161 161.932 56.6642C162.094 56.6066 162.252 56.5289 162.408 56.431L162.744 57.053C162.543 57.1854 162.318 57.2948 162.071 57.3812C161.823 57.4676 161.564 57.5108 161.293 57.5108ZM160.162 54.8848H162.045C162.045 54.5565 161.973 54.3003 161.829 54.116C161.685 53.9259 161.469 53.8309 161.181 53.8309C160.933 53.8309 160.712 53.9231 160.516 54.1073C160.326 54.2859 160.208 54.545 160.162 54.8848Z" fill="#485EB0"/>
<path d="M163.857 57.4071V53.1658H164.678L164.747 53.7359H164.782C164.972 53.5516 165.179 53.3933 165.404 53.2608C165.628 53.1284 165.884 53.0621 166.172 53.0621C166.627 53.0621 166.958 53.209 167.166 53.5027C167.373 53.7964 167.477 54.211 167.477 54.7466V57.4071H166.483V54.8761C166.483 54.5249 166.432 54.2772 166.328 54.1333C166.224 53.9893 166.054 53.9173 165.818 53.9173C165.634 53.9173 165.47 53.9634 165.326 54.0555C165.188 54.1419 165.029 54.2715 164.851 54.4442V57.4071H163.857Z" fill="#485EB0"/>
<path d="M170.177 57.5108C169.647 57.5108 169.224 57.315 168.907 56.9234C168.59 56.5318 168.432 55.9876 168.432 55.2908C168.432 54.8301 168.515 54.4327 168.682 54.0987C168.855 53.7647 169.08 53.5084 169.356 53.3299C169.633 53.1514 169.923 53.0621 170.229 53.0621C170.47 53.0621 170.675 53.1053 170.842 53.1917C171.015 53.2723 171.182 53.3846 171.343 53.5286L171.308 52.8462V51.3086H172.302V57.4071H171.481L171.412 56.9493H171.377C171.222 57.1048 171.041 57.2372 170.833 57.3466C170.626 57.4561 170.407 57.5108 170.177 57.5108ZM170.419 56.6901C170.735 56.6901 171.032 56.5318 171.308 56.2151V54.2369C171.164 54.1045 171.02 54.0123 170.876 53.9605C170.732 53.9087 170.589 53.8828 170.445 53.8828C170.174 53.8828 169.941 54.0066 169.745 54.2542C169.555 54.4961 169.46 54.8387 169.46 55.2821C169.46 55.7371 169.543 56.0855 169.71 56.3273C169.877 56.5692 170.113 56.6901 170.419 56.6901Z" fill="#485EB0"/>
<path fill-rule="evenodd" clip-rule="evenodd" d="M171.437 48.4288H136.165C132.785 48.4288 130.046 51.1683 130.046 54.5475C130.046 57.9268 132.785 60.6662 136.165 60.6662H171.437C174.816 60.6662 177.556 57.9268 177.556 54.5475C177.556 51.1683 174.816 48.4288 171.437 48.4288ZM136.165 47.709C132.388 47.709 129.326 50.7707 129.326 54.5475C129.326 58.3243 132.388 61.386 136.165 61.386H171.437C175.214 61.386 178.276 58.3243 178.276 54.5475C178.276 50.7707 175.214 47.709 171.437 47.709H136.165Z" fill="#919ED0"/>
</g>
<defs>
<filter id="filter0_d_1815_12491" x="36.3467" y="90.1807" width="83.7773" height="80.7041" filterUnits="userSpaceOnUse" color-interpolation-filters="sRGB">
<feFlood flood-opacity="0" result="BackgroundImageFix"/>
<feColorMatrix in="SourceAlpha" type="matrix" values="0 0 0 0 0 0 0 0 0 0 0 0 0 0 0 0 0 0 127 0" result="hardAlpha"/>
<feOffset dx="1" dy="4"/>
<feGaussianBlur stdDeviation="2"/>
<feComposite in2="hardAlpha" operator="out"/>
<feColorMatrix type="matrix" values="0 0 0 0 0 0 0 0 0 0 0 0 0 0 0 0 0 0 0.1 0"/>
<feBlend mode="normal" in2="BackgroundImageFix" result="effect1_dropShadow_1815_12491"/>
<feBlend mode="normal" in="SourceGraphic" in2="effect1_dropShadow_1815_12491" result="shape"/>
</filter>
<filter id="filter1_d_1815_12491" x="49.623" y="169.242" width="46.9395" height="125.576" filterUnits="userSpaceOnUse" color-interpolation-filters="sRGB">
<feFlood flood-opacity="0" result="BackgroundImageFix"/>
<feColorMatrix in="SourceAlpha" type="matrix" values="0 0 0 0 0 0 0 0 0 0 0 0 0 0 0 0 0 0 127 0" result="hardAlpha"/>
<feOffset dy="4"/>
<feGaussianBlur stdDeviation="3.5"/>
<feComposite in2="hardAlpha" operator="out"/>
<feColorMatrix type="matrix" values="0 0 0 0 0 0 0 0 0 0 0 0 0 0 0 0 0 0 0.26 0"/>
<feBlend mode="normal" in2="BackgroundImageFix" result="effect1_dropShadow_1815_12491"/>
<feBlend mode="normal" in="SourceGraphic" in2="effect1_dropShadow_1815_12491" result="shape"/>
</filter>
<filter id="filter2_f_1815_12491" x="62.1406" y="166.242" width="16.3193" height="19.918" filterUnits="userSpaceOnUse" color-interpolation-filters="sRGB">
<feFlood flood-opacity="0" result="BackgroundImageFix"/>
<feBlend mode="normal" in="SourceGraphic" in2="BackgroundImageFix" result="shape"/>
<feGaussianBlur stdDeviation="3" result="effect1_foregroundBlur_1815_12491"/>
</filter>
<filter id="filter3_d_1815_12491" x="204.07" y="6.67773" width="69.1865" height="77.7158" filterUnits="userSpaceOnUse" color-interpolation-filters="sRGB">
<feFlood flood-opacity="0" result="BackgroundImageFix"/>
<feColorMatrix in="SourceAlpha" type="matrix" values="0 0 0 0 0 0 0 0 0 0 0 0 0 0 0 0 0 0 127 0" result="hardAlpha"/>
<feOffset dx="1" dy="4"/>
<feGaussianBlur stdDeviation="2"/>
<feComposite in2="hardAlpha" operator="out"/>
<feColorMatrix type="matrix" values="0 0 0 0 0 0 0 0 0 0 0 0 0 0 0 0 0 0 0.1 0"/>
<feBlend mode="normal" in2="BackgroundImageFix" result="effect1_dropShadow_1815_12491"/>
<feBlend mode="normal" in="SourceGraphic" in2="effect1_dropShadow_1815_12491" result="shape"/>
</filter>
<filter id="filter4_d_1815_12491" x="204.07" y="92.3936" width="69.1865" height="77.7158" filterUnits="userSpaceOnUse" color-interpolation-filters="sRGB">
<feFlood flood-opacity="0" result="BackgroundImageFix"/>
<feColorMatrix in="SourceAlpha" type="matrix" values="0 0 0 0 0 0 0 0 0 0 0 0 0 0 0 0 0 0 127 0" result="hardAlpha"/>
<feOffset dx="1" dy="4"/>
<feGaussianBlur stdDeviation="2"/>
<feComposite in2="hardAlpha" operator="out"/>
<feColorMatrix type="matrix" values="0 0 0 0 0 0 0 0 0 0 0 0 0 0 0 0 0 0 0.1 0"/>
<feBlend mode="normal" in2="BackgroundImageFix" result="effect1_dropShadow_1815_12491"/>
<feBlend mode="normal" in="SourceGraphic" in2="effect1_dropShadow_1815_12491" result="shape"/>
</filter>
<filter id="filter5_d_1815_12491" x="204.07" y="178.109" width="69.1865" height="77.7158" filterUnits="userSpaceOnUse" color-interpolation-filters="sRGB">
<feFlood flood-opacity="0" result="BackgroundImageFix"/>
<feColorMatrix in="SourceAlpha" type="matrix" values="0 0 0 0 0 0 0 0 0 0 0 0 0 0 0 0 0 0 127 0" result="hardAlpha"/>
<feOffset dx="1" dy="4"/>
<feGaussianBlur stdDeviation="2"/>
<feComposite in2="hardAlpha" operator="out"/>
<feColorMatrix type="matrix" values="0 0 0 0 0 0 0 0 0 0 0 0 0 0 0 0 0 0 0.1 0"/>
<feBlend mode="normal" in2="BackgroundImageFix" result="effect1_dropShadow_1815_12491"/>
<feBlend mode="normal" in="SourceGraphic" in2="effect1_dropShadow_1815_12491" result="shape"/>
</filter>
<linearGradient id="paint0_linear_1815_12491" x1="147.37" y1="171.49" x2="144.819" y2="182.506" gradientUnits="userSpaceOnUse">
<stop stop-color="#DD7B6F"/>
<stop offset="1" stop-color="#D39968"/>
</linearGradient>
</defs>
</svg>
