<svg width="307" height="238" viewBox="0 0 307 238" fill="none" xmlns="http://www.w3.org/2000/svg">
<mask id="mask0_1815_12680" style="mask-type:alpha" maskUnits="userSpaceOnUse" x="0" y="0" width="307" height="238">
<rect width="307" height="238" fill="#D9D9D9"/>
</mask>
<g mask="url(#mask0_1815_12680)">
<g filter="url(#filter0_d_1815_12680)">
<path d="M88.5405 39.9111C83.7701 39.9111 79.9023 43.7789 79.9023 48.5493V88.1407C79.9023 92.9111 83.7701 96.7788 88.5405 96.7788H251.225C255.967 96.7788 259.816 92.9575 259.863 88.2279L270.776 88.6651L259.863 80.8846V48.5493C259.863 43.7789 255.996 39.9111 251.225 39.9111H88.5405Z" fill="#F2F2F2"/>
</g>
<rect x="86.1611" y="46.1699" width="167.444" height="44.3502" rx="7.5" fill="white" stroke="#D9D4D4"/>
<path d="M101.273 61.5066V55.84H101.99V61.5066H101.273Z" fill="#353452"/>
<path d="M103.474 61.5066V57.3085H104.061L104.121 57.9131H104.147C104.349 57.7116 104.562 57.5446 104.787 57.4121C105.011 57.2739 105.267 57.2048 105.555 57.2048C105.999 57.2048 106.321 57.3459 106.523 57.6281C106.73 57.9045 106.834 58.3105 106.834 58.846V61.5066H106.125V58.9411C106.125 58.5495 106.062 58.2644 105.935 58.0859C105.809 57.9074 105.607 57.8181 105.331 57.8181C105.118 57.8181 104.925 57.8728 104.752 57.9822C104.585 58.0916 104.395 58.2529 104.182 58.466V61.5066H103.474Z" fill="#353452"/>
<path d="M109.105 61.5066L107.593 57.3085H108.327L109.122 59.6926C109.185 59.8999 109.248 60.1072 109.312 60.3145C109.381 60.5218 109.447 60.7263 109.511 60.9278H109.545C109.608 60.7263 109.672 60.5218 109.735 60.3145C109.804 60.1072 109.868 59.8999 109.925 59.6926L110.72 57.3085H111.42L109.934 61.5066H109.105Z" fill="#353452"/>
<path d="M113.829 61.6102C113.489 61.6102 113.169 61.5239 112.87 61.3511C112.576 61.1783 112.337 60.9278 112.153 60.5996C111.974 60.2713 111.885 59.8769 111.885 59.4162C111.885 58.9439 111.974 58.5437 112.153 58.2155C112.337 57.8872 112.576 57.6367 112.87 57.4639C113.169 57.2912 113.489 57.2048 113.829 57.2048C114.174 57.2048 114.494 57.2912 114.787 57.4639C115.081 57.6367 115.317 57.8872 115.496 58.2155C115.68 58.5437 115.772 58.9439 115.772 59.4162C115.772 59.8769 115.68 60.2713 115.496 60.5996C115.317 60.9278 115.081 61.1783 114.787 61.3511C114.494 61.5239 114.174 61.6102 113.829 61.6102ZM113.829 61.0228C114.191 61.0228 114.482 60.876 114.701 60.5823C114.926 60.2828 115.038 59.8941 115.038 59.4162C115.038 58.9324 114.926 58.5408 114.701 58.2414C114.482 57.9419 114.191 57.7922 113.829 57.7922C113.472 57.7922 113.181 57.9419 112.956 58.2414C112.732 58.5408 112.619 58.9324 112.619 59.4162C112.619 59.8941 112.732 60.2828 112.956 60.5823C113.181 60.876 113.472 61.0228 113.829 61.0228Z" fill="#353452"/>
<path d="M116.878 61.5066V57.3085H117.586V61.5066H116.878ZM117.241 56.4446C117.102 56.4446 116.987 56.4043 116.895 56.3237C116.809 56.2373 116.766 56.1221 116.766 55.9782C116.766 55.84 116.809 55.7277 116.895 55.6413C116.987 55.5549 117.102 55.5117 117.241 55.5117C117.379 55.5117 117.491 55.5549 117.578 55.6413C117.67 55.7277 117.716 55.84 117.716 55.9782C117.716 56.1221 117.67 56.2373 117.578 56.3237C117.491 56.4043 117.379 56.4446 117.241 56.4446Z" fill="#353452"/>
<path d="M120.662 61.6102C120.294 61.6102 119.96 61.5239 119.66 61.3511C119.361 61.1783 119.125 60.9278 118.952 60.5996C118.779 60.2713 118.693 59.8769 118.693 59.4162C118.693 58.9439 118.785 58.5437 118.969 58.2155C119.159 57.8872 119.407 57.6367 119.712 57.4639C120.023 57.2912 120.357 57.2048 120.714 57.2048C120.99 57.2048 121.226 57.2537 121.422 57.3516C121.624 57.4495 121.797 57.5647 121.941 57.6972L121.578 58.1636C121.457 58.0542 121.327 57.9649 121.189 57.8958C121.057 57.8267 120.907 57.7922 120.74 57.7922C120.486 57.7922 120.259 57.8613 120.057 57.9995C119.862 58.132 119.706 58.322 119.591 58.5696C119.482 58.8115 119.427 59.0937 119.427 59.4162C119.427 59.8941 119.545 60.2828 119.781 60.5823C120.023 60.876 120.337 61.0228 120.723 61.0228C120.918 61.0228 121.1 60.9825 121.267 60.9019C121.434 60.8155 121.581 60.7148 121.707 60.5996L122.018 61.0747C121.828 61.2417 121.618 61.3741 121.388 61.472C121.157 61.5642 120.916 61.6102 120.662 61.6102Z" fill="#353452"/>
<path d="M124.459 61.6102C124.085 61.6102 123.745 61.5239 123.44 61.3511C123.135 61.1726 122.893 60.9192 122.714 60.5909C122.536 60.2627 122.447 59.8711 122.447 59.4162C122.447 58.9555 122.536 58.561 122.714 58.2327C122.899 57.9045 123.135 57.6511 123.423 57.4726C123.711 57.2941 124.013 57.2048 124.33 57.2048C124.865 57.2048 125.277 57.3833 125.565 57.7404C125.859 58.0974 126.005 58.5754 126.005 59.1743C126.005 59.2492 126.003 59.324 125.997 59.3989C125.997 59.468 125.991 59.5285 125.98 59.5803H123.146C123.175 60.0237 123.313 60.3779 123.561 60.6428C123.814 60.9077 124.142 61.0401 124.546 61.0401C124.747 61.0401 124.931 61.0113 125.098 60.9537C125.271 60.8904 125.435 60.8098 125.591 60.7119L125.841 61.1783C125.663 61.2935 125.458 61.3943 125.228 61.4807C125.003 61.567 124.747 61.6102 124.459 61.6102ZM123.138 59.0706H125.383C125.383 58.6445 125.291 58.322 125.107 58.1032C124.929 57.8786 124.675 57.7663 124.347 57.7663C124.053 57.7663 123.788 57.8814 123.552 58.1118C123.322 58.3364 123.184 58.656 123.138 59.0706Z" fill="#353452"/>
<path d="M129.817 58.3364L129.55 59.2002H131.251L130.983 58.3364C130.88 58.0197 130.782 57.7058 130.69 57.3948C130.598 57.0781 130.506 56.7556 130.413 56.4274H130.379C130.292 56.7556 130.203 57.0781 130.111 57.3948C130.019 57.7058 129.921 58.0197 129.817 58.3364ZM128.09 61.5066L130.007 55.84H130.819L132.737 61.5066H131.968L131.433 59.779H129.368L128.824 61.5066H128.09Z" fill="#353452"/>
<path d="M133.471 61.5066V57.3085H134.058L134.119 57.9131H134.145C134.329 57.7116 134.53 57.5446 134.749 57.4121C134.968 57.2739 135.201 57.2048 135.449 57.2048C135.771 57.2048 136.022 57.2768 136.2 57.4207C136.385 57.559 136.52 57.7548 136.606 58.0081C136.825 57.772 137.047 57.5791 137.272 57.4294C137.496 57.2797 137.735 57.2048 137.989 57.2048C138.42 57.2048 138.74 57.3459 138.947 57.6281C139.16 57.9045 139.267 58.3105 139.267 58.846V61.5066H138.559V58.9411C138.559 58.5495 138.495 58.2644 138.369 58.0859C138.242 57.9074 138.046 57.8181 137.781 57.8181C137.47 57.8181 137.119 58.0341 136.727 58.466V61.5066H136.019V58.9411C136.019 58.5495 135.956 58.2644 135.829 58.0859C135.702 57.9074 135.504 57.8181 135.233 57.8181C134.922 57.8181 134.571 58.0341 134.179 58.466V61.5066H133.471Z" fill="#353452"/>
<path d="M142.265 61.6102C141.926 61.6102 141.606 61.5239 141.306 61.3511C141.013 61.1783 140.774 60.9278 140.589 60.5996C140.411 60.2713 140.322 59.8769 140.322 59.4162C140.322 58.9439 140.411 58.5437 140.589 58.2155C140.774 57.8872 141.013 57.6367 141.306 57.4639C141.606 57.2912 141.926 57.2048 142.265 57.2048C142.611 57.2048 142.93 57.2912 143.224 57.4639C143.518 57.6367 143.754 57.8872 143.932 58.2155C144.117 58.5437 144.209 58.9439 144.209 59.4162C144.209 59.8769 144.117 60.2713 143.932 60.5996C143.754 60.9278 143.518 61.1783 143.224 61.3511C142.93 61.5239 142.611 61.6102 142.265 61.6102ZM142.265 61.0228C142.628 61.0228 142.919 60.876 143.138 60.5823C143.362 60.2828 143.475 59.8941 143.475 59.4162C143.475 58.9324 143.362 58.5408 143.138 58.2414C142.919 57.9419 142.628 57.7922 142.265 57.7922C141.908 57.7922 141.617 57.9419 141.393 58.2414C141.168 58.5408 141.056 58.9324 141.056 59.4162C141.056 59.8941 141.168 60.2828 141.393 60.5823C141.617 60.876 141.908 61.0228 142.265 61.0228Z" fill="#353452"/>
<path d="M146.541 61.6102C146.098 61.6102 145.772 61.472 145.565 61.1956C145.358 60.9134 145.254 60.5046 145.254 59.969V57.3085H145.971V59.874C145.971 60.2656 146.031 60.5506 146.152 60.7292C146.279 60.9077 146.481 60.9969 146.757 60.9969C146.976 60.9969 147.169 60.9422 147.336 60.8328C147.509 60.7176 147.693 60.5362 147.889 60.2886V57.3085H148.597V61.5066H148.01L147.949 60.8501H147.923C147.727 61.0804 147.52 61.2647 147.301 61.4029C147.082 61.5411 146.829 61.6102 146.541 61.6102Z" fill="#353452"/>
<path d="M150.013 61.5066V57.3085H150.601L150.661 57.9131H150.687C150.888 57.7116 151.102 57.5446 151.326 57.4121C151.551 57.2739 151.807 57.2048 152.095 57.2048C152.538 57.2048 152.861 57.3459 153.062 57.6281C153.27 57.9045 153.373 58.3105 153.373 58.846V61.5066H152.665V58.9411C152.665 58.5495 152.602 58.2644 152.475 58.0859C152.348 57.9074 152.147 57.8181 151.87 57.8181C151.657 57.8181 151.464 57.8728 151.292 57.9822C151.125 58.0916 150.935 58.2529 150.721 58.466V61.5066H150.013Z" fill="#353452"/>
<path d="M156.059 61.6102C155.61 61.6102 155.296 61.4807 155.117 61.2215C154.944 60.9624 154.858 60.6255 154.858 60.2109V57.8872H154.236V57.3516L154.893 57.3085L154.979 56.1337H155.575V57.3085H156.707V57.8872H155.575V60.2195C155.575 60.4786 155.621 60.6802 155.713 60.8242C155.811 60.9624 155.981 61.0315 156.223 61.0315C156.298 61.0315 156.378 61.02 156.465 60.9969C156.551 60.9681 156.629 60.9422 156.698 60.9192L156.836 61.4548C156.721 61.4951 156.594 61.5296 156.456 61.5584C156.324 61.593 156.191 61.6102 156.059 61.6102Z" fill="#353452"/>
<path d="M158.145 58.4919C158.001 58.4919 157.878 58.4429 157.774 58.345C157.676 58.2414 157.627 58.1118 157.627 57.9563C157.627 57.7893 157.676 57.6569 157.774 57.559C157.878 57.4553 158.001 57.4035 158.145 57.4035C158.284 57.4035 158.402 57.4553 158.5 57.559C158.603 57.6569 158.655 57.7893 158.655 57.9563C158.655 58.1118 158.603 58.2414 158.5 58.345C158.402 58.4429 158.284 58.4919 158.145 58.4919ZM158.145 61.6102C158.001 61.6102 157.878 61.5613 157.774 61.4634C157.676 61.3597 157.627 61.2302 157.627 61.0747C157.627 60.9077 157.676 60.7752 157.774 60.6773C157.878 60.5737 158.001 60.5218 158.145 60.5218C158.284 60.5218 158.402 60.5737 158.5 60.6773C158.603 60.7752 158.655 60.9077 158.655 61.0747C158.655 61.2302 158.603 61.3597 158.5 61.4634C158.402 61.5613 158.284 61.6102 158.145 61.6102Z" fill="#353452"/>
<path d="M161.551 59.5544V58.751H162.138C162.478 58.751 162.751 58.6848 162.959 58.5523C163.166 58.4199 163.29 58.2183 163.33 57.9477H161.551V57.4553L162.173 57.4121H163.313C163.255 57.1933 163.126 57.0378 162.924 56.9456C162.723 56.8535 162.461 56.8074 162.138 56.8074H161.551V56.0127H164.902V56.5397H163.719C163.869 56.6318 163.995 56.7556 164.099 56.9111C164.203 57.0608 164.272 57.2278 164.306 57.4121H164.902V57.9477H164.324C164.283 58.3393 164.159 58.656 163.952 58.8979C163.745 59.1397 163.48 59.3125 163.157 59.4162L164.704 61.5066H163.572L162.199 59.5544H161.551Z" fill="#353452"/>
<path d="M169.186 61.6102C168.742 61.6102 168.368 61.5354 168.063 61.3856C167.763 61.2302 167.513 61.0516 167.311 60.8501L167.769 60.2109C167.936 60.3663 168.123 60.5046 168.331 60.6255C168.538 60.7407 168.78 60.7983 169.056 60.7983C169.362 60.7983 169.615 60.7061 169.816 60.5218C170.018 60.3376 170.119 60.0784 170.119 59.7444C170.119 59.4162 170.027 59.1628 169.842 58.9842C169.658 58.8057 169.413 58.7165 169.108 58.7165C168.93 58.7165 168.78 58.7424 168.659 58.7942C168.538 58.8403 168.394 58.918 168.227 59.0274L167.752 58.7251L167.916 56.0127H170.853V56.8506H168.78L168.668 58.1809C168.783 58.1233 168.895 58.0801 169.004 58.0513C169.12 58.0168 169.249 57.9995 169.393 57.9995C169.71 57.9995 169.998 58.06 170.257 58.1809C170.516 58.3018 170.723 58.489 170.879 58.7424C171.04 58.9958 171.121 59.3211 171.121 59.7185C171.121 60.1158 171.029 60.4556 170.844 60.7378C170.666 61.02 170.43 61.2359 170.136 61.3856C169.842 61.5354 169.526 61.6102 169.186 61.6102Z" fill="#353452"/>
<path d="M173.744 61.6102C173.174 61.6102 172.719 61.3626 172.379 60.8674C172.045 60.3721 171.878 59.6609 171.878 58.7337C171.878 57.8066 172.045 57.104 172.379 56.626C172.719 56.1481 173.174 55.9091 173.744 55.9091C174.314 55.9091 174.766 56.1481 175.1 56.626C175.44 57.104 175.61 57.8066 175.61 58.7337C175.61 59.6609 175.44 60.3721 175.1 60.8674C174.766 61.3626 174.314 61.6102 173.744 61.6102ZM173.744 60.8328C173.923 60.8328 174.081 60.7666 174.219 60.6341C174.358 60.4959 174.464 60.2742 174.539 59.969C174.62 59.6638 174.66 59.252 174.66 58.7337C174.66 58.2155 174.62 57.8066 174.539 57.5071C174.464 57.2077 174.358 56.9975 174.219 56.8765C174.081 56.7499 173.923 56.6865 173.744 56.6865C173.571 56.6865 173.416 56.7499 173.278 56.8765C173.14 56.9975 173.03 57.2077 172.949 57.5071C172.869 57.8066 172.829 58.2155 172.829 58.7337C172.829 59.252 172.869 59.6638 172.949 59.969C173.03 60.2742 173.14 60.4959 173.278 60.6341C173.416 60.7666 173.571 60.8328 173.744 60.8328Z" fill="#353452"/>
<path d="M178.173 61.6102C177.603 61.6102 177.148 61.3626 176.808 60.8674C176.474 60.3721 176.307 59.6609 176.307 58.7337C176.307 57.8066 176.474 57.104 176.808 56.626C177.148 56.1481 177.603 55.9091 178.173 55.9091C178.743 55.9091 179.195 56.1481 179.529 56.626C179.869 57.104 180.039 57.8066 180.039 58.7337C180.039 59.6609 179.869 60.3721 179.529 60.8674C179.195 61.3626 178.743 61.6102 178.173 61.6102ZM178.173 60.8328C178.351 60.8328 178.51 60.7666 178.648 60.6341C178.786 60.4959 178.893 60.2742 178.968 59.969C179.048 59.6638 179.089 59.252 179.089 58.7337C179.089 58.2155 179.048 57.8066 178.968 57.5071C178.893 57.2077 178.786 56.9975 178.648 56.8765C178.51 56.7499 178.351 56.6865 178.173 56.6865C178 56.6865 177.845 56.7499 177.706 56.8765C177.568 56.9975 177.459 57.2077 177.378 57.5071C177.298 57.8066 177.257 58.2155 177.257 58.7337C177.257 59.252 177.298 59.6638 177.378 59.969C177.459 60.2742 177.568 60.4959 177.706 60.6341C177.845 60.7666 178 60.8328 178.173 60.8328Z" fill="#353452"/>
<rect x="207.314" y="55.0283" width="32.393" height="5.75875" rx="2.87938" fill="#E8E8EF"/>
<path d="M100.468 78.7826V72.1917H102.544C103.034 72.1917 103.471 72.2555 103.854 72.3831C104.237 72.5108 104.539 72.7224 104.761 73.018C104.983 73.3137 105.093 73.7168 105.093 74.2274C105.093 74.7111 104.983 75.1109 104.761 75.4266C104.539 75.7424 104.24 75.9776 103.864 76.1321C103.488 76.2866 103.061 76.3639 102.584 76.3639H101.637V78.7826H100.468ZM101.637 75.4266H102.493C103.461 75.4266 103.945 75.0269 103.945 74.2274C103.945 73.8108 103.817 73.5253 103.562 73.3708C103.313 73.2095 102.944 73.1289 102.453 73.1289H101.637V75.4266Z" fill="#0099FF"/>
<path d="M107.048 78.9035C106.618 78.9035 106.265 78.7691 105.99 78.5004C105.721 78.2316 105.587 77.8823 105.587 77.4523C105.587 76.9215 105.819 76.5117 106.282 76.2228C106.746 75.9272 107.485 75.7256 108.499 75.6181C108.493 75.3561 108.422 75.131 108.288 74.9429C108.16 74.7481 107.928 74.6507 107.592 74.6507C107.35 74.6507 107.112 74.6977 106.877 74.7917C106.648 74.8858 106.423 75 106.202 75.1344L105.778 74.3584C106.054 74.1837 106.363 74.0325 106.705 73.9049C107.055 73.7772 107.424 73.7134 107.814 73.7134C108.432 73.7134 108.892 73.8982 109.195 74.2677C109.504 74.6305 109.658 75.1579 109.658 75.8499V78.7826H108.701L108.62 78.2384H108.58C108.358 78.4265 108.12 78.5844 107.864 78.712C107.616 78.8397 107.344 78.9035 107.048 78.9035ZM107.421 77.9965C107.622 77.9965 107.804 77.9495 107.965 77.8554C108.133 77.7546 108.311 77.6203 108.499 77.4523V76.3437C107.827 76.4311 107.36 76.5621 107.098 76.7368C106.836 76.9047 106.705 77.113 106.705 77.3616C106.705 77.5833 106.773 77.7445 106.907 77.8453C107.041 77.9461 107.213 77.9965 107.421 77.9965Z" fill="#0099FF"/>
<path d="M111.378 80.8183C111.243 80.8183 111.126 80.8082 111.025 80.788C110.924 80.7679 110.827 80.7444 110.733 80.7175L110.944 79.8105C110.991 79.8239 111.045 79.8374 111.106 79.8508C111.173 79.871 111.237 79.881 111.297 79.881C111.559 79.881 111.767 79.8004 111.922 79.6392C112.083 79.4846 112.204 79.2831 112.285 79.0345L112.375 78.7221L110.43 73.8343H111.61L112.466 76.2631C112.54 76.4781 112.611 76.7065 112.678 76.9484C112.752 77.1835 112.826 77.4187 112.899 77.6538H112.94C113 77.4254 113.061 77.1936 113.121 76.9585C113.188 76.7166 113.252 76.4848 113.313 76.2631L114.058 73.8343H115.177L113.383 79.0043C113.175 79.5619 112.923 80.002 112.627 80.3245C112.332 80.6537 111.915 80.8183 111.378 80.8183Z" fill="#0099FF"/>
<path d="M116.035 78.7826V73.8343H116.992L117.073 74.5096H117.113C117.321 74.2878 117.547 74.0997 117.788 73.9452C118.037 73.7907 118.316 73.7134 118.625 73.7134C118.988 73.7134 119.277 73.794 119.492 73.9553C119.713 74.1098 119.881 74.3248 119.995 74.6003C120.231 74.345 120.476 74.1333 120.731 73.9654C120.993 73.7974 121.279 73.7134 121.588 73.7134C122.112 73.7134 122.498 73.8847 122.747 74.2274C122.995 74.57 123.12 75.0538 123.12 75.6786V78.7826H121.951V75.8298C121.951 75.4199 121.887 75.131 121.759 74.9631C121.638 74.7951 121.45 74.7111 121.195 74.7111C120.886 74.7111 120.54 74.916 120.157 75.3259V78.7826H118.998V75.8298C118.998 75.4199 118.934 75.131 118.806 74.9631C118.685 74.7951 118.494 74.7111 118.232 74.7111C117.923 74.7111 117.577 74.916 117.194 75.3259V78.7826H116.035Z" fill="#0099FF"/>
<path d="M126.645 78.9035C126.188 78.9035 125.774 78.8027 125.405 78.6012C125.035 78.3929 124.743 78.0973 124.528 77.7143C124.313 77.3246 124.206 76.8577 124.206 76.3135C124.206 75.776 124.313 75.3124 124.528 74.9228C124.75 74.5331 125.035 74.2341 125.385 74.0258C125.734 73.8176 126.1 73.7134 126.483 73.7134C126.933 73.7134 127.31 73.8142 127.612 74.0157C127.914 74.2106 128.143 74.486 128.297 74.8421C128.452 75.1915 128.529 75.598 128.529 76.0615C128.529 76.3034 128.512 76.4915 128.479 76.6259H125.334C125.388 77.0626 125.546 77.4019 125.808 77.6438C126.07 77.8856 126.399 78.0066 126.796 78.0066C127.011 78.0066 127.209 77.9763 127.39 77.9159C127.578 77.8487 127.763 77.758 127.945 77.6438L128.338 78.3694C128.102 78.5239 127.84 78.6515 127.552 78.7523C127.263 78.8531 126.96 78.9035 126.645 78.9035ZM125.324 75.8398H127.521C127.521 75.4569 127.437 75.1579 127.269 74.9429C127.101 74.7212 126.849 74.6103 126.514 74.6103C126.225 74.6103 125.966 74.7178 125.738 74.9328C125.516 75.1411 125.378 75.4434 125.324 75.8398Z" fill="#0099FF"/>
<path d="M129.636 78.7826V73.8343H130.593L130.674 74.4995H130.714C130.936 74.2845 131.178 74.0997 131.44 73.9452C131.702 73.7907 132.001 73.7134 132.337 73.7134C132.868 73.7134 133.254 73.8847 133.496 74.2274C133.738 74.57 133.859 75.0538 133.859 75.6786V78.7826H132.7V75.8298C132.7 75.4199 132.639 75.131 132.518 74.9631C132.397 74.7951 132.199 74.7111 131.924 74.7111C131.709 74.7111 131.517 74.7649 131.349 74.8724C131.188 74.9731 131.003 75.1243 130.795 75.3259V78.7826H129.636Z" fill="#0099FF"/>
<path d="M137.019 78.9035C136.448 78.9035 136.041 78.7389 135.799 78.4097C135.564 78.0738 135.447 77.6404 135.447 77.1096V74.7514H134.741V73.8847L135.507 73.8343L135.648 72.4839H136.616V73.8343H137.875V74.7514H136.616V77.1096C136.616 77.6874 136.847 77.9763 137.311 77.9763C137.398 77.9763 137.489 77.9663 137.583 77.9461C137.677 77.9192 137.758 77.8924 137.825 77.8655L138.026 78.7221C137.892 78.7691 137.738 78.8094 137.563 78.843C137.395 78.8833 137.214 78.9035 137.019 78.9035Z" fill="#0099FF"/>
<path d="M141.035 78.7826V72.1917H142.204V77.7949H144.945V78.7826H141.035Z" fill="#0099FF"/>
<path d="M145.993 78.7826V73.8343H147.152V78.7826H145.993ZM146.577 72.9677C146.369 72.9677 146.201 72.9072 146.073 72.7863C145.946 72.6653 145.882 72.5041 145.882 72.3025C145.882 72.1077 145.946 71.9498 146.073 71.8289C146.201 71.7079 146.369 71.6475 146.577 71.6475C146.786 71.6475 146.954 71.7079 147.081 71.8289C147.209 71.9498 147.273 72.1077 147.273 72.3025C147.273 72.5041 147.209 72.6653 147.081 72.7863C146.954 72.9072 146.786 72.9677 146.577 72.9677Z" fill="#0099FF"/>
<path d="M148.63 78.7826V73.8343H149.588L149.668 74.4995H149.709C149.93 74.2845 150.172 74.0997 150.434 73.9452C150.696 73.7907 150.995 73.7134 151.331 73.7134C151.862 73.7134 152.248 73.8847 152.49 74.2274C152.732 74.57 152.853 75.0538 152.853 75.6786V78.7826H151.694V75.8298C151.694 75.4199 151.633 75.131 151.513 74.9631C151.392 74.7951 151.193 74.7111 150.918 74.7111C150.703 74.7111 150.512 74.7649 150.344 74.8724C150.182 74.9731 149.998 75.1243 149.789 75.3259V78.7826H148.63Z" fill="#0099FF"/>
<path d="M154.27 78.7826V71.6676H155.408V76.1119H155.439L157.273 73.8343H158.543L156.849 75.8499L158.714 78.7826H157.454L156.184 76.636L155.408 77.5228V78.7826H154.27Z" fill="#0099FF"/>
<g clip-path="url(#clip0_1815_12680)">
<rect x="48.9473" y="39.9102" width="43.1907" height="43.1907" rx="21.5953" fill="#F2F2F2"/>
<path d="M70.7586 50.001C65.9464 50.001 62.0312 53.9161 62.0312 58.7284C62.0312 63.5406 65.9464 67.4557 70.7586 67.4557C75.5709 67.4557 79.486 63.5406 79.486 58.7284C79.486 53.9161 75.5709 50.001 70.7586 50.001Z" fill="#8E9395"/>
<path d="M81.6171 73.1577C79.2277 70.7316 76.0602 69.3955 72.6979 69.3955H68.8191C65.4569 69.3955 62.2893 70.7316 59.9 73.1577C57.5223 75.5718 56.2129 78.7586 56.2129 82.131C56.2129 82.6666 56.6471 83.1007 57.1826 83.1007H84.3344C84.87 83.1007 85.3041 82.6666 85.3041 82.131C85.3041 78.7586 83.9947 75.5718 81.6171 73.1577Z" fill="#8E9395"/>
</g>
<rect x="49.4473" y="40.4102" width="42.1907" height="42.1907" rx="21.0953" stroke="#D9D4D4"/>
<rect x="42.4688" y="78.0605" width="56.1479" height="15.8366" rx="7.91829" fill="#F2F2F2"/>
<path d="M53.5202 88.0292V85.9302L51.8271 82.3799H52.8983L53.5116 83.8225C53.5922 84.0355 53.6728 84.2428 53.7535 84.4444C53.8341 84.6402 53.9205 84.8475 54.0126 85.0663H54.0471C54.1393 84.8475 54.2285 84.6402 54.3149 84.4444C54.4013 84.2428 54.4848 84.0355 54.5654 83.8225L55.1787 82.3799H56.224L54.5222 85.9302V88.0292H53.5202Z" fill="#8E9395"/>
<path d="M58.1427 88.1329C57.7914 88.1329 57.4632 88.0465 57.158 87.8737C56.8527 87.6952 56.6051 87.4418 56.4151 87.1136C56.225 86.7796 56.13 86.3793 56.13 85.9129C56.13 85.4407 56.225 85.0404 56.4151 84.7122C56.6051 84.3782 56.8527 84.1248 57.158 83.952C57.4632 83.7735 57.7914 83.6842 58.1427 83.6842C58.4997 83.6842 58.8309 83.7735 59.1361 83.952C59.4413 84.1248 59.6889 84.3782 59.879 84.7122C60.069 85.0404 60.164 85.4407 60.164 85.9129C60.164 86.3793 60.069 86.7796 59.879 87.1136C59.6889 87.4418 59.4413 87.6952 59.1361 87.8737C58.8309 88.0465 58.4997 88.1329 58.1427 88.1329ZM58.1427 87.3209C58.4537 87.3209 58.6984 87.1913 58.8769 86.9322C59.0555 86.673 59.1447 86.3333 59.1447 85.9129C59.1447 85.4867 59.0555 85.1441 58.8769 84.8849C58.6984 84.6258 58.4537 84.4962 58.1427 84.4962C57.8317 84.4962 57.587 84.6258 57.4085 84.8849C57.2357 85.1441 57.1493 85.4867 57.1493 85.9129C57.1493 86.3333 57.2357 86.673 57.4085 86.9322C57.587 87.1913 57.8317 87.3209 58.1427 87.3209Z" fill="#8E9395"/>
<path d="M62.4085 88.1329C61.9535 88.1329 61.6224 87.986 61.4151 87.6923C61.2078 87.3986 61.1041 86.984 61.1041 86.4484V83.7879H62.0975V86.3189C62.0975 86.6702 62.1493 86.9178 62.253 87.0618C62.3566 87.2057 62.5236 87.2777 62.754 87.2777C62.9383 87.2777 63.0995 87.2316 63.2377 87.1395C63.3817 87.0474 63.5343 86.8976 63.6955 86.6903V83.7879H64.6889V88.0292H63.8769L63.7992 87.4073H63.7733C63.589 87.6261 63.3874 87.8018 63.1686 87.9342C62.9498 88.0667 62.6964 88.1329 62.4085 88.1329Z" fill="#8E9395"/>
<path d="M65.9472 88.0292V83.7879H66.7678L66.8369 84.5394H66.8715C67.0212 84.263 67.2026 84.0528 67.4157 83.9088C67.6287 83.7591 67.8476 83.6842 68.0722 83.6842C68.2737 83.6842 68.435 83.713 68.5559 83.7706L68.3831 84.6344C68.3083 84.6114 68.2392 84.5941 68.1758 84.5826C68.1125 84.5711 68.0347 84.5653 67.9426 84.5653C67.7756 84.5653 67.6 84.6316 67.4157 84.764C67.2314 84.8907 67.073 85.1153 66.9406 85.4378V88.0292H65.9472Z" fill="#8E9395"/>
<path d="M70.9853 88.0292V82.3799H72.7648C73.1852 82.3799 73.5595 82.4346 73.8877 82.544C74.216 82.6534 74.4751 82.8348 74.6652 83.0882C74.8552 83.3416 74.9502 83.6871 74.9502 84.1248C74.9502 84.5394 74.8552 84.8821 74.6652 85.1527C74.4751 85.4234 74.2189 85.6249 73.8964 85.7574C73.5739 85.8898 73.2082 85.9561 72.7993 85.9561H71.9873V88.0292H70.9853ZM71.9873 85.1527H72.7216C73.5508 85.1527 73.9655 84.8101 73.9655 84.1248C73.9655 83.7677 73.8561 83.523 73.6372 83.3905C73.4241 83.2523 73.1074 83.1832 72.687 83.1832H71.9873V85.1527Z" fill="#8E9395"/>
<path d="M76.6255 88.1329C76.257 88.1329 75.9546 88.0177 75.7185 87.7874C75.4882 87.557 75.373 87.2575 75.373 86.889C75.373 86.434 75.5717 86.0828 75.969 85.8351C76.3664 85.5818 76.9999 85.409 77.8694 85.3168C77.8637 85.0923 77.8032 84.8993 77.688 84.7381C77.5786 84.5711 77.3799 84.4876 77.092 84.4876C76.8847 84.4876 76.6802 84.5279 76.4787 84.6085C76.2829 84.6891 76.09 84.787 75.8999 84.9022L75.5371 84.2371C75.7732 84.0874 76.0381 83.9578 76.3318 83.8484C76.6313 83.7389 76.948 83.6842 77.282 83.6842C77.8118 83.6842 78.2063 83.8426 78.4655 84.1593C78.7304 84.4703 78.8628 84.9224 78.8628 85.5155V88.0292H78.0422L77.9731 87.5628H77.9385C77.7485 87.724 77.5441 87.8593 77.3252 87.9688C77.1122 88.0782 76.8789 88.1329 76.6255 88.1329ZM76.9452 87.3554C77.1179 87.3554 77.2734 87.3151 77.4116 87.2345C77.5556 87.1481 77.7082 87.033 77.8694 86.889V85.9388C77.2936 86.0137 76.8933 86.126 76.6687 86.2757C76.4441 86.4196 76.3318 86.5982 76.3318 86.8112C76.3318 87.0013 76.3894 87.1395 76.5046 87.2259C76.6198 87.3123 76.7666 87.3554 76.9452 87.3554Z" fill="#8E9395"/>
<path d="M80.0516 88.0292V83.7879H80.8723L80.9414 84.5394H80.9759C81.1256 84.263 81.307 84.0528 81.5201 83.9088C81.7332 83.7591 81.952 83.6842 82.1766 83.6842C82.3782 83.6842 82.5394 83.713 82.6604 83.7706L82.4876 84.6344C82.4127 84.6114 82.3436 84.5941 82.2803 84.5826C82.2169 84.5711 82.1392 84.5653 82.047 84.5653C81.88 84.5653 81.7044 84.6316 81.5201 84.764C81.3358 84.8907 81.1775 85.1153 81.045 85.4378V88.0292H80.0516Z" fill="#8E9395"/>
<path d="M84.7685 88.1329C84.279 88.1329 83.9306 87.9918 83.7232 87.7096C83.5217 87.4217 83.4209 87.0502 83.4209 86.5953V84.574H82.8162V83.8311L83.4727 83.7879L83.5937 82.6304H84.4229V83.7879H85.5027V84.574H84.4229V86.5953C84.4229 87.0905 84.6216 87.3382 85.019 87.3382C85.0938 87.3382 85.1716 87.3295 85.2522 87.3123C85.3328 87.2892 85.4019 87.2662 85.4595 87.2432L85.6323 87.9774C85.5171 88.0177 85.3846 88.0523 85.2349 88.081C85.091 88.1156 84.9355 88.1329 84.7685 88.1329Z" fill="#8E9395"/>
<path d="M86.6803 89.7741C86.5651 89.7741 86.4644 89.7655 86.378 89.7482C86.2916 89.7309 86.2081 89.7108 86.1275 89.6877L86.3089 88.9103C86.3492 88.9218 86.3953 88.9333 86.4471 88.9449C86.5047 88.9621 86.5594 88.9708 86.6112 88.9708C86.8358 88.9708 87.0143 88.9017 87.1468 88.7635C87.285 88.631 87.3887 88.4582 87.4578 88.2452L87.5355 87.9774L85.8683 83.7879H86.879L87.6132 85.8697C87.6766 86.054 87.7371 86.2498 87.7946 86.4571C87.858 86.6586 87.9213 86.8602 87.9847 87.0618H88.0192C88.0711 86.866 88.1229 86.6673 88.1747 86.4657C88.2323 86.2584 88.287 86.0597 88.3388 85.8697L88.9781 83.7879H89.9369L88.3993 88.2193C88.2208 88.6972 88.0048 89.0744 87.7515 89.3509C87.4981 89.633 87.141 89.7741 86.6803 89.7741Z" fill="#8E9395"/>
<g filter="url(#filter1_d_1815_12680)">
<path d="M109.415 140.648C105.042 140.648 101.497 144.194 101.497 148.567V188.036C101.497 192.408 105.042 195.954 109.415 195.954H115.954L116.166 209.09L125.127 195.954H253.276C257.649 195.954 261.194 192.408 261.194 188.036V148.567C261.194 144.194 257.649 140.648 253.276 140.648H109.415Z" fill="white"/>
</g>
<g filter="url(#filter2_d_1815_12680)">
<circle cx="237.5" cy="167.5" r="13.5" fill="white"/>
</g>
<path fill-rule="evenodd" clip-rule="evenodd" d="M239.372 166.527L236.873 175.996C236.77 176.373 236.38 176.596 236.001 176.493C235.885 176.463 235.78 176.404 235.694 176.321L228.549 169.316C228.273 169.042 228.271 168.598 228.547 168.323C228.548 168.323 228.548 168.322 228.549 168.321C228.638 168.229 228.752 168.164 228.876 168.135L238.516 165.685C238.894 165.589 239.279 165.815 239.376 166.19C239.376 166.191 239.376 166.191 239.377 166.192C239.4 166.303 239.399 166.417 239.372 166.527Z" fill="#F89B62"/>
<path fill-rule="evenodd" clip-rule="evenodd" d="M245.759 160.2L241.964 174.559C241.863 174.935 241.477 175.159 241.098 175.061C240.988 175.03 240.887 174.973 240.803 174.894L229.938 164.244C229.662 163.97 229.661 163.526 229.937 163.251L229.938 163.249C230.031 163.161 230.143 163.097 230.266 163.063L244.907 159.345C245.285 159.253 245.667 159.478 245.768 159.851C245.792 159.967 245.789 160.086 245.759 160.2Z" fill="#CC6A31"/>
<path opacity="0.2" fill-rule="evenodd" clip-rule="evenodd" d="M237.935 172.106L232.891 167.09L238.506 165.695C238.883 165.599 239.269 165.824 239.366 166.2C239.367 166.201 239.367 166.201 239.367 166.202C239.395 166.315 239.395 166.433 239.367 166.546L237.935 172.106Z" fill="#353452"/>
<path d="M113.173 154.599L113.012 155.204H114.413L114.262 154.599C114.174 154.27 114.084 153.921 113.99 153.551C113.902 153.182 113.815 152.826 113.728 152.483H113.687C113.607 152.832 113.523 153.192 113.435 153.561C113.355 153.924 113.267 154.27 113.173 154.599ZM110.795 157.925L112.851 151.354H114.635L116.69 157.925H115.118L114.715 156.363H112.71L112.307 157.925H110.795Z" fill="#1E1E1E"/>
<path d="M118.789 158.046C118.245 158.046 117.848 157.868 117.6 157.512C117.358 157.149 117.237 156.655 117.237 156.03V152.926H118.719V155.839C118.719 156.195 118.769 156.443 118.87 156.585C118.97 156.719 119.128 156.786 119.343 156.786C119.531 156.786 119.689 156.742 119.817 156.655C119.945 156.568 120.082 156.427 120.23 156.232V152.926H121.712V157.925H120.502L120.391 157.23H120.361C120.153 157.478 119.925 157.676 119.676 157.824C119.427 157.972 119.132 158.046 118.789 158.046Z" fill="#1E1E1E"/>
<path d="M124.94 158.046C124.322 158.046 123.879 157.868 123.61 157.512C123.348 157.156 123.217 156.689 123.217 156.111V154.085H122.532V152.987L123.297 152.926L123.469 151.596H124.698V152.926H125.898V154.085H124.698V156.091C124.698 156.373 124.755 156.578 124.87 156.706C124.991 156.826 125.148 156.887 125.343 156.887C125.424 156.887 125.505 156.877 125.585 156.857C125.672 156.837 125.75 156.813 125.817 156.786L126.049 157.864C125.921 157.905 125.763 157.945 125.575 157.985C125.394 158.026 125.182 158.046 124.94 158.046Z" fill="#1E1E1E"/>
<path d="M128.843 158.046C128.419 158.046 128.02 157.945 127.643 157.744C127.274 157.535 126.975 157.236 126.746 156.847C126.518 156.45 126.404 155.977 126.404 155.426C126.404 154.868 126.518 154.394 126.746 154.005C126.975 153.615 127.274 153.319 127.643 153.118C128.02 152.91 128.419 152.805 128.843 152.805C129.266 152.805 129.662 152.91 130.032 153.118C130.401 153.319 130.7 153.615 130.929 154.005C131.157 154.394 131.271 154.868 131.271 155.426C131.271 155.977 131.157 156.45 130.929 156.847C130.7 157.236 130.401 157.535 130.032 157.744C129.662 157.945 129.266 158.046 128.843 158.046ZM128.843 156.847C129.145 156.847 129.373 156.719 129.528 156.464C129.682 156.202 129.76 155.856 129.76 155.426C129.76 154.989 129.682 154.643 129.528 154.388C129.373 154.132 129.145 154.005 128.843 154.005C128.534 154.005 128.302 154.132 128.147 154.388C127.999 154.643 127.926 154.989 127.926 155.426C127.926 155.856 127.999 156.202 128.147 156.464C128.302 156.719 128.534 156.847 128.843 156.847Z" fill="#1E1E1E"/>
<path d="M132.286 157.925V152.926H133.495L133.596 153.571H133.637C133.845 153.363 134.067 153.185 134.302 153.037C134.537 152.883 134.819 152.805 135.148 152.805C135.504 152.805 135.79 152.879 136.005 153.027C136.227 153.168 136.401 153.373 136.529 153.642C136.751 153.413 136.986 153.219 137.234 153.057C137.483 152.889 137.772 152.805 138.101 152.805C138.638 152.805 139.032 152.987 139.28 153.35C139.535 153.706 139.663 154.196 139.663 154.821V157.925H138.182V155.012C138.182 154.65 138.131 154.401 138.03 154.267C137.936 154.132 137.782 154.065 137.567 154.065C137.318 154.065 137.033 154.226 136.71 154.549V157.925H135.229V155.012C135.229 154.65 135.178 154.401 135.078 154.267C134.984 154.132 134.829 154.065 134.614 154.065C134.366 154.065 134.083 154.226 133.768 154.549V157.925H132.286Z" fill="#1E1E1E"/>
<path d="M142.187 158.046C141.73 158.046 141.367 157.901 141.098 157.613C140.83 157.317 140.695 156.957 140.695 156.534C140.695 156.01 140.917 155.6 141.36 155.305C141.804 155.009 142.519 154.811 143.507 154.71C143.494 154.488 143.426 154.314 143.305 154.186C143.191 154.052 142.996 153.985 142.721 153.985C142.513 153.985 142.301 154.025 142.086 154.105C141.871 154.186 141.643 154.297 141.401 154.438L140.867 153.46C141.182 153.266 141.518 153.108 141.874 152.987C142.237 152.866 142.613 152.805 143.003 152.805C143.641 152.805 144.132 152.99 144.474 153.36C144.817 153.729 144.988 154.297 144.988 155.063V157.925H143.779L143.678 157.411H143.638C143.43 157.599 143.205 157.754 142.963 157.875C142.728 157.989 142.469 158.046 142.187 158.046ZM142.691 156.897C142.859 156.897 143.003 156.86 143.124 156.786C143.252 156.706 143.379 156.601 143.507 156.474V155.597C142.983 155.664 142.62 155.772 142.419 155.919C142.217 156.061 142.116 156.229 142.116 156.423C142.116 156.585 142.167 156.706 142.267 156.786C142.375 156.86 142.516 156.897 142.691 156.897Z" fill="#1E1E1E"/>
<path d="M147.989 158.046C147.371 158.046 146.928 157.868 146.659 157.512C146.397 157.156 146.266 156.689 146.266 156.111V154.085H145.581V152.987L146.347 152.926L146.518 151.596H147.747V152.926H148.947V154.085H147.747V156.091C147.747 156.373 147.804 156.578 147.919 156.706C148.04 156.826 148.198 156.887 148.392 156.887C148.473 156.887 148.554 156.877 148.634 156.857C148.722 156.837 148.799 156.813 148.866 156.786L149.098 157.864C148.97 157.905 148.812 157.945 148.624 157.985C148.443 158.026 148.231 158.046 147.989 158.046Z" fill="#1E1E1E"/>
<path d="M151.982 158.046C151.505 158.046 151.075 157.942 150.692 157.733C150.31 157.525 150.007 157.226 149.785 156.837C149.564 156.447 149.453 155.977 149.453 155.426C149.453 154.881 149.564 154.414 149.785 154.025C150.014 153.635 150.31 153.336 150.672 153.128C151.035 152.913 151.415 152.805 151.811 152.805C152.288 152.805 152.681 152.913 152.99 153.128C153.306 153.336 153.541 153.622 153.696 153.985C153.857 154.341 153.938 154.747 153.938 155.204C153.938 155.332 153.931 155.459 153.917 155.587C153.904 155.708 153.89 155.799 153.877 155.859H150.884C150.951 156.222 151.102 156.491 151.337 156.665C151.573 156.833 151.855 156.917 152.184 156.917C152.54 156.917 152.9 156.806 153.262 156.585L153.756 157.482C153.501 157.656 153.215 157.794 152.9 157.895C152.584 157.995 152.278 158.046 151.982 158.046ZM150.874 154.881H152.678C152.678 154.606 152.611 154.381 152.476 154.206C152.349 154.025 152.137 153.934 151.841 153.934C151.613 153.934 151.408 154.015 151.227 154.176C151.045 154.331 150.928 154.566 150.874 154.881Z" fill="#1E1E1E"/>
<path d="M156.745 158.046C156.127 158.046 155.63 157.814 155.253 157.351C154.884 156.88 154.699 156.239 154.699 155.426C154.699 154.881 154.797 154.414 154.991 154.025C155.193 153.628 155.452 153.326 155.767 153.118C156.09 152.91 156.426 152.805 156.775 152.805C157.051 152.805 157.282 152.852 157.471 152.946C157.659 153.041 157.837 153.168 158.005 153.329L157.944 152.564V150.86H159.426V157.925H158.216L158.116 157.431H158.075C157.901 157.606 157.696 157.754 157.461 157.875C157.225 157.989 156.987 158.046 156.745 158.046ZM157.128 156.837C157.289 156.837 157.434 156.803 157.561 156.736C157.696 156.669 157.823 156.551 157.944 156.383V154.337C157.817 154.216 157.679 154.132 157.531 154.085C157.39 154.038 157.252 154.015 157.118 154.015C156.883 154.015 156.674 154.129 156.493 154.357C156.312 154.579 156.221 154.928 156.221 155.405C156.221 155.896 156.298 156.259 156.453 156.494C156.614 156.722 156.839 156.837 157.128 156.837Z" fill="#1E1E1E"/>
<path d="M162.877 157.925V151.354H165.124C165.581 151.354 165.991 151.405 166.354 151.505C166.716 151.599 167.005 151.764 167.22 151.999C167.435 152.234 167.543 152.564 167.543 152.987C167.543 153.276 167.465 153.561 167.311 153.843C167.163 154.119 166.955 154.307 166.686 154.408V154.448C167.022 154.535 167.301 154.707 167.523 154.962C167.751 155.211 167.865 155.553 167.865 155.99C167.865 156.44 167.751 156.806 167.523 157.088C167.294 157.371 166.988 157.582 166.606 157.723C166.223 157.858 165.793 157.925 165.316 157.925H162.877ZM164.358 153.985H165.054C165.416 153.985 165.678 153.914 165.84 153.773C166.008 153.632 166.092 153.444 166.092 153.209C166.092 152.953 166.008 152.772 165.84 152.664C165.672 152.557 165.413 152.503 165.064 152.503H164.358V153.985ZM164.358 156.776H165.195C166.008 156.776 166.414 156.48 166.414 155.889C166.414 155.6 166.313 155.395 166.112 155.274C165.91 155.147 165.604 155.083 165.195 155.083H164.358V156.776Z" fill="#1E1E1E"/>
<path d="M168.858 157.925V152.926H170.339V157.925H168.858ZM169.593 152.191C169.345 152.191 169.143 152.12 168.989 151.979C168.834 151.838 168.757 151.65 168.757 151.415C168.757 151.18 168.834 150.991 168.989 150.85C169.143 150.709 169.345 150.639 169.593 150.639C169.842 150.639 170.043 150.709 170.198 150.85C170.352 150.991 170.43 151.18 170.43 151.415C170.43 151.65 170.352 151.838 170.198 151.979C170.043 152.12 169.842 152.191 169.593 152.191Z" fill="#1E1E1E"/>
<path d="M173.003 158.046C172.493 158.046 172.137 157.895 171.935 157.592C171.74 157.283 171.643 156.877 171.643 156.373V150.86H173.124V156.433C173.124 156.588 173.151 156.695 173.205 156.756C173.265 156.816 173.326 156.847 173.386 156.847C173.42 156.847 173.447 156.847 173.467 156.847C173.494 156.84 173.527 156.833 173.568 156.826L173.749 157.925C173.668 157.959 173.564 157.985 173.437 158.006C173.316 158.032 173.171 158.046 173.003 158.046Z" fill="#1E1E1E"/>
<path d="M175.887 158.046C175.376 158.046 175.02 157.895 174.819 157.592C174.624 157.283 174.526 156.877 174.526 156.373V150.86H176.008V156.433C176.008 156.588 176.035 156.695 176.088 156.756C176.149 156.816 176.209 156.847 176.27 156.847C176.303 156.847 176.33 156.847 176.35 156.847C176.377 156.84 176.411 156.833 176.451 156.826L176.633 157.925C176.552 157.959 176.448 157.985 176.32 158.006C176.199 158.032 176.055 158.046 175.887 158.046Z" fill="#1E1E1E"/>
<path d="M180.899 158.046C180.57 158.046 180.23 157.982 179.881 157.854C179.538 157.727 179.239 157.559 178.984 157.351L179.649 156.423C179.878 156.591 180.096 156.722 180.304 156.816C180.519 156.904 180.731 156.947 180.939 156.947C181.161 156.947 181.322 156.91 181.423 156.837C181.524 156.756 181.574 156.652 181.574 156.524C181.574 156.41 181.524 156.316 181.423 156.242C181.329 156.168 181.205 156.101 181.05 156.04C180.895 155.973 180.731 155.906 180.556 155.839C180.355 155.758 180.153 155.657 179.952 155.536C179.757 155.416 179.592 155.261 179.458 155.073C179.323 154.878 179.256 154.643 179.256 154.367C179.256 153.904 179.431 153.528 179.78 153.239C180.136 152.95 180.6 152.805 181.171 152.805C181.554 152.805 181.89 152.873 182.179 153.007C182.474 153.135 182.726 153.279 182.935 153.44L182.269 154.327C182.095 154.193 181.92 154.089 181.745 154.015C181.571 153.941 181.396 153.904 181.221 153.904C180.838 153.904 180.647 154.035 180.647 154.297C180.647 154.458 180.741 154.582 180.929 154.67C181.124 154.75 181.349 154.838 181.604 154.932C181.819 155.006 182.028 155.103 182.229 155.224C182.437 155.338 182.609 155.493 182.743 155.688C182.884 155.876 182.955 156.124 182.955 156.433C182.955 156.884 182.78 157.267 182.431 157.582C182.081 157.891 181.571 158.046 180.899 158.046Z" fill="#1E1E1E"/>
<path d="M186.133 158.046C185.656 158.046 185.226 157.942 184.843 157.733C184.46 157.525 184.158 157.226 183.936 156.837C183.714 156.447 183.603 155.977 183.603 155.426C183.603 154.881 183.714 154.414 183.936 154.025C184.164 153.635 184.46 153.336 184.823 153.128C185.186 152.913 185.565 152.805 185.962 152.805C186.439 152.805 186.832 152.913 187.141 153.128C187.456 153.336 187.692 153.622 187.846 153.985C188.007 154.341 188.088 154.747 188.088 155.204C188.088 155.332 188.081 155.459 188.068 155.587C188.054 155.708 188.041 155.799 188.027 155.859H185.034C185.102 156.222 185.253 156.491 185.488 156.665C185.723 156.833 186.005 156.917 186.334 156.917C186.69 156.917 187.05 156.806 187.413 156.585L187.907 157.482C187.651 157.656 187.366 157.794 187.05 157.895C186.734 157.995 186.428 158.046 186.133 158.046ZM185.024 154.881H186.828C186.828 154.606 186.761 154.381 186.627 154.206C186.499 154.025 186.287 153.934 185.992 153.934C185.763 153.934 185.558 154.015 185.377 154.176C185.196 154.331 185.078 154.566 185.024 154.881Z" fill="#1E1E1E"/>
<path d="M189.112 157.925V152.926H190.321L190.422 153.561H190.462C190.677 153.36 190.912 153.185 191.168 153.037C191.43 152.883 191.729 152.805 192.064 152.805C192.609 152.805 193.002 152.987 193.244 153.35C193.492 153.706 193.616 154.196 193.616 154.821V157.925H192.135V155.012C192.135 154.65 192.085 154.401 191.984 154.267C191.89 154.132 191.735 154.065 191.52 154.065C191.332 154.065 191.171 154.109 191.037 154.196C190.902 154.277 190.754 154.394 190.593 154.549V157.925H189.112Z" fill="#1E1E1E"/>
<path d="M196.804 158.046C196.186 158.046 195.742 157.868 195.473 157.512C195.211 157.156 195.08 156.689 195.08 156.111V154.085H194.395V152.987L195.161 152.926L195.332 151.596H196.562V152.926H197.761V154.085H196.562V156.091C196.562 156.373 196.619 156.578 196.733 156.706C196.854 156.826 197.012 156.887 197.207 156.887C197.287 156.887 197.368 156.877 197.449 156.857C197.536 156.837 197.613 156.813 197.68 156.786L197.912 157.864C197.785 157.905 197.627 157.945 197.439 157.985C197.257 158.026 197.046 158.046 196.804 158.046Z" fill="#1E1E1E"/>
<path d="M111.632 172.949V167.282H112.349V172.949H111.632Z" fill="#767587"/>
<path d="M113.832 172.949V168.751H114.42L114.48 169.356H114.506C114.708 169.154 114.921 168.987 115.145 168.854C115.37 168.716 115.626 168.647 115.914 168.647C116.358 168.647 116.68 168.788 116.882 169.07C117.089 169.347 117.193 169.753 117.193 170.288V172.949H116.484V170.383C116.484 169.992 116.421 169.707 116.294 169.528C116.168 169.35 115.966 169.26 115.69 169.26C115.477 169.26 115.284 169.315 115.111 169.425C114.944 169.534 114.754 169.695 114.541 169.908V172.949H113.832Z" fill="#767587"/>
<path d="M119.463 172.949L117.952 168.751H118.686L119.481 171.135C119.544 171.342 119.607 171.55 119.671 171.757C119.74 171.964 119.806 172.169 119.869 172.37H119.904C119.967 172.169 120.031 171.964 120.094 171.757C120.163 171.55 120.227 171.342 120.284 171.135L121.079 168.751H121.778L120.293 172.949H119.463Z" fill="#767587"/>
<path d="M124.188 173.053C123.848 173.053 123.528 172.966 123.229 172.793C122.935 172.621 122.696 172.37 122.512 172.042C122.333 171.714 122.244 171.319 122.244 170.859C122.244 170.386 122.333 169.986 122.512 169.658C122.696 169.33 122.935 169.079 123.229 168.906C123.528 168.734 123.848 168.647 124.188 168.647C124.533 168.647 124.853 168.734 125.146 168.906C125.44 169.079 125.676 169.33 125.855 169.658C126.039 169.986 126.131 170.386 126.131 170.859C126.131 171.319 126.039 171.714 125.855 172.042C125.676 172.37 125.44 172.621 125.146 172.793C124.853 172.966 124.533 173.053 124.188 173.053ZM124.188 172.465C124.55 172.465 124.841 172.318 125.06 172.025C125.285 171.725 125.397 171.337 125.397 170.859C125.397 170.375 125.285 169.983 125.06 169.684C124.841 169.384 124.55 169.235 124.188 169.235C123.831 169.235 123.54 169.384 123.315 169.684C123.091 169.983 122.978 170.375 122.978 170.859C122.978 171.337 123.091 171.725 123.315 172.025C123.54 172.318 123.831 172.465 124.188 172.465Z" fill="#767587"/>
<path d="M127.237 172.949V168.751H127.945V172.949H127.237ZM127.6 167.887C127.461 167.887 127.346 167.847 127.254 167.766C127.168 167.68 127.124 167.565 127.124 167.421C127.124 167.282 127.168 167.17 127.254 167.084C127.346 166.997 127.461 166.954 127.6 166.954C127.738 166.954 127.85 166.997 127.936 167.084C128.029 167.17 128.075 167.282 128.075 167.421C128.075 167.565 128.029 167.68 127.936 167.766C127.85 167.847 127.738 167.887 127.6 167.887Z" fill="#767587"/>
<path d="M131.021 173.053C130.653 173.053 130.319 172.966 130.019 172.793C129.72 172.621 129.484 172.37 129.311 172.042C129.138 171.714 129.052 171.319 129.052 170.859C129.052 170.386 129.144 169.986 129.328 169.658C129.518 169.33 129.766 169.079 130.071 168.906C130.382 168.734 130.716 168.647 131.073 168.647C131.349 168.647 131.585 168.696 131.781 168.794C131.983 168.892 132.156 169.007 132.3 169.14L131.937 169.606C131.816 169.497 131.686 169.407 131.548 169.338C131.416 169.269 131.266 169.235 131.099 169.235C130.845 169.235 130.618 169.304 130.416 169.442C130.221 169.574 130.065 169.764 129.95 170.012C129.841 170.254 129.786 170.536 129.786 170.859C129.786 171.337 129.904 171.725 130.14 172.025C130.382 172.318 130.696 172.465 131.082 172.465C131.277 172.465 131.459 172.425 131.626 172.344C131.793 172.258 131.94 172.157 132.066 172.042L132.377 172.517C132.187 172.684 131.977 172.817 131.747 172.914C131.516 173.007 131.274 173.053 131.021 173.053Z" fill="#767587"/>
<path d="M134.818 173.053C134.444 173.053 134.104 172.966 133.799 172.793C133.494 172.615 133.252 172.362 133.073 172.033C132.895 171.705 132.805 171.313 132.805 170.859C132.805 170.398 132.895 170.003 133.073 169.675C133.258 169.347 133.494 169.093 133.782 168.915C134.07 168.736 134.372 168.647 134.689 168.647C135.224 168.647 135.636 168.826 135.924 169.183C136.218 169.54 136.364 170.018 136.364 170.617C136.364 170.692 136.362 170.766 136.356 170.841C136.356 170.91 136.35 170.971 136.338 171.023H133.505C133.534 171.466 133.672 171.82 133.92 172.085C134.173 172.35 134.501 172.483 134.905 172.483C135.106 172.483 135.29 172.454 135.457 172.396C135.63 172.333 135.794 172.252 135.95 172.154L136.2 172.621C136.022 172.736 135.817 172.837 135.587 172.923C135.362 173.009 135.106 173.053 134.818 173.053ZM133.497 170.513H135.742C135.742 170.087 135.65 169.764 135.466 169.546C135.288 169.321 135.034 169.209 134.706 169.209C134.412 169.209 134.147 169.324 133.911 169.554C133.681 169.779 133.543 170.098 133.497 170.513Z" fill="#767587"/>
<path d="M140.176 169.779L139.909 170.643H141.61L141.342 169.779C141.239 169.462 141.141 169.148 141.049 168.837C140.957 168.52 140.864 168.198 140.772 167.87H140.738C140.651 168.198 140.562 168.52 140.47 168.837C140.378 169.148 140.28 169.462 140.176 169.779ZM138.449 172.949L140.366 167.282H141.178L143.096 172.949H142.327L141.792 171.221H139.727L139.183 172.949H138.449Z" fill="#767587"/>
<path d="M143.83 172.949V168.751H144.417L144.478 169.356H144.504C144.688 169.154 144.889 168.987 145.108 168.854C145.327 168.716 145.56 168.647 145.808 168.647C146.13 168.647 146.381 168.719 146.559 168.863C146.744 169.001 146.879 169.197 146.965 169.451C147.184 169.214 147.406 169.021 147.631 168.872C147.855 168.722 148.094 168.647 148.348 168.647C148.779 168.647 149.099 168.788 149.306 169.07C149.519 169.347 149.626 169.753 149.626 170.288V172.949H148.918V170.383C148.918 169.992 148.854 169.707 148.728 169.528C148.601 169.35 148.405 169.26 148.14 169.26C147.829 169.26 147.478 169.476 147.086 169.908V172.949H146.378V170.383C146.378 169.992 146.315 169.707 146.188 169.528C146.061 169.35 145.863 169.26 145.592 169.26C145.281 169.26 144.93 169.476 144.538 169.908V172.949H143.83Z" fill="#767587"/>
<path d="M152.624 173.053C152.284 173.053 151.965 172.966 151.665 172.793C151.372 172.621 151.133 172.37 150.948 172.042C150.77 171.714 150.681 171.319 150.681 170.859C150.681 170.386 150.77 169.986 150.948 169.658C151.133 169.33 151.372 169.079 151.665 168.906C151.965 168.734 152.284 168.647 152.624 168.647C152.97 168.647 153.289 168.734 153.583 168.906C153.877 169.079 154.113 169.33 154.291 169.658C154.476 169.986 154.568 170.386 154.568 170.859C154.568 171.319 154.476 171.714 154.291 172.042C154.113 172.37 153.877 172.621 153.583 172.793C153.289 172.966 152.97 173.053 152.624 173.053ZM152.624 172.465C152.987 172.465 153.278 172.318 153.497 172.025C153.721 171.725 153.834 171.337 153.834 170.859C153.834 170.375 153.721 169.983 153.497 169.684C153.278 169.384 152.987 169.235 152.624 169.235C152.267 169.235 151.976 169.384 151.752 169.684C151.527 169.983 151.415 170.375 151.415 170.859C151.415 171.337 151.527 171.725 151.752 172.025C151.976 172.318 152.267 172.465 152.624 172.465Z" fill="#767587"/>
<path d="M156.9 173.053C156.457 173.053 156.131 172.914 155.924 172.638C155.717 172.356 155.613 171.947 155.613 171.411V168.751H156.33V171.316C156.33 171.708 156.39 171.993 156.511 172.172C156.638 172.35 156.84 172.439 157.116 172.439C157.335 172.439 157.528 172.385 157.695 172.275C157.868 172.16 158.052 171.979 158.248 171.731V168.751H158.956V172.949H158.369L158.308 172.292H158.282C158.086 172.523 157.879 172.707 157.66 172.845C157.441 172.984 157.188 173.053 156.9 173.053Z" fill="#767587"/>
<path d="M160.372 172.949V168.751H160.96L161.02 169.356H161.046C161.247 169.154 161.461 168.987 161.685 168.854C161.91 168.716 162.166 168.647 162.454 168.647C162.897 168.647 163.22 168.788 163.421 169.07C163.629 169.347 163.732 169.753 163.732 170.288V172.949H163.024V170.383C163.024 169.992 162.961 169.707 162.834 169.528C162.707 169.35 162.506 169.26 162.229 169.26C162.016 169.26 161.823 169.315 161.651 169.425C161.484 169.534 161.294 169.695 161.08 169.908V172.949H160.372Z" fill="#767587"/>
<path d="M166.418 173.053C165.969 173.053 165.655 172.923 165.476 172.664C165.303 172.405 165.217 172.068 165.217 171.653V169.33H164.595V168.794L165.252 168.751L165.338 167.576H165.934V168.751H167.066V169.33H165.934V171.662C165.934 171.921 165.98 172.123 166.072 172.267C166.17 172.405 166.34 172.474 166.582 172.474C166.657 172.474 166.737 172.462 166.824 172.439C166.91 172.411 166.988 172.385 167.057 172.362L167.195 172.897C167.08 172.937 166.953 172.972 166.815 173.001C166.683 173.035 166.55 173.053 166.418 173.053Z" fill="#767587"/>
<path d="M168.504 169.934C168.36 169.934 168.237 169.885 168.133 169.787C168.035 169.684 167.986 169.554 167.986 169.399C167.986 169.232 168.035 169.099 168.133 169.001C168.237 168.898 168.36 168.846 168.504 168.846C168.643 168.846 168.761 168.898 168.859 169.001C168.962 169.099 169.014 169.232 169.014 169.399C169.014 169.554 168.962 169.684 168.859 169.787C168.761 169.885 168.643 169.934 168.504 169.934ZM168.504 173.053C168.36 173.053 168.237 173.004 168.133 172.906C168.035 172.802 167.986 172.673 167.986 172.517C167.986 172.35 168.035 172.218 168.133 172.12C168.237 172.016 168.36 171.964 168.504 171.964C168.643 171.964 168.761 172.016 168.859 172.12C168.962 172.218 169.014 172.35 169.014 172.517C169.014 172.673 168.962 172.802 168.859 172.906C168.761 173.004 168.643 173.053 168.504 173.053Z" fill="#767587"/>
<path d="M171.91 170.997V170.193H172.497C172.837 170.193 173.11 170.127 173.318 169.995C173.525 169.862 173.649 169.661 173.689 169.39H171.91V168.898L172.532 168.854H173.672C173.614 168.636 173.485 168.48 173.283 168.388C173.082 168.296 172.82 168.25 172.497 168.25H171.91V167.455H175.261V167.982H174.078C174.228 168.074 174.354 168.198 174.458 168.353C174.562 168.503 174.631 168.67 174.665 168.854H175.261V169.39H174.683C174.642 169.782 174.518 170.098 174.311 170.34C174.104 170.582 173.839 170.755 173.516 170.859L175.063 172.949H173.931L172.558 170.997H171.91Z" fill="#767587"/>
<path d="M177.816 173.053C177.372 173.053 176.998 172.978 176.693 172.828C176.393 172.673 176.143 172.494 175.941 172.292L176.399 171.653C176.566 171.809 176.753 171.947 176.96 172.068C177.168 172.183 177.41 172.241 177.686 172.241C177.991 172.241 178.245 172.148 178.446 171.964C178.648 171.78 178.748 171.521 178.748 171.187C178.748 170.859 178.656 170.605 178.472 170.427C178.288 170.248 178.043 170.159 177.738 170.159C177.559 170.159 177.41 170.185 177.289 170.237C177.168 170.283 177.024 170.36 176.857 170.47L176.382 170.167L176.546 167.455H179.483V168.293H177.41L177.297 169.623C177.412 169.566 177.525 169.523 177.634 169.494C177.749 169.459 177.879 169.442 178.023 169.442C178.34 169.442 178.628 169.502 178.887 169.623C179.146 169.744 179.353 169.931 179.509 170.185C179.67 170.438 179.75 170.764 179.75 171.161C179.75 171.558 179.658 171.898 179.474 172.18C179.296 172.462 179.059 172.678 178.766 172.828C178.472 172.978 178.155 173.053 177.816 173.053Z" fill="#767587"/>
<path d="M182.374 173.053C181.804 173.053 181.349 172.805 181.009 172.31C180.675 171.814 180.508 171.103 180.508 170.176C180.508 169.249 180.675 168.546 181.009 168.068C181.349 167.59 181.804 167.351 182.374 167.351C182.944 167.351 183.396 167.59 183.73 168.068C184.07 168.546 184.24 169.249 184.24 170.176C184.24 171.103 184.07 171.814 183.73 172.31C183.396 172.805 182.944 173.053 182.374 173.053ZM182.374 172.275C182.552 172.275 182.711 172.209 182.849 172.077C182.987 171.938 183.094 171.717 183.169 171.411C183.249 171.106 183.289 170.694 183.289 170.176C183.289 169.658 183.249 169.249 183.169 168.95C183.094 168.65 182.987 168.44 182.849 168.319C182.711 168.192 182.552 168.129 182.374 168.129C182.201 168.129 182.046 168.192 181.907 168.319C181.769 168.44 181.66 168.65 181.579 168.95C181.499 169.249 181.458 169.658 181.458 170.176C181.458 170.694 181.499 171.106 181.579 171.411C181.66 171.717 181.769 171.938 181.907 172.077C182.046 172.209 182.201 172.275 182.374 172.275Z" fill="#767587"/>
<path d="M186.803 173.053C186.232 173.053 185.778 172.805 185.438 172.31C185.104 171.814 184.937 171.103 184.937 170.176C184.937 169.249 185.104 168.546 185.438 168.068C185.778 167.59 186.232 167.351 186.803 167.351C187.373 167.351 187.825 167.59 188.159 168.068C188.499 168.546 188.668 169.249 188.668 170.176C188.668 171.103 188.499 171.814 188.159 172.31C187.825 172.805 187.373 173.053 186.803 173.053ZM186.803 172.275C186.981 172.275 187.139 172.209 187.278 172.077C187.416 171.938 187.522 171.717 187.597 171.411C187.678 171.106 187.718 170.694 187.718 170.176C187.718 169.658 187.678 169.249 187.597 168.95C187.522 168.65 187.416 168.44 187.278 168.319C187.139 168.192 186.981 168.129 186.803 168.129C186.63 168.129 186.474 168.192 186.336 168.319C186.198 168.44 186.088 168.65 186.008 168.95C185.927 169.249 185.887 169.658 185.887 170.176C185.887 170.694 185.927 171.106 186.008 171.411C186.088 171.717 186.198 171.938 186.336 172.077C186.474 172.209 186.63 172.275 186.803 172.275Z" fill="#767587"/>
<path d="M113.205 183.85C112.807 183.85 112.439 183.775 112.099 183.626C111.759 183.47 111.465 183.266 111.218 183.012L111.65 182.511C111.851 182.724 112.087 182.897 112.358 183.03C112.634 183.156 112.919 183.22 113.213 183.22C113.588 183.22 113.878 183.136 114.086 182.969C114.293 182.796 114.397 182.572 114.397 182.295C114.397 182.1 114.353 181.944 114.267 181.829C114.186 181.714 114.074 181.616 113.93 181.535C113.792 181.455 113.634 181.374 113.455 181.293L112.643 180.939C112.465 180.864 112.286 180.766 112.108 180.646C111.935 180.525 111.788 180.369 111.667 180.179C111.552 179.989 111.494 179.756 111.494 179.479C111.494 179.191 111.569 178.935 111.719 178.711C111.874 178.48 112.087 178.302 112.358 178.175C112.629 178.043 112.934 177.976 113.274 177.976C113.613 177.976 113.927 178.043 114.215 178.175C114.503 178.302 114.748 178.469 114.949 178.676L114.561 179.143C114.388 178.976 114.195 178.846 113.982 178.754C113.775 178.656 113.539 178.607 113.274 178.607C112.957 178.607 112.701 178.682 112.505 178.832C112.315 178.981 112.22 179.183 112.22 179.436C112.22 179.615 112.266 179.764 112.358 179.885C112.456 180.001 112.577 180.096 112.721 180.17C112.865 180.245 113.012 180.314 113.161 180.378L113.965 180.723C114.184 180.815 114.379 180.928 114.552 181.06C114.731 181.187 114.872 181.345 114.975 181.535C115.079 181.72 115.131 181.953 115.131 182.235C115.131 182.534 115.053 182.808 114.898 183.056C114.742 183.297 114.52 183.49 114.232 183.634C113.945 183.778 113.602 183.85 113.205 183.85Z" fill="#767587"/>
<path d="M117.879 183.85C117.505 183.85 117.165 183.764 116.86 183.591C116.555 183.413 116.313 183.159 116.134 182.831C115.956 182.503 115.867 182.111 115.867 181.656C115.867 181.196 115.956 180.801 116.134 180.473C116.319 180.145 116.555 179.891 116.843 179.713C117.131 179.534 117.433 179.445 117.75 179.445C118.285 179.445 118.697 179.623 118.985 179.98C119.279 180.337 119.426 180.815 119.426 181.414C119.426 181.489 119.423 181.564 119.417 181.639C119.417 181.708 119.411 181.768 119.4 181.82H116.566C116.595 182.264 116.733 182.618 116.981 182.883C117.234 183.148 117.563 183.28 117.966 183.28C118.167 183.28 118.352 183.251 118.519 183.194C118.691 183.13 118.855 183.05 119.011 182.952L119.261 183.418C119.083 183.534 118.878 183.634 118.648 183.721C118.424 183.807 118.167 183.85 117.879 183.85ZM116.558 181.311H118.804C118.804 180.885 118.711 180.562 118.527 180.343C118.349 180.119 118.095 180.006 117.767 180.006C117.473 180.006 117.208 180.121 116.972 180.352C116.742 180.576 116.604 180.896 116.558 181.311Z" fill="#767587"/>
<path d="M120.463 183.747V179.548H121.05L121.111 180.153H121.137C121.338 179.952 121.551 179.785 121.776 179.652C122.001 179.514 122.257 179.445 122.545 179.445C122.988 179.445 123.311 179.586 123.512 179.868C123.72 180.145 123.823 180.551 123.823 181.086V183.747H123.115V181.181C123.115 180.79 123.051 180.504 122.925 180.326C122.798 180.147 122.597 180.058 122.32 180.058C122.107 180.058 121.914 180.113 121.741 180.222C121.574 180.332 121.384 180.493 121.171 180.706V183.747H120.463Z" fill="#767587"/>
<path d="M126.509 183.85C126.059 183.85 125.746 183.721 125.567 183.462C125.394 183.202 125.308 182.866 125.308 182.451V180.127H124.686V179.592L125.342 179.548L125.429 178.374H126.025V179.548H127.156V180.127H126.025V182.46C126.025 182.719 126.071 182.92 126.163 183.064C126.261 183.202 126.431 183.272 126.673 183.272C126.748 183.272 126.828 183.26 126.915 183.237C127.001 183.208 127.079 183.182 127.148 183.159L127.286 183.695C127.171 183.735 127.044 183.77 126.906 183.798C126.773 183.833 126.641 183.85 126.509 183.85Z" fill="#767587"/>
<path d="M130.932 183.85C130.633 183.85 130.348 183.796 130.077 183.686C129.806 183.571 129.57 183.433 129.369 183.272L129.723 182.796C129.907 182.94 130.097 183.061 130.293 183.159C130.489 183.251 130.71 183.297 130.958 183.297C131.234 183.297 131.442 183.234 131.58 183.107C131.718 182.975 131.787 182.819 131.787 182.641C131.787 182.497 131.738 182.376 131.64 182.278C131.548 182.18 131.427 182.1 131.278 182.036C131.134 181.967 130.984 181.904 130.828 181.846C130.633 181.771 130.44 181.688 130.25 181.596C130.06 181.498 129.904 181.374 129.783 181.224C129.662 181.069 129.602 180.873 129.602 180.637C129.602 180.297 129.728 180.015 129.982 179.79C130.241 179.56 130.598 179.445 131.053 179.445C131.312 179.445 131.554 179.491 131.779 179.583C132.003 179.675 132.196 179.787 132.357 179.92L132.012 180.369C131.868 180.26 131.718 180.17 131.563 180.101C131.407 180.032 131.237 179.998 131.053 179.998C130.788 179.998 130.592 180.058 130.466 180.179C130.345 180.3 130.284 180.441 130.284 180.602C130.284 180.735 130.327 180.844 130.414 180.931C130.5 181.011 130.612 181.083 130.751 181.147C130.889 181.204 131.036 181.265 131.191 181.328C131.393 181.403 131.591 181.489 131.787 181.587C131.983 181.679 132.144 181.806 132.271 181.967C132.403 182.123 132.47 182.333 132.47 182.598C132.47 182.822 132.409 183.03 132.288 183.22C132.173 183.41 132 183.562 131.77 183.678C131.545 183.793 131.266 183.85 130.932 183.85Z" fill="#767587"/>
<path d="M134.68 183.85C134.237 183.85 133.912 183.712 133.704 183.436C133.497 183.153 133.393 182.745 133.393 182.209V179.548H134.11V182.114C134.11 182.506 134.171 182.791 134.292 182.969C134.418 183.148 134.62 183.237 134.896 183.237C135.115 183.237 135.308 183.182 135.475 183.073C135.648 182.958 135.832 182.776 136.028 182.529V179.548H136.736V183.747H136.149L136.089 183.09H136.063C135.867 183.32 135.659 183.505 135.441 183.643C135.222 183.781 134.968 183.85 134.68 183.85Z" fill="#767587"/>
<path d="M139.811 183.85C139.443 183.85 139.109 183.764 138.809 183.591C138.51 183.418 138.273 183.168 138.101 182.84C137.928 182.511 137.842 182.117 137.842 181.656C137.842 181.184 137.934 180.784 138.118 180.456C138.308 180.127 138.556 179.877 138.861 179.704C139.172 179.531 139.506 179.445 139.863 179.445C140.139 179.445 140.375 179.494 140.571 179.592C140.773 179.69 140.946 179.805 141.09 179.937L140.727 180.404C140.606 180.294 140.476 180.205 140.338 180.136C140.206 180.067 140.056 180.032 139.889 180.032C139.635 180.032 139.408 180.101 139.206 180.24C139.011 180.372 138.855 180.562 138.74 180.81C138.631 181.052 138.576 181.334 138.576 181.656C138.576 182.134 138.694 182.523 138.93 182.822C139.172 183.116 139.486 183.263 139.872 183.263C140.067 183.263 140.249 183.223 140.416 183.142C140.583 183.056 140.73 182.955 140.856 182.84L141.167 183.315C140.977 183.482 140.767 183.614 140.537 183.712C140.306 183.804 140.064 183.85 139.811 183.85Z" fill="#767587"/>
<path d="M143.565 183.85C143.196 183.85 142.862 183.764 142.563 183.591C142.263 183.418 142.027 183.168 141.855 182.84C141.682 182.511 141.595 182.117 141.595 181.656C141.595 181.184 141.688 180.784 141.872 180.456C142.062 180.127 142.31 179.877 142.615 179.704C142.926 179.531 143.26 179.445 143.617 179.445C143.893 179.445 144.129 179.494 144.325 179.592C144.527 179.69 144.699 179.805 144.843 179.937L144.481 180.404C144.36 180.294 144.23 180.205 144.092 180.136C143.959 180.067 143.81 180.032 143.643 180.032C143.389 180.032 143.162 180.101 142.96 180.24C142.764 180.372 142.609 180.562 142.494 180.81C142.384 181.052 142.33 181.334 142.33 181.656C142.33 182.134 142.448 182.523 142.684 182.822C142.926 183.116 143.24 183.263 143.625 183.263C143.821 183.263 144.003 183.223 144.17 183.142C144.337 183.056 144.483 182.955 144.61 182.84L144.921 183.315C144.731 183.482 144.521 183.614 144.291 183.712C144.06 183.804 143.818 183.85 143.565 183.85Z" fill="#767587"/>
<path d="M147.362 183.85C146.988 183.85 146.648 183.764 146.343 183.591C146.037 183.413 145.796 183.159 145.617 182.831C145.439 182.503 145.349 182.111 145.349 181.656C145.349 181.196 145.439 180.801 145.617 180.473C145.801 180.145 146.037 179.891 146.325 179.713C146.613 179.534 146.916 179.445 147.232 179.445C147.768 179.445 148.18 179.623 148.468 179.98C148.761 180.337 148.908 180.815 148.908 181.414C148.908 181.489 148.905 181.564 148.9 181.639C148.9 181.708 148.894 181.768 148.882 181.82H146.049C146.078 182.264 146.216 182.618 146.464 182.883C146.717 183.148 147.045 183.28 147.448 183.28C147.65 183.28 147.834 183.251 148.001 183.194C148.174 183.13 148.338 183.05 148.494 182.952L148.744 183.418C148.566 183.534 148.361 183.634 148.131 183.721C147.906 183.807 147.65 183.85 147.362 183.85ZM146.04 181.311H148.286C148.286 180.885 148.194 180.562 148.01 180.343C147.831 180.119 147.578 180.006 147.25 180.006C146.956 180.006 146.691 180.121 146.455 180.352C146.225 180.576 146.086 180.896 146.04 181.311Z" fill="#767587"/>
<path d="M151.043 183.85C150.743 183.85 150.458 183.796 150.187 183.686C149.917 183.571 149.681 183.433 149.479 183.272L149.833 182.796C150.018 182.94 150.208 183.061 150.403 183.159C150.599 183.251 150.821 183.297 151.069 183.297C151.345 183.297 151.552 183.234 151.691 183.107C151.829 182.975 151.898 182.819 151.898 182.641C151.898 182.497 151.849 182.376 151.751 182.278C151.659 182.18 151.538 182.1 151.388 182.036C151.244 181.967 151.094 181.904 150.939 181.846C150.743 181.771 150.55 181.688 150.36 181.596C150.17 181.498 150.015 181.374 149.894 181.224C149.773 181.069 149.712 180.873 149.712 180.637C149.712 180.297 149.839 180.015 150.092 179.79C150.352 179.56 150.709 179.445 151.164 179.445C151.423 179.445 151.665 179.491 151.889 179.583C152.114 179.675 152.307 179.787 152.468 179.92L152.122 180.369C151.978 180.26 151.829 180.17 151.673 180.101C151.518 180.032 151.348 179.998 151.164 179.998C150.899 179.998 150.703 180.058 150.576 180.179C150.455 180.3 150.395 180.441 150.395 180.602C150.395 180.735 150.438 180.844 150.524 180.931C150.611 181.011 150.723 181.083 150.861 181.147C150.999 181.204 151.146 181.265 151.302 181.328C151.503 181.403 151.702 181.489 151.898 181.587C152.094 181.679 152.255 181.806 152.382 181.967C152.514 182.123 152.58 182.333 152.58 182.598C152.58 182.822 152.52 183.03 152.399 183.22C152.284 183.41 152.111 183.562 151.881 183.678C151.656 183.793 151.377 183.85 151.043 183.85Z" fill="#767587"/>
<path d="M154.662 183.85C154.362 183.85 154.077 183.796 153.806 183.686C153.536 183.571 153.3 183.433 153.098 183.272L153.452 182.796C153.637 182.94 153.827 183.061 154.022 183.159C154.218 183.251 154.44 183.297 154.687 183.297C154.964 183.297 155.171 183.234 155.309 183.107C155.448 182.975 155.517 182.819 155.517 182.641C155.517 182.497 155.468 182.376 155.37 182.278C155.278 182.18 155.157 182.1 155.007 182.036C154.863 181.967 154.713 181.904 154.558 181.846C154.362 181.771 154.169 181.688 153.979 181.596C153.789 181.498 153.634 181.374 153.513 181.224C153.392 181.069 153.331 180.873 153.331 180.637C153.331 180.297 153.458 180.015 153.711 179.79C153.971 179.56 154.328 179.445 154.783 179.445C155.042 179.445 155.284 179.491 155.508 179.583C155.733 179.675 155.926 179.787 156.087 179.92L155.741 180.369C155.597 180.26 155.448 180.17 155.292 180.101C155.137 180.032 154.967 179.998 154.783 179.998C154.518 179.998 154.322 180.058 154.195 180.179C154.074 180.3 154.014 180.441 154.014 180.602C154.014 180.735 154.057 180.844 154.143 180.931C154.23 181.011 154.342 181.083 154.48 181.147C154.618 181.204 154.765 181.265 154.921 181.328C155.122 181.403 155.321 181.489 155.517 181.587C155.713 181.679 155.874 181.806 156 181.967C156.133 182.123 156.199 182.333 156.199 182.598C156.199 182.822 156.139 183.03 156.018 183.22C155.903 183.41 155.73 183.562 155.499 183.678C155.275 183.793 154.996 183.85 154.662 183.85Z" fill="#767587"/>
<path d="M157.304 183.747V180.127H156.734V179.592L157.304 179.548V178.883C157.304 178.457 157.402 178.12 157.598 177.873C157.8 177.619 158.111 177.493 158.531 177.493C158.663 177.493 158.79 177.507 158.911 177.536C159.032 177.559 159.139 177.591 159.231 177.631L159.075 178.175C158.92 178.106 158.761 178.071 158.6 178.071C158.208 178.071 158.013 178.342 158.013 178.883V179.548H158.902V180.127H158.013V183.747H157.304Z" fill="#767587"/>
<path d="M160.932 183.85C160.489 183.85 160.164 183.712 159.956 183.436C159.749 183.153 159.645 182.745 159.645 182.209V179.548H160.362V182.114C160.362 182.506 160.423 182.791 160.544 182.969C160.67 183.148 160.872 183.237 161.148 183.237C161.367 183.237 161.56 183.182 161.727 183.073C161.9 182.958 162.084 182.776 162.28 182.529V179.548H162.988V183.747H162.401L162.34 183.09H162.314C162.119 183.32 161.911 183.505 161.692 183.643C161.474 183.781 161.22 183.85 160.932 183.85Z" fill="#767587"/>
<path d="M165.156 183.85C164.891 183.85 164.698 183.77 164.577 183.608C164.462 183.441 164.404 183.205 164.404 182.9V177.596H165.113V182.952C165.113 183.061 165.133 183.142 165.173 183.194C165.213 183.24 165.26 183.263 165.311 183.263C165.334 183.263 165.355 183.263 165.372 183.263C165.395 183.257 165.427 183.251 165.467 183.246L165.562 183.781C165.516 183.804 165.461 183.821 165.398 183.833C165.334 183.845 165.254 183.85 165.156 183.85Z" fill="#767587"/>
<path d="M167.358 183.85C167.093 183.85 166.9 183.77 166.779 183.608C166.664 183.441 166.606 183.205 166.606 182.9V177.596H167.314V182.952C167.314 183.061 167.335 183.142 167.375 183.194C167.415 183.24 167.461 183.263 167.513 183.263C167.536 183.263 167.556 183.263 167.574 183.263C167.597 183.257 167.628 183.251 167.669 183.246L167.764 183.781C167.718 183.804 167.663 183.821 167.599 183.833C167.536 183.845 167.456 183.85 167.358 183.85Z" fill="#767587"/>
<path d="M168.877 185.552C168.785 185.552 168.695 185.543 168.609 185.526C168.528 185.509 168.454 185.489 168.385 185.466L168.523 184.904C168.569 184.916 168.621 184.927 168.678 184.939C168.736 184.956 168.791 184.965 168.842 184.965C169.078 184.965 169.274 184.878 169.43 184.705C169.585 184.538 169.706 184.325 169.793 184.066L169.888 183.755L168.203 179.548H168.937L169.793 181.872C169.856 182.051 169.922 182.244 169.991 182.451C170.066 182.658 170.135 182.86 170.199 183.056H170.233C170.296 182.866 170.357 182.667 170.414 182.46C170.472 182.252 170.53 182.056 170.587 181.872L171.339 179.548H172.03L170.449 184.092C170.351 184.369 170.233 184.616 170.095 184.835C169.962 185.054 169.795 185.227 169.594 185.353C169.398 185.486 169.159 185.552 168.877 185.552Z" fill="#767587"/>
<path d="M173.134 182.036L173.039 178.771L173.021 177.959H173.738L173.721 178.771L173.626 182.036H173.134ZM173.384 183.85C173.24 183.85 173.116 183.801 173.013 183.703C172.915 183.6 172.866 183.47 172.866 183.315C172.866 183.148 172.915 183.015 173.013 182.917C173.116 182.814 173.24 182.762 173.384 182.762C173.522 182.762 173.641 182.814 173.738 182.917C173.842 183.015 173.894 183.148 173.894 183.315C173.894 183.47 173.842 183.6 173.738 183.703C173.641 183.801 173.522 183.85 173.384 183.85Z" fill="#767587"/>
<path d="M100.733 250.559L112.016 245.033L102.761 228.275L109.621 226.784L96.1195 204.765V204.88C93.0209 200.642 88.0139 197.9 82.3863 197.9H59.1303L59.1859 197.196L50.0983 197.294C41.6407 197.456 34.0215 202.93 31.6825 211.059C31.5898 211.388 31.5018 211.717 31.4231 212.055L26.1846 240.874L41.7751 239.605L38.7227 278.683H101.789L100.733 250.563V250.559Z" fill="#485EB0"/>
<path d="M99.3391 233.509L92.1406 219.112V224.871L99.3391 233.509Z" fill="#374786"/>
<path d="M78.1023 219.473L89.2624 217.673L91.264 231.687L85.7221 234.937L79.6812 231.528L78.1023 219.473Z" fill="#1B348F"/>
<path d="M109.414 212.633H98.7241C97.2865 212.633 96.1211 213.798 96.1211 215.236V235.324C96.1211 236.761 97.2865 237.927 98.7241 237.927H109.414C110.852 237.927 112.017 236.761 112.017 235.324V215.236C112.017 213.798 110.852 212.633 109.414 212.633Z" fill="#8E9395"/>
<path d="M101.776 230.823C100.317 230.795 98.863 231.156 98.9463 232.977C98.7842 234.626 100.197 235.052 101.674 235.191C100.743 235.242 99.956 235.57 99.8912 236.673C99.5438 238.637 101.281 239.341 102.897 239.456C101.341 239.808 102.258 242.328 104.236 243.004C105.991 243.704 107.807 244.338 109.521 245.126C111.244 245.918 112.939 246.682 114.805 247.085C116.83 247.52 118.965 247.553 120.943 246.96C122.212 246.58 123.458 245.895 124.171 244.778C125.468 242.754 124.736 239.883 124.037 237.766C123.295 235.515 122.114 233.329 120.391 231.675C120.391 231.675 114.264 225.797 111.832 224.213C111.573 224.042 111.299 223.875 110.998 223.806C110.697 223.732 110.35 223.769 110.113 223.972C109.808 224.236 109.761 224.69 109.789 225.098C109.868 226.353 110.387 227.52 110.906 228.674C109.854 228.359 108.733 228.016 107.515 227.622C104.884 226.978 100.669 225.385 100.03 228.882C99.9097 230.114 100.771 230.624 101.772 230.837L101.776 230.823Z" fill="#E3B891"/>
<path opacity="0.36" d="M110.911 228.664L116.641 230.933C116.641 230.933 111.138 226.848 110.068 226.533L110.911 228.664Z" fill="#B69374"/>
<path d="M105.277 232.026C105.277 232.026 105.231 232.027 105.208 232.017C103.832 231.591 101.632 230.952 101.215 230.943C101.086 230.943 100.984 230.832 100.988 230.706C100.988 230.577 101.113 230.484 101.225 230.479C101.836 230.493 104.986 231.466 105.342 231.577C105.463 231.614 105.532 231.744 105.495 231.869C105.463 231.966 105.375 232.031 105.273 232.031L105.277 232.026Z" fill="#DF6969"/>
<path d="M104.574 236.312C104.574 236.312 104.532 236.312 104.509 236.303L101.299 235.367C101.174 235.33 101.105 235.201 101.142 235.08C101.179 234.96 101.304 234.886 101.429 234.923L104.639 235.858C104.764 235.895 104.833 236.025 104.796 236.145C104.768 236.247 104.676 236.312 104.574 236.312Z" fill="#DF6969"/>
<g filter="url(#filter3_d_1815_12680)">
<path d="M108.399 227.407C107.551 223.442 102.794 225.401 99.8115 226.221C98.4312 226.712 97.1621 227.143 95.9764 227.537C96.5276 226.203 97.0834 224.85 97.1297 223.419C97.1436 222.956 97.0787 222.437 96.7221 222.145C96.4442 221.923 96.0505 221.891 95.7077 221.983C95.365 222.076 95.0639 222.275 94.7721 222.479C92.0486 224.364 85.2492 231.284 85.2492 231.284C81.2566 236.193 79.214 243.424 81.5948 247.036C81.8032 247.356 82.1228 247.583 82.4887 247.689C84.2302 248.217 89.6633 250.005 92.2015 248.829L104.082 243.678C106.314 242.84 107.278 239.931 105.49 239.584C107.333 239.399 109.288 238.537 108.83 236.305C108.718 235.045 107.806 234.697 106.741 234.67C108.422 234.456 110.02 233.928 109.779 232.048C109.811 229.973 108.144 229.607 106.477 229.686C107.611 229.408 108.575 228.801 108.399 227.398V227.407Z" fill="#E3B891"/>
</g>
<path opacity="0.36" d="M95.9757 227.537L89.5098 230.32C89.5098 230.32 95.6515 225.471 96.865 225.077L95.9711 227.541L95.9757 227.537Z" fill="#B69374"/>
<path d="M102.512 231.155C102.414 231.155 102.326 231.095 102.294 230.997C102.252 230.877 102.317 230.743 102.437 230.706C102.84 230.567 106.398 229.353 107.092 229.316C107.236 229.307 107.329 229.409 107.338 229.534C107.343 229.663 107.245 229.77 107.12 229.779C106.588 229.807 103.67 230.775 102.59 231.146C102.567 231.155 102.539 231.159 102.516 231.159L102.512 231.155Z" fill="#CAA482"/>
<path d="M103.456 236.023C103.359 236.023 103.266 235.962 103.234 235.86C103.197 235.74 103.262 235.606 103.382 235.569L107.014 234.392C107.139 234.355 107.264 234.42 107.305 234.54C107.342 234.661 107.278 234.795 107.157 234.832L103.526 236.009C103.503 236.018 103.48 236.018 103.456 236.018V236.023Z" fill="#CAA482"/>
<path d="M52.6738 238.288L53.4704 240.544L77.2916 233.819L80.1123 233.022C80.9136 232.795 81.7566 233.207 82.0715 233.981L88.4773 249.687C88.9034 250.729 88.3892 251.915 87.3425 252.323L59.5751 263.101L48.7738 267.297C45.5408 268.191 42.4237 268.423 39.5612 268.098C30.5849 267.084 24.1097 260.637 24.4895 252.235L26.4487 239.155L52.6784 238.293L52.6738 238.288Z" fill="#485EB0"/>
<path d="M70.9309 155.306C70.8382 155.14 70.6437 155.075 70.4677 155.144C70.199 155.255 69.7822 155.408 69.3468 155.515L68.5501 165.464L65.3496 165.209L62.1954 164.954C61.8619 164.927 61.5377 164.936 61.2181 164.973C58.8883 165.246 56.98 167.141 56.7855 169.563L56.6882 170.772C56.4659 173.528 58.5409 175.964 61.2968 176.182L63.0708 176.325L60.1111 194.69C59.3283 199.549 62.6308 204.125 67.4941 204.908L69.6201 205.251C74.4788 206.033 79.055 202.731 79.8377 197.868L81.0096 190.582L81.4218 190.614C84.2228 189.238 89.2617 186.718 91.9498 177.72V161.17C90.5834 161.684 87.5661 152.715 85.6625 152.886C70.9355 145.687 71.7461 156.775 70.9355 155.302L70.9309 155.306Z" fill="#E3B891"/>
<path opacity="0.5" d="M73.1126 187.222C73.1126 187.222 73.5107 179.927 75.4209 179.013C77.3337 178.089 80.9339 180.251 80.9339 180.251L80.2819 181.263C80.2819 181.263 77.4995 179.908 76.5891 180.055C75.6788 180.203 74.3334 185.143 75.4244 186.23C76.5256 187.32 78.5038 187.208 78.5038 187.208L79.4367 184.661L81.3502 184.912L81.4308 187.698C81.4308 187.698 83.7219 187.637 84.7393 186.277C85.7568 184.917 84.6446 181.147 84.4409 180.973C84.2373 180.799 81.9701 181.258 81.9701 181.258L82.138 180.225C82.138 180.225 84.8087 178.666 85.6436 179.369C86.4757 180.082 87.4848 186.186 86.3653 187.399C85.256 188.614 83.4293 190.476 79.6654 190.469C75.8988 190.472 72.9302 189.121 73.0997 187.229L73.1126 187.222Z" fill="#28313B"/>
<path d="M82.1465 170.498C82.2807 172.738 82.7142 174.95 83.4431 177.066C81.9174 177.759 80.1456 176.638 80.1456 176.638L82.1387 170.505L82.1465 170.498Z" fill="#CDA37E"/>
<path d="M75.337 165.86C75.2484 165.845 75.1612 165.807 75.0989 165.747C74.9536 165.578 74.9782 165.325 75.1471 165.18C76.1172 164.32 77.4461 163.994 78.6991 164.305C78.9075 164.365 79.0318 164.57 78.9722 164.778C78.9722 164.778 78.9617 164.796 78.9564 164.806C78.8877 165.009 78.6733 165.128 78.4506 165.072C77.4514 164.847 76.4136 165.11 75.6516 165.799C75.5535 165.864 75.4386 165.894 75.3227 165.864L75.337 165.86Z" fill="#263238"/>
<path d="M90.1659 165.86C90.2545 165.845 90.3417 165.807 90.404 165.747C90.5493 165.578 90.5247 165.325 90.3559 165.18C89.3858 164.32 88.0569 163.994 86.8038 164.305C86.5954 164.365 86.4711 164.57 86.5308 164.778C86.5308 164.778 86.5413 164.796 86.5465 164.806C86.6152 165.009 86.8296 165.128 87.0524 165.072C88.0515 164.847 89.0894 165.11 89.8514 165.799C89.9495 165.864 90.0643 165.894 90.1803 165.864L90.1659 165.86Z" fill="#263238"/>
<path d="M68.6913 153.962C72.8761 156.773 74.6966 160.108 67.3053 166.922C66.1334 168.002 64.0653 165.122 62.2664 165.122C59.0264 164.042 57.511 169.568 56.8672 166.921C55.5985 161.706 56.3745 153.625 58.7224 151.763C62.2618 148.957 64.4503 151.125 68.6913 153.962Z" fill="#263238"/>
<path d="M68.8279 160.109C68.8279 160.109 72.1159 151.48 76.8909 152.046C76.8909 152.046 89.4357 162.664 91.6033 162.025C93.7709 161.386 100.127 157.062 98.5983 152.224C97.0694 147.386 93.7604 143.051 87.1425 140.768C87.1425 140.768 89.8755 142.475 89.4671 143.847C89.4671 143.847 79.8857 135.061 66.9744 142.108C54.0631 149.156 58.8067 156.894 58.8067 156.894L68.8279 160.109Z" fill="#263238"/>
<path d="M88.4605 170.857C88.5207 171.459 88.0807 171.996 87.4786 172.056C86.8764 172.116 86.3392 171.676 86.2789 171.074C86.2187 170.472 86.6588 169.935 87.2609 169.875C87.863 169.814 88.4003 170.254 88.4605 170.857Z" fill="#111111"/>
<path d="M80.4711 184.78C80.4201 184.789 80.3692 184.78 80.3182 184.757C80.2719 184.729 79.1093 184.108 78.1459 184.979C78.0533 185.062 77.9097 185.058 77.8263 184.96C77.743 184.868 77.7476 184.724 77.8449 184.641C79.0584 183.548 80.5313 184.349 80.5452 184.358C80.6563 184.418 80.6934 184.557 80.6332 184.669C80.6008 184.729 80.5405 184.77 80.4757 184.784L80.4711 184.78Z" fill="#E06A4B"/>
<path d="M78.9384 170.477C78.8365 171.13 78.2251 171.579 77.572 171.473C76.9189 171.371 76.4697 170.759 76.5762 170.106C76.6781 169.453 77.2895 169.004 77.9426 169.11C78.5956 169.212 79.0449 169.824 78.943 170.477H78.9384Z" fill="#111111"/>
<path d="M76.4238 171.446C76.4238 171.446 77.5494 170.765 78.5128 171.761L76.4238 171.446Z" fill="#FFA485"/>
<path d="M78.5078 171.993C78.4475 171.993 78.3873 171.969 78.341 171.923C77.5166 171.071 76.5809 171.622 76.5393 171.645C76.4281 171.71 76.2891 171.678 76.2197 171.566C76.1548 171.455 76.1872 171.316 76.2984 171.247C76.7431 170.978 77.8084 170.705 78.6745 171.599C78.7625 171.691 78.7625 171.84 78.6699 171.928C78.6236 171.969 78.568 171.993 78.5078 171.993Z" fill="#263238"/>
<path d="M86.4229 172.166C86.4229 172.166 87.4233 171.81 88.2756 172.333L86.4229 172.166Z" fill="#FFA485"/>
<path d="M88.2757 172.565C88.234 172.565 88.1923 172.556 88.1553 172.533C87.4096 172.075 86.5064 172.385 86.4971 172.385C86.3767 172.427 86.247 172.362 86.2007 172.241C86.159 172.121 86.2192 171.991 86.3396 171.945C86.3859 171.931 87.4559 171.56 88.3915 172.135C88.5027 172.2 88.5351 172.343 88.4702 172.454C88.4286 172.524 88.3498 172.565 88.2711 172.565H88.2757Z" fill="#263238"/>
<path d="M75.1595 175.028C75.5486 174.811 76.0395 174.913 76.3452 175.237C76.901 175.834 78.1238 176.909 79.9765 177.252C80.4304 177.335 80.625 177.886 80.3934 178.289C79.8885 179.169 78.6148 180.489 76.2943 179.165C73.4643 177.553 74.1405 175.594 75.1595 175.028Z" fill="white"/>
<path d="M80.9488 190.625C80.9488 190.625 71.1434 190.473 69.0498 186.327C69.0498 186.327 69.6983 195.09 80.0734 196.049L80.9488 190.625Z" fill="#B69374"/>
<path d="M58.3291 195.42L79.6051 198.794L82.084 191.625C82.084 191.625 76.9279 189.091 77.7353 186.397L60.4397 174.319C62.8478 182.241 62.5503 188.642 58.3291 195.434V195.42Z" fill="#E3B891"/>
<path d="M79.2415 155.492C74.5395 158.807 76.8139 164.235 87.7226 172.599C91.9845 166.846 92.5152 155.832 89.0019 153.132C85.4759 150.424 83.3498 152.623 79.2415 155.492Z" fill="#263238"/>
<path d="M58.9416 164.731C59.6584 176.348 59.5089 183.181 65.3623 189.131C74.1953 198.093 88.5263 192.763 91.2951 181.16C93.7645 170.744 92.1743 153.484 80.8049 148.885C72.7027 145.551 63.4245 149.432 60.0904 157.534C59.1583 159.817 58.7631 162.277 58.9416 164.731Z" fill="#E3B891"/>
<path d="M63.5611 154.433C68.9889 156.29 68.3313 162.142 60.192 173.214C54.4758 168.889 50.8995 158.443 53.5441 154.881C56.1886 151.319 58.8161 152.819 63.5611 154.433Z" fill="#263238"/>
<path d="M53.4129 174.02C54.2213 176.838 56.125 179.214 58.6788 180.638C62.0805 182.484 64.6497 179.634 64.426 175.978C64.2206 172.668 62.1966 167.737 58.431 167.394C54.6707 167.07 52.4342 170.566 53.4129 174.02Z" fill="#E3B891"/>
<path d="M65.2523 160.229C65.2523 160.229 66.1783 151.207 70.8524 150.53C70.8524 150.53 85.4537 157.414 87.3479 156.257C89.242 155.1 94.173 149.381 91.4927 145.18C88.8123 140.979 84.5708 137.707 77.7116 137.224C77.7116 137.224 80.7386 138.148 80.6998 139.553C80.6998 139.553 69.3759 133.654 58.9178 143.622C48.4596 153.591 54.9274 159.727 54.9274 159.727L65.2523 160.229Z" fill="#263238"/>
<path d="M84.514 160.617C87.9114 157.758 86.2067 154.456 86.2067 154.456C86.2067 154.456 84.6812 157.506 79.6443 156.193" stroke="#263238" stroke-width="0.5" stroke-linecap="round" stroke-linejoin="round"/>
<path d="M76.6628 205.073C64.5694 205.937 62.986 195.355 63.3459 192.836C63.3973 192.476 60.1066 192.334 56.8673 195.715C56.3101 196.297 56.2908 197.085 56.1475 197.515C56.1475 200.97 61.4263 207.953 64.7856 211.192C66.6519 212.992 68.8647 213.592 69.8245 212.992L76.6628 206.153V205.073Z" fill="#1B348F"/>
<path d="M53.628 239.986V224.149L50.3887 242.146L73.0638 238.186L53.628 239.986Z" fill="#374786"/>
<path d="M85.6611 210.113C85.182 210.832 84.4614 210.473 83.8615 210.113L76.6631 206.154V205.074C81.558 203.635 83.5016 198.596 83.5016 197.516C83.5016 196.436 85.3012 197.516 85.3012 197.516C87.1008 202.195 86.381 209.034 85.6611 210.113Z" fill="#1B348F"/>
<path d="M82.0617 191.396C77.3827 193.915 73.0637 192.476 65.8652 188.517C73.4236 199.674 77.0228 197.155 80.2621 196.435L82.0617 191.396Z" fill="#B69374"/>
<rect x="202.274" y="9.67969" width="59.0272" height="18.716" rx="9.35798" fill="#D4E4FF"/>
<path d="M212.353 22.274V16.6247H214.262C214.653 16.6247 215.004 16.6765 215.315 16.7801C215.632 16.8838 215.88 17.0594 216.058 17.3071C216.243 17.5489 216.335 17.8801 216.335 18.3005C216.335 18.7324 216.231 19.0808 216.024 19.3457C215.822 19.6106 215.552 19.8006 215.212 19.9158L216.559 22.274H215.436L214.218 20.0626H213.355V22.274H212.353ZM213.355 19.2679H214.158C214.544 19.2679 214.837 19.1873 215.039 19.0261C215.246 18.8591 215.35 18.6172 215.35 18.3005C215.35 17.978 215.246 17.7534 215.039 17.6267C214.837 17.4942 214.544 17.428 214.158 17.428H213.355V19.2679Z" fill="#485EB0"/>
<path d="M219.108 22.3777C218.716 22.3777 218.362 22.2913 218.045 22.1185C217.729 21.94 217.478 21.6866 217.294 21.3584C217.11 21.0244 217.017 20.6241 217.017 20.1577C217.017 19.697 217.11 19.2996 217.294 18.9656C217.484 18.6316 217.729 18.3753 218.028 18.1968C218.328 18.0183 218.641 17.929 218.97 17.929C219.355 17.929 219.678 18.0154 219.937 18.1882C220.196 18.3552 220.392 18.5913 220.524 18.8965C220.657 19.1959 220.723 19.5444 220.723 19.9417C220.723 20.149 220.709 20.3103 220.68 20.4254H217.985C218.031 20.7998 218.166 21.0906 218.391 21.2979C218.615 21.5052 218.898 21.6089 219.237 21.6089C219.422 21.6089 219.592 21.583 219.747 21.5311C219.908 21.4735 220.067 21.3958 220.222 21.2979L220.559 21.9198C220.357 22.0523 220.133 22.1617 219.885 22.2481C219.638 22.3345 219.378 22.3777 219.108 22.3777ZM217.976 19.7517H219.859C219.859 19.4234 219.787 19.1672 219.643 18.9829C219.499 18.7928 219.283 18.6978 218.996 18.6978C218.748 18.6978 218.526 18.79 218.33 18.9742C218.14 19.1528 218.022 19.4119 217.976 19.7517Z" fill="#485EB0"/>
<path d="M221.672 22.274V18.0327H222.493L222.562 18.6114H222.596C222.775 18.4214 222.968 18.2601 223.175 18.1277C223.388 17.9952 223.627 17.929 223.892 17.929C224.203 17.929 224.451 17.9981 224.635 18.1363C224.825 18.2688 224.969 18.4531 225.067 18.6892C225.268 18.4703 225.478 18.2889 225.697 18.145C225.922 18.001 226.167 17.929 226.432 17.929C226.881 17.929 227.212 18.0759 227.425 18.3696C227.638 18.6633 227.745 19.0779 227.745 19.6135V22.274H226.743V19.743C226.743 19.3917 226.688 19.1441 226.578 19.0001C226.475 18.8562 226.313 18.7842 226.095 18.7842C225.83 18.7842 225.533 18.9598 225.205 19.3111V22.274H224.212V19.743C224.212 19.3917 224.157 19.1441 224.047 19.0001C223.944 18.8562 223.78 18.7842 223.555 18.7842C223.29 18.7842 222.994 18.9598 222.665 19.3111V22.274H221.672Z" fill="#485EB0"/>
<path d="M228.952 22.274V18.0327H229.945V22.274H228.952ZM229.453 17.2898C229.274 17.2898 229.13 17.238 229.021 17.1343C228.912 17.0307 228.857 16.8924 228.857 16.7197C228.857 16.5527 228.912 16.4173 229.021 16.3137C229.13 16.21 229.274 16.1582 229.453 16.1582C229.631 16.1582 229.775 16.21 229.885 16.3137C229.994 16.4173 230.049 16.5527 230.049 16.7197C230.049 16.8924 229.994 17.0307 229.885 17.1343C229.775 17.238 229.631 17.2898 229.453 17.2898Z" fill="#485EB0"/>
<path d="M231.213 22.274V18.0327H232.033L232.102 18.6028H232.137C232.327 18.4185 232.534 18.2601 232.759 18.1277C232.984 17.9952 233.24 17.929 233.528 17.929C233.983 17.929 234.314 18.0759 234.521 18.3696C234.728 18.6633 234.832 19.0779 234.832 19.6135V22.274H233.839V19.743C233.839 19.3917 233.787 19.1441 233.683 19.0001C233.58 18.8562 233.41 18.7842 233.174 18.7842C232.989 18.7842 232.825 18.8303 232.681 18.9224C232.543 19.0088 232.385 19.1384 232.206 19.3111V22.274H231.213Z" fill="#485EB0"/>
<path d="M237.532 22.3777C237.002 22.3777 236.579 22.1819 236.262 21.7903C235.946 21.3987 235.787 20.8545 235.787 20.1577C235.787 19.697 235.871 19.2996 236.038 18.9656C236.21 18.6316 236.435 18.3753 236.711 18.1968C236.988 18.0183 237.279 17.929 237.584 17.929C237.826 17.929 238.03 17.9722 238.197 18.0586C238.37 18.1392 238.537 18.2515 238.698 18.3955L238.664 17.7131V16.1755H239.657V22.274H238.836L238.767 21.8162H238.733C238.577 21.9717 238.396 22.1041 238.189 22.2135C237.981 22.323 237.762 22.3777 237.532 22.3777ZM237.774 21.557C238.091 21.557 238.387 21.3987 238.664 21.0819V19.1038C238.52 18.9714 238.376 18.8792 238.232 18.8274C238.088 18.7756 237.944 18.7496 237.8 18.7496C237.529 18.7496 237.296 18.8735 237.1 19.1211C236.91 19.363 236.815 19.7056 236.815 20.149C236.815 20.604 236.899 20.9524 237.066 21.1942C237.233 21.4361 237.469 21.557 237.774 21.557Z" fill="#485EB0"/>
<path d="M242.736 22.3777C242.345 22.3777 241.99 22.2913 241.674 22.1185C241.357 21.94 241.106 21.6866 240.922 21.3584C240.738 21.0244 240.646 20.6241 240.646 20.1577C240.646 19.697 240.738 19.2996 240.922 18.9656C241.112 18.6316 241.357 18.3753 241.656 18.1968C241.956 18.0183 242.27 17.929 242.598 17.929C242.984 17.929 243.306 18.0154 243.565 18.1882C243.825 18.3552 244.02 18.5913 244.153 18.8965C244.285 19.1959 244.351 19.5444 244.351 19.9417C244.351 20.149 244.337 20.3103 244.308 20.4254H241.613C241.659 20.7998 241.795 21.0906 242.019 21.2979C242.244 21.5052 242.526 21.6089 242.866 21.6089C243.05 21.6089 243.22 21.583 243.375 21.5311C243.537 21.4735 243.695 21.3958 243.85 21.2979L244.187 21.9198C243.986 22.0523 243.761 22.1617 243.514 22.2481C243.266 22.3345 243.007 22.3777 242.736 22.3777ZM241.605 19.7517H243.488C243.488 19.4234 243.416 19.1672 243.272 18.9829C243.128 18.7928 242.912 18.6978 242.624 18.6978C242.376 18.6978 242.155 18.79 241.959 18.9742C241.769 19.1528 241.651 19.4119 241.605 19.7517Z" fill="#485EB0"/>
<path d="M245.3 22.274V18.0327H246.121L246.19 18.7842H246.225C246.374 18.5078 246.556 18.2976 246.769 18.1536C246.982 18.0039 247.201 17.929 247.425 17.929C247.627 17.929 247.788 17.9578 247.909 18.0154L247.736 18.8792C247.661 18.8562 247.592 18.8389 247.529 18.8274C247.466 18.8159 247.388 18.8101 247.296 18.8101C247.129 18.8101 246.953 18.8763 246.769 19.0088C246.584 19.1355 246.426 19.3601 246.294 19.6826V22.274H245.3Z" fill="#485EB0"/>
<path d="M249.656 22.3777C249.368 22.3777 249.08 22.323 248.792 22.2135C248.504 22.0984 248.256 21.9573 248.049 21.7903L248.515 21.151C248.705 21.295 248.895 21.4102 249.085 21.4966C249.275 21.583 249.477 21.6261 249.69 21.6261C249.92 21.6261 250.09 21.5772 250.2 21.4793C250.309 21.3814 250.364 21.2605 250.364 21.1165C250.364 20.9956 250.318 20.8977 250.226 20.8228C250.139 20.7422 250.027 20.6731 249.889 20.6155C249.751 20.5521 249.607 20.4917 249.457 20.4341C249.273 20.365 249.088 20.2815 248.904 20.1836C248.725 20.0799 248.579 19.9503 248.463 19.7949C248.348 19.6336 248.291 19.4349 248.291 19.1988C248.291 18.8245 248.429 18.5193 248.705 18.2832C248.982 18.0471 249.356 17.929 249.828 17.929C250.128 17.929 250.396 17.9808 250.632 18.0845C250.868 18.1882 251.072 18.3062 251.245 18.4387L250.787 19.0433C250.637 18.9339 250.485 18.8475 250.329 18.7842C250.18 18.7151 250.021 18.6805 249.854 18.6805C249.641 18.6805 249.483 18.7266 249.379 18.8187C249.275 18.9051 249.224 19.0145 249.224 19.147C249.224 19.314 249.31 19.4407 249.483 19.5271C249.656 19.6135 249.857 19.697 250.087 19.7776C250.283 19.8467 250.473 19.9331 250.658 20.0367C250.842 20.1346 250.994 20.2642 251.115 20.4254C251.242 20.5867 251.305 20.7998 251.305 21.0647C251.305 21.4275 251.164 21.7384 250.882 21.9976C250.6 22.251 250.191 22.3777 249.656 22.3777Z" fill="#485EB0"/>
<rect x="197.957" y="113.293" width="64.786" height="18.716" rx="9.35798" fill="#D4E4FF"/>
<path d="M207.312 125.531V119.882H208.339L210.102 123.061L210.68 124.261H210.715C210.692 123.974 210.663 123.66 210.629 123.32C210.6 122.98 210.585 122.652 210.585 122.335V119.882H211.544V125.531H210.516L208.754 122.352L208.175 121.152H208.141C208.164 121.451 208.19 121.765 208.219 122.093C208.253 122.422 208.27 122.744 208.27 123.061V125.531H207.312Z" fill="#485EB0"/>
<path d="M214.63 125.635C214.279 125.635 213.951 125.549 213.645 125.376C213.34 125.197 213.093 124.944 212.903 124.616C212.713 124.282 212.617 123.881 212.617 123.415C212.617 122.943 212.713 122.542 212.903 122.214C213.093 121.88 213.34 121.627 213.645 121.454C213.951 121.276 214.279 121.186 214.63 121.186C214.987 121.186 215.318 121.276 215.624 121.454C215.929 121.627 216.176 121.88 216.366 122.214C216.556 122.542 216.652 122.943 216.652 123.415C216.652 123.881 216.556 124.282 216.366 124.616C216.176 124.944 215.929 125.197 215.624 125.376C215.318 125.549 214.987 125.635 214.63 125.635ZM214.63 124.823C214.941 124.823 215.186 124.693 215.364 124.434C215.543 124.175 215.632 123.835 215.632 123.415C215.632 122.989 215.543 122.646 215.364 122.387C215.186 122.128 214.941 121.998 214.63 121.998C214.319 121.998 214.074 122.128 213.896 122.387C213.723 122.646 213.637 122.989 213.637 123.415C213.637 123.835 213.723 124.175 213.896 124.434C214.074 124.693 214.319 124.823 214.63 124.823Z" fill="#485EB0"/>
<path d="M218.935 125.635C218.446 125.635 218.097 125.494 217.89 125.212C217.688 124.924 217.588 124.552 217.588 124.097V122.076H216.983V121.333L217.639 121.29L217.76 120.132H218.59V121.29H219.669V122.076H218.59V124.097C218.59 124.593 218.788 124.84 219.186 124.84C219.261 124.84 219.338 124.832 219.419 124.814C219.5 124.791 219.569 124.768 219.626 124.745L219.799 125.479C219.684 125.52 219.551 125.554 219.402 125.583C219.258 125.618 219.102 125.635 218.935 125.635Z" fill="#485EB0"/>
<path d="M220.562 125.531V121.29H221.555V125.531H220.562ZM221.063 120.547C220.884 120.547 220.74 120.495 220.631 120.392C220.522 120.288 220.467 120.15 220.467 119.977C220.467 119.81 220.522 119.675 220.631 119.571C220.74 119.467 220.884 119.415 221.063 119.415C221.241 119.415 221.385 119.467 221.495 119.571C221.604 119.675 221.659 119.81 221.659 119.977C221.659 120.15 221.604 120.288 221.495 120.392C221.385 120.495 221.241 120.547 221.063 120.547Z" fill="#485EB0"/>
<path d="M222.995 125.531V122.076H222.425V121.333L222.995 121.29V120.849C222.995 120.406 223.105 120.043 223.324 119.761C223.543 119.473 223.902 119.329 224.403 119.329C224.553 119.329 224.697 119.343 224.835 119.372C224.974 119.401 225.089 119.436 225.181 119.476L224.991 120.219C224.835 120.15 224.68 120.115 224.524 120.115C224.167 120.115 223.989 120.354 223.989 120.832V121.29H224.818V122.076H223.989V125.531H222.995Z" fill="#485EB0"/>
<path d="M225.564 125.531V121.29H226.558V125.531H225.564ZM226.065 120.547C225.887 120.547 225.743 120.495 225.633 120.392C225.524 120.288 225.469 120.15 225.469 119.977C225.469 119.81 225.524 119.675 225.633 119.571C225.743 119.467 225.887 119.415 226.065 119.415C226.244 119.415 226.388 119.467 226.497 119.571C226.607 119.675 226.661 119.81 226.661 119.977C226.661 120.15 226.607 120.288 226.497 120.392C226.388 120.495 226.244 120.547 226.065 120.547Z" fill="#485EB0"/>
<path d="M229.596 125.635C229.21 125.635 228.862 125.549 228.551 125.376C228.245 125.197 228.001 124.944 227.816 124.616C227.638 124.282 227.549 123.881 227.549 123.415C227.549 122.943 227.647 122.542 227.842 122.214C228.038 121.88 228.297 121.627 228.62 121.454C228.948 121.276 229.299 121.186 229.674 121.186C229.944 121.186 230.18 121.232 230.382 121.325C230.584 121.417 230.762 121.529 230.918 121.661L230.434 122.309C230.324 122.211 230.212 122.136 230.097 122.085C229.982 122.027 229.858 121.998 229.725 121.998C229.386 121.998 229.106 122.128 228.888 122.387C228.674 122.646 228.568 122.989 228.568 123.415C228.568 123.835 228.672 124.175 228.879 124.434C229.092 124.693 229.366 124.823 229.7 124.823C229.867 124.823 230.022 124.788 230.166 124.719C230.316 124.644 230.451 124.558 230.572 124.46L230.978 125.117C230.782 125.289 230.563 125.419 230.321 125.505C230.08 125.592 229.838 125.635 229.596 125.635Z" fill="#485EB0"/>
<path d="M232.759 125.635C232.39 125.635 232.088 125.52 231.852 125.289C231.621 125.059 231.506 124.76 231.506 124.391C231.506 123.936 231.705 123.585 232.102 123.337C232.5 123.084 233.133 122.911 234.003 122.819C233.997 122.594 233.936 122.401 233.821 122.24C233.712 122.073 233.513 121.99 233.225 121.99C233.018 121.99 232.813 122.03 232.612 122.111C232.416 122.191 232.223 122.289 232.033 122.404L231.67 121.739C231.906 121.589 232.171 121.46 232.465 121.35C232.764 121.241 233.081 121.186 233.415 121.186C233.945 121.186 234.339 121.345 234.599 121.661C234.864 121.972 234.996 122.424 234.996 123.018V125.531H234.175L234.106 125.065H234.072C233.882 125.226 233.677 125.361 233.458 125.471C233.245 125.58 233.012 125.635 232.759 125.635ZM233.078 124.858C233.251 124.858 233.407 124.817 233.545 124.737C233.689 124.65 233.841 124.535 234.003 124.391V123.441C233.427 123.516 233.027 123.628 232.802 123.778C232.577 123.922 232.465 124.1 232.465 124.313C232.465 124.503 232.523 124.642 232.638 124.728C232.753 124.814 232.9 124.858 233.078 124.858Z" fill="#485EB0"/>
<path d="M237.544 125.635C237.055 125.635 236.706 125.494 236.499 125.212C236.297 124.924 236.197 124.552 236.197 124.097V122.076H235.592V121.333L236.249 121.29L236.369 120.132H237.199V121.29H238.278V122.076H237.199V124.097C237.199 124.593 237.397 124.84 237.795 124.84C237.87 124.84 237.947 124.832 238.028 124.814C238.109 124.791 238.178 124.768 238.235 124.745L238.408 125.479C238.293 125.52 238.16 125.554 238.011 125.583C237.867 125.618 237.711 125.635 237.544 125.635Z" fill="#485EB0"/>
<path d="M239.171 125.531V121.29H240.164V125.531H239.171ZM239.672 120.547C239.494 120.547 239.35 120.495 239.24 120.392C239.131 120.288 239.076 120.15 239.076 119.977C239.076 119.81 239.131 119.675 239.24 119.571C239.35 119.467 239.494 119.415 239.672 119.415C239.851 119.415 239.995 119.467 240.104 119.571C240.213 119.675 240.268 119.81 240.268 119.977C240.268 120.15 240.213 120.288 240.104 120.392C239.995 120.495 239.851 120.547 239.672 120.547Z" fill="#485EB0"/>
<path d="M243.168 125.635C242.817 125.635 242.489 125.549 242.183 125.376C241.878 125.197 241.63 124.944 241.44 124.616C241.25 124.282 241.155 123.881 241.155 123.415C241.155 122.943 241.25 122.542 241.44 122.214C241.63 121.88 241.878 121.627 242.183 121.454C242.489 121.276 242.817 121.186 243.168 121.186C243.525 121.186 243.856 121.276 244.161 121.454C244.467 121.627 244.714 121.88 244.904 122.214C245.094 122.542 245.189 122.943 245.189 123.415C245.189 123.881 245.094 124.282 244.904 124.616C244.714 124.944 244.467 125.197 244.161 125.376C243.856 125.549 243.525 125.635 243.168 125.635ZM243.168 124.823C243.479 124.823 243.724 124.693 243.902 124.434C244.081 124.175 244.17 123.835 244.17 123.415C244.17 122.989 244.081 122.646 243.902 122.387C243.724 122.128 243.479 121.998 243.168 121.998C242.857 121.998 242.612 122.128 242.434 122.387C242.261 122.646 242.175 122.989 242.175 123.415C242.175 123.835 242.261 124.175 242.434 124.434C242.612 124.693 242.857 124.823 243.168 124.823Z" fill="#485EB0"/>
<path d="M246.173 125.531V121.29H246.993L247.062 121.86H247.097C247.287 121.676 247.494 121.517 247.719 121.385C247.943 121.253 248.2 121.186 248.488 121.186C248.943 121.186 249.274 121.333 249.481 121.627C249.688 121.921 249.792 122.335 249.792 122.871V125.531H248.799V123C248.799 122.649 248.747 122.401 248.643 122.257C248.54 122.113 248.37 122.041 248.134 122.041C247.949 122.041 247.785 122.088 247.641 122.18C247.503 122.266 247.345 122.396 247.166 122.568V125.531H246.173Z" fill="#485EB0"/>
<path d="M252.19 125.635C251.902 125.635 251.614 125.58 251.326 125.471C251.038 125.356 250.79 125.215 250.583 125.048L251.049 124.408C251.24 124.552 251.43 124.667 251.62 124.754C251.81 124.84 252.011 124.883 252.224 124.883C252.455 124.883 252.625 124.834 252.734 124.737C252.843 124.639 252.898 124.518 252.898 124.374C252.898 124.253 252.852 124.155 252.76 124.08C252.673 123.999 252.561 123.93 252.423 123.873C252.285 123.809 252.141 123.749 251.991 123.691C251.807 123.622 251.622 123.539 251.438 123.441C251.26 123.337 251.113 123.208 250.998 123.052C250.882 122.891 250.825 122.692 250.825 122.456C250.825 122.082 250.963 121.777 251.24 121.54C251.516 121.304 251.89 121.186 252.362 121.186C252.662 121.186 252.93 121.238 253.166 121.342C253.402 121.445 253.606 121.563 253.779 121.696L253.321 122.301C253.172 122.191 253.019 122.105 252.863 122.041C252.714 121.972 252.555 121.938 252.388 121.938C252.175 121.938 252.017 121.984 251.913 122.076C251.81 122.162 251.758 122.272 251.758 122.404C251.758 122.571 251.844 122.698 252.017 122.784C252.19 122.871 252.391 122.954 252.622 123.035C252.817 123.104 253.007 123.19 253.192 123.294C253.376 123.392 253.529 123.521 253.65 123.683C253.776 123.844 253.84 124.057 253.84 124.322C253.84 124.685 253.699 124.996 253.416 125.255C253.134 125.508 252.725 125.635 252.19 125.635Z" fill="#485EB0"/>
</g>
<defs>
<filter id="filter0_d_1815_12680" x="71.7823" y="33.1511" width="207.114" height="73.1082" filterUnits="userSpaceOnUse" color-interpolation-filters="sRGB">
<feFlood flood-opacity="0" result="BackgroundImageFix"/>
<feColorMatrix in="SourceAlpha" type="matrix" values="0 0 0 0 0 0 0 0 0 0 0 0 0 0 0 0 0 0 127 0" result="hardAlpha"/>
<feOffset dy="1.36"/>
<feGaussianBlur stdDeviation="4.06"/>
<feComposite in2="hardAlpha" operator="out"/>
<feColorMatrix type="matrix" values="0 0 0 0 0 0 0 0 0 0 0 0 0 0 0 0 0 0 0.25 0"/>
<feBlend mode="normal" in2="BackgroundImageFix" result="effect1_dropShadow_1815_12680"/>
<feBlend mode="normal" in="SourceGraphic" in2="effect1_dropShadow_1815_12680" result="shape"/>
</filter>
<filter id="filter1_d_1815_12680" x="93.3771" y="133.888" width="175.937" height="84.6814" filterUnits="userSpaceOnUse" color-interpolation-filters="sRGB">
<feFlood flood-opacity="0" result="BackgroundImageFix"/>
<feColorMatrix in="SourceAlpha" type="matrix" values="0 0 0 0 0 0 0 0 0 0 0 0 0 0 0 0 0 0 127 0" result="hardAlpha"/>
<feOffset dy="1.36"/>
<feGaussianBlur stdDeviation="4.06"/>
<feComposite in2="hardAlpha" operator="out"/>
<feColorMatrix type="matrix" values="0 0 0 0 0 0 0 0 0 0 0 0 0 0 0 0 0 0 0.25 0"/>
<feBlend mode="normal" in2="BackgroundImageFix" result="effect1_dropShadow_1815_12680"/>
<feBlend mode="normal" in="SourceGraphic" in2="effect1_dropShadow_1815_12680" result="shape"/>
</filter>
<filter id="filter2_d_1815_12680" x="222.402" y="154" width="30.1965" height="30.1965" filterUnits="userSpaceOnUse" color-interpolation-filters="sRGB">
<feFlood flood-opacity="0" result="BackgroundImageFix"/>
<feColorMatrix in="SourceAlpha" type="matrix" values="0 0 0 0 0 0 0 0 0 0 0 0 0 0 0 0 0 0 127 0" result="hardAlpha"/>
<feOffset dy="1.59827"/>
<feGaussianBlur stdDeviation="0.799134"/>
<feComposite in2="hardAlpha" operator="out"/>
<feColorMatrix type="matrix" values="0 0 0 0 0 0 0 0 0 0 0 0 0 0 0 0 0 0 0.25 0"/>
<feBlend mode="normal" in2="BackgroundImageFix" result="effect1_dropShadow_1815_12680"/>
<feBlend mode="normal" in="SourceGraphic" in2="effect1_dropShadow_1815_12680" result="shape"/>
</filter>
<filter id="filter3_d_1815_12680" x="76.5791" y="221.935" width="37.2236" height="35.2871" filterUnits="userSpaceOnUse" color-interpolation-filters="sRGB">
<feFlood flood-opacity="0" result="BackgroundImageFix"/>
<feColorMatrix in="SourceAlpha" type="matrix" values="0 0 0 0 0 0 0 0 0 0 0 0 0 0 0 0 0 0 127 0" result="hardAlpha"/>
<feOffset dy="4"/>
<feGaussianBlur stdDeviation="2"/>
<feComposite in2="hardAlpha" operator="out"/>
<feColorMatrix type="matrix" values="0 0 0 0 0 0 0 0 0 0 0 0 0 0 0 0 0 0 0.25 0"/>
<feBlend mode="normal" in2="BackgroundImageFix" result="effect1_dropShadow_1815_12680"/>
<feBlend mode="normal" in="SourceGraphic" in2="effect1_dropShadow_1815_12680" result="shape"/>
</filter>
<clipPath id="clip0_1815_12680">
<rect x="48.9473" y="39.9102" width="43.1907" height="43.1907" rx="21.5953" fill="white"/>
</clipPath>
</defs>
</svg>
