<?xml version="1.0" standalone="no"?>
<!DOCTYPE svg PUBLIC "-//W3C//DTD SVG 20010904//EN"
 "http://www.w3.org/TR/2001/REC-SVG-20010904/DTD/svg10.dtd">
<svg version="1.0" xmlns="http://www.w3.org/2000/svg"
 width="1920.000000pt" height="1920.000000pt" viewBox="0 0 1920.000000 1920.000000"
 preserveAspectRatio="xMidYMid meet">

<g transform="translate(0.000000,1920.000000) scale(0.100000,-0.100000)"
fill="#000000" stroke="none">
<path d="M3517 19194 c-3 -3 -33 -6 -66 -6 -34 0 -61 -4 -61 -8 0 -4 -30 -6
-67 -3 -47 3 -63 1 -53 -6 10 -7 -3 -9 -45 -5 -45 3 -55 2 -40 -6 16 -8 11 -9
-20 -4 -45 7 -195 -15 -195 -28 0 -5 -5 -6 -11 -3 -6 4 -40 1 -77 -6 -37 -7
-59 -15 -49 -17 9 -2 17 -7 17 -12 0 -4 -12 -5 -27 -1 -32 8 -152 -14 -168
-31 -7 -8 -3 -9 14 -5 18 5 21 3 12 -6 -9 -9 -16 -9 -30 0 -22 14 -105 -3 -95
-19 4 -6 -2 -8 -14 -4 -18 6 -20 3 -17 -15 4 -20 3 -21 -14 -5 -19 17 -56 12
-45 -6 4 -6 9 -6 14 2 5 9 9 9 14 1 4 -6 2 -11 -4 -11 -6 0 -9 -4 -5 -10 3 -5
-6 -3 -20 4 -23 12 -34 11 -83 -7 -31 -11 -60 -25 -64 -31 -4 -6 -8 -7 -8 -2
0 5 -7 3 -15 -4 -8 -7 -15 -10 -15 -7 0 3 -13 1 -30 -4 -17 -6 -27 -16 -23
-22 4 -6 0 -8 -11 -4 -16 7 -47 -6 -73 -30 -17 -15 -17 -27 0 -20 7 3 13 -3
13 -14 0 -17 -2 -17 -17 -3 -13 12 -22 13 -38 5 -12 -7 -22 -8 -26 -1 -3 5
-28 -2 -60 -17 -30 -15 -51 -31 -48 -36 3 -6 1 -7 -5 -3 -15 9 -55 -18 -44
-29 4 -4 0 -5 -8 -3 -19 7 -52 -10 -45 -22 3 -6 0 -7 -8 -4 -13 5 -107 -44
-107 -56 0 -3 9 -6 20 -7 11 -1 18 2 15 6 -2 5 2 14 10 21 10 9 15 9 15 1 0
-6 -6 -11 -12 -11 -7 -1 -2 -7 11 -14 20 -11 21 -14 6 -19 -9 -4 -25 -2 -35 3
-13 7 -21 7 -25 0 -3 -5 -12 -10 -18 -10 -8 0 -8 3 2 9 7 5 9 11 4 14 -10 6
-115 -59 -121 -75 -2 -5 -18 -15 -35 -23 -54 -23 -78 -48 -66 -65 9 -13 10
-12 5 3 -6 18 2 22 19 9 6 -4 2 -15 -11 -28 -21 -20 -22 -20 -33 -1 -10 15
-10 17 0 12 8 -6 10 -4 4 4 -5 9 -12 8 -25 -6 -33 -33 -58 -51 -65 -45 -3 4
-3 -1 1 -11 4 -13 2 -16 -9 -11 -8 3 -18 0 -23 -7 -4 -8 -3 -10 4 -5 7 4 12 2
12 -4 0 -6 -8 -9 -18 -6 -12 4 -27 -3 -42 -19 -24 -25 -16 -35 10 -12 12 10
12 9 2 -5 -9 -11 -10 -18 -2 -23 18 -11 0 -25 -25 -21 -14 3 -29 7 -35 11 -5
3 -10 -2 -10 -12 0 -13 -3 -14 -8 -6 -6 9 -20 1 -48 -29 -21 -23 -39 -46 -39
-51 0 -6 -7 -12 -15 -14 -13 -4 -13 -3 0 6 8 6 10 11 4 11 -12 0 -34 -21 -34
-33 0 -4 4 -6 9 -2 21 12 19 -14 -2 -31 -15 -13 -18 -14 -9 -3 10 14 10 18 -1
22 -16 6 -142 -115 -131 -126 4 -4 0 -7 -8 -7 -9 0 -28 -17 -44 -37 -15 -20
-42 -49 -58 -64 -17 -15 -24 -27 -16 -26 25 4 41 18 34 29 -4 6 -1 9 7 6 8 -3
13 -14 12 -24 -1 -19 -1 -19 12 0 14 18 14 18 12 -1 -1 -19 -37 -31 -37 -12 0
6 -6 7 -12 2 -7 -4 -19 -8 -27 -10 -23 -3 -65 -50 -52 -57 6 -4 11 -1 11 6 0
7 9 19 20 26 11 7 20 8 20 3 0 -5 -7 -11 -15 -15 -8 -3 -15 -11 -15 -17 0 -8
4 -8 15 1 12 10 15 9 15 -4 0 -10 -4 -15 -9 -11 -5 3 -13 1 -16 -5 -5 -8 -11
-7 -21 1 -17 14 -46 -5 -38 -26 3 -7 0 -16 -7 -21 -8 -5 -10 -3 -4 6 6 9 4 11
-4 5 -7 -4 -11 -15 -8 -25 6 -23 -8 -47 -17 -31 -4 6 -2 11 4 11 6 0 8 5 4 11
-3 6 -15 -3 -26 -23 -11 -18 -25 -36 -30 -39 -5 -3 -10 -10 -11 -15 -1 -5 -6
-7 -12 -6 -5 2 -7 1 -3 -3 4 -4 -4 -19 -18 -34 -13 -14 -27 -35 -31 -46 -3
-11 -13 -25 -21 -31 -14 -10 -14 -14 0 -36 14 -22 14 -24 -2 -24 -10 0 -16 6
-13 13 3 7 0 13 -6 13 -6 0 -11 -5 -11 -10 0 -6 -9 -21 -20 -33 -12 -12 -24
-32 -27 -46 -3 -13 -14 -32 -24 -42 -11 -11 -16 -25 -12 -35 4 -12 8 -13 13
-3 5 7 5 19 2 28 -5 14 -3 14 11 2 19 -15 23 -36 5 -25 -7 5 -9 2 -6 -7 4 -11
-1 -15 -17 -15 -14 0 -21 5 -18 11 4 7 3 7 -4 0 -22 -21 -73 -127 -67 -137 4
-6 3 -8 -3 -5 -10 6 -88 -142 -79 -151 3 -3 13 10 21 29 10 21 14 25 10 9 -4
-14 -8 -35 -8 -47 -1 -12 -6 -25 -10 -29 -4 -5 -5 -1 -2 7 4 10 0 16 -9 16
-19 0 -47 -72 -34 -85 14 -14 6 -55 -12 -59 -11 -4 -12 -2 -2 5 9 6 10 15 3
33 -5 13 -11 18 -12 12 -2 -18 -4 -25 -16 -53 -6 -14 -18 -43 -27 -65 -11 -25
-13 -41 -6 -43 5 -2 10 -8 10 -14 0 -6 -7 -8 -15 -4 -18 7 -20 -5 -2 -23 10
-10 8 -11 -7 -5 -16 6 -17 5 -6 -16 10 -18 14 -20 21 -9 5 8 9 9 9 3 0 -17
-27 -37 -42 -31 -8 3 -6 6 5 6 15 1 16 3 5 15 -11 12 -14 11 -20 -6 -5 -11 -3
-29 3 -40 6 -11 8 -22 5 -26 -3 -3 -6 0 -6 6 0 29 -19 8 -29 -32 -6 -24 -13
-52 -17 -62 -5 -16 -4 -16 5 -4 6 8 11 11 11 6 0 -5 -6 -17 -14 -25 -17 -20
-31 -75 -16 -66 18 11 24 -26 6 -43 -9 -9 -16 -11 -16 -5 0 6 5 13 12 15 6 2
9 9 7 16 -7 20 -26 -1 -34 -38 -6 -29 -5 -33 6 -23 22 18 42 -9 24 -33 -13
-18 -14 -17 -8 5 5 21 4 22 -14 13 -23 -13 -47 -113 -38 -159 4 -23 4 -24 -4
-8 -9 19 -10 19 -10 -2 -1 -12 4 -34 9 -50 9 -26 9 -27 -5 -9 -14 19 -15 18
-15 -11 0 -18 4 -34 10 -38 5 -3 6 -13 3 -22 -4 -10 -2 -14 4 -10 6 4 8 -4 5
-21 -5 -26 -6 -25 -17 13 l-11 40 -7 -60 c-8 -68 -15 -162 -24 -285 -7 -102
-7 -12243 0 -12315 2 -27 6 -77 7 -110 2 -50 4 -55 10 -30 7 28 8 29 9 5 0
-15 -3 -30 -8 -35 -5 -6 -5 -40 1 -80 11 -92 14 -118 16 -157 2 -26 5 -30 12
-18 7 11 9 2 5 -30 -4 -35 -3 -40 5 -25 9 17 9 16 5 -8 -8 -39 15 -148 31
-154 8 -3 14 -13 14 -24 0 -10 7 -22 16 -27 18 -10 14 -48 -4 -44 -16 3 -5
-46 14 -69 8 -8 14 -20 14 -25 0 -5 -5 -2 -11 6 -9 12 -10 11 -4 -5 3 -11 11
-39 18 -62 6 -24 15 -43 20 -43 4 0 5 -10 2 -21 -5 -14 -3 -19 3 -15 6 4 8 -3
4 -16 -5 -22 -4 -22 15 -5 19 17 33 14 33 -7 0 -6 -4 -5 -9 3 -7 11 -11 9 -20
-8 -7 -13 -8 -21 -2 -21 6 0 7 -7 4 -17 -5 -12 -3 -14 7 -8 10 6 12 4 7 -9 -4
-10 2 -38 15 -64 11 -26 22 -50 23 -54 2 -5 4 -10 5 -13 3 -7 7 -23 9 -37 0
-6 4 -8 8 -4 10 10 14 46 5 46 -5 0 -13 10 -19 23 -9 20 -8 23 11 25 16 1 17
-1 6 -8 -12 -7 -11 -12 5 -30 15 -17 17 -26 9 -48 -8 -21 -7 -35 6 -62 16 -36
48 -56 36 -23 -4 10 5 5 18 -12 15 -17 25 -24 26 -16 0 8 2 12 5 9 3 -3 2 -15
-3 -27 -8 -22 -8 -22 -20 4 -16 35 -26 27 -12 -10 6 -15 9 -30 6 -32 -2 -2 -9
10 -15 28 -6 18 -14 30 -17 27 -9 -9 69 -157 79 -151 6 3 7 1 3 -5 -7 -12 19
-72 32 -72 5 0 14 6 21 12 10 11 11 10 6 -5 -4 -9 -11 -17 -17 -17 -5 0 -6 -5
-3 -10 4 -6 11 -8 16 -5 5 3 6 -1 3 -9 -3 -9 -1 -16 5 -16 5 0 15 -10 22 -21
8 -16 8 -20 -1 -14 -9 6 -9 2 -1 -14 7 -11 16 -21 22 -21 6 0 7 -5 3 -11 -4
-7 -1 -10 7 -7 8 3 13 14 11 24 -2 15 -1 16 7 5 12 -18 7 -47 -8 -43 -13 3 -1
-26 21 -50 7 -7 21 -27 30 -43 10 -17 23 -29 31 -29 8 1 14 -5 14 -12 0 -7 -5
-10 -11 -7 -6 4 2 -11 19 -33 16 -21 33 -41 37 -42 5 -2 6 -7 3 -12 -6 -10 21
-7 32 3 4 4 -3 10 -15 14 -27 7 -28 19 -2 26 11 3 17 1 14 -4 -3 -6 -1 -16 5
-23 8 -10 7 -16 -3 -26 -13 -10 -13 -14 4 -33 11 -11 20 -25 20 -30 0 -5 7 -3
17 4 15 13 15 12 3 -11 -12 -23 -12 -24 3 -11 15 12 18 10 26 -10 4 -13 7 -28
5 -34 -5 -13 67 -96 86 -98 8 -2 21 -6 28 -10 6 -5 12 -4 12 2 0 5 8 9 19 8
12 -1 17 -8 16 -22 -1 -11 -3 -26 -4 -33 0 -7 -6 -10 -12 -6 -8 4 -8 9 0 17
18 18 13 26 -14 21 -14 -2 -25 -1 -25 4 0 5 -7 9 -17 9 -12 0 -8 -7 14 -27 16
-14 42 -43 57 -63 27 -35 56 -49 56 -27 0 5 -6 7 -14 4 -7 -3 -21 7 -31 22
-11 17 -12 23 -4 18 19 -12 42 -11 52 1 5 6 6 2 3 -9 -4 -10 -2 -24 4 -31 8
-9 6 -14 -7 -19 -14 -6 -5 -19 47 -71 59 -59 90 -75 75 -38 -4 13 -3 14 10 3
12 -10 13 -16 3 -27 -10 -13 -8 -19 12 -34 14 -11 44 -38 67 -61 32 -31 43
-37 43 -24 0 9 -4 14 -10 11 -5 -3 -10 -1 -10 5 0 20 25 4 28 -18 2 -11 12
-24 23 -27 10 -4 19 -12 19 -18 1 -13 74 -67 91 -67 5 0 8 -4 5 -8 -3 -5 7 -8
22 -7 15 2 19 0 10 -2 -13 -3 -9 -11 20 -36 49 -43 132 -100 132 -91 0 4 12
-5 26 -20 15 -14 31 -26 36 -26 5 0 16 -7 25 -16 9 -8 22 -13 29 -10 8 3 13 2
13 -2 -3 -18 2 -26 10 -14 4 7 20 15 34 16 15 2 24 0 22 -5 -3 -4 1 -10 7 -12
10 -4 10 -6 0 -6 -7 -1 -1 -12 15 -27 l28 -26 -33 22 c-18 12 -30 25 -27 30 3
4 -2 10 -10 14 -13 4 -33 -11 -24 -18 24 -20 94 -56 102 -53 7 2 21 0 32 -5
18 -8 18 -8 -3 -4 -12 2 -22 3 -22 1 0 -10 94 -54 103 -48 5 3 7 2 4 -4 -5 -8
81 -57 102 -58 3 -1 17 -6 31 -13 24 -13 24 -13 5 4 -19 16 -19 16 -1 10 11
-4 22 -2 26 4 5 7 11 6 20 -5 11 -13 10 -15 -4 -9 -11 4 -16 1 -16 -11 0 -9 5
-13 10 -10 6 3 10 3 10 -2 0 -13 50 -32 67 -26 10 4 14 2 10 -4 -4 -7 11 -17
38 -26 25 -9 45 -13 45 -9 0 4 4 1 8 -5 10 -16 111 -50 135 -45 9 2 17 8 17
14 0 5 -8 7 -17 4 -10 -4 -14 -4 -10 1 5 4 24 8 43 9 29 1 32 -1 17 -9 -10 -5
-19 -11 -21 -12 -1 -1 0 -9 3 -17 4 -10 14 -14 27 -10 16 4 19 2 13 -8 -6 -10
-3 -12 13 -8 12 4 20 3 17 -2 -2 -4 8 -10 23 -13 15 -3 36 -9 47 -12 16 -6 17
-5 5 4 -8 6 -10 11 -4 11 6 0 17 -7 24 -15 16 -19 30 -19 30 0 0 8 4 15 9 15
5 0 7 -9 4 -21 -5 -16 -2 -20 13 -18 10 1 31 -3 46 -9 15 -6 44 -9 65 -6 26 3
32 2 19 -4 -16 -7 -7 -11 41 -21 34 -6 74 -9 90 -6 24 4 25 4 8 -5 -15 -8 -10
-9 25 -5 34 4 41 3 30 -6 -11 -8 -5 -9 28 -6 23 3 40 2 37 -3 -6 -10 89 -20
330 -37 123 -8 12237 -9 12350 0 186 14 222 17 313 28 61 8 89 15 80 20 -8 6
4 7 32 4 35 -4 40 -3 25 5 -17 9 -16 10 8 5 39 -8 165 16 141 27 -14 6 -11 7
11 4 16 -2 51 1 78 7 38 10 47 16 43 29 -2 10 0 18 5 18 5 0 9 -7 9 -15 0 -20
9 -19 33 2 11 10 17 12 12 4 -5 -10 -3 -12 11 -8 11 4 31 9 46 13 16 3 25 11
22 16 -4 6 2 7 16 3 17 -5 21 -4 15 6 -6 9 -2 11 13 7 15 -4 22 0 26 14 4 19
1 20 -37 15 -42 -5 -42 -5 -12 8 20 9 36 10 47 4 12 -6 18 -6 18 1 0 5 5 10
12 10 6 0 4 -7 -5 -18 -20 -21 -22 -32 -6 -32 5 0 7 5 3 11 -4 6 1 10 12 8 24
-3 134 32 134 43 0 4 7 5 15 2 8 -4 15 -1 15 6 0 6 3 9 8 7 4 -3 21 1 37 9 26
12 26 13 5 8 -22 -4 -23 -4 -7 6 10 7 25 9 33 6 15 -6 46 8 71 31 17 15 17 27
0 20 -8 -3 -12 5 -12 22 -1 21 4 26 24 28 25 1 25 1 4 -10 -17 -10 -19 -14 -8
-24 8 -7 22 -10 32 -7 16 6 15 4 -2 -10 -19 -17 -19 -17 5 -5 14 7 30 14 36
15 6 1 28 11 50 23 21 12 31 20 21 17 -11 -4 -16 -2 -12 5 4 5 14 9 23 8 29
-3 38 0 60 21 12 12 22 18 22 15 0 -6 108 51 123 65 4 4 -6 13 -23 20 -17 7
-33 17 -36 22 -4 6 3 5 14 -1 24 -13 35 -14 28 -3 -2 4 4 8 14 8 10 0 18 -3
18 -6 -2 -25 3 -30 22 -20 11 6 18 15 15 20 -3 6 0 7 8 4 8 -3 21 2 30 10 9 9
20 16 25 16 5 0 21 12 36 26 14 15 26 24 26 20 0 -4 20 7 44 25 27 19 42 37
39 45 -3 8 -7 14 -10 14 -3 0 -3 -7 1 -15 6 -16 -3 -19 -19 -7 -6 4 -2 15 11
28 21 20 22 20 33 1 10 -15 10 -17 0 -12 -8 5 -10 4 -5 -4 9 -13 23 -5 62 36
11 13 24 20 28 16 4 -4 4 0 0 10 -4 13 -2 16 9 11 8 -3 18 0 23 7 4 8 3 10 -4
5 -7 -4 -12 -2 -12 4 0 6 8 9 18 6 12 -4 27 3 42 19 24 25 16 35 -10 13 -12
-11 -12 -10 -2 4 9 11 10 18 2 23 -18 11 0 25 25 21 14 -3 29 -7 35 -11 5 -3
10 3 10 13 0 24 25 48 35 32 6 -9 -1 -14 -17 -11 -5 0 -8 -7 -8 -16 0 -13 12
-5 42 26 24 24 43 48 43 54 0 6 7 12 15 14 13 4 13 3 0 -6 -8 -6 -10 -11 -5
-11 16 0 177 165 169 173 -4 4 -14 1 -23 -6 -9 -7 -6 3 8 26 15 24 18 37 10
37 -7 0 -10 3 -7 6 4 3 15 1 26 -5 13 -7 23 -7 32 2 7 7 5 -1 -5 -16 -12 -19
-23 -26 -34 -22 -13 5 -14 4 -3 -7 11 -11 18 -7 42 22 31 37 39 56 18 44 -10
-6 -10 -5 -1 7 10 12 10 19 -1 35 -13 18 -12 20 4 21 15 1 18 -4 15 -28 -4
-36 4 -37 35 -4 13 14 20 25 17 25 -4 0 7 13 24 28 22 19 28 31 21 36 -7 4
-12 1 -12 -6 0 -7 -9 -19 -20 -26 -11 -7 -20 -8 -20 -3 0 5 7 11 15 15 8 3 15
11 15 17 0 8 -4 8 -15 -1 -12 -10 -15 -9 -15 4 0 10 4 15 9 11 5 -3 13 -1 16
5 5 8 11 7 21 -1 17 -14 48 7 40 27 -3 7 0 16 6 20 7 5 8 2 3 -6 -5 -9 -4 -11
4 -6 7 5 9 16 5 29 -6 18 -4 20 8 10 11 -10 17 -6 33 22 10 19 23 35 28 35 6
0 3 8 -7 19 -13 14 -14 20 -4 28 25 19 38 24 38 15 0 -5 -10 -12 -22 -15 -12
-4 -19 -10 -15 -14 11 -10 38 -13 31 -2 -3 5 -2 9 3 9 4 0 18 15 30 33 17 24
21 42 18 70 -3 25 -1 36 5 32 6 -4 8 -15 5 -26 -8 -23 13 -26 22 -2 4 10 -2
23 -15 33 l-22 18 24 -2 c14 0 22 -6 19 -13 -3 -7 0 -13 6 -13 6 0 11 5 11 10
0 6 9 21 21 33 11 12 23 34 26 50 3 15 9 27 13 27 13 0 51 71 44 82 -5 7 -2 8
6 3 10 -6 12 -4 7 9 -4 9 -3 15 1 12 12 -7 54 73 45 86 -3 6 -2 8 4 5 6 -4 25
25 44 66 41 86 45 97 26 74 -14 -16 -15 -15 -13 12 1 16 5 33 9 38 5 4 5 0 1
-10 -7 -20 2 -22 19 -4 18 18 52 99 49 114 -2 7 2 13 9 13 8 0 8 4 -1 15 -13
16 -7 30 13 30 6 0 20 22 29 49 15 40 16 51 6 64 -11 13 -10 15 5 9 11 -4 16
-3 12 4 -4 6 1 19 11 30 13 15 15 22 6 31 -7 7 -12 18 -12 26 0 12 3 12 16 2
8 -8 14 -9 13 -4 -1 5 2 20 8 34 19 46 24 80 12 80 -7 0 -9 14 -5 38 3 20 6
46 6 57 l1 20 8 -20 c5 -11 4 -33 -2 -48 -5 -15 -7 -31 -3 -34 8 -8 28 48 22
63 -3 7 0 14 6 16 6 2 11 23 12 46 0 23 4 42 7 42 11 0 32 127 23 141 -5 8 -3
10 6 4 9 -6 11 1 8 28 -2 20 0 38 6 40 5 2 10 39 10 83 1 43 5 85 10 92 4 7 5
25 2 38 -4 16 -3 23 3 20 6 -4 10 25 10 76 0 46 3 100 6 121 3 24 1 36 -5 32
-5 -3 -10 -2 -10 3 0 6 7 12 15 16 13 5 15 690 15 6086 0 5396 -2 6081 -15
6086 -8 4 -15 10 -15 16 0 5 5 6 10 3 6 -4 8 8 5 32 -3 21 -6 75 -6 121 0 45
-4 80 -8 77 -5 -2 -7 15 -5 38 3 48 -16 197 -26 197 -3 0 -4 16 -2 36 3 25 1
35 -7 30 -7 -4 -9 -1 -5 8 8 20 -15 127 -31 146 -7 8 -15 26 -19 40 -5 21 -4
21 9 -5 l15 -30 -6 35 c-4 19 -9 37 -13 40 -3 3 -7 18 -8 34 -1 16 -7 34 -14
40 -9 8 -10 5 -6 -13 5 -18 3 -21 -6 -12 -9 9 -9 16 0 30 12 20 1 83 -18 107
-5 6 -5 15 -1 20 4 4 -1 2 -10 -5 -15 -11 -18 -11 -18 2 0 9 5 19 10 22 5 3
10 11 10 16 0 6 -4 7 -10 4 -13 -8 -50 13 -50 28 0 8 4 7 10 -3 11 -18 23 -8
22 22 0 30 -40 136 -54 144 -7 5 -9 2 -6 -7 4 -10 -1 -15 -13 -16 -18 -2 -18
-1 1 20 13 13 16 23 9 27 -5 4 -9 11 -7 16 5 18 -46 124 -60 124 -9 0 -12 -6
-8 -17 4 -10 4 -14 -1 -10 -4 5 -8 22 -9 38 -2 27 -1 28 13 12 17 -22 15 -14
-16 54 -13 29 -28 51 -33 50 -6 -1 -13 4 -16 12 -3 8 0 11 7 7 7 -5 9 -1 5 8
-3 9 -10 13 -15 10 -5 -3 -6 1 -4 8 3 8 -3 23 -14 35 -11 11 -17 24 -14 27 4
3 1 6 -5 6 -6 0 -16 -8 -21 -17 -6 -10 -11 -13 -11 -6 0 6 7 19 16 27 14 15
11 20 -9 17 -5 -1 -6 7 -2 18 3 11 0 23 -6 27 -7 4 -9 3 -6 -2 3 -6 -5 -10
-18 -10 -22 0 -23 1 -9 27 12 23 12 28 -1 33 -8 3 -15 13 -15 22 0 20 -51 104
-64 104 -4 0 -6 -7 -3 -14 4 -10 1 -13 -8 -10 -11 5 -12 10 -2 25 10 17 9 22
-4 32 -9 7 -19 21 -23 33 -3 11 -19 34 -36 51 -23 23 -36 29 -59 25 -18 -2
-38 2 -53 13 -19 15 -20 16 -3 10 40 -15 55 -17 70 -11 14 5 13 9 -4 28 -12
12 -23 30 -27 40 -5 16 -8 17 -21 6 -14 -11 -15 -10 -9 9 4 13 2 24 -5 29 -8
5 -9 3 -4 -6 5 -8 4 -11 -3 -6 -6 4 -9 12 -6 20 6 16 -81 110 -94 102 -5 -3
-15 1 -21 8 -8 10 -9 16 -1 21 5 3 10 0 10 -8 0 -7 7 -14 15 -14 10 0 1 15
-24 41 -22 23 -49 52 -60 66 -15 19 -22 22 -31 13 -9 -8 -8 -11 6 -10 12 1 19
-4 18 -15 -1 -10 2 -16 6 -13 12 7 46 -46 48 -72 0 -13 -3 -23 -7 -23 -10 0
-31 22 -31 34 0 5 6 2 13 -9 13 -17 14 -17 12 1 -3 42 -23 63 -57 59 -18 -3
-27 -1 -21 3 9 6 6 17 -13 45 -13 20 -29 37 -35 37 -6 0 -7 5 -4 11 4 6 16 -2
30 -21 16 -22 24 -27 28 -17 7 18 -67 92 -82 83 -14 -9 -14 -36 -1 -36 6 0 10
-5 10 -11 0 -8 -6 -7 -17 2 -15 12 -16 12 -9 -6 4 -11 4 -16 -1 -11 -4 4 -8
22 -8 40 0 25 4 32 14 28 9 -3 12 0 9 9 -3 8 -11 14 -19 14 -8 1 -13 6 -12 12
2 7 -18 29 -44 50 -26 21 -60 52 -75 68 -21 24 -27 26 -28 13 0 -10 3 -17 8
-17 19 3 23 -2 12 -16 -8 -9 -8 -15 -2 -15 6 0 12 3 15 8 2 4 2 1 0 -6 -1 -7
1 -11 5 -9 4 3 23 -6 42 -19 39 -27 33 -33 -7 -7 -33 22 -63 27 -63 10 0 -8
-3 -7 -10 3 -5 8 -5 19 0 25 5 6 1 20 -10 35 -11 14 -20 30 -20 37 0 13 -37 6
-47 -10 -4 -6 0 -8 10 -4 9 3 19 2 21 -2 3 -5 -5 -7 -17 -6 -31 3 -31 3 -18
18 6 8 8 17 4 21 -4 4 1 4 12 1 15 -5 13 -1 -8 19 -16 15 -33 24 -38 20 -5 -3
-8 0 -7 7 2 6 -3 14 -9 16 -7 3 -13 -3 -14 -14 0 -10 -3 -13 -6 -5 -2 6 -9 12
-14 12 -6 0 -8 -4 -5 -9 8 -13 -47 0 -69 17 l-20 14 20 -7 c40 -15 60 -16 75
-3 8 7 14 12 11 11 -2 -1 -17 11 -35 28 -29 28 -32 28 -46 12 -14 -17 -16 -17
-37 5 -12 12 -18 22 -12 22 6 0 7 4 4 10 -3 5 0 7 9 4 8 -3 12 -12 10 -19 -6
-16 12 -29 21 -15 3 5 1 10 -5 10 -6 0 -9 4 -6 9 10 15 -69 62 -99 59 -16 -2
-30 2 -32 10 -3 6 0 12 7 12 6 0 8 -4 5 -10 -3 -5 -2 -10 4 -10 21 0 20 19 -3
33 -18 12 -26 13 -36 4 -10 -9 -11 -9 -6 0 8 15 -23 46 -40 39 -8 -3 -13 -2
-13 2 3 19 -2 25 -11 12 -8 -12 -10 -12 -10 5 0 16 -2 17 -9 5 -6 -8 -8 -17
-6 -20 2 -3 -5 -6 -15 -6 -10 0 -16 4 -14 8 7 11 -4 10 -27 -2 -10 -6 -19 -8
-19 -6 0 3 16 14 36 24 l36 19 -36 21 c-24 14 -48 20 -73 18 -21 -2 -46 3 -56
9 -18 13 -18 13 3 20 l22 7 -21 15 c-12 8 -26 11 -33 7 -6 -4 -8 -3 -5 3 8 13
-98 64 -109 53 -5 -5 -15 -5 -24 1 -12 9 -11 10 5 4 37 -12 2 12 -57 38 -35
16 -60 21 -66 15 -13 -13 -70 -19 -77 -8 -9 14 13 22 34 11 14 -8 22 -7 31 3
9 12 7 14 -12 9 -18 -4 -20 -3 -8 6 13 9 13 11 -2 12 -18 1 -30 4 -45 9 -5 1
-11 2 -15 1 -5 0 -8 3 -8 8 0 5 -14 14 -31 20 -39 14 -59 14 -39 1 10 -7 11
-10 2 -10 -7 0 -15 6 -18 14 -9 23 -29 26 -60 9 -32 -16 -108 -28 -83 -12 12
7 12 9 0 9 -8 0 -12 2 -9 5 3 3 16 1 30 -4 23 -9 60 1 42 11 -5 3 -4 3 3 2 18
-4 26 13 9 19 -8 3 -24 3 -37 0 -16 -5 -20 -3 -14 6 6 10 2 11 -15 6 -14 -4
-20 -3 -16 3 9 15 -75 34 -91 20 -8 -6 -16 -8 -20 -4 -3 3 0 6 7 6 9 0 10 3 5
9 -14 13 -135 40 -152 34 -7 -3 -13 -1 -13 5 0 12 -124 37 -139 27 -6 -3 -11
-2 -11 3 0 12 -161 37 -242 37 -36 0 -61 3 -55 7 5 3 -39 6 -100 7 -61 0 -122
5 -137 11 -29 11 -12168 15 -12179 4z m-4 -26 c-5 -10 -64 -10 -80 0 -6 4 11
7 37 7 26 0 46 -3 43 -7z m12247 -4 c0 -2 -18 -4 -41 -4 -22 0 -38 4 -35 8 5
8 76 4 76 -4z m-12430 2 c0 -9 -30 -14 -35 -6 -4 6 3 10 14 10 12 0 21 -2 21
-4z m12579 0 c-2 -2 -20 -6 -39 -10 -25 -4 -31 -3 -20 4 14 9 69 15 59 6z
m-12669 -27 c0 -5 -4 -9 -8 -9 -5 0 -9 7 -9 15 0 8 4 12 9 9 4 -3 8 -9 8 -15z
m167 7 c10 -9 -40 -7 -56 3 -9 6 -4 8 18 6 17 -1 34 -5 38 -9z m12626 7 c-7
-2 -19 -2 -25 0 -7 3 -2 5 12 5 14 0 19 -2 13 -5z m-12926 -9 c-3 -3 -12 -4
-19 -1 -8 3 -5 6 6 6 11 1 17 -2 13 -5z m373 -4 c0 -6 -11 -9 -25 -7 -36 4
-38 12 -5 15 17 1 30 -2 30 -8z m12309 -6 c2 -2 -12 -4 -32 -4 -20 0 -37 4
-37 10 0 8 58 3 69 -6z m326 7 c-3 -5 3 -11 12 -14 15 -3 15 -4 -1 -3 -20 1
-36 26 -16 26 6 0 9 -4 5 -9z m-12968 -7 c-3 -3 -12 -4 -19 -1 -8 3 -5 6 6 6
11 1 17 -2 13 -5z m-64 -11 c-7 -2 -19 -2 -25 0 -7 3 -2 5 12 5 14 0 19 -2 13
-5z m290 0 c-7 -2 -21 -2 -30 0 -10 3 -4 5 12 5 17 0 24 -2 18 -5z m12992 -33
c-3 -5 -2 -10 4 -10 6 0 8 -7 4 -16 -8 -21 -47 -14 -51 10 -3 11 0 16 7 11 6
-3 9 -11 6 -16 -3 -5 1 -6 9 -3 8 3 12 12 9 20 -3 8 0 14 7 14 6 0 8 -4 5 -10z
m-13611 -25 c-22 -16 -44 -19 -44 -6 0 8 16 14 54 20 6 0 1 -6 -10 -14z
m13693 9 c-3 -3 -12 -4 -19 -1 -8 3 -5 6 6 6 11 1 17 -2 13 -5z m43 -14 c0 -5
-10 -10 -22 -10 -19 0 -20 2 -8 10 19 13 30 13 30 0z m-13681 -9 c9 -6 6 -8
-13 -8 -14 0 -23 3 -20 8 7 11 15 11 33 0z m13626 0 c-3 -6 -14 -9 -25 -8 -24
2 -15 17 11 17 11 0 18 -4 14 -9z m-13885 -71 c-8 -5 -19 -10 -25 -10 -5 0 -3
5 5 10 8 5 20 10 25 10 6 0 3 -5 -5 -10z m-256 -72 c-5 -7 -2 -9 8 -6 8 4 15
1 15 -6 0 -7 -16 -11 -39 -11 -21 0 -38 1 -38 2 0 2 52 32 58 33 2 0 0 -5 -4
-12z m14776 -63 c0 -1 -6 -7 -13 -13 -10 -8 -13 -6 -13 7 0 11 6 17 13 14 7
-3 13 -6 13 -8z m-15026 -30 c-4 -8 -11 -12 -16 -9 -6 4 -5 10 3 15 19 12 19
11 13 -6z m66 4 c-12 -9 -11 -10 8 -6 12 3 20 1 17 -4 -3 -4 -19 -7 -35 -6
-27 2 -28 3 -13 15 9 6 22 12 27 12 6 0 4 -5 -4 -11z m15003 -1 c15 -12 14
-13 -13 -15 -16 -1 -32 2 -35 6 -3 5 5 7 17 4 19 -4 20 -3 8 6 -8 6 -10 11 -4
11 5 0 18 -6 27 -12z m62 -6 c-3 -3 -11 0 -18 7 -9 10 -8 11 6 5 10 -3 15 -9
12 -12z m-15170 -12 c-3 -5 -12 -10 -18 -10 -7 0 -6 4 3 10 19 12 23 12 15 0z
m15210 -8 c-3 -3 -11 0 -18 7 -9 10 -8 11 6 5 10 -3 15 -9 12 -12z m-15241
-36 c25 -13 25 -14 6 -19 -11 -3 -18 -1 -15 3 3 5 -3 13 -12 19 -27 15 -9 13
21 -3z m15273 3 c-9 -6 -15 -14 -12 -19 3 -4 -5 -6 -16 -3 -21 6 -21 6 2 19
28 16 52 18 26 3z m-15297 -13 c0 -2 -7 -7 -16 -10 -8 -3 -12 -2 -9 4 6 10 25
14 25 6z m15445 -56 c-3 -5 -14 -10 -23 -9 -14 0 -13 2 3 9 27 11 27 11 20 0z
m-15719 -103 c0 -13 -6 -24 -13 -24 -6 0 -10 4 -7 9 3 4 0 8 -5 8 -6 0 -11 -4
-11 -10 0 -5 -5 -10 -12 -10 -6 0 -1 11 12 25 29 31 36 31 36 2z m-80 -70 c1
-27 -3 -32 -25 -34 l-26 -1 23 12 c21 11 22 14 8 26 -13 10 -14 16 -5 27 16
18 24 8 25 -30z m16029 4 c-14 -14 -13 -16 7 -27 23 -12 23 -12 -3 -11 -23 2
-25 6 -24 37 3 45 2 45 21 30 14 -12 14 -15 -1 -29z m-16121 -96 c-10 -8 -23
-15 -28 -15 -6 0 -1 7 10 15 10 8 23 15 28 15 6 0 1 -7 -10 -15z m-44 -9 c0
-2 -7 -7 -16 -10 -8 -3 -12 -2 -9 4 6 10 25 14 25 6z m-185 -155 c-3 -11 -11
-21 -17 -21 -7 0 -7 4 0 13 8 10 6 13 -8 13 -10 0 -18 -4 -17 -9 1 -5 -6 -11
-15 -12 -17 -3 -17 -2 0 20 11 15 21 20 28 14 16 -13 26 2 12 20 -10 14 -9 14
6 0 12 -11 16 -24 11 -38z m-88 -85 c-22 -22 -34 -20 -14 2 10 10 15 21 14 24
-2 3 1 2 6 -3 6 -5 4 -14 -6 -23z m16878 23 c4 -5 -2 -6 -12 -2 -17 6 -17 5 1
-15 25 -29 15 -28 -12 1 -21 22 -21 23 -2 24 11 1 22 -2 25 -8z m-16949 -28
c-13 -15 -15 -24 -6 -46 13 -33 8 -39 -31 -41 l-29 -2 26 20 c15 13 23 26 19
36 -5 13 20 52 33 52 3 0 -2 -8 -12 -19z m16915 2 c13 -17 13 -17 -6 -3 -11 8
-22 16 -24 17 -2 2 0 3 6 3 6 0 17 -8 24 -17z m-16961 -58 c-7 -8 -17 -15 -23
-15 -6 0 -2 7 9 15 25 19 30 19 14 0z m-49 -69 c-16 -26 -18 -35 -9 -39 7 -3
-1 -4 -19 -2 -24 3 -32 -1 -36 -16 -3 -10 -10 -19 -16 -19 -6 0 1 18 15 40 16
24 33 39 40 36 8 -3 18 4 24 14 6 11 13 20 16 20 3 0 -4 -15 -15 -34z m19 -16
c0 -5 -5 -10 -11 -10 -5 0 -7 5 -4 10 3 6 8 10 11 10 2 0 4 -4 4 -10z m17135
0 c3 -5 1 -10 -4 -10 -6 0 -11 5 -11 10 0 6 2 10 4 10 3 0 8 -4 11 -10z m192
-156 c7 -20 -12 -41 -22 -23 -5 8 -4 10 3 5 16 -9 15 7 0 22 -9 9 -9 12 0 12
7 0 15 -7 19 -16z m-40 -16 c-3 -8 -6 -5 -6 6 -1 11 2 17 5 13 3 -3 4 -12 1
-19z m-17530 -100 c-3 -8 -6 -5 -6 6 -1 11 2 17 5 13 3 -3 4 -12 1 -19z
m17610 -10 c-3 -8 -6 -5 -6 6 -1 11 2 17 5 13 3 -3 4 -12 1 -19z m-17627 -48
c0 -5 -8 -10 -17 -10 -15 0 -16 2 -3 10 19 12 20 12 20 0z m-66 -28 c-24 -20
-41 -62 -26 -62 6 0 12 5 14 12 3 8 6 7 10 -3 4 -10 -1 -15 -14 -16 -10 -1
-22 5 -25 13 -3 7 -9 11 -14 8 -5 -3 -6 2 -2 11 5 13 7 14 14 3 7 -10 9 -9 9
3 0 9 10 24 23 32 30 22 37 20 11 -1z m17806 -22 c0 -6 -9 -2 -20 7 -11 10
-20 19 -20 21 0 1 9 -2 20 -8 11 -6 20 -15 20 -20z m24 -16 c3 -8 2 -13 -3
-10 -5 3 -11 -1 -14 -8 -3 -8 -15 -14 -25 -13 -13 1 -18 6 -14 16 4 10 7 11
10 3 6 -18 20 -14 27 8 8 24 11 25 19 4z m-17907 -75 c2 -16 -1 -19 -9 -11 -5
5 -7 15 -4 21 10 15 12 14 13 -10z m17934 -12 c-10 -9 -11 -8 -5 6 3 10 9 15
12 12 3 -3 0 -11 -7 -18z m86 -99 c0 -13 3 -32 7 -43 7 -19 7 -19 -4 -2 -14
21 -19 48 -13 60 7 12 9 8 10 -15z m-18105 -30 c-7 -7 -12 -8 -12 -2 0 14 12
26 19 19 2 -3 -1 -11 -7 -17z m-76 -102 c-1 -20 -5 -31 -10 -26 -7 7 -1 60 7
60 2 0 3 -15 3 -34z m18277 -53 c-4 -9 -2 -14 3 -10 5 3 10 -3 10 -13 0 -10
-3 -17 -7 -14 -4 2 -9 -2 -12 -8 -2 -7 -3 3 -2 22 3 40 3 40 10 40 2 0 1 -7
-2 -17z m-18296 -25 c0 -18 -2 -27 -5 -20 -2 6 -8 10 -12 7 -5 -3 -8 3 -7 14
0 11 5 17 9 15 4 -3 8 0 8 5 0 6 2 11 3 11 2 0 4 -15 4 -32z m-56 -41 c-10 -9
-11 -8 -5 6 3 10 9 15 12 12 3 -3 0 -11 -7 -18z m18423 -33 c3 -8 2 -12 -4 -9
-6 3 -10 10 -10 16 0 14 7 11 14 -7z m-18428 -91 c-3 -4 -6 -1 -6 6 0 7 -4 9
-10 6 -6 -4 -7 1 -3 11 6 15 7 15 15 -1 6 -9 7 -19 4 -22z m18428 21 c3 -8 2
-12 -4 -9 -6 3 -10 1 -10 -6 0 -7 -2 -10 -5 -7 -5 5 4 38 10 38 2 0 6 -7 9
-16z m86 -121 c0 -5 -5 -15 -10 -23 -8 -12 -10 -11 -10 8 0 12 5 22 10 22 6 0
10 -3 10 -7z m10 -47 c0 -2 -6 -9 -14 -15 -11 -9 -16 -9 -22 0 -4 8 -3 9 4 5
7 -4 12 -2 12 3 0 6 5 11 10 11 6 0 10 -2 10 -4z m-18619 -26 c9 13 10 13 6 0
-2 -8 -13 -15 -24 -16 -15 -1 -20 3 -16 13 5 12 7 12 14 1 7 -11 11 -10 20 2z
m18673 -96 c3 -8 2 -12 -4 -9 -6 3 -10 10 -10 16 0 14 7 11 14 -7z m-5 -148
c-9 -8 -10 -7 -5 7 3 10 7 26 7 35 1 9 4 6 6 -7 3 -13 -1 -28 -8 -35z m-18729
40 c0 -3 -4 -8 -10 -11 -5 -3 -10 -1 -10 4 0 6 5 11 10 11 6 0 10 -2 10 -4z
m18823 -226 c-7 -28 -13 -25 -13 6 0 14 4 23 9 20 5 -3 7 -15 4 -26z m5 -78
c7 -21 6 -33 -5 -48 -14 -18 -15 -16 -10 19 3 20 3 35 -2 33 -4 -3 -8 4 -8 15
-2 27 13 15 25 -19z m-18912 -48 c-4 -14 -9 -24 -12 -21 -3 2 -2 17 2 31 3 15
9 25 11 22 3 -3 2 -17 -1 -32z m18921 -16 c-3 -8 -6 -5 -6 6 -1 11 2 17 5 13
3 -3 4 -12 1 -19z m-13044 -95 c-7 -2 -19 -2 -25 0 -7 3 -2 5 12 5 14 0 19 -2
13 -5z m124 1 c-3 -3 -12 -4 -19 -1 -8 3 -5 6 6 6 11 1 17 -2 13 -5z m446 -1
c-7 -2 -19 -2 -25 0 -7 3 -2 5 12 5 14 0 19 -2 13 -5z m2120 0 c-7 -2 -21 -2
-30 0 -10 3 -4 5 12 5 17 0 24 -2 18 -5z m417 -3 c-8 -5 -22 -10 -30 -10 -13
0 -13 1 0 10 8 5 22 10 30 10 13 0 13 -1 0 -10z m95 0 c-11 -5 -29 -8 -40 -8
-16 0 -15 2 5 8 34 11 60 11 35 0z m2022 4 c-3 -3 -12 -4 -19 -1 -8 3 -5 6 6
6 11 1 17 -2 13 -5z m518 -12 c-3 -3 -11 0 -18 7 -9 10 -8 11 6 5 10 -3 15 -9
12 -12z m-5835 -12 c14 -5 -70 -8 -197 -9 -143 -1 -223 3 -223 9 0 12 382 12
420 0z m2540 0 c0 -6 -73 -10 -200 -10 -127 0 -200 4 -200 10 0 6 73 10 200
10 127 0 200 -4 200 -10z m795 -8 c-3 -3 -11 0 -18 7 -9 10 -8 11 6 5 10 -3
15 -9 12 -12z m1765 8 c0 -6 -73 -10 -200 -10 -127 0 -200 4 -200 10 0 6 73
10 200 10 127 0 200 -4 200 -10z m787 -5 c23 -24 11 -26 -17 -5 -14 11 -19 20
-12 20 7 0 20 -7 29 -15z m-5167 -5 c0 -5 -4 -10 -10 -10 -5 0 -10 5 -10 10 0
6 5 10 10 10 6 0 10 -4 10 -10z m4460 1 c0 -5 19 -7 43 -5 42 4 42 4 7 -6 -37
-9 -80 -4 -80 11 0 5 7 9 15 9 8 0 15 -4 15 -9z m645 -1 c3 -5 1 -10 -4 -10
-6 0 -11 5 -11 10 0 6 2 10 4 10 3 0 8 -4 11 -10z m-2525 -10 c18 -12 2 -12
-25 0 -13 6 -15 9 -5 9 8 0 22 -4 30 -9z m-585 -15 c-16 -7 -36 -10 -45 -7
-10 5 -3 9 20 13 53 10 58 9 25 -6z m2589 6 c4 -5 -3 -7 -14 -4 -23 6 -26 13
-6 13 8 0 17 -4 20 -9z m566 -1 c8 -5 11 -10 5 -10 -5 0 -17 5 -25 10 -8 5
-10 10 -5 10 6 0 17 -5 25 -10z m-5722 -7 c-10 -2 -26 -2 -35 0 -10 3 -2 5 17
5 19 0 27 -2 18 -5z m3238 -17 c12 3 24 2 27 -3 11 -17 -64 -6 -81 12 -16 17
-16 17 7 2 14 -9 34 -14 47 -11z m1741 18 c-3 -3 -12 -4 -19 -1 -8 3 -5 6 6 6
11 1 17 -2 13 -5z m138 -4 c3 -5 -1 -10 -9 -10 -8 0 -18 5 -21 10 -3 6 1 10 9
10 8 0 18 -4 21 -10z m-5068 -6 c-3 -3 -12 -4 -19 -1 -8 3 -5 6 6 6 11 1 17
-2 13 -5z m2566 -1 c-7 -2 -19 -2 -25 0 -7 3 -2 5 12 5 14 0 19 -2 13 -5z
m2414 1 c-3 -3 -12 -4 -19 -1 -8 3 -5 6 6 6 11 1 17 -2 13 -5z m-4260 -41
c-14 -15 -29 -24 -33 -20 -9 9 15 37 32 37 8 0 14 5 14 12 0 6 3 8 7 4 4 -3
-5 -19 -20 -33z m1939 10 c-6 -6 -36 9 -36 18 0 5 9 4 20 -3 10 -7 18 -14 16
-15z m3134 15 c0 -11 -28 -10 -35 1 -3 6 4 9 15 8 11 -1 20 -5 20 -9z m7197
-10 c-3 -8 -6 -5 -6 6 -1 11 2 17 5 13 3 -3 4 -12 1 -19z m-12839 -24 c23 -14
42 -27 42 -30 0 -3 -17 4 -37 16 -21 13 -49 23 -62 24 -13 0 -26 7 -29 15 -6
17 28 7 86 -25z m5012 15 c0 -5 -4 -9 -10 -9 -5 0 -10 7 -10 16 0 8 5 12 10 9
6 -3 10 -10 10 -16z m670 17 c0 -11 -19 -15 -25 -6 -3 5 1 10 9 10 9 0 16 -2
16 -4z m-2535 -16 c-3 -5 -12 -10 -20 -10 -8 0 -17 5 -20 10 -4 6 5 10 20 10
15 0 24 -4 20 -10z m1954 -31 c-18 -11 -49 -12 -49 -1 0 20 23 31 43 20 16 -8
17 -12 6 -19z m553 3 c11 -13 8 -12 -19 2 -18 9 -33 18 -33 20 0 9 41 -8 52
-22z m51 13 c-3 -9 -8 -14 -10 -11 -3 3 -2 9 2 15 9 16 15 13 8 -4z m-5793
-26 c0 -18 -35 -5 -38 14 -3 16 -1 17 17 7 12 -6 21 -15 21 -21z m65 3 c-3 -3
-11 0 -18 7 -9 10 -8 11 6 5 10 -3 15 -9 12 -12z m2500 -10 c-6 -7 -45 9 -45
18 0 4 11 3 24 -3 14 -7 23 -13 21 -15z m630 18 c3 -5 2 -10 -4 -10 -5 0 -13
5 -16 10 -3 6 -2 10 4 10 5 0 13 -4 16 -10z m-2518 -17 c-4 -3 0 -15 10 -25
22 -24 8 -23 -17 2 -24 24 -25 30 -3 30 9 0 13 -3 10 -7z m38 -21 c-3 -3 -11
0 -18 7 -9 10 -8 11 6 5 10 -3 15 -9 12 -12z m2605 8 c0 -5 -5 -10 -11 -10 -5
0 -7 5 -4 10 3 6 8 10 11 10 2 0 4 -4 4 -10z m2481 -22 c21 -17 37 -33 34 -36
-2 -2 7 -21 21 -41 l26 -36 -29 34 c-15 19 -45 51 -65 73 -44 46 -40 49 13 6z
m7136 0 c-3 -7 -5 -2 -5 12 0 14 2 19 5 13 2 -7 2 -19 0 -25z m-12737 -24 l25
-28 -42 30 c-24 16 -43 33 -43 37 0 13 33 -9 60 -39z m-33 -22 c-9 -4 -47 36
-47 49 0 4 12 -4 28 -19 15 -15 23 -29 19 -30z m2563 43 c19 -23 8 -25 -14 -4
-11 11 -15 19 -9 19 6 0 16 -7 23 -15z m2540 5 c0 -5 -7 -7 -15 -4 -8 4 -15 8
-15 10 0 2 7 4 15 4 8 0 15 -4 15 -10z m-4520 -10 c0 -5 -2 -10 -4 -10 -3 0
-8 5 -11 10 -3 6 -1 10 4 10 6 0 11 -4 11 -10z m-6886 -43 c7 -6 6 -7 -4 -4
-8 2 -16 14 -17 28 -1 19 -1 20 4 4 3 -11 10 -24 17 -28z m9406 33 c0 -5 -2
-10 -4 -10 -3 0 -8 5 -11 10 -3 6 -1 10 4 10 6 0 11 -4 11 -10z m9682 -22 c-8
-8 -9 -4 -5 13 4 13 8 18 11 10 2 -7 -1 -18 -6 -23z m-12222 7 c11 -13 15 -13
21 -3 5 7 9 9 9 3 0 -30 -17 -34 -38 -10 -12 14 -18 25 -13 25 5 0 14 -7 21
-15z m2092 -80 c6 -11 -6 -2 -25 20 -20 22 -36 43 -37 47 0 4 -8 5 -17 2 -15
-5 -16 -4 -3 5 12 8 21 4 43 -22 15 -17 32 -41 39 -52z m3057 40 c0 -5 -4 -3
-9 5 -5 8 -9 22 -9 30 0 16 17 -16 18 -35z m-2560 -19 c-2 -2 -13 8 -23 22
l-19 27 24 -22 c12 -12 21 -24 18 -27z m-3092 21 c11 4 14 3 9 -6 -11 -17 14
-43 33 -36 13 5 13 4 4 -6 -10 -10 -17 -9 -33 6 -16 15 -23 16 -29 7 -5 -8 -8
1 -8 20 0 18 2 28 4 21 3 -7 11 -9 20 -6z m568 3 c3 -5 2 -10 -4 -10 -5 0 -13
5 -16 10 -3 6 -2 10 4 10 5 0 13 -4 16 -10z m-6948 -22 c-3 -8 -6 -5 -6 6 -1
11 2 17 5 13 3 -3 4 -12 1 -19z m11513 -60 c0 -4 -4 -8 -10 -8 -5 0 -7 6 -4
13 3 8 -2 20 -11 27 -8 7 -15 22 -15 33 0 15 6 10 20 -18 11 -22 20 -43 20
-47z m-4523 25 l0 -48 -12 35 c-10 29 -6 52 11 60 0 0 1 -21 1 -47z m2528 37
c3 -5 2 -10 -4 -10 -5 0 -13 5 -16 10 -3 6 -2 10 4 10 5 0 13 -4 16 -10z
m9572 -27 c-3 -10 -5 -4 -5 12 0 17 2 24 5 18 2 -7 2 -21 0 -30z m-19059 -33
c0 -9 -3 -7 -8 5 -5 11 -8 29 -8 40 0 16 2 15 8 -5 4 -14 8 -32 8 -40z m6919
25 c0 -8 -4 -12 -9 -9 -4 3 -8 9 -8 15 0 5 4 9 8 9 5 0 9 -7 9 -15z m1988 5
c3 -5 1 -10 -4 -10 -6 0 -11 5 -11 10 0 6 2 10 4 10 3 0 8 -4 11 -10z m608
-23 c3 -7 -1 -23 -8 -36 -10 -20 -13 -21 -18 -7 -4 10 -3 15 2 12 14 -9 21 20
8 33 -8 8 -8 11 0 11 6 0 13 -6 16 -13z m2561 -19 c3 -17 4 -33 1 -36 -3 -3
-5 2 -5 11 0 10 -5 17 -11 17 -7 0 -9 -10 -5 -26 4 -15 3 -23 -2 -20 -13 8
-22 46 -11 46 5 0 9 9 9 20 0 32 17 23 24 -12z m7015 -13 l0 -20 -9 20 c-5 11
-9 27 -9 35 -1 13 0 13 9 0 5 -8 9 -24 9 -35z m-19132 -2 c-3 -10 -5 -4 -5 12
0 17 2 24 5 18 2 -7 2 -21 0 -30z m9028 -33 c0 -22 -5 -44 -10 -49 -7 -7 -10
2 -10 24 0 18 4 31 9 27 5 -3 6 2 3 11 -20 49 -20 52 -6 39 7 -7 14 -30 14
-52z m2540 40 c3 -5 1 -10 -4 -10 -6 0 -11 5 -11 10 0 6 2 10 4 10 3 0 8 -4
11 -10z m7527 -20 c-2 -16 -6 -30 -8 -30 -2 0 -4 14 -4 30 0 17 4 30 8 30 5 0
7 -13 4 -30z m-7502 -35 c0 -5 -5 -3 -10 5 -8 13 -10 12 -10 -4 0 -11 -3 -17
-6 -13 -3 3 -3 15 1 28 6 17 9 19 16 8 5 -8 9 -18 9 -24z m-63 19 c-3 -3 -12
-4 -19 -1 -8 3 -5 6 6 6 11 1 17 -2 13 -5z m7600 -20 c2 -13 1 -15 -4 -4 -3 8
-11 19 -17 23 -7 6 -6 7 4 4 8 -2 16 -12 17 -23z m-12676 -20 c-9 -28 -9 -29
-10 -3 -1 14 2 29 6 32 11 12 13 2 4 -29z m-6421 -39 c0 -24 -3 -46 -7 -48 -5
-3 -8 19 -8 48 0 29 3 51 7 49 5 -3 8 -25 8 -49z m6474 29 c3 -8 2 -12 -4 -9
-6 3 -10 10 -10 16 0 14 7 11 14 -7z m3055 -29 c0 -5 -4 -3 -9 5 -5 8 -9 22
-9 30 0 16 17 -16 18 -35z m-508 -5 c5 0 9 -9 9 -19 0 -11 6 -22 13 -24 7 -3
5 -6 -5 -6 -11 -1 -20 9 -24 24 -3 14 -10 25 -15 25 -5 0 -5 8 -1 18 6 16 7
16 10 0 2 -10 8 -18 13 -18z m10049 -1 c0 -16 -4 -28 -9 -25 -8 5 -3 56 5 56
2 0 4 -14 4 -31z m-12113 -21 c-3 -7 -5 -2 -5 12 0 14 2 19 5 13 2 -7 2 -19 0
-25z m-6990 -30 c-2 -13 -4 -5 -4 17 -1 22 1 32 4 23 2 -10 2 -28 0 -40z
m4883 46 c0 -7 -27 -34 -34 -34 -4 0 -1 9 6 20 12 19 28 27 28 14z m183 -1
c-7 -2 -21 -2 -30 0 -10 3 -4 5 12 5 17 0 24 -2 18 -5z m630 0 c-111 -2 -295
-2 -410 0 -114 1 -23 2 202 2 226 0 319 -1 208 -2z m234 1 c-3 -3 -12 -4 -19
-1 -8 3 -5 6 6 6 11 1 17 -2 13 -5z m56 -8 c4 -10 0 -12 -15 -8 -15 4 -17 7
-6 13 17 11 15 11 21 -5z m1557 -2 c0 -2 -9 -4 -21 -4 -11 0 -18 4 -14 10 5 8
35 3 35 -6z m77 10 c-3 -3 -12 -4 -19 -1 -8 3 -5 6 6 6 11 1 17 -2 13 -5z
m666 -1 c-116 -2 -310 -2 -430 0 -120 1 -24 2 212 2 237 0 335 -1 218 -2z
m314 -6 c3 -4 0 -7 -8 -7 -12 0 -12 -2 1 -10 8 -5 11 -12 7 -17 -5 -4 -12 -1
-17 6 -7 12 -17 16 -65 20 -5 1 -4 5 3 10 15 9 69 8 79 -2z m1393 9 c0 -2 -7
-7 -16 -10 -8 -3 -12 -2 -9 4 6 10 25 14 25 6z m45 -6 c4 -6 -1 -7 -11 -3 -11
4 -15 2 -11 -4 7 -12 -16 -36 -26 -27 -6 6 23 44 35 44 4 0 10 -4 13 -10z m98
3 c-7 -2 -19 -2 -25 0 -7 3 -2 5 12 5 14 0 19 -2 13 -5z m685 0 c-119 -2 -317
-2 -440 0 -123 1 -25 2 217 2 242 0 342 -1 223 -2z m306 -8 c-4 -8 -1 -15 5
-15 6 0 10 -3 10 -7 -3 -20 2 -26 12 -13 9 13 10 13 7 0 -1 -8 4 -25 11 -38 7
-13 10 -28 7 -35 -2 -7 -5 -5 -5 4 -1 9 -14 33 -31 54 -30 38 -39 65 -20 65 5
0 7 -7 4 -15z m33 0 c0 -8 -4 -12 -9 -9 -5 3 -6 10 -3 15 9 13 12 11 12 -6z
m7965 -25 c-2 -22 -6 -40 -8 -40 -2 0 -4 18 -4 40 0 22 3 40 8 40 4 0 6 -18 4
-40z m-14195 15 c0 -8 -4 -12 -9 -9 -13 8 -49 -26 -41 -39 4 -6 11 -3 19 8 8
10 16 16 19 14 3 -3 -3 -14 -14 -25 -10 -11 -21 -26 -24 -34 -4 -11 -6 -9 -6
5 -1 17 -3 18 -11 5 -8 -11 -9 -7 -4 15 8 36 22 55 49 65 11 5 20 9 21 9 0 1
1 -6 1 -14z m6163 5 c0 -5 -2 -10 -4 -10 -3 0 -8 5 -11 10 -3 6 -1 10 4 10 6
0 11 -4 11 -10z m-5065 -11 c11 -17 -1 -21 -15 -4 -8 9 -8 15 -2 15 6 0 14 -5
17 -11z m1415 1 c0 -5 -5 -10 -11 -10 -5 0 -7 5 -4 10 3 6 8 10 11 10 2 0 4
-4 4 -10z m50 5 c0 -3 -9 -15 -20 -27 -22 -24 -26 -18 -10 13 10 17 30 27 30
14z m1539 -39 c15 -17 15 -18 -4 -15 -14 3 -21 13 -22 34 -1 17 0 23 4 15 3
-8 13 -23 22 -34z m528 22 c-3 -8 -6 -5 -6 6 -1 11 2 17 5 13 3 -3 4 -12 1
-19z m2020 0 c-3 -8 -6 -5 -6 6 -1 11 2 17 5 13 3 -3 4 -12 1 -19z m573 -13
c0 -14 -2 -25 -4 -25 -2 0 -6 11 -8 25 -3 14 -1 25 3 25 5 0 9 -11 9 -25z m46
-27 l3 -43 -13 35 c-7 19 -10 41 -8 48 7 21 15 5 18 -40z m-4771 8 c7 3 16 1
20 -5 3 -7 0 -8 -10 -5 -12 5 -14 2 -8 -12 6 -18 6 -18 -10 -2 -9 9 -16 27
-16 40 2 22 2 22 6 1 3 -13 10 -20 18 -17z m2549 18 c3 -8 2 -12 -4 -9 -6 3
-10 10 -10 16 0 14 7 11 14 -7z m1653 -16 c-3 -7 -5 -2 -5 12 0 14 2 19 5 13
2 -7 2 -19 0 -25z m-30 0 c-3 -8 -6 -5 -6 6 -1 11 2 17 5 13 3 -3 4 -12 1 -19z
m-2993 -4 c3 -8 2 -12 -4 -9 -6 3 -10 10 -10 16 0 14 7 11 14 -7z m927 -20
l-8 -29 -5 27 c-3 15 -1 25 3 22 5 -3 9 0 9 7 0 7 2 10 5 8 2 -3 1 -18 -4 -35z
m462 6 c-3 -12 -8 -19 -11 -16 -5 6 5 36 12 36 2 0 2 -9 -1 -20z m-3909 2 c-5
-4 -12 -11 -15 -15 -3 -5 -9 -2 -12 5 -3 9 3 14 15 15 11 1 16 -1 12 -5z m443
-29 c-3 -10 -5 -4 -5 12 0 17 2 24 5 18 2 -7 2 -21 0 -30z m461 -28 c0 -16 -2
-15 -8 5 -4 14 -8 34 -8 45 0 16 2 15 8 -5 4 -14 8 -34 8 -45z m4248 40 c3
-13 4 -30 1 -37 -3 -7 -6 -2 -6 11 -1 13 -9 30 -18 37 -17 13 -17 13 -1 14 10
0 20 -10 24 -25z m931 -22 c-3 -10 -5 -2 -5 17 0 19 2 27 5 18 2 -10 2 -26 0
-35z m-6070 5 c-3 -8 -6 -5 -6 6 -1 11 2 17 5 13 3 -3 4 -12 1 -19z m20 0 c-3
-8 -6 -5 -6 6 -1 11 2 17 5 13 3 -3 4 -12 1 -19z m5073 -45 c-11 -17 -11 -17
-6 0 3 10 7 31 7 45 l2 27 4 -27 c2 -15 -1 -35 -7 -45z m-6329 12 c5 4 9 -148
9 -388 0 -307 -3 -396 -12 -398 -7 -2 -251 -2 -543 1 l-530 5 538 3 539 2 -5
378 c-3 207 -7 388 -9 402 -3 14 -3 17 -1 7 2 -9 9 -15 14 -12z m2556 -10 c0
-25 -4 -45 -8 -45 -4 0 -5 15 -3 33 1 17 3 38 3 45 1 6 3 12 5 12 3 0 4 -20 3
-45z m2554 9 c-5 -16 -10 -21 -10 -12 -1 18 10 51 15 45 2 -1 -1 -16 -5 -33z
m-464 -191 c-1 -43 -3 -10 -3 72 0 83 2 118 3 78 2 -40 2 -107 0 -150z m40 15
c-1 -40 -3 -10 -3 67 0 77 1 110 3 73 2 -37 2 -100 0 -140z m-3437 182 c0 -5
-2 -10 -4 -10 -3 0 -8 5 -11 10 -3 6 -1 10 4 10 6 0 11 -4 11 -10z m-18 -507
c2 -132 0 -239 -4 -236 -5 2 -7 169 -6 371 1 202 4 309 5 237 2 -71 4 -239 5
-372z m2545 -45 c-1 -101 -2 -19 -2 182 0 201 1 283 2 183 2 -101 2 -265 0
-365z m450 355 c-2 -37 -3 -9 -3 62 0 72 1 102 3 68 2 -34 2 -93 0 -130z
m2140 130 c-3 -10 -5 -4 -5 12 0 17 2 24 5 18 2 -7 2 -21 0 -30z m-40 -541
c-1 -103 -2 -16 -2 193 0 209 1 293 2 187 2 -106 2 -277 0 -380z m-2527 217
c0 -183 -3 -335 -5 -338 -3 -2 -5 150 -5 339 0 189 2 341 6 338 3 -3 5 -156 4
-339z m-1243 -237 c-1 -97 -2 -15 -2 183 0 198 1 278 2 177 2 -101 2 -263 0
-360z m2553 213 l0 -325 -647 2 -648 3 643 2 642 3 0 320 c0 176 2 320 5 320
3 0 5 -146 5 -325z m1742 -317 c270 1 495 -1 499 -5 4 -5 -219 -8 -497 -8
l-504 0 2 330 3 330 2 -325 3 -325 492 3z m-5165 476 c-3 -3 -12 -4 -19 -1 -8
3 -5 6 6 6 11 1 17 -2 13 -5z m5620 -31 c-3 -10 -5 -4 -5 12 0 17 2 24 5 18 2
-7 2 -21 0 -30z m-3080 -5 c-3 -8 -6 -5 -6 6 -1 11 2 17 5 13 3 -3 4 -12 1
-19z m470 -25 c-3 -10 -5 -2 -5 17 0 19 2 27 5 18 2 -10 2 -26 0 -35z m3228
37 c3 -5 -1 -10 -9 -10 -9 0 -16 5 -16 10 0 6 4 10 9 10 6 0 13 -4 16 -10z
m-5798 -32 c-3 -7 -5 -2 -5 12 0 14 2 19 5 13 2 -7 2 -19 0 -25z m2520 -10
c-3 -7 -5 -2 -5 12 0 14 2 19 5 13 2 -7 2 -19 0 -25z m3380 -14 c-3 -3 -12 -4
-19 -1 -8 3 -5 6 6 6 11 1 17 -2 13 -5z m183 -4 c8 -5 11 -10 5 -10 -5 0 -17
5 -25 10 -8 5 -10 10 -5 10 6 0 17 -5 25 -10z m-1410 -4 c0 -3 -4 -8 -10 -11
-5 -3 -10 -1 -10 4 0 6 5 11 10 11 6 0 10 -2 10 -4z m710 -6 c0 -5 -12 -10
-27 -9 l-28 1 25 8 c14 4 26 8 28 9 1 1 2 -3 2 -9z m665 0 c3 -5 2 -10 -4 -10
-5 0 -13 5 -16 10 -3 6 -2 10 4 10 5 0 13 -4 16 -10z m-6435 -9 c0 -6 -17 -7
-37 -4 -52 8 -54 13 -5 13 23 0 42 -4 42 -9z m5583 2 c-13 -2 -33 -2 -45 0
-13 2 -3 4 22 4 25 0 35 -2 23 -4z m-5230 -10 c-7 -2 -19 -2 -25 0 -7 3 -2 5
12 5 14 0 19 -2 13 -5z m5442 -8 c-22 -7 -31 -13 -21 -14 11 -1 17 -4 13 -7
-8 -8 -47 5 -47 16 0 9 30 17 70 18 18 0 14 -3 -15 -13z m619 6 c3 -5 15 -11
27 -14 15 -4 19 -2 15 8 -3 9 0 12 10 8 7 -3 14 -9 14 -13 0 -17 -29 -17 -66
0 -21 10 -31 19 -22 19 9 1 19 -3 22 -8z m-6454 -21 c0 -5 -9 -10 -20 -10 -11
0 -20 5 -20 10 0 6 9 10 20 10 11 0 20 -4 20 -10z m5880 0 c0 -5 -7 -10 -16
-10 -8 0 -12 5 -9 10 3 6 10 10 16 10 5 0 9 -4 9 -10z m-3303 -16 c-3 -3 -12
-4 -19 -1 -8 3 -5 6 6 6 11 1 17 -2 13 -5z m3403 -18 c0 -3 -4 -8 -10 -11 -5
-3 -10 -1 -10 4 0 6 5 11 10 11 6 0 10 -2 10 -4z m620 -15 c0 -5 -7 -12 -16
-15 -14 -5 -15 -4 -4 9 14 17 20 19 20 6z m-530 -20 c0 -10 -25 -21 -48 -21
-12 0 -9 4 8 14 31 17 40 19 40 7z m25 -21 c3 -5 1 -10 -4 -10 -6 0 -11 5 -11
10 0 6 2 10 4 10 3 0 8 -4 11 -10z m583 -35 c-3 -3 -9 2 -12 12 -6 14 -5 15 5
6 7 -7 10 -15 7 -18z m-537 -12 c13 -16 12 -17 -3 -4 -17 13 -22 21 -14 21 2
0 10 -8 17 -17z m4 -42 c-6 -5 -25 10 -25 20 0 5 6 4 14 -3 8 -7 12 -15 11
-17z m587 -10 c2 7 10 9 16 5 17 -10 15 -26 -3 -20 -17 7 -21 -11 -5 -21 6 -3
10 -13 10 -22 0 -9 -11 1 -25 21 -28 41 -32 54 -11 37 11 -9 15 -9 18 0z
m-518 -27 c3 -8 2 -12 -4 -9 -6 3 -10 10 -10 16 0 14 7 11 14 -7z m46 -76 c11
-24 14 -36 7 -28 -15 17 -39 70 -32 70 2 0 14 -19 25 -42z m547 -10 c-3 -7 -5
-2 -5 12 0 14 2 19 5 13 2 -7 2 -19 0 -25z m-584 -38 c-6 -7 -23 23 -23 40 0
8 6 4 13 -10 8 -14 12 -27 10 -30z m27 6 c0 -12 -5 -7 -19 24 -11 24 -11 24 3
6 9 -11 16 -24 16 -30z m539 0 c-1 -20 -2 -20 -6 -1 -3 11 -10 27 -17 35 -10
13 -9 13 7 1 9 -7 16 -23 16 -35z m48 -3 c1 -19 -1 -22 -8 -12 -7 11 -9 10 -9
-6 0 -16 -2 -17 -10 -5 -6 10 -4 20 7 32 9 10 17 18 17 18 1 0 2 -12 3 -27z
m-8547 -20 c0 -13 -3 -14 -8 -6 -6 10 -127 13 -528 16 l-519 2 528 3 c496 2
527 1 527 -15z m1913 10 c-591 -3 -643 -4 -643 -20 0 -9 -3 -14 -6 -10 -4 3
-4 13 -1 22 6 13 78 15 649 13 l643 -3 -642 -2z m-2980 -13 c9 0 17 -4 17 -10
0 -14 -19 -12 -55 6 -26 12 -27 14 -5 9 14 -2 33 -5 43 -5z m4883 -5 c9 -8 11
-15 5 -15 -5 0 -12 -8 -14 -17 -3 -11 -5 -7 -6 10 0 16 -5 26 -11 22 -5 -3
-10 -1 -10 4 0 16 19 13 36 -4z m3607 8 c-7 -2 -19 -2 -25 0 -7 3 -2 5 12 5
14 0 19 -2 13 -5z m-6177 -28 c-4 -24 -16 -30 -16 -7 0 12 4 22 9 22 5 0 8 -7
7 -15z m-2347 -9 c10 -12 8 -13 -8 -9 -12 3 -21 9 -21 14 0 14 16 11 29 -5z
m3426 -3 c-596 -7 -1063 -7 -1058 0 2 4 293 6 646 5 353 -2 539 -4 412 -5z
m2478 0 c-177 -2 -469 -2 -650 0 -180 1 -35 2 322 2 358 0 505 -1 328 -2z
m2325 0 c-137 -2 -359 -2 -495 0 -137 1 -25 2 247 2 272 0 384 -1 248 -2z
m1419 -30 c-3 -10 -5 -4 -5 12 0 17 2 24 5 18 2 -7 2 -21 0 -30z m-1120 21
c-3 -3 -12 -4 -19 -1 -8 3 -5 6 6 6 11 1 17 -2 13 -5z m-8599 -25 c-10 -5 -15
-17 -12 -27 5 -14 3 -14 -6 2 -10 15 -9 20 1 27 8 5 19 9 24 9 6 -1 2 -5 -7
-11z m8686 0 c-4 -7 -44 0 -44 7 0 2 11 3 24 2 14 -1 23 -5 20 -9z m46 -25 c0
-3 -7 -1 -15 6 -20 17 -19 1 2 -24 l17 -21 -22 21 c-14 13 -20 27 -16 37 5 14
8 14 20 2 8 -7 14 -17 14 -21z m467 -21 c-3 -10 -5 -4 -5 12 0 17 2 24 5 18 2
-7 2 -21 0 -30z m-9287 -65 c0 -10 -4 -18 -10 -18 -5 0 -10 15 -10 33 0 24 3
28 10 17 5 -8 10 -23 10 -32z m9272 -2021 c2 -889 -1 -1617 -5 -1617 -5 0 -5
5 -2 10 3 6 1 10 -6 10 -7 0 -8 5 -3 13 5 7 7 796 4 1817 -3 993 -3 1810 0
1815 8 16 10 -307 12 -2048z m-9243 -1772 c0 -2073 -3 -3775 -7 -3782 -4 -6
-7 1701 -7 3794 0 2092 3 3794 7 3781 3 -13 6 -1719 7 -3793z m8818 763 c-1
-557 -2 -102 -2 1012 0 1114 1 1569 2 1013 2 -557 2 -1469 0 -2025z m-8867
-765 l-5 -3768 -3 3755 c-1 2065 0 3761 3 3768 2 6 6 12 7 12 2 0 1 -1695 -2
-3767z m1300 3195 c0 -255 4 -407 11 -433 14 -51 65 -100 117 -115 30 -7 181
-10 500 -8 512 3 498 1 547 76 l24 37 3 415 3 415 673 3 672 2 0 -397 c1 -417
4 -447 47 -495 49 -54 40 -53 558 -53 l480 0 37 23 c20 13 47 40 60 60 23 37
23 40 26 427 1 215 2 400 2 413 l0 22 670 0 669 0 3 -412 c3 -465 2 -454 80
-506 l42 -27 480 0 481 0 37 23 c20 13 47 40 60 60 23 37 23 39 26 450 l3 412
455 0 454 0 0 -780 0 -780 -4065 0 -4065 0 0 780 0 780 455 0 455 0 0 -392z
m7228 -2500 l2 -998 -1858 0 -1858 0 -44 -22 c-24 -13 -53 -36 -64 -51 -21
-28 -21 -31 -24 -1628 l-2 -1599 -2150 0 -2150 0 0 2643 c0 1454 3 2647 7
2650 3 4 1836 6 4072 5 l4066 -3 3 -997z m2689 -464 c-3 -3 -12 -4 -19 -1 -8
3 -5 6 6 6 11 1 17 -2 13 -5z m606 -1 c-7 -2 -19 -2 -25 0 -7 3 -2 5 12 5 14
0 19 -2 13 -5z m-113 -12 c25 -4 -52 -5 -170 -3 -118 2 -222 5 -230 6 -31 7
357 4 400 -3z m-429 -23 c-26 -6 -47 -6 -52 -1 -6 6 11 10 43 10 l53 0 -44 -9z
m539 2 c-20 -13 -73 -13 -65 0 3 6 23 10 43 10 28 0 33 -3 22 -10z m-2490 -30
c0 -5 -2 -10 -4 -10 -3 0 -8 5 -11 10 -3 6 -1 10 4 10 6 0 11 -4 11 -10z
m1984 -25 c4 -12 11 -13 23 -7 12 6 29 4 51 -4 38 -17 44 -28 6 -14 -14 6 -35
8 -48 4 -15 -3 -28 2 -40 15 -11 12 -14 21 -9 21 6 0 14 -7 17 -15z m606 5 c0
-5 -5 -10 -11 -10 -5 0 -7 5 -4 10 3 6 8 10 11 10 2 0 4 -4 4 -10z m45 -10
c-27 -12 -43 -12 -25 0 8 5 22 9 30 9 10 0 8 -3 -5 -9z m75 0 c0 -5 8 -10 18
-11 9 0 12 -3 5 -5 -6 -3 -24 2 -40 10 -26 14 -27 15 -5 16 12 0 22 -4 22 -10z
m-3 -57 c14 -29 12 -29 -21 2 -15 14 -35 25 -44 25 -13 0 -14 2 -4 9 19 11 56
-8 69 -36z m-717 4 c8 -4 2 -5 -15 -4 -21 1 -31 8 -34 22 -3 19 -2 19 15 4 11
-9 26 -19 34 -22z m45 23 c3 -5 1 -10 -4 -10 -6 0 -11 5 -11 10 0 6 2 10 4 10
3 0 8 -4 11 -10z m95 -4 c0 -2 -7 -7 -16 -10 -8 -3 -12 -2 -9 4 6 10 25 14 25
6z m-43 -12 c-3 -3 -12 -4 -19 -1 -8 3 -5 6 6 6 11 1 17 -2 13 -5z m657 -9 c3
-8 1 -15 -4 -15 -6 0 -10 7 -10 15 0 8 2 15 4 15 2 0 6 -7 10 -15z m-697 -1
c-3 -3 -12 -4 -19 -1 -8 3 -5 6 6 6 11 1 17 -2 13 -5z m768 -14 c3 -5 0 -7 -8
-4 -8 3 -18 0 -22 -5 -3 -6 -11 -8 -18 -4 -7 4 -4 9 9 14 27 11 32 10 39 -1z
m-605 -14 c0 -2 -7 -7 -16 -10 -8 -3 -12 -2 -9 4 6 10 25 14 25 6z m585 -53
l28 -38 -38 38 c-20 20 -41 37 -46 37 -5 0 -9 5 -9 10 0 19 35 -7 65 -47z
m-560 37 c3 -5 1 -10 -4 -10 -6 0 -11 5 -11 10 0 6 2 10 4 10 3 0 8 -4 11 -10z
m575 0 c0 -5 -4 -10 -10 -10 -5 0 -10 5 -10 10 0 6 5 10 10 10 6 0 10 -4 10
-10z m-537 -55 c-4 -11 1 -14 17 -13 13 2 25 -3 28 -12 4 -12 2 -13 -9 -3 -10
10 -16 10 -28 -2 -15 -12 -16 -10 -17 20 0 19 3 32 7 29 5 -2 6 -11 2 -19z
m615 -8 c2 -9 -2 -17 -8 -17 -7 0 -10 6 -7 14 4 9 -1 17 -11 20 -12 3 -12 4 3
3 11 -1 21 -10 23 -20z m-514 -88 c10 -17 14 -29 8 -26 -5 4 -20 24 -32 44
-12 20 -16 32 -8 26 7 -6 22 -26 32 -44z m512 25 c-4 -9 -9 -15 -11 -12 -3 3
-3 13 1 22 4 9 9 15 11 12 3 -3 3 -13 -1 -22z m-522 -60 c3 -8 2 -12 -4 -9 -6
3 -10 10 -10 16 0 14 7 11 14 -7z m569 -44 c3 -11 2 -18 -3 -15 -4 3 -10 14
-13 25 -3 11 -2 18 3 15 4 -3 10 -14 13 -25z m27 20 c0 -5 -2 -10 -4 -10 -3 0
-8 5 -11 10 -3 6 -1 10 4 10 6 0 11 -4 11 -10z m-530 -36 c0 -9 -44 14 -48 25
-3 8 5 7 22 -4 14 -10 26 -19 26 -21z m-50 -24 c0 -17 -15 -11 -28 11 -12 19
-11 19 8 9 11 -6 20 -15 20 -20z m-447 -17 c3 -5 -8 -8 -25 -9 -20 -1 -25 2
-16 7 16 11 35 11 41 2z m1027 -13 c0 -11 -2 -20 -4 -20 -2 0 -6 9 -9 20 -3
11 -1 20 4 20 5 0 9 -9 9 -20z m-1088 -18 c4 -4 -521 -7 -1166 -7 -775 0
-1173 3 -1173 10 0 12 2327 9 2339 -3z m580 -21 c-8 -5 -13 -11 -13 -15 3 -18
0 -29 -5 -23 -3 3 -3 20 1 37 5 24 10 29 18 21 9 -9 8 -14 -1 -20z m515 -13
c-3 -8 -6 -5 -6 6 -1 11 2 17 5 13 3 -3 4 -12 1 -19z m-1027 2 c0 -5 -2 -10
-4 -10 -3 0 -8 5 -11 10 -3 6 -1 10 4 10 6 0 11 -4 11 -10z m40 -16 c0 -8 -19
-13 -24 -6 -3 5 1 9 9 9 8 0 15 -2 15 -3z m11 -27 c-10 -9 -11 -8 -5 6 3 10 9
15 12 12 3 -3 0 -11 -7 -18z m487 -37 c0 -9 -3 -7 -8 5 -5 11 -8 29 -8 40 0
16 2 15 8 -5 4 -14 8 -32 8 -40z m-37 5 c8 17 9 16 4 -5 -2 -14 -6 -1031 -7
-2260 -2 -1229 -4 -2059 -5 -1845 -5 673 -8 4151 -4 4120 3 -27 4 -28 12 -10z
m-426 -6 c10 -30 2 -32 -12 -3 -6 13 -7 24 -3 24 5 0 12 -9 15 -21z m35 -2408
c0 -1846 3 -2321 13 -2325 6 -3 1 -3 -13 1 -22 5 -23 4 -11 -11 11 -13 11 -16
0 -16 -8 0 -5 -6 7 -15 20 -15 16 -19 -10 -9 -14 6 -16 227 -16 2350 0 2080 2
2344 15 2344 13 0 15 -262 15 -2319z m-360 -24 c0 -1207 -2 -2196 -5 -2199 -3
-2 -33 2 -67 9 -104 23 -328 28 -434 9 -392 -68 -718 -312 -898 -674 -134
-268 -163 -605 -76 -879 11 -34 20 -67 20 -73 0 -7 -707 -10 -2280 -10 l-2280
0 0 3005 0 3005 3010 0 3010 0 0 -2193z m-11000 -1007 c0 -13 -1 -13 -10 0 -5
8 -10 22 -10 30 0 13 1 13 10 0 5 -8 10 -22 10 -30z m76 -76 c-14 -15 -18 -11
-22 22 -2 25 -2 25 15 8 12 -14 14 -22 7 -30z m4560 -43 c-15 -6 -16 -10 -7
-16 11 -6 11 -9 0 -16 -8 -5 -1011 -9 -2229 -9 l-2215 0 -30 21 c-28 20 -29
21 -5 15 14 -3 31 -6 38 -6 7 0 10 -4 7 -10 -4 -7 735 -9 2212 -8 l2218 3
-2210 5 -2210 5 2202 3 c1454 1 2204 5 2208 12 3 6 14 10 23 9 14 0 14 -2 -2
-8z m-4486 -41 c0 -5 -2 -10 -4 -10 -3 0 -8 5 -11 10 -3 6 -1 10 4 10 6 0 11
-4 11 -10z m4500 -1410 c0 -1249 -2 -1409 -15 -1404 -13 5 -15 171 -15 1404 0
1109 3 1399 13 1403 6 3 13 6 15 6 1 1 2 -633 2 -1409z m7715 509 c11 -16 1
-19 -13 -3 -7 8 -8 14 -3 14 5 0 13 -5 16 -11z m-30 -10 c11 -17 -1 -21 -15
-4 -8 9 -8 15 -2 15 6 0 14 -5 17 -11z m-586 -36 c0 -25 -1 -25 -8 -8 -5 11
-7 23 -4 28 8 14 13 7 12 -20z m576 7 c3 -5 1 -10 -4 -10 -6 0 -11 5 -11 10 0
6 2 10 4 10 3 0 8 -4 11 -10z m-525 -8 c0 -5 -7 -9 -15 -9 -8 0 -15 4 -15 9 0
4 7 8 15 8 8 0 15 -4 15 -8z m577 -47 c21 -19 34 -35 30 -35 -4 0 -24 16 -44
35 -47 45 -36 46 14 0z m70 9 c10 -26 -12 -38 -36 -18 -15 13 -17 20 -8 26 19
12 37 9 44 -8z m-554 -56 c-4 -8 -63 47 -63 58 0 3 15 -7 34 -23 18 -15 31
-31 29 -35z m547 -20 c0 -6 -6 -5 -15 2 -8 7 -15 14 -15 16 0 2 7 1 15 -2 8
-4 15 -11 15 -16z m-537 -4 c-5 -13 -2 -15 15 -9 12 3 22 3 23 -2 0 -4 2 -17
3 -28 2 -14 -3 -21 -15 -21 -16 0 -17 2 -3 17 9 10 11 19 5 23 -5 4 -16 -3
-24 -14 -14 -20 -15 -20 -12 12 3 37 3 38 10 38 2 0 2 -7 -2 -16z m124 -130
c-4 -4 -67 80 -67 91 0 4 16 -15 36 -40 19 -26 34 -49 31 -51z m493 76 c0 -4
-6 -10 -14 -13 -10 -4 -12 0 -9 14 5 18 23 18 23 -1z m68 -32 c7 -7 12 -21 11
-32 0 -20 -1 -20 -11 2 -6 12 -17 22 -24 22 -7 0 -16 5 -19 10 -9 14 29 12 43
-2z m-1193 -8 c-3 -5 -11 -10 -16 -10 -6 0 -7 5 -4 10 3 6 11 10 16 10 6 0 7
-4 4 -10z m1133 -15 c-3 -3 -9 2 -12 12 -6 14 -5 15 5 6 7 -7 10 -15 7 -18z
m-537 -22 c13 -16 12 -17 -3 -4 -10 7 -18 15 -18 17 0 8 8 3 21 -13z m567 7
c-1 -3 7 -19 20 -37 25 -35 30 -59 6 -28 -27 35 -47 78 -34 73 6 -2 10 -6 8
-8z m-1129 -26 c2 -2 -5 -4 -16 -4 -12 0 -23 7 -27 15 -5 13 -2 14 17 4 12 -6
24 -13 26 -15z m50 -10 c4 3 8 -1 8 -9 0 -10 -4 -12 -12 -5 -7 6 -21 7 -31 4
-17 -6 -17 -5 1 9 11 9 22 11 23 6 2 -5 7 -7 11 -5z m616 -51 c11 -21 25 -42
32 -46 7 -4 13 -12 13 -18 0 -11 -37 21 -41 36 -2 6 -11 18 -20 28 -20 22 -34
64 -16 48 7 -5 21 -27 32 -48z m-620 7 c10 -11 16 -20 13 -20 -3 0 -13 9 -23
20 -10 11 -16 20 -13 20 3 0 13 -9 23 -20z m69 -35 c-4 -8 -11 -15 -16 -15 -6
0 -5 6 2 15 7 8 14 15 16 15 2 0 1 -7 -2 -15z m536 -5 c0 -4 -6 -10 -14 -13
-10 -4 -12 0 -9 14 5 18 23 18 23 -1z m580 10 c0 -5 -2 -10 -4 -10 -3 0 -8 5
-11 10 -3 6 -1 10 4 10 6 0 11 -4 11 -10z m29 -48 c1 -7 -3 -10 -9 -7 -5 3
-10 18 -9 33 0 24 1 25 9 7 5 -11 9 -26 9 -33z m-1124 19 c-3 -6 -11 -11 -17
-11 -6 0 -6 6 2 15 14 17 26 13 15 -4z m-673 -23 c252 -57 470 -233 593 -477
58 -116 85 -239 85 -385 0 -182 -34 -308 -123 -459 -46 -78 -159 -203 -232
-256 -183 -134 -409 -196 -625 -171 -212 25 -372 103 -526 255 -119 117 -179
211 -226 355 -26 81 -31 115 -36 226 -7 206 34 366 138 527 209 326 570 472
952 385z m1228 2 c0 -5 -7 -10 -15 -10 -8 0 -15 5 -15 10 0 6 7 10 15 10 8 0
15 -4 15 -10z m561 -25 c5 3 6 -1 3 -10 -6 -14 -8 -14 -20 2 -7 10 -13 23 -13
28 0 6 4 2 10 -8 6 -9 14 -15 20 -12z m-525 3 c5 -7 3 -8 -6 -3 -9 6 -11 -1
-6 -26 5 -30 5 -31 -4 -10 -15 35 -1 67 16 39z m-519 -13 c-4 -8 -2 -17 3 -20
6 -4 10 -12 10 -18 0 -7 -5 -4 -11 6 -6 9 -15 15 -20 11 -6 -3 -5 3 3 15 15
24 23 28 15 6z m537 -21 c3 -8 2 -12 -4 -9 -6 3 -10 10 -10 16 0 14 7 11 14
-7z m-482 -63 c-4 -12 1 -11 19 4 17 14 20 15 10 3 -7 -9 -10 -22 -6 -29 6 -8
2 -8 -12 0 -11 6 -22 8 -25 6 -2 -2 -9 4 -15 13 -9 15 -7 18 12 18 16 0 21 -4
17 -15z m38 -63 c0 -12 -6 -9 -26 13 -19 22 -19 22 4 8 12 -8 22 -17 22 -21z
m509 -18 c0 -10 -3 -8 -9 5 -8 19 -9 19 -9 1 -1 -11 -4 -17 -7 -13 -3 3 -3 15
1 28 6 17 9 19 16 8 5 -8 8 -21 8 -29z m-459 0 c-6 -11 -8 -25 -5 -30 3 -6 -3
-10 -14 -10 -12 0 -21 5 -21 11 0 5 5 7 10 4 6 -3 10 0 10 7 0 12 19 38 27 38
2 0 -1 -9 -7 -20z m17 -57 c-3 -10 -5 -2 -5 17 0 19 2 27 5 18 2 -10 2 -26 0
-35z m463 16 c0 -6 -4 -7 -10 -4 -5 3 -10 11 -10 16 0 6 5 7 10 4 6 -3 10 -11
10 -16z m-14 -46 c-8 -20 -11 -16 -20 21 -6 26 -6 27 9 12 10 -9 14 -24 11
-33z m-450 -18 c-9 -9 -16 -13 -16 -8 0 12 22 34 28 28 2 -2 -3 -11 -12 -20z
m484 5 c0 -5 -2 -10 -4 -10 -3 0 -8 5 -11 10 -3 6 -1 10 4 10 6 0 11 -4 11
-10z m-50 -26 c0 -8 -4 -14 -10 -14 -5 0 -10 9 -10 21 0 11 5 17 10 14 6 -3
10 -13 10 -21z m600 -6 c-1 -26 -3 -30 -10 -16 -6 9 -7 23 -4 32 9 25 14 19
14 -16z m-560 2 c0 -5 -4 -10 -10 -10 -5 0 -10 5 -10 10 0 6 5 10 10 10 6 0
10 -4 10 -10z m-410 -25 c0 -8 -7 -15 -15 -15 -13 0 -14 3 -3 15 16 18 18 18
18 0z m22 -10 c-2 -14 -6 -25 -8 -25 -2 0 -4 11 -4 25 0 14 4 25 9 25 4 0 6
-11 3 -25z m938 -35 c0 -13 -1 -13 -10 0 -5 8 -10 22 -10 30 0 13 1 13 10 0 5
-8 10 -22 10 -30z m-513 8 c-3 -8 -6 -5 -6 6 -1 11 2 17 5 13 3 -3 4 -12 1
-19z m530 -10 c-3 -7 -5 -2 -5 12 0 14 2 19 5 13 2 -7 2 -19 0 -25z m-969 -37
c-7 -9 -13 -17 -14 -18 0 -2 -1 10 -1 27 0 24 3 27 14 19 11 -9 11 -15 1 -28z
m455 -53 c-2 -29 -6 -69 -10 -88 -5 -34 -5 -35 -15 -10 -7 17 -5 42 4 80 7 30
12 58 10 63 -1 4 2 7 7 7 4 0 6 -24 4 -52z m514 15 c-3 -10 -5 -4 -5 12 0 17
2 24 5 18 2 -7 2 -21 0 -30z m-540 -5 c-3 -8 -6 -5 -6 6 -1 11 2 17 5 13 3 -3
4 -12 1 -19z m-417 6 c0 -8 -19 -13 -24 -6 -3 5 1 9 9 9 8 0 15 -2 15 -3z m-3
-76 c-3 -8 -6 -5 -6 6 -1 11 2 17 5 13 3 -3 4 -12 1 -19z m470 -30 c-3 -7 -5
-2 -5 12 0 14 2 19 5 13 2 -7 2 -19 0 -25z m10 -70 c-3 -7 -5 -2 -5 12 0 14 2
19 5 13 2 -7 2 -19 0 -25z m-403 -53 c5 -29 4 -36 -3 -25 -6 8 -11 28 -11 44
0 39 6 31 14 -19z m943 13 c-3 -7 -5 -2 -5 12 0 14 2 19 5 13 2 -7 2 -19 0
-25z m20 -185 c-2 -38 -3 -7 -3 67 0 74 1 105 3 68 2 -38 2 -98 0 -135z m-990
145 c-3 -8 -6 -5 -6 6 -1 11 2 17 5 13 3 -3 4 -12 1 -19z m3 -58 c0 -5 -2 -10
-4 -10 -3 0 -8 5 -11 10 -3 6 -1 10 4 10 6 0 11 -4 11 -10z m947 -92 c-2 -18
-4 -4 -4 32 0 36 2 50 4 33 2 -18 2 -48 0 -65z m-908 42 c0 -10 -3 -8 -9 5
-12 27 -12 43 0 25 5 -8 9 -22 9 -30z m-50 -99 c-5 -46 -12 -87 -15 -90 -4 -3
-4 16 0 43 3 27 6 76 7 110 0 40 3 54 8 41 4 -11 4 -58 0 -104z m48 -18 c-3
-10 -5 -4 -5 12 0 17 2 24 5 18 2 -7 2 -21 0 -30z m942 -23 c10 -7 1 -80 -9
-80 -5 0 -8 30 -7 68 0 37 3 56 5 42 2 -14 7 -27 11 -30z m-968 -11 c-9 -23
-10 -22 -10 11 -1 23 2 31 9 24 7 -7 7 -19 1 -35z m413 -59 c4 -25 3 -31 -4
-20 -5 8 -10 26 -10 39 0 32 6 24 14 -19z m-404 5 c0 -8 -2 -15 -4 -15 -2 0
-6 7 -10 15 -3 8 -1 15 4 15 6 0 10 -7 10 -15z m-25 -5 c3 -5 1 -10 -4 -10 -6
0 -11 5 -11 10 0 6 2 10 4 10 3 0 8 -4 11 -10z m425 -108 c0 -2 -7 3 -15 12
-8 8 -15 31 -14 53 l0 38 14 -50 c8 -27 14 -51 15 -53z m-470 11 c-11 -17 -11
-17 -6 0 3 10 6 24 7 30 0 9 2 9 5 0 3 -7 0 -20 -6 -30z m430 -6 c0 -5 -4 -5
-10 -2 -5 3 -10 14 -10 23 0 15 2 15 10 2 5 -8 10 -19 10 -23z m27 -32 c0 -8
-5 -11 -10 -8 -6 3 -8 -6 -5 -24 3 -20 0 -30 -9 -30 -7 0 -13 4 -13 8 0 4 -3
16 -6 26 -5 15 -4 15 5 3 9 -13 11 -11 11 7 0 12 6 24 13 26 6 3 12 6 13 6 0
1 1 -6 1 -14z m500 -27 c-3 -8 -6 -5 -6 6 -1 11 2 17 5 13 3 -3 4 -12 1 -19z
m-953 -13 c-4 -8 -8 -15 -10 -15 -2 0 -4 7 -4 15 0 8 4 15 10 15 5 0 7 -7 4
-15z m963 -27 c-3 -8 -6 -5 -6 6 -1 11 2 17 5 13 3 -3 4 -12 1 -19z m-8 -50
c0 -27 -2 -29 -8 -13 -5 11 -6 26 -4 33 8 21 13 13 12 -20z m-980 -18 c0 -10
-3 -8 -9 5 -12 27 -12 43 0 25 5 -8 9 -22 9 -30z m18 8 c-3 -8 -6 -5 -6 6 -1
11 2 17 5 13 3 -3 4 -12 1 -19z m420 -25 c-3 -10 -5 -4 -5 12 0 17 2 24 5 18
2 -7 2 -21 0 -30z m513 -42 c-6 -23 -15 -41 -20 -41 -5 0 -2 20 8 45 20 54 27
52 12 -4z m-950 29 c0 8 3 11 6 7 10 -9 -10 -32 -28 -33 -20 -2 -20 -2 -12 20
5 13 9 14 20 5 11 -9 14 -8 14 1z m-70 -65 c-6 -15 -13 -25 -16 -23 -2 3 1 17
7 32 16 34 23 27 9 -9z m481 -8 c-8 -8 -11 -7 -11 6 0 11 -5 14 -17 10 -15 -6
-16 -5 -3 9 12 13 16 13 29 1 10 -11 11 -17 2 -26z m567 13 c-7 -11 -14 -17
-17 -15 -2 3 1 11 7 18 7 8 8 18 4 22 -4 5 -1 5 5 1 10 -5 10 -11 1 -26z
m-607 -37 c-12 -20 -14 -14 -5 12 4 9 9 14 11 11 3 -2 0 -13 -6 -23z m-434
-35 c-3 -7 -5 -2 -5 12 0 14 2 19 5 13 2 -7 2 -19 0 -25z m-7180 -20 c-3 -7
-5 -2 -5 12 0 14 2 19 5 13 2 -7 2 -19 0 -25z m7163 4 c0 -15 -2 -15 -10 -2
-13 20 -13 33 0 25 6 -3 10 -14 10 -23z m-7126 -44 c-3 -4 -2 -8 3 -8 4 0 8
-14 9 -31 2 -45 -14 -21 -21 31 -3 30 -2 40 4 30 5 -8 7 -18 5 -22z m7068 9
c-7 -8 -8 -18 -4 -22 4 -5 1 -5 -5 -1 -10 5 -10 11 -1 26 7 11 14 17 17 15 2
-3 -1 -11 -7 -18z m1009 -18 c-5 -13 -10 -19 -10 -12 -1 15 10 45 15 40 3 -2
0 -15 -5 -28z m-8110 -62 c-6 -6 -8 -3 -6 9 2 11 5 33 6 49 2 26 3 25 6 -9 3
-21 0 -43 -6 -49z m7613 74 c-6 -6 -12 -7 -39 -10 -8 0 -24 -16 -35 -33 -14
-23 -20 -27 -20 -15 0 23 29 54 55 59 29 6 46 5 39 -1z m-516 -56 c-3 -3 -9 2
-12 12 -6 14 -5 15 5 6 7 -7 10 -15 7 -18z m468 -26 c-12 -28 -14 -29 -11 -9
5 35 18 66 22 53 2 -6 -3 -26 -11 -44z m-7471 21 c10 -11 13 -20 7 -20 -7 0
-12 4 -12 10 0 5 -7 7 -15 4 -9 -4 -15 0 -15 10 0 22 13 20 35 -4z m6972 -5
c-7 -17 -27 -21 -27 -4 0 5 5 7 10 4 6 -3 10 2 10 11 0 10 3 15 6 11 4 -3 4
-13 1 -22z m1063 16 c0 -6 -4 -13 -10 -16 -5 -3 -10 1 -10 9 0 9 5 16 10 16 6
0 10 -4 10 -9z m-7930 -51 c0 -5 -4 -10 -9 -10 -6 0 -13 5 -16 10 -3 6 1 10 9
10 9 0 16 -4 16 -10z m6818 -32 c-14 -11 -15 -14 -1 -35 14 -22 14 -23 -2 -16
-12 4 -16 3 -11 -5 3 -6 -2 -16 -13 -21 -25 -14 -31 -14 -31 -1 0 6 6 10 14
10 16 0 29 27 20 41 -7 12 14 39 30 38 6 0 4 -5 -6 -11z m532 6 c0 -8 -19 -13
-24 -6 -3 5 1 9 9 9 8 0 15 -2 15 -3z m504 -18 c-3 -9 -10 -16 -15 -16 -5 0
-4 9 3 20 14 22 21 20 12 -4z m-7871 7 c-7 -2 -19 -2 -25 0 -7 3 -2 5 12 5 14
0 19 -2 13 -5z m2500 -13 c1340 0 2437 -3 2437 -7 0 -11 -4907 0 -4917 11 -5
5 2 6 17 3 14 -4 1122 -7 2463 -7z m2460 -9 c-3 -10 0 -22 6 -25 6 -4 11 0 11
10 0 15 2 16 13 5 10 -11 9 -14 -1 -18 -6 -3 -9 -9 -6 -15 3 -5 -3 -4 -15 4
-21 13 -28 38 -14 51 10 11 11 8 6 -12z m1803 -47 c-20 -22 -36 -36 -36 -31 0
10 62 78 67 73 2 -2 -12 -21 -31 -42z m524 31 c0 -8 -4 -15 -10 -15 -5 0 -10
7 -10 15 0 8 5 15 10 15 6 0 10 -7 10 -15z m53 0 c-3 -9 -8 -14 -10 -11 -3 3
-2 9 2 15 9 16 15 13 8 -4z m-2312 -32 c12 -16 12 -17 -2 -6 -9 7 -20 9 -24 5
-5 -4 -5 -1 -1 6 9 16 11 15 27 -5z m2800 -6 c-10 -9 -11 -8 -5 6 3 10 9 15
12 12 3 -3 0 -11 -7 -18z m49 -17 c0 -13 -1 -13 -10 0 -5 8 -10 22 -10 30 0
13 1 13 10 0 5 -8 10 -22 10 -30z m-2920 15 c7 -8 8 -15 2 -15 -5 0 -15 7 -22
15 -7 8 -8 15 -2 15 5 0 15 -7 22 -15z m2297 -7 c-3 -8 -6 -5 -6 6 -1 11 2 17
5 13 3 -3 4 -12 1 -19z m56 5 c-7 -20 -33 -60 -33 -52 0 9 31 69 35 69 3 0 2
-8 -2 -17z m-2218 -53 c26 -27 33 -40 24 -45 -7 -5 -10 -4 -6 2 4 6 -1 17 -10
24 -15 12 -16 12 -10 -3 4 -12 2 -15 -9 -11 -10 4 -12 9 -6 15 7 7 3 17 -10
30 -22 22 -38 17 -18 -7 10 -11 10 -15 0 -15 -6 0 -14 9 -17 20 -3 11 -8 18
-12 16 -4 -3 -13 -1 -21 4 -11 7 -4 9 22 8 29 -1 45 -10 73 -38z m1668 25 c-3
-9 -8 -14 -10 -11 -3 3 -2 9 2 15 9 16 15 13 8 -4z m-38 -5 c3 -6 -5 -14 -19
-20 -18 -7 -24 -14 -20 -27 5 -15 4 -15 -5 -3 -7 11 -5 20 11 37 25 26 25 26
33 13z m537 -12 c-7 -7 -12 -8 -12 -2 0 14 12 26 19 19 2 -3 -1 -11 -7 -17z
m535 -12 c-8 -9 -21 -29 -28 -46 -8 -16 -20 -32 -28 -35 -10 -4 -11 -2 -4 7 6
7 23 33 37 56 15 24 30 41 33 38 3 -3 -1 -12 -10 -20z m-2767 -14 c0 -5 10
-14 23 -20 12 -6 17 -11 11 -11 -7 -1 -22 8 -35 19 -13 10 -18 19 -11 20 6 0
12 -4 12 -8z m2774 -57 c7 -28 6 -29 -7 -10 -8 10 -12 25 -10 33 7 16 9 14 17
-23z m-594 -28 c0 -12 0 -11 -24 28 l-17 30 20 -24 c12 -13 21 -28 21 -34z
m-1962 -3 c2 -1 -4 -4 -13 -8 -9 -3 -13 -2 -10 3 3 5 0 13 -6 17 -6 3 -15 0
-20 -7 -4 -7 -11 -10 -16 -6 -4 5 -1 12 7 17 13 8 12 10 -3 10 -10 0 -15 5
-12 10 4 6 19 2 38 -12 18 -12 33 -22 35 -24z m1342 16 c8 -5 11 -12 7 -17 -5
-4 -12 -1 -16 6 -5 7 -14 10 -20 6 -9 -5 -9 -11 1 -22 12 -15 11 -15 -9 -3
-20 13 -20 15 -5 27 20 15 23 15 42 3z m1175 -20 c-3 -5 -12 -10 -18 -10 -7 0
-6 4 3 10 19 12 23 12 15 0z m30 -10 c3 -5 1 -10 -4 -10 -6 0 -11 5 -11 10 0
6 2 10 4 10 3 0 8 -4 11 -10z m-2526 -14 c9 -10 7 -17 -6 -27 -15 -12 -16 -12
-10 5 5 12 3 23 -5 28 -8 5 -9 8 -2 8 6 0 17 -6 23 -14z m46 -14 c-3 -3 -11 0
-18 7 -9 10 -8 11 6 5 10 -3 15 -9 12 -12z m1795 14 c0 -3 -4 -8 -10 -11 -5
-3 -10 -1 -10 4 0 6 5 11 10 11 6 0 10 -2 10 -4z m70 -3 c-1 -11 -37 -53 -46
-53 -4 0 3 11 16 25 13 14 18 25 12 25 -6 0 -14 -5 -17 -10 -4 -6 -11 -7 -18
-3 -7 4 -4 9 9 14 25 10 44 11 44 2z m535 -14 c11 -17 -1 -21 -15 -4 -8 9 -8
15 -2 15 6 0 14 -5 17 -11z m-2340 -20 c19 0 19 -1 3 -13 -10 -7 -14 -17 -10
-21 4 -5 1 -5 -6 -1 -7 4 -10 12 -7 17 4 5 2 9 -4 9 -5 0 -13 -4 -16 -10 -7
-12 -52 -13 -59 -2 -3 5 9 7 27 5 l32 -3 -30 15 -30 15 40 -6 c22 -3 49 -5 60
-5z m1084 -2 c14 4 14 3 1 -7 -12 -9 -9 -11 18 -7 36 4 44 -8 10 -17 -17 -4
-29 2 -46 19 -12 14 -17 21 -11 16 6 -5 19 -7 28 -4z m1209 -7 c-7 -11 -17
-20 -22 -20 -5 0 -1 9 9 20 10 11 20 20 22 20 2 0 -2 -9 -9 -20z m-1303 -20
c-19 -21 -35 -26 -35 -12 0 5 10 14 23 20 31 15 32 14 12 -8z m1340 10 c3 -5
-1 -10 -10 -10 -9 0 -13 5 -10 10 3 6 8 10 10 10 2 0 7 -4 10 -10z m-2300 -10
c3 -5 1 -10 -4 -10 -6 0 -11 5 -11 10 0 6 2 10 4 10 3 0 8 -4 11 -10z m1715
-15 c-7 -9 -15 -13 -19 -10 -3 3 1 10 9 15 21 14 24 12 10 -5z m-98 -17 c-7
-7 -12 -8 -12 -2 0 14 12 26 19 19 2 -3 -1 -11 -7 -17z m63 12 c3 -6 -1 -7 -9
-4 -18 7 -21 14 -7 14 6 0 13 -4 16 -10z m3647 -30 c2 -22 0 -40 -4 -40 -5 0
-8 18 -8 40 0 22 2 40 4 40 2 0 6 -18 8 -40z m-19125 -22 c-2 -13 -4 -5 -4 17
-1 22 1 32 4 23 2 -10 2 -28 0 -40z m14674 32 c10 -6 19 -16 19 -23 0 -9 -2
-9 -8 0 -4 7 -19 16 -32 22 -14 5 -19 10 -12 10 7 1 22 -4 33 -9z m785 -27
c-4 -4 -11 -1 -16 7 -16 25 -11 35 7 17 9 -9 13 -20 9 -24z m578 10 c7 -18 -1
-33 -17 -33 -7 0 -6 4 3 10 12 7 11 12 -5 30 -15 17 -16 20 -3 15 9 -4 19 -13
22 -22z m-16004 -38 c0 -24 -3 -46 -8 -49 -4 -2 -7 20 -7 49 0 29 3 51 8 48 4
-2 7 -24 7 -48z m13956 40 c16 -8 22 -15 14 -15 -18 1 -70 29 -54 30 7 0 25
-7 40 -15z m611 -1 c-16 -8 -36 -13 -45 -11 -11 2 -5 7 18 14 50 16 59 15 27
-3z m-677 -19 c0 -8 -2 -15 -4 -15 -2 0 -6 7 -10 15 -3 8 -1 15 4 15 6 0 10
-7 10 -15z m141 -3 c-7 -2 -18 1 -23 6 -8 8 -4 9 13 5 13 -4 18 -8 10 -11z
m1895 -10 c-17 -16 -18 -16 -5 5 7 12 15 20 18 17 3 -2 -3 -12 -13 -22z m3141
-19 c-3 -10 -5 -2 -5 17 0 19 2 27 5 18 2 -10 2 -26 0 -35z m-4972 27 c-3 -5
-12 -10 -18 -10 -7 0 -6 4 3 10 19 12 23 12 15 0z m399 1 c4 -5 -3 -7 -14 -4
-23 6 -26 13 -6 13 8 0 17 -4 20 -9z m126 5 c0 -9 -30 -14 -35 -6 -4 6 3 10
14 10 12 0 21 -2 21 -4z m-387 -13 c-13 -2 -33 -2 -45 0 -13 2 -3 4 22 4 25 0
35 -2 23 -4z m324 1 c-3 -3 -12 -4 -19 -1 -8 3 -5 6 6 6 11 1 17 -2 13 -5z
m751 -18 c-7 -8 -15 -12 -17 -11 -5 6 10 25 20 25 5 0 4 -6 -3 -14z m92 11 c0
-2 -10 -12 -22 -23 l-23 -19 19 23 c18 21 26 27 26 19z m-50 -11 c0 -3 -4 -8
-10 -11 -5 -3 -10 -1 -10 4 0 6 5 11 10 11 6 0 10 -2 10 -4z m541 -20 c-9 -10
-7 -16 5 -27 13 -11 17 -10 26 2 8 12 9 12 6 -1 -3 -8 -18 -15 -38 -16 -19 -1
-27 1 -20 6 7 4 9 13 5 20 -4 7 -2 16 6 21 20 12 23 11 10 -5z m-571 -10 c0
-3 -4 -8 -10 -11 -5 -3 -10 -1 -10 4 0 6 5 11 10 11 6 0 10 -2 10 -4z m29 -8
c-2 -2 -16 -13 -30 -26 -19 -17 -26 -19 -26 -8 0 8 3 13 7 11 4 -3 15 4 25 15
10 11 20 18 23 15 3 -3 3 -6 1 -7z m3748 -23 c-4 -8 -12 -15 -19 -14 -10 0
-10 2 0 6 6 2 12 12 12 21 0 8 3 13 6 9 4 -3 4 -13 1 -22z m-3253 -39 c-3 -9
-11 -16 -16 -16 -6 0 -5 7 2 15 16 19 5 34 -12 17 -7 -7 -16 -12 -21 -12 -5 0
1 9 14 19 19 15 26 17 32 6 4 -7 4 -20 1 -29z m3218 14 c3 -16 1 -30 -4 -30
-4 0 -8 14 -8 30 0 17 2 30 4 30 2 0 6 -13 8 -30z m-3798 -22 c-3 -5 -12 -4
-20 3 -19 16 -18 18 6 12 11 -3 17 -9 14 -15z m3832 -14 c-4 -14 -9 -24 -12
-21 -3 2 -2 17 2 31 3 15 9 25 11 22 3 -3 2 -17 -1 -32z m-19092 -33 c-4 -17
-9 -30 -11 -27 -3 2 -2 19 2 36 9 41 17 33 9 -9z m15236 30 c0 -5 -7 -11 -14
-14 -10 -4 -13 -1 -9 9 6 15 23 19 23 5z m575 -11 c3 -5 2 -10 -4 -10 -5 0
-13 5 -16 10 -3 6 -2 10 4 10 5 0 13 -4 16 -10z m-677 -19 c11 -7 10 -9 -3
-14 -9 -4 -14 -3 -10 2 3 5 -1 12 -7 14 -7 3 -8 6 -3 6 6 0 16 -3 23 -8z m587
-1 c-3 -5 -16 -15 -28 -21 -19 -9 -19 -8 3 10 28 23 34 26 25 11z m3342 -27
c-3 -10 -5 -4 -5 12 0 17 2 24 5 18 2 -7 2 -21 0 -30z m-19090 -15 c-3 -8 -6
-5 -6 6 -1 11 2 17 5 13 3 -3 4 -12 1 -19z m15113 18 c0 -2 -7 -7 -16 -10 -8
-3 -12 -2 -9 4 6 10 25 14 25 6z m680 -22 c0 -14 -3 -14 -15 -4 -8 7 -15 14
-15 16 0 2 7 4 15 4 8 0 15 -7 15 -16z m-655 -4 c-3 -5 -11 -10 -16 -10 -6 0
-7 5 -4 10 3 6 11 10 16 10 6 0 7 -4 4 -10z m525 -10 c0 -5 -5 -10 -11 -10 -5
0 -7 5 -4 10 3 6 8 10 11 10 2 0 4 -4 4 -10z m107 -6 c-3 -3 -12 -4 -19 -1 -8
3 -5 6 6 6 11 1 17 -2 13 -5z m-800 -10 c-3 -3 -12 -4 -19 -1 -8 3 -5 6 6 6
11 1 17 -2 13 -5z m51 -12 c-10 -2 -18 -8 -18 -13 0 -12 27 -12 35 1 3 6 11
10 18 10 6 0 1 -7 -11 -16 -28 -19 -51 -12 -49 14 1 14 6 18 22 13 17 -4 18
-6 3 -9z m-15021 -14 c-3 -8 -6 -5 -6 6 -1 11 2 17 5 13 3 -3 4 -12 1 -19z
m14933 18 c0 -3 -4 -8 -10 -11 -5 -3 -10 -1 -10 4 0 6 5 11 10 11 6 0 10 -2
10 -4z m680 -1 c0 -2 -10 -9 -22 -15 -22 -11 -22 -10 -4 4 21 17 26 19 26 11z
m10 -30 c-7 -8 -18 -15 -24 -15 -6 0 -2 7 8 15 25 19 32 19 16 0z m-646 -19
c-21 -15 -30 -14 -19 3 3 6 14 11 23 11 13 0 13 -2 -4 -14z m586 4 c13 -9 13
-10 0 -10 -8 0 -22 5 -30 10 -13 9 -13 10 0 10 8 0 22 -5 30 -10z m3527 -12
c-3 -8 -6 -5 -6 6 -1 11 2 17 5 13 3 -3 4 -12 1 -19z m-19063 -4 c3 -8 2 -12
-4 -9 -6 3 -10 10 -10 16 0 14 7 11 14 -7z m15503 0 c-3 -3 -12 -4 -19 -1 -8
3 -5 6 6 6 11 1 17 -2 13 -5z m-673 -17 c30 -13 29 -13 -15 -12 -24 1 -55 3
-69 5 -24 2 -24 3 5 10 42 11 47 11 79 -3z m-14834 -12 c10 -12 10 -15 -4 -15
-9 0 -16 7 -16 15 0 8 2 15 4 15 2 0 9 -7 16 -15z m15371 -19 l-25 -14 33 -7
c18 -4 30 -9 28 -12 -3 -2 -25 1 -48 8 l-44 12 30 13 c39 17 57 17 26 0z
m-605 -11 c-11 -8 -24 -15 -30 -15 -5 0 -1 7 10 15 10 8 24 14 29 14 6 0 1 -6
-9 -14z m674 -5 c8 -5 11 -10 5 -10 -5 0 -17 5 -25 10 -8 5 -10 10 -5 10 6 0
17 -5 25 -10z m3617 -12 c-3 -8 -6 -5 -6 6 -1 11 2 17 5 13 3 -3 4 -12 1 -19z
m-3870 -34 c-3 -3 -12 -4 -19 -1 -8 3 -5 6 6 6 11 1 17 -2 13 -5z m-92 -23 c8
-14 -35 -25 -47 -13 -8 8 -4 9 12 5 16 -4 21 -3 16 5 -4 7 -3 12 3 12 5 0 12
-4 16 -9z m95 4 c0 -14 -52 -25 -68 -14 -16 10 -16 10 0 5 10 -3 20 -1 23 4 6
10 45 14 45 5z m-267 -22 c-7 -2 -19 -2 -25 0 -7 3 -2 5 12 5 14 0 19 -2 13
-5z m-125 -10 c-10 -2 -28 -2 -40 0 -13 2 -5 4 17 4 22 1 32 -1 23 -4z
m-14709 -128 l0 -20 -9 20 c-5 11 -9 27 -9 35 -1 13 0 13 9 0 5 -8 9 -24 9
-35z m18916 16 c-7 -23 -25 -19 -25 5 0 8 5 12 10 9 6 -3 10 -1 10 6 0 7 3 10
6 6 3 -3 3 -15 -1 -26z m-18930 -41 c17 -33 18 -40 7 -40 -5 0 -13 16 -19 35
-14 43 -9 45 12 5z m18916 1 c5 8 9 9 9 3 0 -5 -6 -19 -14 -29 -13 -17 -13
-17 -13 11 0 16 2 23 5 15 4 -11 6 -11 13 0z m19 -48 c-11 -17 -11 -17 -6 0 3
10 6 24 7 30 0 9 2 9 5 0 3 -7 0 -20 -6 -30z m-101 -246 c0 -21 -1 -21 -9 -2
-12 28 -12 37 0 30 6 -3 10 -16 9 -28z m-18739 -7 c0 -5 -5 -10 -11 -10 -5 0
-7 5 -4 10 3 6 8 10 11 10 2 0 4 -4 4 -10z m18755 -32 c-11 -6 -23 -16 -27
-22 -5 -8 -8 -7 -8 1 0 12 28 32 45 32 6 0 1 -5 -10 -11z m-92 -173 c-3 -9 -8
-14 -10 -11 -3 3 -2 9 2 15 9 16 15 13 8 -4z m5 -63 c-4 -2 -5 -9 -2 -14 4 -6
2 -8 -3 -5 -6 4 -13 18 -15 32 -5 25 -5 25 12 8 9 -10 13 -20 8 -21z m-89
-103 c-12 -23 -12 -32 1 -24 6 3 7 -1 4 -10 -9 -21 -17 -11 -19 23 -1 18 3 29
11 29 9 0 10 -5 3 -18z m5 -104 c-4 -8 -11 -12 -16 -9 -6 4 -5 10 3 15 19 12
19 11 13 -6z m-18416 -50 c-3 -3 -9 2 -12 12 -6 14 -5 15 5 6 7 -7 10 -15 7
-18z m18338 0 c4 -8 10 -13 14 -10 5 3 8 -3 7 -14 0 -11 -4 -18 -8 -15 -4 2
-9 1 -12 -3 -2 -5 -2 -2 -1 5 5 18 -7 43 -17 36 -5 -3 -9 0 -9 5 0 16 20 13
26 -4z m-18289 -27 c0 -18 -2 -27 -5 -20 -2 6 -7 10 -11 8 -4 -3 -7 4 -7 14 0
10 4 16 8 14 4 -3 8 0 8 5 0 6 2 11 3 11 2 0 4 -15 4 -32z m18250 -133 c5 -4
2 -5 -6 0 -11 6 -13 4 -8 -8 9 -23 0 -21 -13 2 -7 15 -7 19 5 17 8 -1 18 -6
22 -11z m-37 -17 c11 -22 10 -22 -4 -4 -11 13 -16 15 -16 6 0 -7 -3 -11 -6 -7
-6 5 3 27 11 27 2 0 9 -10 15 -22z m-18144 -16 c-17 -16 -18 -16 -5 5 7 12 15
20 18 17 3 -2 -3 -12 -13 -22z m18130 -31 c0 -16 -4 -27 -7 -25 -4 2 -6 12 -4
22 2 9 4 20 4 25 1 4 3 7 5 7 2 0 3 -13 2 -29z m-18048 -106 c-3 -3 -9 2 -12
12 -6 14 -5 15 5 6 7 -7 10 -15 7 -18z m71 -77 c-16 -31 -16 -31 -23 -13 -3 9
-2 14 3 11 5 -3 11 1 15 9 3 8 8 15 11 15 3 0 0 -10 -6 -22z m31 2 c-6 -11
-13 -20 -16 -20 -2 0 0 9 6 20 6 11 13 20 16 20 2 0 0 -9 -6 -20z m17833 13
c-7 -3 -13 -9 -13 -14 0 -6 4 -7 10 -4 6 4 7 -1 3 -11 -6 -16 -8 -15 -16 4
-11 25 -32 31 -23 6 3 -8 2 -13 -3 -9 -5 3 -11 -1 -14 -7 -2 -7 -4 -2 -3 12 1
23 6 26 36 27 19 0 29 -2 23 -4z m-17763 -93 c0 -5 -7 -7 -15 -4 -8 4 -15 8
-15 10 0 2 7 4 15 4 8 0 15 -4 15 -10z m17670 6 c0 -2 -7 -6 -15 -10 -8 -3
-15 -1 -15 4 0 6 7 10 15 10 8 0 15 -2 15 -4z m-17650 -26 c0 -5 -5 -10 -11
-10 -5 0 -7 5 -4 10 3 6 8 10 11 10 2 0 4 -4 4 -10z m73 -133 c4 3 7 -8 7 -25
0 -29 -2 -31 -19 -20 -20 12 -33 42 -23 52 3 3 10 1 17 -4 7 -5 15 -7 18 -3z
m17427 -88 c-7 -11 -14 -18 -17 -15 -3 3 0 12 7 21 18 21 23 19 10 -6z
m-17186 -148 c4 -5 1 -22 -4 -37 -9 -21 -7 -31 7 -48 l18 -21 -23 19 c-13 12
-20 26 -17 36 3 10 -2 23 -10 30 -13 11 -13 15 -3 21 17 11 26 11 32 0z
m17005 -17 c-11 -11 -17 -27 -14 -35 3 -9 -6 -25 -22 -39 l-28 -25 23 26 c19
22 21 30 12 53 -13 34 -7 44 24 42 25 -1 25 -1 5 -22z m51 12 c0 -2 -12 -11
-27 -20 l-28 -17 24 20 c23 21 31 25 31 17z m-17099 -23 c13 -17 13 -17 -6 -3
-11 8 -22 16 -24 17 -2 2 0 3 6 3 6 0 17 -8 24 -17z m126 -60 c0 -17 -5 -16
-23 1 -12 13 -12 15 4 13 10 0 19 -7 19 -14z m16828 -3 c-10 -11 -21 -18 -23
-15 -3 3 3 12 14 20 27 20 30 18 9 -5z m32 2 c-10 -10 -15 -21 -12 -24 3 -2
-2 -5 -10 -5 -12 0 -10 6 7 24 25 27 39 32 15 5z m-16862 -33 c4 -5 1 -9 -5
-9 -6 0 -8 -4 -5 -10 3 -5 0 -7 -9 -4 -8 3 -17 11 -19 18 -6 14 30 19 38 5z
m77 -43 c13 -19 9 -28 -9 -21 -10 4 -24 8 -31 9 -30 5 -29 21 1 22 18 1 35 -4
39 -10z m16674 5 c-3 -5 1 -11 9 -15 8 -3 15 -11 15 -18 0 -11 -2 -11 -8 0 -5
7 -16 10 -25 6 -19 -7 -20 -4 -11 20 3 9 10 16 16 16 5 0 7 -4 4 -9z m48 -3
c-3 -4 -11 -5 -19 -1 -21 7 -19 12 4 10 11 0 18 -5 15 -9z m-16648 -76 c-3 -3
-1 -11 5 -19 6 -7 9 -13 5 -13 -3 0 -8 0 -11 0 -3 0 -4 3 -2 6 1 3 -9 11 -22
19 l-24 13 27 0 c15 0 24 -3 22 -6z m74 -84 c0 -11 -28 -10 -35 1 -3 6 4 9 15
8 11 -1 20 -5 20 -9z m35 2 c3 -5 2 -10 -4 -10 -5 0 -13 5 -16 10 -3 6 -2 10
4 10 5 0 13 -4 16 -10z m16310 0 c-3 -5 -12 -10 -18 -10 -7 0 -6 4 3 10 19 12
23 12 15 0z m-16259 -15 c10 -8 15 -14 9 -14 -5 0 -19 6 -29 14 -11 8 -15 15
-10 15 6 0 19 -7 30 -15z m16208 0 c-10 -8 -23 -15 -28 -15 -6 0 -1 7 10 15
10 8 23 15 28 15 6 0 1 -7 -10 -15z m-16156 -75 c14 0 14 2 3 9 -10 7 -6 9 13
8 22 -2 24 -4 11 -13 -11 -8 -12 -13 -4 -16 6 -2 13 -16 14 -32 3 -26 3 -27
-15 -11 -10 9 -16 23 -13 31 3 9 -1 14 -12 14 -9 0 -13 -5 -9 -11 3 -6 -8 -3
-25 5 -27 14 -29 19 -19 36 12 18 12 18 26 -1 7 -10 21 -19 30 -19z m16078 8
c-10 -6 -22 -6 -26 -2 -5 5 3 10 18 11 22 1 24 0 8 -9z m-3 -32 c6 -16 -16
-40 -26 -29 -13 13 -7 22 11 16 14 -5 13 -3 -3 10 -17 14 -17 16 -4 17 9 0 19
-6 22 -14z m-15988 -47 c-4 -6 0 -9 10 -7 11 2 19 -4 20 -14 4 -25 -7 -22 -35
7 -20 21 -21 25 -6 25 10 0 14 -5 11 -11z m15924 -6 c-30 -39 -45 -42 -45 -10
0 18 6 24 29 25 27 2 29 1 16 -15z m-165 -115 c-3 -5 -12 -4 -20 3 -19 16 -18
18 6 12 11 -3 17 -9 14 -15z m-70 -39 c-6 -11 -31 -12 -37 -1 -3 4 6 8 19 8
13 1 21 -2 18 -7z m-15389 -17 c-3 -3 -11 0 -18 7 -9 10 -8 11 6 5 10 -3 15
-9 12 -12z m29 -8 c-30 -16 -48 -18 -21 -3 9 6 15 14 12 19 -3 4 4 6 15 3 19
-5 19 -6 -6 -19z m15261 17 c-3 -6 3 -14 12 -20 27 -16 9 -13 -22 3 -23 12
-24 15 -8 19 10 3 19 5 21 6 2 0 1 -3 -3 -8z m40 -1 c-3 -5 -12 -10 -18 -10
-7 0 -6 4 3 10 19 12 23 12 15 0z m-15270 -60 c3 -6 -1 -7 -9 -4 -18 7 -21 14
-7 14 6 0 13 -4 16 -10z m141 -16 c18 -14 18 -14 -6 -3 -31 14 -36 19 -24 19
6 0 19 -7 30 -16z m-101 -4 c3 -6 -1 -7 -9 -4 -18 7 -21 14 -7 14 6 0 13 -4
16 -10z m65 -1 c12 -8 10 -9 -9 -4 -14 4 -21 3 -18 -2 4 -5 0 -10 -8 -10 -11
0 -12 4 -4 14 14 16 19 16 39 2z m15019 -2 c8 -10 7 -14 -4 -14 -8 0 -12 5 -8
10 3 5 -4 6 -18 2 -19 -5 -21 -4 -9 4 20 14 25 14 39 -2z m51 9 c0 -2 -7 -7
-16 -10 -8 -3 -12 -2 -9 4 6 10 25 14 25 6z m-14885 -85 c0 -6 7 -16 15 -21 8
-5 12 -10 8 -10 -4 0 -21 9 -39 19 -20 12 -26 21 -17 24 19 8 33 2 33 -12z
m14650 7 c3 -3 -1 -8 -10 -12 -9 -3 -13 -2 -10 4 8 13 -1 13 -24 1 -13 -7 -18
-6 -18 3 0 12 51 15 62 4z m-40 -28 c-3 -5 -12 -10 -18 -10 -7 0 -6 4 3 10 19
12 23 12 15 0z m-98 -46 c-3 -3 -12 -4 -19 -1 -8 3 -5 6 6 6 11 1 17 -2 13 -5z
m-14252 -22 c-3 -3 -11 0 -18 7 -9 10 -8 11 6 5 10 -3 15 -9 12 -12z m244 -61
c9 -6 -3 -10 -38 -12 -56 -4 -71 7 -18 14 17 2 34 4 37 5 3 1 11 -2 19 -7z
m54 2 c-7 -2 -19 -2 -25 0 -7 3 -2 5 12 5 14 0 19 -2 13 -5z m13497 -3 c0 -5
-7 -10 -16 -10 -8 0 -12 5 -9 10 3 6 10 10 16 10 5 0 9 -4 9 -10z m43 4 c3 -4
0 -13 -8 -20 -18 -18 -31 -18 -16 -1 6 8 8 17 4 20 -3 4 -2 7 4 7 5 0 12 -3
16 -6z m97 -16 c0 -6 -7 -7 -16 -4 -9 3 -27 6 -40 6 -13 0 -24 3 -24 8 0 4 18
6 40 4 22 -2 40 -9 40 -14z m-13690 -18 c0 -13 -20 -13 -40 0 -12 8 -9 10 13
10 15 0 27 -4 27 -10z m13643 3 c-7 -2 -21 -2 -30 0 -10 3 -4 5 12 5 17 0 24
-2 18 -5z m-13356 -49 c-3 -3 -12 -4 -19 -1 -8 3 -5 6 6 6 11 1 17 -2 13 -5z
m48 -12 c-3 -3 -11 0 -18 7 -9 10 -8 11 6 5 10 -3 15 -9 12 -12z m149 3 c-4
-9 2 -16 18 -19 12 -3 32 -7 43 -9 13 -3 9 -5 -10 -6 -38 -1 -84 27 -64 40 19
12 19 11 13 -6z m233 -7 c-3 -8 -6 -5 -6 6 -1 11 2 17 5 13 3 -3 4 -12 1 -19z
m12170 0 c-3 -8 -6 -5 -6 6 -1 11 2 17 5 13 3 -3 4 -12 1 -19z m42 1 c-16 -10
-23 -4 -14 10 3 6 11 8 17 5 6 -4 5 -9 -3 -15z m211 1 c0 -5 -6 -11 -12 -14
-7 -3 3 -3 22 0 19 4 32 3 28 -1 -4 -4 -38 -9 -75 -10 -37 -2 -59 -1 -48 1 11
3 31 7 43 10 15 3 22 10 18 19 -3 9 0 12 10 8 7 -3 14 -9 14 -13z m145 10 c-3
-5 -12 -10 -18 -10 -7 0 -6 4 3 10 19 12 23 12 15 0z m-12868 -6 c-3 -3 -12
-4 -19 -1 -8 3 -5 6 6 6 11 1 17 -2 13 -5z m264 -4 c-7 -4 -30 -6 -50 -3 -27
3 -32 1 -21 -6 13 -9 13 -11 -2 -11 -21 0 -33 17 -16 23 23 8 102 6 89 -3z
m12323 4 c20 -7 11 -24 -12 -24 -15 0 -15 2 -2 11 12 8 9 10 -12 6 -16 -2 -28
0 -28 4 0 10 31 12 54 3z m203 0 c-3 -3 -12 -4 -19 -1 -8 3 -5 6 6 6 11 1 17
-2 13 -5z m113 -4 c0 -5 -7 -10 -16 -10 -8 0 -12 5 -9 10 3 6 10 10 16 10 5 0
9 -4 9 -10z m-12861 -19 c8 -5 -5 -7 -35 -4 -68 6 -77 11 -24 12 25 0 51 -3
59 -8z m12774 2 c-7 -2 -19 -2 -25 0 -7 3 -2 5 12 5 14 0 19 -2 13 -5z
m-12550 -10 c-7 -2 -21 -2 -30 0 -10 3 -4 5 12 5 17 0 24 -2 18 -5z m12270 0
c-7 -2 -19 -2 -25 0 -7 3 -2 5 12 5 14 0 19 -2 13 -5z"/>
<path d="M17610 18540 c0 -5 5 -10 11 -10 5 0 7 5 4 10 -3 6 -8 10 -11 10 -2
0 -4 -4 -4 -10z"/>
<path d="M1095 18100 c-3 -5 -1 -10 4 -10 6 0 11 5 11 10 0 6 -2 10 -4 10 -3
0 -8 -4 -11 -10z"/>
<path d="M977 18026 c-4 -10 -1 -13 9 -9 7 3 14 9 14 14 0 14 -17 10 -23 -5z"/>
<path d="M11360 16110 c0 -5 5 -10 11 -10 5 0 7 5 4 10 -3 6 -8 10 -11 10 -2
0 -4 -4 -4 -10z"/>
<path d="M4415 12221 c-87 -53 -87 -50 -83 -651 3 -576 0 -549 76 -600 l36
-25 640 -3 641 -2 44 22 c25 13 54 36 65 51 21 28 21 39 21 580 l0 552 -22 31
c-47 66 -23 64 -740 64 -613 0 -650 -1 -678 -19z m1125 -626 l0 -325 -440 0
-440 0 0 325 0 325 440 0 440 0 0 -325z"/>
<path d="M6390 12218 c-18 -13 -43 -36 -54 -51 -21 -28 -21 -38 -24 -560 l-2
-532 22 -45 c14 -26 37 -53 58 -65 34 -19 53 -20 675 -23 l640 -2 45 22 c30
15 53 37 67 63 l23 40 -3 537 c-2 527 -2 537 -23 565 -11 15 -36 38 -54 51
l-33 22 -652 0 -652 0 -33 -22z m1122 -623 l3 -325 -440 2 -440 3 -3 300 c-1
165 0 310 3 323 l5 22 435 0 434 0 3 -325z"/>
<path d="M8372 12223 c-18 -9 -43 -30 -55 -47 l-22 -31 0 -552 c0 -541 0 -552
21 -580 11 -15 40 -38 65 -51 l44 -22 640 2 640 3 37 23 c22 13 45 40 58 66
20 43 20 53 18 574 -3 520 -3 531 -24 559 -11 15 -36 38 -54 51 l-33 22 -651
0 c-579 0 -655 -2 -684 -17z m1118 -628 l0 -325 -440 0 -440 0 0 325 0 325
440 0 440 0 0 -325z"/>
<path d="M10337 12215 c-70 -48 -67 -24 -67 -620 0 -594 -3 -569 67 -622 l36
-28 657 0 c732 0 678 -5 737 72 l28 36 0 536 c0 523 -1 537 -21 571 -11 19
-35 45 -54 57 l-33 23 -656 0 -656 0 -38 -25z m1133 -620 l0 -325 -440 0 -440
0 0 325 0 325 440 0 440 0 0 -325z"/>
<path d="M4420 10557 c-30 -16 -51 -37 -67 -67 l-23 -43 0 -516 c0 -516 0
-517 23 -561 12 -25 37 -55 56 -67 l34 -23 649 0 c718 0 694 -2 741 64 l22 31
0 552 c0 541 0 552 -21 580 -11 15 -40 38 -64 51 l-44 22 -632 0 -631 0 -43
-23z m1120 -632 l0 -325 -440 0 -440 0 0 325 0 325 440 0 440 0 0 -325z"/>
<path d="M6400 10558 c-30 -15 -53 -37 -67 -63 l-23 -40 3 -537 c2 -527 2
-537 23 -565 11 -15 36 -38 54 -50 l33 -23 652 0 652 0 33 23 c18 12 43 35 54
50 21 28 21 36 21 575 l0 547 -24 34 c-13 18 -42 42 -65 52 -39 17 -78 19
-671 19 l-631 0 -44 -22z m1112 -633 l-3 -325 -433 0 c-386 0 -435 2 -440 16
-8 21 -8 619 1 627 3 4 202 7 442 7 l436 0 -3 -325z"/>
<path d="M4425 8896 c-38 -17 -60 -41 -80 -89 -13 -31 -15 -110 -15 -550 l0
-514 23 -43 c16 -30 37 -51 67 -67 l44 -23 647 2 c639 3 648 3 676 24 15 11
38 36 51 54 l22 33 0 534 c0 504 -1 536 -19 571 -11 22 -35 46 -59 60 l-40 22
-643 0 c-512 -1 -650 -3 -674 -14z m1113 -633 l2 -323 -440 0 -440 0 0 325 0
325 438 -2 437 -3 3 -322z"/>
<path d="M6390 8888 c-18 -13 -43 -36 -54 -51 -21 -28 -21 -38 -23 -565 l-3
-537 23 -40 c14 -26 37 -48 67 -62 l44 -23 631 0 c593 0 632 2 671 19 23 10
52 34 65 52 l24 34 0 547 c0 539 0 547 -21 575 -11 15 -36 38 -54 51 l-33 22
-652 0 -652 0 -33 -22z m1122 -623 l3 -325 -440 2 -440 3 -3 310 c-1 170 0
315 3 322 3 10 99 13 439 13 l435 0 3 -325z"/>
<path d="M9300 9668 c-18 -13 -43 -36 -54 -51 -21 -28 -21 -33 -24 -935 l-2
-907 22 -44 c45 -88 34 -86 413 -89 372 -3 414 2 534 61 89 43 195 149 243
242 56 109 72 175 72 295 0 171 -55 302 -174 417 l-59 56 30 44 c66 95 109
229 109 338 0 82 -27 184 -71 274 -75 152 -212 263 -375 306 -45 12 -121 15
-345 15 -280 0 -287 0 -319 -22z m608 -313 c35 -11 65 -29 95 -60 125 -124 95
-357 -56 -438 -38 -20 -59 -22 -219 -25 l-178 -4 0 271 0 271 153 0 c108 0
168 -4 205 -15z m122 -876 c97 -44 150 -128 150 -240 0 -115 -43 -195 -132
-244 l-53 -30 -222 -3 -223 -4 0 271 0 271 218 0 c197 0 221 -2 262 -21z"/>
<path d="M10885 9679 c-37 -10 -69 -39 -90 -79 -13 -26 -15 -140 -13 -944 3
-906 3 -915 24 -942 35 -47 70 -67 126 -72 61 -4 106 19 145 77 l23 34 0 911
c0 1031 6 958 -80 1003 -45 24 -84 27 -135 12z"/>
<path d="M11465 9676 c-35 -15 -83 -67 -90 -99 -3 -12 -4 -430 -3 -929 3 -902
3 -907 24 -935 11 -15 36 -38 54 -50 l33 -23 482 0 482 0 34 23 c89 59 92 208
6 271 -27 20 -44 21 -410 26 l-382 5 -5 815 c-6 919 1 848 -84 890 -48 23 -97
25 -141 6z"/>
<path d="M12910 9668 c-26 -13 -53 -38 -65 -58 -20 -34 -20 -50 -20 -940 0
-865 1 -907 19 -943 10 -20 33 -47 50 -60 31 -22 32 -22 516 -25 551 -3 533
-5 577 78 29 55 29 105 0 160 -42 80 -40 80 -464 80 l-373 0 -2 814 c-3 805
-3 815 -24 842 -53 72 -137 92 -214 52z"/>
<path d="M8940 7259 c-58 -23 -92 -79 -92 -149 0 -53 18 -93 57 -130 l27 -25
2677 -3 2678 -2 33 22 c50 34 72 83 67 146 -4 56 -24 91 -71 126 l-27 21
-2662 2 c-1742 1 -2671 -2 -2687 -8z"/>
<path d="M8910 6524 c-43 -36 -62 -78 -62 -135 1 -58 21 -100 64 -131 l33 -23
2672 0 2672 0 27 21 c47 35 67 70 71 126 5 65 -17 112 -66 145 l-34 23 -2673
0 -2672 0 -32 -26z"/>
<path d="M8940 5829 c-58 -23 -91 -77 -92 -150 0 -58 24 -104 72 -137 l33 -22
2094 2 2095 3 33 37 c78 85 60 211 -36 260 -32 17 -152 18 -2104 17 -1340 0
-2079 -4 -2095 -10z"/>
<path d="M8959 5121 c-73 -23 -111 -79 -111 -163 1 -68 35 -120 94 -142 39
-15 195 -16 1775 -14 l1732 3 28 21 c94 70 90 222 -7 279 -35 20 -45 20 -1760
22 -949 1 -1737 -2 -1751 -6z"/>
<path d="M16050 5900 c0 -5 5 -10 10 -10 6 0 10 5 10 10 0 6 -4 10 -10 10 -5
0 -10 -4 -10 -10z"/>
<path d="M14250 5493 c-52 -19 -100 -110 -100 -188 0 -31 -2 -32 -50 -38 -63
-8 -121 -39 -146 -80 -17 -29 -19 -57 -22 -270 -5 -336 8 -371 143 -396 32 -6
112 -11 177 -11 l118 0 0 -49 0 -49 -157 -4 c-179 -5 -207 -13 -247 -76 -34
-52 -41 -100 -22 -147 9 -21 24 -44 34 -52 34 -28 98 -53 135 -53 35 0 37 -2
37 -33 0 -57 28 -131 60 -162 29 -28 37 -30 106 -30 74 0 76 1 109 36 32 35
55 104 55 164 0 22 4 25 36 25 56 0 131 37 156 78 21 34 22 46 22 296 1 238
-1 264 -18 300 -31 62 -78 78 -263 84 l-153 5 0 48 0 49 138 0 c161 0 205 10
249 57 105 111 24 273 -137 273 -24 0 -26 5 -37 70 -12 79 -30 112 -76 140
-31 19 -111 26 -147 13z"/>
<path d="M15932 4985 c0 -16 2 -22 5 -12 2 9 2 23 0 30 -3 6 -5 -1 -5 -18z"/>
<path d="M14858 3103 c7 -3 16 -2 19 1 4 3 -2 6 -13 5 -11 0 -14 -3 -6 -6z"/>
<path d="M850 1332 c6 -13 14 -21 18 -18 3 4 -2 14 -12 24 -18 16 -18 16 -6
-6z"/>
<path d="M1095 1100 c3 -5 8 -10 11 -10 2 0 4 5 4 10 0 6 -5 10 -11 10 -5 0
-7 -4 -4 -10z"/>
<path d="M18090 1099 c0 -5 5 -7 10 -4 6 3 10 8 10 11 0 2 -4 4 -10 4 -5 0
-10 -5 -10 -11z"/>
<path d="M1240 946 c0 -2 7 -7 16 -10 8 -3 12 -2 9 4 -6 10 -25 14 -25 6z"/>
<path d="M1504 709 c-4 -7 -3 -9 4 -5 5 3 12 0 15 -6 2 -7 7 -10 11 -7 4 3 0
12 -8 18 -11 9 -16 9 -22 0z"/>
<path d="M17535 620 c-3 -5 -2 -10 4 -10 5 0 13 5 16 10 3 6 2 10 -4 10 -5 0
-13 -4 -16 -10z"/>
<path d="M2094 18854 c-18 -14 -18 -15 4 -4 12 6 22 13 22 15 0 8 -5 6 -26
-11z"/>
<path d="M17286 18750 c-15 -5 -16 -9 -7 -14 7 -5 18 -3 24 3 14 14 6 20 -17
11z"/>
<path d="M1304 18349 c1 -7 12 -14 25 -16 14 -2 20 1 16 8 -4 6 -13 8 -20 5
-8 -3 -16 -1 -19 5 -2 5 -3 4 -2 -2z"/>
<path d="M18200 18030 c0 -5 5 -10 10 -10 6 0 10 5 10 10 0 6 -4 10 -10 10 -5
0 -10 -4 -10 -10z"/>
<path d="M18695 17389 c-4 -6 -5 -12 -2 -15 2 -3 7 2 10 11 7 17 1 20 -8 4z"/>
<path d="M19161 3184 c0 -11 3 -14 6 -6 3 7 2 16 -1 19 -3 4 -6 -2 -5 -13z"/>
<path d="M106 2770 c7 -35 26 -58 33 -39 2 6 -1 14 -7 18 -6 4 -16 18 -22 31
-9 22 -9 21 -4 -10z"/>
<path d="M770 1401 c0 -6 4 -13 10 -16 6 -3 7 1 4 9 -7 18 -14 21 -14 7z"/>
<path d="M980 1170 c0 -5 5 -10 10 -10 6 0 10 5 10 10 0 6 -4 10 -10 10 -5 0
-10 -4 -10 -10z"/>
<path d="M18200 1170 c0 -5 5 -10 10 -10 6 0 10 5 10 10 0 6 -4 10 -10 10 -5
0 -10 -4 -10 -10z"/>
<path d="M17855 859 c4 -6 13 -8 20 -5 8 3 16 1 19 -5 2 -5 3 -4 2 2 -1 7 -12
14 -25 16 -14 2 -20 -1 -16 -8z"/>
</g>
</svg>
